ISO-10303-21;
HEADER;
/* Generated by software containing ST-Developer
 * from STEP Tools, Inc. (www.steptools.com) 
 */
/* OPTION: using custom renumber hook */

FILE_DESCRIPTION(
/* description */ ('STEP AP242 Edition 2',
'CAx-IF Rec.Pracs.---Representation and Presentation of Product Manufa
cturing Information (PMI)---4.0---2014-10-13',
'CAx-IF Rec.Pracs.---3D Tessellated Geometry---0.4---2014-09-14','2;1',
'CAx-IF Rec.Pracs.---User Defined Attributes---1.5---2016-08-15'),
/* implementation_level */ '2;1');

FILE_NAME(
/* name */ '6a222b4690d3420bb4b3efcb',
/* time_stamp */ '2026-06-05T01:49:59Z',
/* author */ (''),
/* organization */ (''),
/* preprocessor_version */ 'ST-DEVELOPER v20',
/* originating_system */ 'ONSHAPE BY PTC INC, 1.215',
/* authorisation */ '  ');

FILE_SCHEMA (('AP242_MANAGED_MODEL_BASED_3D_ENGINEERING_MIM_LF { 1 0 10303 442 3 1 4 }'));
ENDSEC;

DATA;
#10=B_SPLINE_CURVE_WITH_KNOTS('',3,(#1620,#1621,#1622,#1623,#1624,#1625,
#1626,#1627,#1628,#1629,#1630,#1631,#1632,#1633,#1634,#1635,#1636,#1637,
#1638,#1639,#1640),.UNSPECIFIED.,.T.,.F.,(1,1,1,1,1,1,1,1,1,1,1,1,1,1,1,
1,1,1,1,1,1,1,1,1,1),(-0.00542332575003609,-0.00361555050002406,-0.00180777525001203,
0.,0.00180777525001203,0.00361555050002406,0.00542332575003609,0.00723110100004812,
0.00903887625006015,0.0108466515000722,0.0126544267500842,0.0135583143750902,
0.0144622020000962,0.0153660896251023,0.0162699772501083,0.0180777525001203,
0.0198855277501323,0.0216933030001444,0.0235010782501564,0.0253088535001684,
0.0271166287501804,0.0289244040001925,0.0307321792502045,0.0325399545002165,
0.0343477297502286),.UNSPECIFIED.);
#11=B_SPLINE_CURVE_WITH_KNOTS('',3,(#1651,#1652,#1653,#1654,#1655,#1656,
#1657,#1658,#1659,#1660,#1661,#1662,#1663,#1664,#1665,#1666,#1667,#1668,
#1669,#1670,#1671),.UNSPECIFIED.,.T.,.F.,(1,1,1,1,1,1,1,1,1,1,1,1,1,1,1,
1,1,1,1,1,1,1,1,1,1),(-0.00542332575003608,-0.00361555050002406,-0.00180777525001203,
0.,0.00180777525001203,0.00361555050002406,0.00542332575003608,0.00723110100004811,
0.00903887625006014,0.0108466515000722,0.0126544267500842,0.0135583143750902,
0.0144622020000962,0.0153660896251022,0.0162699772501083,0.0180777525001203,
0.0198855277501323,0.0216933030001443,0.0235010782501564,0.0253088535001684,
0.0271166287501804,0.0289244040001925,0.0307321792502045,0.0325399545002165,
0.0343477297502285),.UNSPECIFIED.);
#12=CONTEXT_DEPENDENT_SHAPE_REPRESENTATION(#16,#1834);
#13=CONTEXT_DEPENDENT_SHAPE_REPRESENTATION(#17,#1836);
#14=NEXT_ASSEMBLY_USAGE_OCCURRENCE('NAUO1','Base','Base',#1837,#1838,'');
#15=NEXT_ASSEMBLY_USAGE_OCCURRENCE('NAUO2','Hinge and camera t bar',
'Hinge and camera t bar',#1837,#1839,'');
#16=(
REPRESENTATION_RELATIONSHIP(' ',' ',#1054,#1053)
REPRESENTATION_RELATIONSHIP_WITH_TRANSFORMATION(#18)
SHAPE_REPRESENTATION_RELATIONSHIP()
);
#17=(
REPRESENTATION_RELATIONSHIP(' ',' ',#1055,#1053)
REPRESENTATION_RELATIONSHIP_WITH_TRANSFORMATION(#19)
SHAPE_REPRESENTATION_RELATIONSHIP()
);
#18=ITEM_DEFINED_TRANSFORMATION(' ',' ',#1056,#1104);
#19=ITEM_DEFINED_TRANSFORMATION(' ',' ',#1056,#1175);
#20=SHAPE_REPRESENTATION_RELATIONSHIP('','',#1054,#22);
#21=SHAPE_REPRESENTATION_RELATIONSHIP('','',#1055,#23);
#22=ADVANCED_BREP_SHAPE_REPRESENTATION('',(#1048),#1824);
#23=ADVANCED_BREP_SHAPE_REPRESENTATION('',(#1049),#1825);
#24=CYLINDRICAL_SURFACE('',#1071,0.0016);
#25=CYLINDRICAL_SURFACE('',#1073,0.0016);
#26=CYLINDRICAL_SURFACE('',#1081,0.005);
#27=CYLINDRICAL_SURFACE('',#1082,0.005);
#28=CYLINDRICAL_SURFACE('',#1083,0.005);
#29=CYLINDRICAL_SURFACE('',#1084,0.005);
#30=CYLINDRICAL_SURFACE('',#1098,0.002);
#31=CYLINDRICAL_SURFACE('',#1099,0.002);
#32=CYLINDRICAL_SURFACE('',#1100,0.002);
#33=CYLINDRICAL_SURFACE('',#1101,0.002);
#34=CYLINDRICAL_SURFACE('',#1102,0.0016);
#35=CYLINDRICAL_SURFACE('',#1103,0.0016);
#36=CYLINDRICAL_SURFACE('',#1105,0.03);
#37=CYLINDRICAL_SURFACE('',#1108,0.03);
#38=CYLINDRICAL_SURFACE('',#1122,0.03);
#39=CYLINDRICAL_SURFACE('',#1125,0.03);
#40=CYLINDRICAL_SURFACE('',#1128,0.03);
#41=CYLINDRICAL_SURFACE('',#1130,0.0016);
#42=CYLINDRICAL_SURFACE('',#1133,0.0234);
#43=CYLINDRICAL_SURFACE('',#1136,0.0016);
#44=CYLINDRICAL_SURFACE('',#1139,0.0266);
#45=CYLINDRICAL_SURFACE('',#1142,0.0016);
#46=CYLINDRICAL_SURFACE('',#1148,0.0016);
#47=CYLINDRICAL_SURFACE('',#1150,0.0234);
#48=CYLINDRICAL_SURFACE('',#1152,0.0016);
#49=CYLINDRICAL_SURFACE('',#1154,0.0266);
#50=CYLINDRICAL_SURFACE('',#1156,0.0016);
#51=CYLINDRICAL_SURFACE('',#1165,0.002125);
#52=CYLINDRICAL_SURFACE('',#1167,0.002125);
#53=CYLINDRICAL_SURFACE('',#1169,0.003887);
#54=CYLINDRICAL_SURFACE('',#1172,0.003887);
#55=LINE('',#1496,#129);
#56=LINE('',#1501,#130);
#57=LINE('',#1505,#131);
#58=LINE('',#1509,#132);
#59=LINE('',#1512,#133);
#60=LINE('',#1517,#134);
#61=LINE('',#1521,#135);
#62=LINE('',#1525,#136);
#63=LINE('',#1529,#137);
#64=LINE('',#1531,#138);
#65=LINE('',#1533,#139);
#66=LINE('',#1535,#140);
#67=LINE('',#1537,#141);
#68=LINE('',#1539,#142);
#69=LINE('',#1541,#143);
#70=LINE('',#1543,#144);
#71=LINE('',#1545,#145);
#72=LINE('',#1553,#146);
#73=LINE('',#1556,#147);
#74=LINE('',#1557,#148);
#75=LINE('',#1572,#149);
#76=LINE('',#1575,#150);
#77=LINE('',#1576,#151);
#78=LINE('',#1578,#152);
#79=LINE('',#1581,#153);
#80=LINE('',#1582,#154);
#81=LINE('',#1588,#155);
#82=LINE('',#1590,#156);
#83=LINE('',#1592,#157);
#84=LINE('',#1594,#158);
#85=LINE('',#1596,#159);
#86=LINE('',#1598,#160);
#87=LINE('',#1612,#161);
#88=LINE('',#1617,#162);
#89=LINE('',#1646,#163);
#90=LINE('',#1650,#164);
#91=LINE('',#1674,#165);
#92=LINE('',#1677,#166);
#93=LINE('',#1679,#167);
#94=LINE('',#1681,#168);
#95=LINE('',#1701,#169);
#96=LINE('',#1703,#170);
#97=LINE('',#1705,#171);
#98=LINE('',#1707,#172);
#99=LINE('',#1711,#173);
#100=LINE('',#1715,#174);
#101=LINE('',#1719,#175);
#102=LINE('',#1721,#176);
#103=LINE('',#1723,#177);
#104=LINE('',#1725,#178);
#105=LINE('',#1729,#179);
#106=LINE('',#1730,#180);
#107=LINE('',#1732,#181);
#108=LINE('',#1737,#182);
#109=LINE('',#1745,#183);
#110=LINE('',#1747,#184);
#111=LINE('',#1761,#185);
#112=LINE('',#1764,#186);
#113=LINE('',#1765,#187);
#114=LINE('',#1767,#188);
#115=LINE('',#1768,#189);
#116=LINE('',#1770,#190);
#117=LINE('',#1772,#191);
#118=LINE('',#1774,#192);
#119=LINE('',#1779,#193);
#120=LINE('',#1780,#194);
#121=LINE('',#1784,#195);
#122=LINE('',#1788,#196);
#123=LINE('',#1796,#197);
#124=LINE('',#1798,#198);
#125=LINE('',#1800,#199);
#126=LINE('',#1801,#200);
#127=LINE('',#1803,#201);
#128=LINE('',#1804,#202);
#129=VECTOR('',#1184,1.);
#130=VECTOR('',#1187,1.);
#131=VECTOR('',#1190,1.);
#132=VECTOR('',#1193,1.);
#133=VECTOR('',#1196,1.);
#134=VECTOR('',#1199,1.);
#135=VECTOR('',#1202,1.);
#136=VECTOR('',#1205,1.);
#137=VECTOR('',#1210,1.);
#138=VECTOR('',#1211,1.);
#139=VECTOR('',#1212,1.);
#140=VECTOR('',#1215,1.);
#141=VECTOR('',#1216,1.);
#142=VECTOR('',#1217,1.);
#143=VECTOR('',#1220,1.);
#144=VECTOR('',#1221,1.);
#145=VECTOR('',#1222,1.);
#146=VECTOR('',#1233,1.);
#147=VECTOR('',#1234,1.);
#148=VECTOR('',#1235,1.);
#149=VECTOR('',#1260,1.);
#150=VECTOR('',#1261,1.);
#151=VECTOR('',#1262,1.);
#152=VECTOR('',#1265,1.);
#153=VECTOR('',#1266,1.);
#154=VECTOR('',#1267,1.);
#155=VECTOR('',#1274,1.);
#156=VECTOR('',#1275,1.);
#157=VECTOR('',#1276,1.);
#158=VECTOR('',#1279,1.);
#159=VECTOR('',#1280,1.);
#160=VECTOR('',#1281,1.);
#161=VECTOR('',#1308,1.);
#162=VECTOR('',#1311,1.);
#163=VECTOR('',#1318,1.);
#164=VECTOR('',#1321,1.);
#165=VECTOR('',#1324,1.);
#166=VECTOR('',#1325,1.);
#167=VECTOR('',#1326,1.);
#168=VECTOR('',#1327,1.);
#169=VECTOR('',#1348,1.);
#170=VECTOR('',#1349,1.);
#171=VECTOR('',#1350,1.);
#172=VECTOR('',#1353,1.);
#173=VECTOR('',#1356,1.);
#174=VECTOR('',#1361,1.);
#175=VECTOR('',#1364,1.);
#176=VECTOR('',#1367,1.);
#177=VECTOR('',#1368,1.);
#178=VECTOR('',#1369,1.);
#179=VECTOR('',#1374,1.);
#180=VECTOR('',#1375,1.);
#181=VECTOR('',#1378,1.);
#182=VECTOR('',#1381,1.);
#183=VECTOR('',#1390,1.);
#184=VECTOR('',#1393,1.);
#185=VECTOR('',#1412,1.);
#186=VECTOR('',#1413,1.);
#187=VECTOR('',#1414,1.);
#188=VECTOR('',#1415,1.);
#189=VECTOR('',#1416,1.);
#190=VECTOR('',#1417,1.);
#191=VECTOR('',#1420,1.);
#192=VECTOR('',#1423,1.);
#193=VECTOR('',#1428,1.);
#194=VECTOR('',#1429,1.);
#195=VECTOR('',#1434,1.);
#196=VECTOR('',#1439,1.);
#197=VECTOR('',#1452,1.);
#198=VECTOR('',#1455,1.);
#199=VECTOR('',#1458,1.);
#200=VECTOR('',#1459,1.);
#201=VECTOR('',#1462,1.);
#202=VECTOR('',#1463,1.);
#203=ORIENTED_EDGE('',*,*,#475,.T.);
#204=ORIENTED_EDGE('',*,*,#476,.F.);
#205=ORIENTED_EDGE('',*,*,#477,.F.);
#206=ORIENTED_EDGE('',*,*,#478,.T.);
#207=ORIENTED_EDGE('',*,*,#479,.F.);
#208=ORIENTED_EDGE('',*,*,#480,.T.);
#209=ORIENTED_EDGE('',*,*,#481,.T.);
#210=ORIENTED_EDGE('',*,*,#482,.T.);
#211=ORIENTED_EDGE('',*,*,#483,.T.);
#212=ORIENTED_EDGE('',*,*,#484,.T.);
#213=ORIENTED_EDGE('',*,*,#485,.F.);
#214=ORIENTED_EDGE('',*,*,#486,.T.);
#215=ORIENTED_EDGE('',*,*,#487,.T.);
#216=ORIENTED_EDGE('',*,*,#488,.T.);
#217=ORIENTED_EDGE('',*,*,#489,.T.);
#218=ORIENTED_EDGE('',*,*,#490,.T.);
#219=ORIENTED_EDGE('',*,*,#491,.F.);
#220=ORIENTED_EDGE('',*,*,#492,.T.);
#221=ORIENTED_EDGE('',*,*,#479,.T.);
#222=ORIENTED_EDGE('',*,*,#493,.T.);
#223=ORIENTED_EDGE('',*,*,#494,.F.);
#224=ORIENTED_EDGE('',*,*,#495,.T.);
#225=ORIENTED_EDGE('',*,*,#481,.F.);
#226=ORIENTED_EDGE('',*,*,#496,.T.);
#227=ORIENTED_EDGE('',*,*,#497,.T.);
#228=ORIENTED_EDGE('',*,*,#498,.T.);
#229=ORIENTED_EDGE('',*,*,#483,.F.);
#230=ORIENTED_EDGE('',*,*,#499,.T.);
#231=ORIENTED_EDGE('',*,*,#500,.T.);
#232=ORIENTED_EDGE('',*,*,#501,.T.);
#233=ORIENTED_EDGE('',*,*,#476,.T.);
#234=ORIENTED_EDGE('',*,*,#502,.F.);
#235=ORIENTED_EDGE('',*,*,#475,.F.);
#236=ORIENTED_EDGE('',*,*,#503,.T.);
#237=ORIENTED_EDGE('',*,*,#504,.F.);
#238=ORIENTED_EDGE('',*,*,#505,.T.);
#239=ORIENTED_EDGE('',*,*,#477,.T.);
#240=ORIENTED_EDGE('',*,*,#506,.T.);
#241=ORIENTED_EDGE('',*,*,#503,.F.);
#242=ORIENTED_EDGE('',*,*,#502,.T.);
#243=ORIENTED_EDGE('',*,*,#494,.T.);
#244=ORIENTED_EDGE('',*,*,#507,.T.);
#245=ORIENTED_EDGE('',*,*,#504,.T.);
#246=ORIENTED_EDGE('',*,*,#508,.T.);
#247=ORIENTED_EDGE('',*,*,#500,.F.);
#248=ORIENTED_EDGE('',*,*,#509,.T.);
#249=ORIENTED_EDGE('',*,*,#497,.F.);
#250=ORIENTED_EDGE('',*,*,#510,.T.);
#251=ORIENTED_EDGE('',*,*,#478,.F.);
#252=ORIENTED_EDGE('',*,*,#505,.F.);
#253=ORIENTED_EDGE('',*,*,#507,.F.);
#254=ORIENTED_EDGE('',*,*,#493,.F.);
#255=ORIENTED_EDGE('',*,*,#480,.F.);
#256=ORIENTED_EDGE('',*,*,#495,.F.);
#257=ORIENTED_EDGE('',*,*,#510,.F.);
#258=ORIENTED_EDGE('',*,*,#496,.F.);
#259=ORIENTED_EDGE('',*,*,#482,.F.);
#260=ORIENTED_EDGE('',*,*,#498,.F.);
#261=ORIENTED_EDGE('',*,*,#509,.F.);
#262=ORIENTED_EDGE('',*,*,#499,.F.);
#263=ORIENTED_EDGE('',*,*,#484,.F.);
#264=ORIENTED_EDGE('',*,*,#501,.F.);
#265=ORIENTED_EDGE('',*,*,#508,.F.);
#266=ORIENTED_EDGE('',*,*,#506,.F.);
#267=ORIENTED_EDGE('',*,*,#511,.F.);
#268=ORIENTED_EDGE('',*,*,#512,.F.);
#269=ORIENTED_EDGE('',*,*,#513,.T.);
#270=ORIENTED_EDGE('',*,*,#514,.T.);
#271=ORIENTED_EDGE('',*,*,#487,.F.);
#272=ORIENTED_EDGE('',*,*,#515,.T.);
#273=ORIENTED_EDGE('',*,*,#516,.F.);
#274=ORIENTED_EDGE('',*,*,#517,.T.);
#275=ORIENTED_EDGE('',*,*,#485,.T.);
#276=ORIENTED_EDGE('',*,*,#518,.T.);
#277=ORIENTED_EDGE('',*,*,#519,.F.);
#278=ORIENTED_EDGE('',*,*,#520,.F.);
#279=ORIENTED_EDGE('',*,*,#491,.T.);
#280=ORIENTED_EDGE('',*,*,#521,.T.);
#281=ORIENTED_EDGE('',*,*,#522,.F.);
#282=ORIENTED_EDGE('',*,*,#523,.T.);
#283=ORIENTED_EDGE('',*,*,#489,.F.);
#284=ORIENTED_EDGE('',*,*,#524,.T.);
#285=ORIENTED_EDGE('',*,*,#525,.T.);
#286=ORIENTED_EDGE('',*,*,#526,.T.);
#287=ORIENTED_EDGE('',*,*,#525,.F.);
#288=ORIENTED_EDGE('',*,*,#527,.T.);
#289=ORIENTED_EDGE('',*,*,#513,.F.);
#290=ORIENTED_EDGE('',*,*,#528,.T.);
#291=ORIENTED_EDGE('',*,*,#516,.T.);
#292=ORIENTED_EDGE('',*,*,#529,.T.);
#293=ORIENTED_EDGE('',*,*,#522,.T.);
#294=ORIENTED_EDGE('',*,*,#530,.T.);
#295=ORIENTED_EDGE('',*,*,#527,.F.);
#296=ORIENTED_EDGE('',*,*,#524,.F.);
#297=ORIENTED_EDGE('',*,*,#488,.F.);
#298=ORIENTED_EDGE('',*,*,#514,.F.);
#299=ORIENTED_EDGE('',*,*,#528,.F.);
#300=ORIENTED_EDGE('',*,*,#515,.F.);
#301=ORIENTED_EDGE('',*,*,#486,.F.);
#302=ORIENTED_EDGE('',*,*,#517,.F.);
#303=ORIENTED_EDGE('',*,*,#530,.F.);
#304=ORIENTED_EDGE('',*,*,#521,.F.);
#305=ORIENTED_EDGE('',*,*,#490,.F.);
#306=ORIENTED_EDGE('',*,*,#526,.F.);
#307=ORIENTED_EDGE('',*,*,#529,.F.);
#308=ORIENTED_EDGE('',*,*,#518,.F.);
#309=ORIENTED_EDGE('',*,*,#492,.F.);
#310=ORIENTED_EDGE('',*,*,#523,.F.);
#311=ORIENTED_EDGE('',*,*,#512,.T.);
#312=ORIENTED_EDGE('',*,*,#520,.T.);
#313=ORIENTED_EDGE('',*,*,#511,.T.);
#314=ORIENTED_EDGE('',*,*,#519,.T.);
#315=ORIENTED_EDGE('',*,*,#531,.T.);
#316=ORIENTED_EDGE('',*,*,#532,.T.);
#317=ORIENTED_EDGE('',*,*,#533,.F.);
#318=ORIENTED_EDGE('',*,*,#534,.F.);
#319=ORIENTED_EDGE('',*,*,#535,.F.);
#320=ORIENTED_EDGE('',*,*,#536,.F.);
#321=ORIENTED_EDGE('',*,*,#537,.F.);
#322=ORIENTED_EDGE('',*,*,#538,.T.);
#323=ORIENTED_EDGE('',*,*,#539,.T.);
#324=ORIENTED_EDGE('',*,*,#540,.T.);
#325=ORIENTED_EDGE('',*,*,#541,.T.);
#326=ORIENTED_EDGE('',*,*,#542,.F.);
#327=ORIENTED_EDGE('',*,*,#543,.F.);
#328=ORIENTED_EDGE('',*,*,#544,.T.);
#329=ORIENTED_EDGE('',*,*,#545,.F.);
#330=ORIENTED_EDGE('',*,*,#546,.T.);
#331=ORIENTED_EDGE('',*,*,#547,.F.);
#332=ORIENTED_EDGE('',*,*,#548,.F.);
#333=ORIENTED_EDGE('',*,*,#549,.T.);
#334=ORIENTED_EDGE('',*,*,#550,.F.);
#335=ORIENTED_EDGE('',*,*,#551,.F.);
#336=ORIENTED_EDGE('',*,*,#552,.T.);
#337=ORIENTED_EDGE('',*,*,#536,.T.);
#338=ORIENTED_EDGE('',*,*,#553,.T.);
#339=ORIENTED_EDGE('',*,*,#554,.T.);
#340=ORIENTED_EDGE('',*,*,#555,.F.);
#341=ORIENTED_EDGE('',*,*,#556,.F.);
#342=ORIENTED_EDGE('',*,*,#557,.F.);
#343=ORIENTED_EDGE('',*,*,#558,.T.);
#344=ORIENTED_EDGE('',*,*,#559,.F.);
#345=ORIENTED_EDGE('',*,*,#560,.F.);
#346=ORIENTED_EDGE('',*,*,#561,.F.);
#347=ORIENTED_EDGE('',*,*,#562,.T.);
#348=ORIENTED_EDGE('',*,*,#563,.F.);
#349=ORIENTED_EDGE('',*,*,#553,.F.);
#350=ORIENTED_EDGE('',*,*,#564,.F.);
#351=ORIENTED_EDGE('',*,*,#559,.T.);
#352=ORIENTED_EDGE('',*,*,#565,.T.);
#353=ORIENTED_EDGE('',*,*,#566,.F.);
#354=ORIENTED_EDGE('',*,*,#567,.T.);
#355=ORIENTED_EDGE('',*,*,#568,.T.);
#356=ORIENTED_EDGE('',*,*,#552,.F.);
#357=ORIENTED_EDGE('',*,*,#569,.T.);
#358=ORIENTED_EDGE('',*,*,#570,.F.);
#359=ORIENTED_EDGE('',*,*,#571,.T.);
#360=ORIENTED_EDGE('',*,*,#572,.T.);
#361=ORIENTED_EDGE('',*,*,#573,.F.);
#362=ORIENTED_EDGE('',*,*,#574,.F.);
#363=ORIENTED_EDGE('',*,*,#570,.T.);
#364=ORIENTED_EDGE('',*,*,#575,.T.);
#365=ORIENTED_EDGE('',*,*,#576,.F.);
#366=ORIENTED_EDGE('',*,*,#577,.F.);
#367=ORIENTED_EDGE('',*,*,#578,.T.);
#368=ORIENTED_EDGE('',*,*,#576,.T.);
#369=ORIENTED_EDGE('',*,*,#579,.F.);
#370=ORIENTED_EDGE('',*,*,#572,.F.);
#371=ORIENTED_EDGE('',*,*,#580,.T.);
#372=ORIENTED_EDGE('',*,*,#577,.T.);
#373=ORIENTED_EDGE('',*,*,#581,.F.);
#374=ORIENTED_EDGE('',*,*,#582,.F.);
#375=ORIENTED_EDGE('',*,*,#583,.T.);
#376=ORIENTED_EDGE('',*,*,#584,.F.);
#377=ORIENTED_EDGE('',*,*,#585,.T.);
#378=ORIENTED_EDGE('',*,*,#566,.T.);
#379=ORIENTED_EDGE('',*,*,#586,.F.);
#380=ORIENTED_EDGE('',*,*,#587,.F.);
#381=ORIENTED_EDGE('',*,*,#555,.T.);
#382=ORIENTED_EDGE('',*,*,#588,.T.);
#383=ORIENTED_EDGE('',*,*,#589,.F.);
#384=ORIENTED_EDGE('',*,*,#590,.F.);
#385=ORIENTED_EDGE('',*,*,#569,.F.);
#386=ORIENTED_EDGE('',*,*,#556,.T.);
#387=ORIENTED_EDGE('',*,*,#587,.T.);
#388=ORIENTED_EDGE('',*,*,#563,.T.);
#389=ORIENTED_EDGE('',*,*,#591,.T.);
#390=ORIENTED_EDGE('',*,*,#588,.F.);
#391=ORIENTED_EDGE('',*,*,#554,.F.);
#392=ORIENTED_EDGE('',*,*,#592,.F.);
#393=ORIENTED_EDGE('',*,*,#593,.F.);
#394=ORIENTED_EDGE('',*,*,#548,.T.);
#395=ORIENTED_EDGE('',*,*,#594,.T.);
#396=ORIENTED_EDGE('',*,*,#593,.T.);
#397=ORIENTED_EDGE('',*,*,#595,.T.);
#398=ORIENTED_EDGE('',*,*,#596,.F.);
#399=ORIENTED_EDGE('',*,*,#549,.F.);
#400=ORIENTED_EDGE('',*,*,#597,.F.);
#401=ORIENTED_EDGE('',*,*,#598,.F.);
#402=ORIENTED_EDGE('',*,*,#550,.T.);
#403=ORIENTED_EDGE('',*,*,#596,.T.);
#404=ORIENTED_EDGE('',*,*,#599,.F.);
#405=ORIENTED_EDGE('',*,*,#594,.F.);
#406=ORIENTED_EDGE('',*,*,#551,.T.);
#407=ORIENTED_EDGE('',*,*,#598,.T.);
#408=ORIENTED_EDGE('',*,*,#600,.F.);
#409=ORIENTED_EDGE('',*,*,#547,.T.);
#410=ORIENTED_EDGE('',*,*,#582,.T.);
#411=ORIENTED_EDGE('',*,*,#573,.T.);
#412=ORIENTED_EDGE('',*,*,#581,.T.);
#413=ORIENTED_EDGE('',*,*,#579,.T.);
#414=ORIENTED_EDGE('',*,*,#575,.F.);
#415=ORIENTED_EDGE('',*,*,#590,.T.);
#416=ORIENTED_EDGE('',*,*,#586,.T.);
#417=ORIENTED_EDGE('',*,*,#565,.F.);
#418=ORIENTED_EDGE('',*,*,#558,.F.);
#419=ORIENTED_EDGE('',*,*,#532,.F.);
#420=ORIENTED_EDGE('',*,*,#567,.F.);
#421=ORIENTED_EDGE('',*,*,#583,.F.);
#422=ORIENTED_EDGE('',*,*,#574,.T.);
#423=ORIENTED_EDGE('',*,*,#578,.F.);
#424=ORIENTED_EDGE('',*,*,#580,.F.);
#425=ORIENTED_EDGE('',*,*,#571,.F.);
#426=ORIENTED_EDGE('',*,*,#560,.T.);
#427=ORIENTED_EDGE('',*,*,#564,.T.);
#428=ORIENTED_EDGE('',*,*,#585,.F.);
#429=ORIENTED_EDGE('',*,*,#601,.F.);
#430=ORIENTED_EDGE('',*,*,#592,.T.);
#431=ORIENTED_EDGE('',*,*,#599,.T.);
#432=ORIENTED_EDGE('',*,*,#597,.T.);
#433=ORIENTED_EDGE('',*,*,#595,.F.);
#434=ORIENTED_EDGE('',*,*,#600,.T.);
#435=ORIENTED_EDGE('',*,*,#602,.T.);
#436=ORIENTED_EDGE('',*,*,#589,.T.);
#437=ORIENTED_EDGE('',*,*,#591,.F.);
#438=ORIENTED_EDGE('',*,*,#562,.F.);
#439=ORIENTED_EDGE('',*,*,#601,.T.);
#440=ORIENTED_EDGE('',*,*,#584,.T.);
#441=ORIENTED_EDGE('',*,*,#602,.F.);
#442=ORIENTED_EDGE('',*,*,#561,.T.);
#443=ORIENTED_EDGE('',*,*,#539,.F.);
#444=ORIENTED_EDGE('',*,*,#603,.T.);
#445=ORIENTED_EDGE('',*,*,#541,.F.);
#446=ORIENTED_EDGE('',*,*,#604,.F.);
#447=ORIENTED_EDGE('',*,*,#533,.T.);
#448=ORIENTED_EDGE('',*,*,#557,.T.);
#449=ORIENTED_EDGE('',*,*,#543,.T.);
#450=ORIENTED_EDGE('',*,*,#605,.F.);
#451=ORIENTED_EDGE('',*,*,#537,.T.);
#452=ORIENTED_EDGE('',*,*,#568,.F.);
#453=ORIENTED_EDGE('',*,*,#531,.F.);
#454=ORIENTED_EDGE('',*,*,#606,.T.);
#455=ORIENTED_EDGE('',*,*,#534,.T.);
#456=ORIENTED_EDGE('',*,*,#604,.T.);
#457=ORIENTED_EDGE('',*,*,#544,.F.);
#458=ORIENTED_EDGE('',*,*,#606,.F.);
#459=ORIENTED_EDGE('',*,*,#538,.F.);
#460=ORIENTED_EDGE('',*,*,#605,.T.);
#461=ORIENTED_EDGE('',*,*,#542,.T.);
#462=ORIENTED_EDGE('',*,*,#603,.F.);
#463=ORIENTED_EDGE('',*,*,#607,.F.);
#464=ORIENTED_EDGE('',*,*,#545,.T.);
#465=ORIENTED_EDGE('',*,*,#608,.F.);
#466=ORIENTED_EDGE('',*,*,#546,.F.);
#467=ORIENTED_EDGE('',*,*,#609,.T.);
#468=ORIENTED_EDGE('',*,*,#535,.T.);
#469=ORIENTED_EDGE('',*,*,#608,.T.);
#470=ORIENTED_EDGE('',*,*,#609,.F.);
#471=ORIENTED_EDGE('',*,*,#540,.F.);
#472=ORIENTED_EDGE('',*,*,#610,.T.);
#473=ORIENTED_EDGE('',*,*,#607,.T.);
#474=ORIENTED_EDGE('',*,*,#610,.F.);
#475=EDGE_CURVE('',#611,#611,#707,.T.);
#476=EDGE_CURVE('',#612,#612,#708,.T.);
#477=EDGE_CURVE('',#613,#614,#55,.T.);
#478=EDGE_CURVE('',#613,#615,#709,.T.);
#479=EDGE_CURVE('',#616,#615,#56,.T.);
#480=EDGE_CURVE('',#616,#617,#710,.T.);
#481=EDGE_CURVE('',#617,#618,#57,.T.);
#482=EDGE_CURVE('',#618,#619,#711,.T.);
#483=EDGE_CURVE('',#619,#620,#58,.T.);
#484=EDGE_CURVE('',#620,#614,#712,.T.);
#485=EDGE_CURVE('',#621,#622,#59,.T.);
#486=EDGE_CURVE('',#621,#623,#713,.F.);
#487=EDGE_CURVE('',#623,#624,#60,.T.);
#488=EDGE_CURVE('',#624,#625,#714,.F.);
#489=EDGE_CURVE('',#625,#626,#61,.T.);
#490=EDGE_CURVE('',#626,#627,#715,.F.);
#491=EDGE_CURVE('',#628,#627,#62,.T.);
#492=EDGE_CURVE('',#628,#622,#716,.F.);
#493=EDGE_CURVE('',#615,#629,#63,.T.);
#494=EDGE_CURVE('',#630,#629,#64,.T.);
#495=EDGE_CURVE('',#630,#616,#65,.F.);
#496=EDGE_CURVE('',#617,#631,#66,.T.);
#497=EDGE_CURVE('',#631,#632,#67,.T.);
#498=EDGE_CURVE('',#632,#618,#68,.F.);
#499=EDGE_CURVE('',#619,#633,#69,.T.);
#500=EDGE_CURVE('',#633,#634,#70,.T.);
#501=EDGE_CURVE('',#634,#620,#71,.F.);
#502=EDGE_CURVE('',#635,#635,#717,.T.);
#503=EDGE_CURVE('',#636,#636,#718,.T.);
#504=EDGE_CURVE('',#637,#638,#72,.T.);
#505=EDGE_CURVE('',#637,#613,#73,.F.);
#506=EDGE_CURVE('',#614,#638,#74,.T.);
#507=EDGE_CURVE('',#629,#637,#719,.F.);
#508=EDGE_CURVE('',#638,#634,#720,.F.);
#509=EDGE_CURVE('',#633,#632,#721,.F.);
#510=EDGE_CURVE('',#631,#630,#722,.F.);
#511=EDGE_CURVE('',#639,#639,#723,.T.);
#512=EDGE_CURVE('',#640,#640,#724,.T.);
#513=EDGE_CURVE('',#641,#642,#75,.T.);
#514=EDGE_CURVE('',#642,#624,#76,.T.);
#515=EDGE_CURVE('',#623,#641,#77,.F.);
#516=EDGE_CURVE('',#643,#644,#78,.T.);
#517=EDGE_CURVE('',#643,#621,#79,.T.);
#518=EDGE_CURVE('',#622,#644,#80,.F.);
#519=EDGE_CURVE('',#645,#645,#725,.T.);
#520=EDGE_CURVE('',#646,#646,#726,.T.);
#521=EDGE_CURVE('',#627,#647,#81,.F.);
#522=EDGE_CURVE('',#648,#647,#82,.T.);
#523=EDGE_CURVE('',#648,#628,#83,.T.);
#524=EDGE_CURVE('',#625,#649,#84,.F.);
#525=EDGE_CURVE('',#649,#650,#85,.T.);
#526=EDGE_CURVE('',#650,#626,#86,.T.);
#527=EDGE_CURVE('',#649,#642,#727,.T.);
#528=EDGE_CURVE('',#641,#643,#728,.T.);
#529=EDGE_CURVE('',#644,#648,#729,.T.);
#530=EDGE_CURVE('',#647,#650,#730,.T.);
#531=EDGE_CURVE('',#651,#652,#87,.T.);
#532=EDGE_CURVE('',#652,#653,#731,.T.);
#533=EDGE_CURVE('',#654,#653,#88,.T.);
#534=EDGE_CURVE('',#651,#654,#732,.T.);
#535=EDGE_CURVE('',#655,#655,#10,.T.);
#536=EDGE_CURVE('',#656,#657,#733,.T.);
#537=EDGE_CURVE('',#658,#656,#89,.T.);
#538=EDGE_CURVE('',#658,#659,#734,.T.);
#539=EDGE_CURVE('',#659,#657,#90,.T.);
#540=EDGE_CURVE('',#660,#660,#11,.T.);
#541=EDGE_CURVE('',#661,#662,#91,.T.);
#542=EDGE_CURVE('',#663,#662,#92,.T.);
#543=EDGE_CURVE('',#664,#663,#93,.T.);
#544=EDGE_CURVE('',#664,#661,#94,.T.);
#545=EDGE_CURVE('',#665,#665,#735,.T.);
#546=EDGE_CURVE('',#666,#666,#736,.T.);
#547=EDGE_CURVE('',#667,#667,#737,.T.);
#548=EDGE_CURVE('',#668,#669,#738,.T.);
#549=EDGE_CURVE('',#668,#670,#739,.T.);
#550=EDGE_CURVE('',#671,#670,#740,.T.);
#551=EDGE_CURVE('',#669,#671,#741,.T.);
#552=EDGE_CURVE('',#672,#656,#742,.T.);
#553=EDGE_CURVE('',#657,#673,#743,.T.);
#554=EDGE_CURVE('',#673,#674,#95,.T.);
#555=EDGE_CURVE('',#675,#674,#96,.T.);
#556=EDGE_CURVE('',#672,#675,#97,.T.);
#557=EDGE_CURVE('',#653,#676,#98,.T.);
#558=EDGE_CURVE('',#653,#677,#744,.T.);
#559=EDGE_CURVE('',#678,#677,#99,.T.);
#560=EDGE_CURVE('',#676,#678,#745,.T.);
#561=EDGE_CURVE('',#679,#657,#100,.T.);
#562=EDGE_CURVE('',#679,#680,#746,.T.);
#563=EDGE_CURVE('',#673,#680,#101,.T.);
#564=EDGE_CURVE('',#678,#681,#102,.T.);
#565=EDGE_CURVE('',#677,#682,#103,.T.);
#566=EDGE_CURVE('',#681,#682,#104,.T.);
#567=EDGE_CURVE('',#683,#652,#747,.T.);
#568=EDGE_CURVE('',#652,#656,#105,.T.);
#569=EDGE_CURVE('',#672,#683,#106,.T.);
#570=EDGE_CURVE('',#684,#685,#107,.T.);
#571=EDGE_CURVE('',#684,#686,#748,.T.);
#572=EDGE_CURVE('',#686,#687,#108,.T.);
#573=EDGE_CURVE('',#685,#687,#749,.T.);
#574=EDGE_CURVE('',#684,#688,#750,.T.);
#575=EDGE_CURVE('',#685,#689,#751,.T.);
#576=EDGE_CURVE('',#688,#689,#109,.T.);
#577=EDGE_CURVE('',#690,#691,#110,.T.);
#578=EDGE_CURVE('',#690,#688,#752,.T.);
#579=EDGE_CURVE('',#691,#689,#753,.T.);
#580=EDGE_CURVE('',#686,#690,#754,.T.);
#581=EDGE_CURVE('',#687,#691,#755,.T.);
#582=EDGE_CURVE('',#692,#692,#756,.T.);
#583=EDGE_CURVE('',#693,#693,#757,.T.);
#584=EDGE_CURVE('',#694,#695,#111,.T.);
#585=EDGE_CURVE('',#694,#681,#112,.T.);
#586=EDGE_CURVE('',#696,#682,#113,.T.);
#587=EDGE_CURVE('',#675,#696,#114,.T.);
#588=EDGE_CURVE('',#674,#697,#115,.T.);
#589=EDGE_CURVE('',#695,#697,#116,.T.);
#590=EDGE_CURVE('',#683,#696,#117,.T.);
#591=EDGE_CURVE('',#680,#697,#118,.T.);
#592=EDGE_CURVE('',#698,#699,#758,.T.);
#593=EDGE_CURVE('',#668,#698,#119,.T.);
#594=EDGE_CURVE('',#669,#699,#120,.T.);
#595=EDGE_CURVE('',#698,#700,#759,.T.);
#596=EDGE_CURVE('',#670,#700,#121,.T.);
#597=EDGE_CURVE('',#701,#700,#760,.T.);
#598=EDGE_CURVE('',#671,#701,#122,.T.);
#599=EDGE_CURVE('',#699,#701,#761,.T.);
#600=EDGE_CURVE('',#702,#702,#762,.T.);
#601=EDGE_CURVE('',#676,#694,#123,.T.);
#602=EDGE_CURVE('',#679,#695,#124,.T.);
#603=EDGE_CURVE('',#659,#662,#125,.T.);
#604=EDGE_CURVE('',#654,#661,#126,.T.);
#605=EDGE_CURVE('',#658,#663,#127,.T.);
#606=EDGE_CURVE('',#651,#664,#128,.T.);
#607=EDGE_CURVE('',#703,#703,#763,.T.);
#608=EDGE_CURVE('',#704,#704,#764,.T.);
#609=EDGE_CURVE('',#705,#705,#765,.T.);
#610=EDGE_CURVE('',#706,#706,#766,.T.);
#611=VERTEX_POINT('',#1493);
#612=VERTEX_POINT('',#1495);
#613=VERTEX_POINT('',#1497);
#614=VERTEX_POINT('',#1498);
#615=VERTEX_POINT('',#1500);
#616=VERTEX_POINT('',#1502);
#617=VERTEX_POINT('',#1504);
#618=VERTEX_POINT('',#1506);
#619=VERTEX_POINT('',#1508);
#620=VERTEX_POINT('',#1510);
#621=VERTEX_POINT('',#1513);
#622=VERTEX_POINT('',#1514);
#623=VERTEX_POINT('',#1516);
#624=VERTEX_POINT('',#1518);
#625=VERTEX_POINT('',#1520);
#626=VERTEX_POINT('',#1522);
#627=VERTEX_POINT('',#1524);
#628=VERTEX_POINT('',#1526);
#629=VERTEX_POINT('',#1530);
#630=VERTEX_POINT('',#1532);
#631=VERTEX_POINT('',#1536);
#632=VERTEX_POINT('',#1538);
#633=VERTEX_POINT('',#1542);
#634=VERTEX_POINT('',#1544);
#635=VERTEX_POINT('',#1548);
#636=VERTEX_POINT('',#1551);
#637=VERTEX_POINT('',#1554);
#638=VERTEX_POINT('',#1555);
#639=VERTEX_POINT('',#1569);
#640=VERTEX_POINT('',#1571);
#641=VERTEX_POINT('',#1573);
#642=VERTEX_POINT('',#1574);
#643=VERTEX_POINT('',#1579);
#644=VERTEX_POINT('',#1580);
#645=VERTEX_POINT('',#1585);
#646=VERTEX_POINT('',#1587);
#647=VERTEX_POINT('',#1589);
#648=VERTEX_POINT('',#1591);
#649=VERTEX_POINT('',#1595);
#650=VERTEX_POINT('',#1597);
#651=VERTEX_POINT('',#1613);
#652=VERTEX_POINT('',#1614);
#653=VERTEX_POINT('',#1616);
#654=VERTEX_POINT('',#1618);
#655=VERTEX_POINT('',#1641);
#656=VERTEX_POINT('',#1644);
#657=VERTEX_POINT('',#1645);
#658=VERTEX_POINT('',#1647);
#659=VERTEX_POINT('',#1649);
#660=VERTEX_POINT('',#1672);
#661=VERTEX_POINT('',#1675);
#662=VERTEX_POINT('',#1676);
#663=VERTEX_POINT('',#1678);
#664=VERTEX_POINT('',#1680);
#665=VERTEX_POINT('',#1683);
#666=VERTEX_POINT('',#1685);
#667=VERTEX_POINT('',#1688);
#668=VERTEX_POINT('',#1690);
#669=VERTEX_POINT('',#1691);
#670=VERTEX_POINT('',#1693);
#671=VERTEX_POINT('',#1695);
#672=VERTEX_POINT('',#1698);
#673=VERTEX_POINT('',#1700);
#674=VERTEX_POINT('',#1702);
#675=VERTEX_POINT('',#1704);
#676=VERTEX_POINT('',#1708);
#677=VERTEX_POINT('',#1710);
#678=VERTEX_POINT('',#1712);
#679=VERTEX_POINT('',#1716);
#680=VERTEX_POINT('',#1718);
#681=VERTEX_POINT('',#1722);
#682=VERTEX_POINT('',#1724);
#683=VERTEX_POINT('',#1728);
#684=VERTEX_POINT('',#1733);
#685=VERTEX_POINT('',#1734);
#686=VERTEX_POINT('',#1736);
#687=VERTEX_POINT('',#1738);
#688=VERTEX_POINT('',#1742);
#689=VERTEX_POINT('',#1744);
#690=VERTEX_POINT('',#1748);
#691=VERTEX_POINT('',#1749);
#692=VERTEX_POINT('',#1757);
#693=VERTEX_POINT('',#1759);
#694=VERTEX_POINT('',#1762);
#695=VERTEX_POINT('',#1763);
#696=VERTEX_POINT('',#1766);
#697=VERTEX_POINT('',#1769);
#698=VERTEX_POINT('',#1777);
#699=VERTEX_POINT('',#1778);
#700=VERTEX_POINT('',#1783);
#701=VERTEX_POINT('',#1787);
#702=VERTEX_POINT('',#1793);
#703=VERTEX_POINT('',#1809);
#704=VERTEX_POINT('',#1812);
#705=VERTEX_POINT('',#1815);
#706=VERTEX_POINT('',#1819);
#707=CIRCLE('',#1058,0.0016);
#708=CIRCLE('',#1059,0.0016);
#709=CIRCLE('',#1060,0.005);
#710=CIRCLE('',#1061,0.005);
#711=CIRCLE('',#1062,0.005);
#712=CIRCLE('',#1063,0.005);
#713=CIRCLE('',#1064,0.002);
#714=CIRCLE('',#1065,0.002);
#715=CIRCLE('',#1066,0.002);
#716=CIRCLE('',#1067,0.002);
#717=CIRCLE('',#1072,0.0016);
#718=CIRCLE('',#1074,0.0016);
#719=CIRCLE('',#1077,0.005);
#720=CIRCLE('',#1078,0.005);
#721=CIRCLE('',#1079,0.005);
#722=CIRCLE('',#1080,0.005);
#723=CIRCLE('',#1086,0.0016);
#724=CIRCLE('',#1087,0.0016);
#725=CIRCLE('',#1090,0.0016);
#726=CIRCLE('',#1091,0.0016);
#727=CIRCLE('',#1094,0.002);
#728=CIRCLE('',#1095,0.002);
#729=CIRCLE('',#1096,0.002);
#730=CIRCLE('',#1097,0.002);
#731=CIRCLE('',#1106,0.03);
#732=CIRCLE('',#1107,0.03);
#733=CIRCLE('',#1109,0.03);
#734=CIRCLE('',#1110,0.03);
#735=CIRCLE('',#1112,0.002125);
#736=CIRCLE('',#1113,0.002125);
#737=CIRCLE('',#1115,0.0016);
#738=CIRCLE('',#1116,0.0016);
#739=CIRCLE('',#1117,0.0234);
#740=CIRCLE('',#1118,0.0016);
#741=CIRCLE('',#1119,0.0266);
#742=CIRCLE('',#1120,0.03);
#743=CIRCLE('',#1121,0.03);
#744=CIRCLE('',#1123,0.03);
#745=CIRCLE('',#1124,0.03);
#746=CIRCLE('',#1126,0.03);
#747=CIRCLE('',#1129,0.03);
#748=CIRCLE('',#1131,0.0016);
#749=CIRCLE('',#1132,0.0016);
#750=CIRCLE('',#1134,0.0234);
#751=CIRCLE('',#1135,0.0234);
#752=CIRCLE('',#1137,0.0016);
#753=CIRCLE('',#1138,0.0016);
#754=CIRCLE('',#1140,0.0266);
#755=CIRCLE('',#1141,0.0266);
#756=CIRCLE('',#1143,0.0016);
#757=CIRCLE('',#1144,0.0016);
#758=CIRCLE('',#1149,0.0016);
#759=CIRCLE('',#1151,0.0234);
#760=CIRCLE('',#1153,0.0016);
#761=CIRCLE('',#1155,0.0266);
#762=CIRCLE('',#1157,0.0016);
#763=CIRCLE('',#1166,0.002125);
#764=CIRCLE('',#1168,0.002125);
#765=CIRCLE('',#1170,0.003887);
#766=CIRCLE('',#1173,0.003887);
#767=EDGE_LOOP('',(#203));
#768=EDGE_LOOP('',(#204));
#769=EDGE_LOOP('',(#205,#206,#207,#208,#209,#210,#211,#212));
#770=EDGE_LOOP('',(#213,#214,#215,#216,#217,#218,#219,#220));
#771=EDGE_LOOP('',(#221,#222,#223,#224));
#772=EDGE_LOOP('',(#225,#226,#227,#228));
#773=EDGE_LOOP('',(#229,#230,#231,#232));
#774=EDGE_LOOP('',(#233));
#775=EDGE_LOOP('',(#234));
#776=EDGE_LOOP('',(#235));
#777=EDGE_LOOP('',(#236));
#778=EDGE_LOOP('',(#237,#238,#239,#240));
#779=EDGE_LOOP('',(#241));
#780=EDGE_LOOP('',(#242));
#781=EDGE_LOOP('',(#243,#244,#245,#246,#247,#248,#249,#250));
#782=EDGE_LOOP('',(#251,#252,#253,#254));
#783=EDGE_LOOP('',(#255,#256,#257,#258));
#784=EDGE_LOOP('',(#259,#260,#261,#262));
#785=EDGE_LOOP('',(#263,#264,#265,#266));
#786=EDGE_LOOP('',(#267));
#787=EDGE_LOOP('',(#268));
#788=EDGE_LOOP('',(#269,#270,#271,#272));
#789=EDGE_LOOP('',(#273,#274,#275,#276));
#790=EDGE_LOOP('',(#277));
#791=EDGE_LOOP('',(#278));
#792=EDGE_LOOP('',(#279,#280,#281,#282));
#793=EDGE_LOOP('',(#283,#284,#285,#286));
#794=EDGE_LOOP('',(#287,#288,#289,#290,#291,#292,#293,#294));
#795=EDGE_LOOP('',(#295,#296,#297,#298));
#796=EDGE_LOOP('',(#299,#300,#301,#302));
#797=EDGE_LOOP('',(#303,#304,#305,#306));
#798=EDGE_LOOP('',(#307,#308,#309,#310));
#799=EDGE_LOOP('',(#311));
#800=EDGE_LOOP('',(#312));
#801=EDGE_LOOP('',(#313));
#802=EDGE_LOOP('',(#314));
#803=EDGE_LOOP('',(#315,#316,#317,#318));
#804=EDGE_LOOP('',(#319));
#805=EDGE_LOOP('',(#320,#321,#322,#323));
#806=EDGE_LOOP('',(#324));
#807=EDGE_LOOP('',(#325,#326,#327,#328));
#808=EDGE_LOOP('',(#329));
#809=EDGE_LOOP('',(#330));
#810=EDGE_LOOP('',(#331));
#811=EDGE_LOOP('',(#332,#333,#334,#335));
#812=EDGE_LOOP('',(#336,#337,#338,#339,#340,#341));
#813=EDGE_LOOP('',(#342,#343,#344,#345));
#814=EDGE_LOOP('',(#346,#347,#348,#349));
#815=EDGE_LOOP('',(#350,#351,#352,#353));
#816=EDGE_LOOP('',(#354,#355,#356,#357));
#817=EDGE_LOOP('',(#358,#359,#360,#361));
#818=EDGE_LOOP('',(#362,#363,#364,#365));
#819=EDGE_LOOP('',(#366,#367,#368,#369));
#820=EDGE_LOOP('',(#370,#371,#372,#373));
#821=EDGE_LOOP('',(#374));
#822=EDGE_LOOP('',(#375));
#823=EDGE_LOOP('',(#376,#377,#378,#379,#380,#381,#382,#383));
#824=EDGE_LOOP('',(#384,#385,#386,#387));
#825=EDGE_LOOP('',(#388,#389,#390,#391));
#826=EDGE_LOOP('',(#392,#393,#394,#395));
#827=EDGE_LOOP('',(#396,#397,#398,#399));
#828=EDGE_LOOP('',(#400,#401,#402,#403));
#829=EDGE_LOOP('',(#404,#405,#406,#407));
#830=EDGE_LOOP('',(#408));
#831=EDGE_LOOP('',(#409));
#832=EDGE_LOOP('',(#410));
#833=EDGE_LOOP('',(#411,#412,#413,#414));
#834=EDGE_LOOP('',(#415,#416,#417,#418,#419,#420));
#835=EDGE_LOOP('',(#421));
#836=EDGE_LOOP('',(#422,#423,#424,#425));
#837=EDGE_LOOP('',(#426,#427,#428,#429));
#838=EDGE_LOOP('',(#430,#431,#432,#433));
#839=EDGE_LOOP('',(#434));
#840=EDGE_LOOP('',(#435,#436,#437,#438));
#841=EDGE_LOOP('',(#439,#440,#441,#442,#443,#444,#445,#446,#447,#448));
#842=EDGE_LOOP('',(#449,#450,#451,#452,#453,#454));
#843=EDGE_LOOP('',(#455,#456,#457,#458));
#844=EDGE_LOOP('',(#459,#460,#461,#462));
#845=EDGE_LOOP('',(#463));
#846=EDGE_LOOP('',(#464));
#847=EDGE_LOOP('',(#465));
#848=EDGE_LOOP('',(#466));
#849=EDGE_LOOP('',(#467));
#850=EDGE_LOOP('',(#468));
#851=EDGE_LOOP('',(#469));
#852=EDGE_LOOP('',(#470));
#853=EDGE_LOOP('',(#471));
#854=EDGE_LOOP('',(#472));
#855=EDGE_LOOP('',(#473));
#856=EDGE_LOOP('',(#474));
#857=FACE_BOUND('',#767,.T.);
#858=FACE_BOUND('',#768,.T.);
#859=FACE_BOUND('',#769,.T.);
#860=FACE_BOUND('',#770,.T.);
#861=FACE_BOUND('',#771,.T.);
#862=FACE_BOUND('',#772,.T.);
#863=FACE_BOUND('',#773,.T.);
#864=FACE_BOUND('',#774,.T.);
#865=FACE_BOUND('',#775,.T.);
#866=FACE_BOUND('',#776,.T.);
#867=FACE_BOUND('',#777,.T.);
#868=FACE_BOUND('',#778,.T.);
#869=FACE_BOUND('',#779,.T.);
#870=FACE_BOUND('',#780,.T.);
#871=FACE_BOUND('',#781,.T.);
#872=FACE_BOUND('',#782,.T.);
#873=FACE_BOUND('',#783,.T.);
#874=FACE_BOUND('',#784,.T.);
#875=FACE_BOUND('',#785,.T.);
#876=FACE_BOUND('',#786,.T.);
#877=FACE_BOUND('',#787,.T.);
#878=FACE_BOUND('',#788,.T.);
#879=FACE_BOUND('',#789,.T.);
#880=FACE_BOUND('',#790,.T.);
#881=FACE_BOUND('',#791,.T.);
#882=FACE_BOUND('',#792,.T.);
#883=FACE_BOUND('',#793,.T.);
#884=FACE_BOUND('',#794,.T.);
#885=FACE_BOUND('',#795,.T.);
#886=FACE_BOUND('',#796,.T.);
#887=FACE_BOUND('',#797,.T.);
#888=FACE_BOUND('',#798,.T.);
#889=FACE_BOUND('',#799,.T.);
#890=FACE_BOUND('',#800,.T.);
#891=FACE_BOUND('',#801,.T.);
#892=FACE_BOUND('',#802,.T.);
#893=FACE_BOUND('',#803,.T.);
#894=FACE_BOUND('',#804,.T.);
#895=FACE_BOUND('',#805,.T.);
#896=FACE_BOUND('',#806,.T.);
#897=FACE_BOUND('',#807,.T.);
#898=FACE_BOUND('',#808,.T.);
#899=FACE_BOUND('',#809,.T.);
#900=FACE_BOUND('',#810,.T.);
#901=FACE_BOUND('',#811,.T.);
#902=FACE_BOUND('',#812,.T.);
#903=FACE_BOUND('',#813,.T.);
#904=FACE_BOUND('',#814,.T.);
#905=FACE_BOUND('',#815,.T.);
#906=FACE_BOUND('',#816,.T.);
#907=FACE_BOUND('',#817,.T.);
#908=FACE_BOUND('',#818,.T.);
#909=FACE_BOUND('',#819,.T.);
#910=FACE_BOUND('',#820,.T.);
#911=FACE_BOUND('',#821,.T.);
#912=FACE_BOUND('',#822,.T.);
#913=FACE_BOUND('',#823,.T.);
#914=FACE_BOUND('',#824,.T.);
#915=FACE_BOUND('',#825,.T.);
#916=FACE_BOUND('',#826,.T.);
#917=FACE_BOUND('',#827,.T.);
#918=FACE_BOUND('',#828,.T.);
#919=FACE_BOUND('',#829,.T.);
#920=FACE_BOUND('',#830,.T.);
#921=FACE_BOUND('',#831,.T.);
#922=FACE_BOUND('',#832,.T.);
#923=FACE_BOUND('',#833,.T.);
#924=FACE_BOUND('',#834,.T.);
#925=FACE_BOUND('',#835,.T.);
#926=FACE_BOUND('',#836,.T.);
#927=FACE_BOUND('',#837,.T.);
#928=FACE_BOUND('',#838,.T.);
#929=FACE_BOUND('',#839,.T.);
#930=FACE_BOUND('',#840,.T.);
#931=FACE_BOUND('',#841,.T.);
#932=FACE_BOUND('',#842,.T.);
#933=FACE_BOUND('',#843,.T.);
#934=FACE_BOUND('',#844,.T.);
#935=FACE_BOUND('',#845,.T.);
#936=FACE_BOUND('',#846,.T.);
#937=FACE_BOUND('',#847,.T.);
#938=FACE_BOUND('',#848,.T.);
#939=FACE_BOUND('',#849,.T.);
#940=FACE_BOUND('',#850,.T.);
#941=FACE_BOUND('',#851,.T.);
#942=FACE_BOUND('',#852,.T.);
#943=FACE_BOUND('',#853,.T.);
#944=FACE_BOUND('',#854,.T.);
#945=FACE_BOUND('',#855,.T.);
#946=FACE_BOUND('',#856,.T.);
#947=PLANE('',#1057);
#948=PLANE('',#1068);
#949=PLANE('',#1069);
#950=PLANE('',#1070);
#951=PLANE('',#1075);
#952=PLANE('',#1076);
#953=PLANE('',#1085);
#954=PLANE('',#1088);
#955=PLANE('',#1089);
#956=PLANE('',#1092);
#957=PLANE('',#1093);
#958=PLANE('',#1111);
#959=PLANE('',#1114);
#960=PLANE('',#1127);
#961=PLANE('',#1145);
#962=PLANE('',#1146);
#963=PLANE('',#1147);
#964=PLANE('',#1158);
#965=PLANE('',#1159);
#966=PLANE('',#1160);
#967=PLANE('',#1161);
#968=PLANE('',#1162);
#969=PLANE('',#1163);
#970=PLANE('',#1164);
#971=PLANE('',#1171);
#972=PLANE('',#1174);
#973=ADVANCED_FACE('',(#857,#858,#859,#860),#947,.T.);
#974=ADVANCED_FACE('',(#861),#948,.T.);
#975=ADVANCED_FACE('',(#862),#949,.F.);
#976=ADVANCED_FACE('',(#863),#950,.F.);
#977=ADVANCED_FACE('',(#864,#865),#24,.F.);
#978=ADVANCED_FACE('',(#866,#867),#25,.F.);
#979=ADVANCED_FACE('',(#868),#951,.T.);
#980=ADVANCED_FACE('',(#869,#870,#871),#952,.F.);
#981=ADVANCED_FACE('',(#872),#26,.T.);
#982=ADVANCED_FACE('',(#873),#27,.T.);
#983=ADVANCED_FACE('',(#874),#28,.T.);
#984=ADVANCED_FACE('',(#875),#29,.T.);
#985=ADVANCED_FACE('',(#876,#877,#878),#953,.T.);
#986=ADVANCED_FACE('',(#879),#954,.F.);
#987=ADVANCED_FACE('',(#880,#881,#882),#955,.F.);
#988=ADVANCED_FACE('',(#883),#956,.T.);
#989=ADVANCED_FACE('',(#884),#957,.T.);
#990=ADVANCED_FACE('',(#885),#30,.T.);
#991=ADVANCED_FACE('',(#886),#31,.T.);
#992=ADVANCED_FACE('',(#887),#32,.T.);
#993=ADVANCED_FACE('',(#888),#33,.T.);
#994=ADVANCED_FACE('',(#889,#890),#34,.F.);
#995=ADVANCED_FACE('',(#891,#892),#35,.F.);
#996=ADVANCED_FACE('',(#893,#894),#36,.F.);
#997=ADVANCED_FACE('',(#895,#896),#37,.F.);
#998=ADVANCED_FACE('',(#897,#898,#899),#958,.T.);
#999=ADVANCED_FACE('',(#900,#901,#902),#959,.T.);
#1000=ADVANCED_FACE('',(#903),#38,.T.);
#1001=ADVANCED_FACE('',(#904),#39,.T.);
#1002=ADVANCED_FACE('',(#905),#960,.F.);
#1003=ADVANCED_FACE('',(#906),#40,.T.);
#1004=ADVANCED_FACE('',(#907),#41,.F.);
#1005=ADVANCED_FACE('',(#908),#42,.T.);
#1006=ADVANCED_FACE('',(#909),#43,.F.);
#1007=ADVANCED_FACE('',(#910),#44,.F.);
#1008=ADVANCED_FACE('',(#911,#912),#45,.F.);
#1009=ADVANCED_FACE('',(#913),#961,.T.);
#1010=ADVANCED_FACE('',(#914),#962,.T.);
#1011=ADVANCED_FACE('',(#915),#963,.F.);
#1012=ADVANCED_FACE('',(#916),#46,.F.);
#1013=ADVANCED_FACE('',(#917),#47,.T.);
#1014=ADVANCED_FACE('',(#918),#48,.F.);
#1015=ADVANCED_FACE('',(#919),#49,.F.);
#1016=ADVANCED_FACE('',(#920,#921),#50,.F.);
#1017=ADVANCED_FACE('',(#922,#923,#924),#964,.F.);
#1018=ADVANCED_FACE('',(#925,#926,#927),#965,.T.);
#1019=ADVANCED_FACE('',(#928,#929,#930),#966,.F.);
#1020=ADVANCED_FACE('',(#931),#967,.F.);
#1021=ADVANCED_FACE('',(#932),#968,.T.);
#1022=ADVANCED_FACE('',(#933),#969,.F.);
#1023=ADVANCED_FACE('',(#934),#970,.T.);
#1024=ADVANCED_FACE('',(#935,#936),#51,.F.);
#1025=ADVANCED_FACE('',(#937,#938),#52,.F.);
#1026=ADVANCED_FACE('',(#939,#940),#53,.F.);
#1027=ADVANCED_FACE('',(#941,#942),#971,.F.);
#1028=ADVANCED_FACE('',(#943,#944),#54,.F.);
#1029=ADVANCED_FACE('',(#945,#946),#972,.F.);
#1030=CLOSED_SHELL('',(#973,#974,#975,#976,#977,#978,#979,#980,#981,#982,
#983,#984,#985,#986,#987,#988,#989,#990,#991,#992,#993,#994,#995));
#1031=CLOSED_SHELL('',(#996,#997,#998,#999,#1000,#1001,#1002,#1003,#1004,
#1005,#1006,#1007,#1008,#1009,#1010,#1011,#1012,#1013,#1014,#1015,#1016,
#1017,#1018,#1019,#1020,#1021,#1022,#1023,#1024,#1025,#1026,#1027,#1028,
#1029));
#1032=STYLED_ITEM('',(#1034),#1048);
#1033=STYLED_ITEM('',(#1035),#1049);
#1034=PRESENTATION_STYLE_ASSIGNMENT((#1036));
#1035=PRESENTATION_STYLE_ASSIGNMENT((#1037));
#1036=SURFACE_STYLE_USAGE(.BOTH.,#1038);
#1037=SURFACE_STYLE_USAGE(.BOTH.,#1039);
#1038=SURFACE_SIDE_STYLE('',(#1040));
#1039=SURFACE_SIDE_STYLE('',(#1041));
#1040=SURFACE_STYLE_FILL_AREA(#1042);
#1041=SURFACE_STYLE_FILL_AREA(#1043);
#1042=FILL_AREA_STYLE('',(#1044));
#1043=FILL_AREA_STYLE('',(#1045));
#1044=FILL_AREA_STYLE_COLOUR('',#1046);
#1045=FILL_AREA_STYLE_COLOUR('',#1047);
#1046=COLOUR_RGB('',0.0862745098039216,0.894117647058824,0.870588235294118);
#1047=COLOUR_RGB('',0.427450980392157,0.847058823529412,0.227450980392157);
#1048=MANIFOLD_SOLID_BREP('Base',#1030);
#1049=MANIFOLD_SOLID_BREP('Hinge and camera t bar',#1031);
#1050=SHAPE_DEFINITION_REPRESENTATION(#1832,#1053);
#1051=SHAPE_DEFINITION_REPRESENTATION(#1833,#1054);
#1052=SHAPE_DEFINITION_REPRESENTATION(#1835,#1055);
#1053=SHAPE_REPRESENTATION('Camera Mount V2',(#1056,#1104,#1175),#1823);
#1054=SHAPE_REPRESENTATION('Base',(#1056),#1824);
#1055=SHAPE_REPRESENTATION('Hinge and camera t bar',(#1056),#1825);
#1056=AXIS2_PLACEMENT_3D('',#1490,#1176,#1177);
#1057=AXIS2_PLACEMENT_3D('',#1491,#1178,#1179);
#1058=AXIS2_PLACEMENT_3D('',#1492,#1180,#1181);
#1059=AXIS2_PLACEMENT_3D('',#1494,#1182,#1183);
#1060=AXIS2_PLACEMENT_3D('',#1499,#1185,#1186);
#1061=AXIS2_PLACEMENT_3D('',#1503,#1188,#1189);
#1062=AXIS2_PLACEMENT_3D('',#1507,#1191,#1192);
#1063=AXIS2_PLACEMENT_3D('',#1511,#1194,#1195);
#1064=AXIS2_PLACEMENT_3D('',#1515,#1197,#1198);
#1065=AXIS2_PLACEMENT_3D('',#1519,#1200,#1201);
#1066=AXIS2_PLACEMENT_3D('',#1523,#1203,#1204);
#1067=AXIS2_PLACEMENT_3D('',#1527,#1206,#1207);
#1068=AXIS2_PLACEMENT_3D('',#1528,#1208,#1209);
#1069=AXIS2_PLACEMENT_3D('',#1534,#1213,#1214);
#1070=AXIS2_PLACEMENT_3D('',#1540,#1218,#1219);
#1071=AXIS2_PLACEMENT_3D('',#1546,#1223,#1224);
#1072=AXIS2_PLACEMENT_3D('',#1547,#1225,#1226);
#1073=AXIS2_PLACEMENT_3D('',#1549,#1227,#1228);
#1074=AXIS2_PLACEMENT_3D('',#1550,#1229,#1230);
#1075=AXIS2_PLACEMENT_3D('',#1552,#1231,#1232);
#1076=AXIS2_PLACEMENT_3D('',#1558,#1236,#1237);
#1077=AXIS2_PLACEMENT_3D('',#1559,#1238,#1239);
#1078=AXIS2_PLACEMENT_3D('',#1560,#1240,#1241);
#1079=AXIS2_PLACEMENT_3D('',#1561,#1242,#1243);
#1080=AXIS2_PLACEMENT_3D('',#1562,#1244,#1245);
#1081=AXIS2_PLACEMENT_3D('',#1563,#1246,#1247);
#1082=AXIS2_PLACEMENT_3D('',#1564,#1248,#1249);
#1083=AXIS2_PLACEMENT_3D('',#1565,#1250,#1251);
#1084=AXIS2_PLACEMENT_3D('',#1566,#1252,#1253);
#1085=AXIS2_PLACEMENT_3D('',#1567,#1254,#1255);
#1086=AXIS2_PLACEMENT_3D('',#1568,#1256,#1257);
#1087=AXIS2_PLACEMENT_3D('',#1570,#1258,#1259);
#1088=AXIS2_PLACEMENT_3D('',#1577,#1263,#1264);
#1089=AXIS2_PLACEMENT_3D('',#1583,#1268,#1269);
#1090=AXIS2_PLACEMENT_3D('',#1584,#1270,#1271);
#1091=AXIS2_PLACEMENT_3D('',#1586,#1272,#1273);
#1092=AXIS2_PLACEMENT_3D('',#1593,#1277,#1278);
#1093=AXIS2_PLACEMENT_3D('',#1599,#1282,#1283);
#1094=AXIS2_PLACEMENT_3D('',#1600,#1284,#1285);
#1095=AXIS2_PLACEMENT_3D('',#1601,#1286,#1287);
#1096=AXIS2_PLACEMENT_3D('',#1602,#1288,#1289);
#1097=AXIS2_PLACEMENT_3D('',#1603,#1290,#1291);
#1098=AXIS2_PLACEMENT_3D('',#1604,#1292,#1293);
#1099=AXIS2_PLACEMENT_3D('',#1605,#1294,#1295);
#1100=AXIS2_PLACEMENT_3D('',#1606,#1296,#1297);
#1101=AXIS2_PLACEMENT_3D('',#1607,#1298,#1299);
#1102=AXIS2_PLACEMENT_3D('',#1608,#1300,#1301);
#1103=AXIS2_PLACEMENT_3D('',#1609,#1302,#1303);
#1104=AXIS2_PLACEMENT_3D('',#1610,#1304,#1305);
#1105=AXIS2_PLACEMENT_3D('',#1611,#1306,#1307);
#1106=AXIS2_PLACEMENT_3D('',#1615,#1309,#1310);
#1107=AXIS2_PLACEMENT_3D('',#1619,#1312,#1313);
#1108=AXIS2_PLACEMENT_3D('',#1642,#1314,#1315);
#1109=AXIS2_PLACEMENT_3D('',#1643,#1316,#1317);
#1110=AXIS2_PLACEMENT_3D('',#1648,#1319,#1320);
#1111=AXIS2_PLACEMENT_3D('',#1673,#1322,#1323);
#1112=AXIS2_PLACEMENT_3D('',#1682,#1328,#1329);
#1113=AXIS2_PLACEMENT_3D('',#1684,#1330,#1331);
#1114=AXIS2_PLACEMENT_3D('',#1686,#1332,#1333);
#1115=AXIS2_PLACEMENT_3D('',#1687,#1334,#1335);
#1116=AXIS2_PLACEMENT_3D('',#1689,#1336,#1337);
#1117=AXIS2_PLACEMENT_3D('',#1692,#1338,#1339);
#1118=AXIS2_PLACEMENT_3D('',#1694,#1340,#1341);
#1119=AXIS2_PLACEMENT_3D('',#1696,#1342,#1343);
#1120=AXIS2_PLACEMENT_3D('',#1697,#1344,#1345);
#1121=AXIS2_PLACEMENT_3D('',#1699,#1346,#1347);
#1122=AXIS2_PLACEMENT_3D('',#1706,#1351,#1352);
#1123=AXIS2_PLACEMENT_3D('',#1709,#1354,#1355);
#1124=AXIS2_PLACEMENT_3D('',#1713,#1357,#1358);
#1125=AXIS2_PLACEMENT_3D('',#1714,#1359,#1360);
#1126=AXIS2_PLACEMENT_3D('',#1717,#1362,#1363);
#1127=AXIS2_PLACEMENT_3D('',#1720,#1365,#1366);
#1128=AXIS2_PLACEMENT_3D('',#1726,#1370,#1371);
#1129=AXIS2_PLACEMENT_3D('',#1727,#1372,#1373);
#1130=AXIS2_PLACEMENT_3D('',#1731,#1376,#1377);
#1131=AXIS2_PLACEMENT_3D('',#1735,#1379,#1380);
#1132=AXIS2_PLACEMENT_3D('',#1739,#1382,#1383);
#1133=AXIS2_PLACEMENT_3D('',#1740,#1384,#1385);
#1134=AXIS2_PLACEMENT_3D('',#1741,#1386,#1387);
#1135=AXIS2_PLACEMENT_3D('',#1743,#1388,#1389);
#1136=AXIS2_PLACEMENT_3D('',#1746,#1391,#1392);
#1137=AXIS2_PLACEMENT_3D('',#1750,#1394,#1395);
#1138=AXIS2_PLACEMENT_3D('',#1751,#1396,#1397);
#1139=AXIS2_PLACEMENT_3D('',#1752,#1398,#1399);
#1140=AXIS2_PLACEMENT_3D('',#1753,#1400,#1401);
#1141=AXIS2_PLACEMENT_3D('',#1754,#1402,#1403);
#1142=AXIS2_PLACEMENT_3D('',#1755,#1404,#1405);
#1143=AXIS2_PLACEMENT_3D('',#1756,#1406,#1407);
#1144=AXIS2_PLACEMENT_3D('',#1758,#1408,#1409);
#1145=AXIS2_PLACEMENT_3D('',#1760,#1410,#1411);
#1146=AXIS2_PLACEMENT_3D('',#1771,#1418,#1419);
#1147=AXIS2_PLACEMENT_3D('',#1773,#1421,#1422);
#1148=AXIS2_PLACEMENT_3D('',#1775,#1424,#1425);
#1149=AXIS2_PLACEMENT_3D('',#1776,#1426,#1427);
#1150=AXIS2_PLACEMENT_3D('',#1781,#1430,#1431);
#1151=AXIS2_PLACEMENT_3D('',#1782,#1432,#1433);
#1152=AXIS2_PLACEMENT_3D('',#1785,#1435,#1436);
#1153=AXIS2_PLACEMENT_3D('',#1786,#1437,#1438);
#1154=AXIS2_PLACEMENT_3D('',#1789,#1440,#1441);
#1155=AXIS2_PLACEMENT_3D('',#1790,#1442,#1443);
#1156=AXIS2_PLACEMENT_3D('',#1791,#1444,#1445);
#1157=AXIS2_PLACEMENT_3D('',#1792,#1446,#1447);
#1158=AXIS2_PLACEMENT_3D('',#1794,#1448,#1449);
#1159=AXIS2_PLACEMENT_3D('',#1795,#1450,#1451);
#1160=AXIS2_PLACEMENT_3D('',#1797,#1453,#1454);
#1161=AXIS2_PLACEMENT_3D('',#1799,#1456,#1457);
#1162=AXIS2_PLACEMENT_3D('',#1802,#1460,#1461);
#1163=AXIS2_PLACEMENT_3D('',#1805,#1464,#1465);
#1164=AXIS2_PLACEMENT_3D('',#1806,#1466,#1467);
#1165=AXIS2_PLACEMENT_3D('',#1807,#1468,#1469);
#1166=AXIS2_PLACEMENT_3D('',#1808,#1470,#1471);
#1167=AXIS2_PLACEMENT_3D('',#1810,#1472,#1473);
#1168=AXIS2_PLACEMENT_3D('',#1811,#1474,#1475);
#1169=AXIS2_PLACEMENT_3D('',#1813,#1476,#1477);
#1170=AXIS2_PLACEMENT_3D('',#1814,#1478,#1479);
#1171=AXIS2_PLACEMENT_3D('',#1816,#1480,#1481);
#1172=AXIS2_PLACEMENT_3D('',#1817,#1482,#1483);
#1173=AXIS2_PLACEMENT_3D('',#1818,#1484,#1485);
#1174=AXIS2_PLACEMENT_3D('',#1820,#1486,#1487);
#1175=AXIS2_PLACEMENT_3D('',#1821,#1488,#1489);
#1176=DIRECTION('',(0.,0.,1.));
#1177=DIRECTION('',(1.,0.,0.));
#1178=DIRECTION('',(0.,0.,1.));
#1179=DIRECTION('',(1.,0.,0.));
#1180=DIRECTION('',(0.,0.,-1.));
#1181=DIRECTION('',(1.,0.,0.));
#1182=DIRECTION('',(0.,0.,1.));
#1183=DIRECTION('',(1.,0.,0.));
#1184=DIRECTION('',(6.93889390390723E-17,-1.,0.));
#1185=DIRECTION('',(0.,0.,1.));
#1186=DIRECTION('',(1.,0.,0.));
#1187=DIRECTION('',(1.,0.,0.));
#1188=DIRECTION('',(0.,0.,1.));
#1189=DIRECTION('',(1.,0.,0.));
#1190=DIRECTION('',(0.,-1.,0.));
#1191=DIRECTION('',(0.,0.,1.));
#1192=DIRECTION('',(1.,0.,0.));
#1193=DIRECTION('',(1.,0.,0.));
#1194=DIRECTION('',(0.,0.,1.));
#1195=DIRECTION('',(1.,0.,0.));
#1196=DIRECTION('',(0.,-1.,0.));
#1197=DIRECTION('',(0.,0.,1.));
#1198=DIRECTION('',(1.,0.,0.));
#1199=DIRECTION('',(1.,0.,0.));
#1200=DIRECTION('',(0.,0.,1.));
#1201=DIRECTION('',(1.,0.,0.));
#1202=DIRECTION('',(0.,-1.,0.));
#1203=DIRECTION('',(0.,0.,1.));
#1204=DIRECTION('',(1.,0.,0.));
#1205=DIRECTION('',(1.,0.,0.));
#1206=DIRECTION('',(0.,0.,1.));
#1207=DIRECTION('',(1.,0.,0.));
#1208=DIRECTION('',(0.,1.,0.));
#1209=DIRECTION('',(0.,0.,1.));
#1210=DIRECTION('',(0.,0.,-1.));
#1211=DIRECTION('',(1.,0.,0.));
#1212=DIRECTION('',(0.,0.,-1.));
#1213=DIRECTION('',(1.,0.,0.));
#1214=DIRECTION('',(0.,0.,-1.));
#1215=DIRECTION('',(0.,0.,-1.));
#1216=DIRECTION('',(0.,-1.,0.));
#1217=DIRECTION('',(0.,0.,-1.));
#1218=DIRECTION('',(0.,1.,0.));
#1219=DIRECTION('',(0.,0.,1.));
#1220=DIRECTION('',(0.,0.,-1.));
#1221=DIRECTION('',(1.,0.,0.));
#1222=DIRECTION('',(0.,0.,-1.));
#1223=DIRECTION('',(0.,0.,-1.));
#1224=DIRECTION('',(-1.,0.,0.));
#1225=DIRECTION('',(0.,0.,1.));
#1226=DIRECTION('',(1.,0.,0.));
#1227=DIRECTION('',(0.,0.,-1.));
#1228=DIRECTION('',(-1.,0.,0.));
#1229=DIRECTION('',(0.,0.,-1.));
#1230=DIRECTION('',(1.,0.,0.));
#1231=DIRECTION('',(1.,6.93889390390723E-17,0.));
#1232=DIRECTION('',(-6.93889390390723E-17,1.,0.));
#1233=DIRECTION('',(6.93889390390723E-17,-1.,0.));
#1234=DIRECTION('',(0.,0.,-1.));
#1235=DIRECTION('',(0.,0.,-1.));
#1236=DIRECTION('',(0.,0.,1.));
#1237=DIRECTION('',(1.,0.,0.));
#1238=DIRECTION('',(0.,0.,1.));
#1239=DIRECTION('',(1.,0.,0.));
#1240=DIRECTION('',(0.,0.,1.));
#1241=DIRECTION('',(1.,0.,0.));
#1242=DIRECTION('',(0.,0.,1.));
#1243=DIRECTION('',(1.,0.,0.));
#1244=DIRECTION('',(0.,0.,1.));
#1245=DIRECTION('',(1.,0.,0.));
#1246=DIRECTION('',(0.,0.,-1.));
#1247=DIRECTION('',(-1.,0.,0.));
#1248=DIRECTION('',(0.,0.,1.));
#1249=DIRECTION('',(1.,0.,0.));
#1250=DIRECTION('',(0.,0.,-1.));
#1251=DIRECTION('',(-1.,0.,0.));
#1252=DIRECTION('',(0.,0.,1.));
#1253=DIRECTION('',(1.,0.,0.));
#1254=DIRECTION('',(0.,1.,0.));
#1255=DIRECTION('',(0.,0.,1.));
#1256=DIRECTION('',(0.,1.,0.));
#1257=DIRECTION('',(0.,0.,1.));
#1258=DIRECTION('',(0.,1.,0.));
#1259=DIRECTION('',(0.,0.,1.));
#1260=DIRECTION('',(1.,0.,0.));
#1261=DIRECTION('',(0.,0.,-1.));
#1262=DIRECTION('',(0.,0.,-1.));
#1263=DIRECTION('',(1.,0.,0.));
#1264=DIRECTION('',(0.,0.,-1.));
#1265=DIRECTION('',(0.,-1.,0.));
#1266=DIRECTION('',(0.,0.,-1.));
#1267=DIRECTION('',(0.,0.,-1.));
#1268=DIRECTION('',(0.,1.,0.));
#1269=DIRECTION('',(0.,0.,1.));
#1270=DIRECTION('',(0.,-1.,0.));
#1271=DIRECTION('',(0.,0.,-1.));
#1272=DIRECTION('',(0.,-1.,0.));
#1273=DIRECTION('',(0.,0.,-1.));
#1274=DIRECTION('',(0.,0.,-1.));
#1275=DIRECTION('',(1.,0.,0.));
#1276=DIRECTION('',(0.,0.,-1.));
#1277=DIRECTION('',(1.,0.,0.));
#1278=DIRECTION('',(0.,0.,-1.));
#1279=DIRECTION('',(0.,0.,-1.));
#1280=DIRECTION('',(0.,-1.,0.));
#1281=DIRECTION('',(0.,0.,-1.));
#1282=DIRECTION('',(0.,0.,1.));
#1283=DIRECTION('',(1.,0.,0.));
#1284=DIRECTION('',(0.,0.,1.));
#1285=DIRECTION('',(1.,0.,0.));
#1286=DIRECTION('',(0.,0.,1.));
#1287=DIRECTION('',(1.,0.,0.));
#1288=DIRECTION('',(0.,0.,1.));
#1289=DIRECTION('',(1.,0.,0.));
#1290=DIRECTION('',(0.,0.,1.));
#1291=DIRECTION('',(1.,0.,0.));
#1292=DIRECTION('',(0.,0.,-1.));
#1293=DIRECTION('',(-1.,0.,0.));
#1294=DIRECTION('',(0.,0.,1.));
#1295=DIRECTION('',(1.,0.,0.));
#1296=DIRECTION('',(0.,0.,1.));
#1297=DIRECTION('',(1.,0.,0.));
#1298=DIRECTION('',(0.,0.,-1.));
#1299=DIRECTION('',(-1.,0.,0.));
#1300=DIRECTION('',(0.,-1.,0.));
#1301=DIRECTION('',(0.,0.,-1.));
#1302=DIRECTION('',(0.,-1.,0.));
#1303=DIRECTION('',(0.,0.,-1.));
#1304=DIRECTION('',(2.46519032881569E-32,2.2204460492503E-16,1.));
#1305=DIRECTION('',(1.,0.,-2.46519032881569E-32));
#1306=DIRECTION('',(0.,-1.,0.));
#1307=DIRECTION('',(0.,0.,-1.));
#1308=DIRECTION('',(0.,-1.,0.));
#1309=DIRECTION('',(0.,-1.,0.));
#1310=DIRECTION('',(0.,0.,-1.));
#1311=DIRECTION('',(0.,-1.,0.));
#1312=DIRECTION('',(0.,-1.,0.));
#1313=DIRECTION('',(0.,0.,-1.));
#1314=DIRECTION('',(0.,1.,0.));
#1315=DIRECTION('',(0.,0.,1.));
#1316=DIRECTION('',(0.,-1.,0.));
#1317=DIRECTION('',(0.,0.,-1.));
#1318=DIRECTION('',(0.,1.,0.));
#1319=DIRECTION('',(0.,-1.,0.));
#1320=DIRECTION('',(0.,0.,-1.));
#1321=DIRECTION('',(0.,1.,0.));
#1322=DIRECTION('',(-1.,0.,0.));
#1323=DIRECTION('',(0.,0.,1.));
#1324=DIRECTION('',(0.,-1.,0.));
#1325=DIRECTION('',(0.,0.,-1.));
#1326=DIRECTION('',(0.,-1.,0.));
#1327=DIRECTION('',(0.,0.,-1.));
#1328=DIRECTION('',(-1.,0.,0.));
#1329=DIRECTION('',(0.,0.,1.));
#1330=DIRECTION('',(1.,0.,0.));
#1331=DIRECTION('',(0.,0.,1.));
#1332=DIRECTION('',(0.,-1.,0.));
#1333=DIRECTION('',(1.,0.,0.));
#1334=DIRECTION('',(0.,-1.,0.));
#1335=DIRECTION('',(0.,0.,-1.));
#1336=DIRECTION('',(0.,-1.,0.));
#1337=DIRECTION('',(0.,0.,-1.));
#1338=DIRECTION('',(0.,-1.,0.));
#1339=DIRECTION('',(0.,0.,-1.));
#1340=DIRECTION('',(0.,-1.,0.));
#1341=DIRECTION('',(0.,0.,-1.));
#1342=DIRECTION('',(0.,-1.,0.));
#1343=DIRECTION('',(0.,0.,-1.));
#1344=DIRECTION('',(0.,-1.,0.));
#1345=DIRECTION('',(0.,0.,-1.));
#1346=DIRECTION('',(0.,-1.,0.));
#1347=DIRECTION('',(0.,0.,-1.));
#1348=DIRECTION('',(1.,0.,0.));
#1349=DIRECTION('',(5.78241158658936E-17,0.,-1.));
#1350=DIRECTION('',(1.,0.,0.));
#1351=DIRECTION('',(0.,1.,0.));
#1352=DIRECTION('',(0.,0.,1.));
#1353=DIRECTION('',(0.,-1.,0.));
#1354=DIRECTION('',(0.,-1.,0.));
#1355=DIRECTION('',(0.,0.,-1.));
#1356=DIRECTION('',(0.,1.,0.));
#1357=DIRECTION('',(4.45817116756305E-33,-1.,-7.70988211545248E-17));
#1358=DIRECTION('',(0.,7.70988211545248E-17,-1.));
#1359=DIRECTION('',(0.,1.,0.));
#1360=DIRECTION('',(0.,0.,1.));
#1361=DIRECTION('',(0.,-1.,0.));
#1362=DIRECTION('',(8.91634233512609E-33,-1.,-1.54197642309049E-16));
#1363=DIRECTION('',(0.,1.54197642309049E-16,-1.));
#1364=DIRECTION('',(0.,1.,0.));
#1365=DIRECTION('',(0.,0.,1.));
#1366=DIRECTION('',(1.,0.,0.));
#1367=DIRECTION('',(1.,0.,5.78241158658936E-17));
#1368=DIRECTION('',(1.,0.,0.));
#1369=DIRECTION('',(0.,1.,0.));
#1370=DIRECTION('',(0.,1.,0.));
#1371=DIRECTION('',(0.,0.,1.));
#1372=DIRECTION('',(0.,-1.,0.));
#1373=DIRECTION('',(0.,0.,-1.));
#1374=DIRECTION('',(0.,-1.,0.));
#1375=DIRECTION('',(0.,1.,0.));
#1376=DIRECTION('',(0.,1.,0.));
#1377=DIRECTION('',(0.,0.,1.));
#1378=DIRECTION('',(0.,1.,0.));
#1379=DIRECTION('',(4.45817116756305E-33,-1.,-7.70988211545248E-17));
#1380=DIRECTION('',(0.,7.70988211545248E-17,-1.));
#1381=DIRECTION('',(0.,1.,0.));
#1382=DIRECTION('',(0.,-1.,0.));
#1383=DIRECTION('',(0.,0.,-1.));
#1384=DIRECTION('',(0.,1.,0.));
#1385=DIRECTION('',(0.,0.,1.));
#1386=DIRECTION('',(4.45817116756305E-33,-1.,-7.70988211545248E-17));
#1387=DIRECTION('',(0.,7.70988211545248E-17,-1.));
#1388=DIRECTION('',(0.,-1.,0.));
#1389=DIRECTION('',(0.,0.,-1.));
#1390=DIRECTION('',(0.,1.,0.));
#1391=DIRECTION('',(0.,1.,0.));
#1392=DIRECTION('',(0.,0.,1.));
#1393=DIRECTION('',(0.,1.,0.));
#1394=DIRECTION('',(4.45817116756305E-33,-1.,-7.70988211545248E-17));
#1395=DIRECTION('',(0.,7.70988211545248E-17,-1.));
#1396=DIRECTION('',(0.,-1.,0.));
#1397=DIRECTION('',(0.,0.,-1.));
#1398=DIRECTION('',(0.,1.,0.));
#1399=DIRECTION('',(0.,0.,1.));
#1400=DIRECTION('',(4.45817116756305E-33,-1.,-7.70988211545248E-17));
#1401=DIRECTION('',(0.,7.70988211545248E-17,-1.));
#1402=DIRECTION('',(0.,-1.,0.));
#1403=DIRECTION('',(0.,0.,-1.));
#1404=DIRECTION('',(0.,1.,0.));
#1405=DIRECTION('',(0.,0.,1.));
#1406=DIRECTION('',(0.,-1.,0.));
#1407=DIRECTION('',(0.,0.,-1.));
#1408=DIRECTION('',(4.45817116756305E-33,-1.,-7.70988211545248E-17));
#1409=DIRECTION('',(0.,7.70988211545248E-17,-1.));
#1410=DIRECTION('',(1.,0.,5.78241158658936E-17));
#1411=DIRECTION('',(5.78241158658936E-17,0.,-1.));
#1412=DIRECTION('',(0.,-1.,0.));
#1413=DIRECTION('',(5.78241158658936E-17,7.70988211545248E-17,-1.));
#1414=DIRECTION('',(5.78241158658936E-17,0.,-1.));
#1415=DIRECTION('',(0.,1.,0.));
#1416=DIRECTION('',(0.,1.,0.));
#1417=DIRECTION('',(5.78241158658936E-17,1.54197642309049E-16,-1.));
#1418=DIRECTION('',(0.,0.,1.));
#1419=DIRECTION('',(1.,0.,0.));
#1420=DIRECTION('',(1.,0.,0.));
#1421=DIRECTION('',(0.,0.,1.));
#1422=DIRECTION('',(1.,0.,0.));
#1423=DIRECTION('',(1.,0.,5.78241158658936E-17));
#1424=DIRECTION('',(0.,1.,0.));
#1425=DIRECTION('',(0.,0.,1.));
#1426=DIRECTION('',(8.91634233512609E-33,-1.,-1.54197642309049E-16));
#1427=DIRECTION('',(0.,1.54197642309049E-16,-1.));
#1428=DIRECTION('',(0.,1.,0.));
#1429=DIRECTION('',(0.,1.,0.));
#1430=DIRECTION('',(0.,1.,0.));
#1431=DIRECTION('',(0.,0.,1.));
#1432=DIRECTION('',(8.91634233512609E-33,-1.,-1.54197642309049E-16));
#1433=DIRECTION('',(0.,1.54197642309049E-16,-1.));
#1434=DIRECTION('',(0.,1.,0.));
#1435=DIRECTION('',(0.,1.,0.));
#1436=DIRECTION('',(0.,0.,1.));
#1437=DIRECTION('',(8.91634233512609E-33,-1.,-1.54197642309049E-16));
#1438=DIRECTION('',(0.,1.54197642309049E-16,-1.));
#1439=DIRECTION('',(0.,1.,0.));
#1440=DIRECTION('',(0.,1.,0.));
#1441=DIRECTION('',(0.,0.,1.));
#1442=DIRECTION('',(8.91634233512609E-33,-1.,-1.54197642309049E-16));
#1443=DIRECTION('',(0.,1.54197642309049E-16,-1.));
#1444=DIRECTION('',(0.,1.,0.));
#1445=DIRECTION('',(0.,0.,1.));
#1446=DIRECTION('',(8.91634233512609E-33,-1.,-1.54197642309049E-16));
#1447=DIRECTION('',(0.,1.54197642309049E-16,-1.));
#1448=DIRECTION('',(0.,-1.,0.));
#1449=DIRECTION('',(1.,0.,0.));
#1450=DIRECTION('',(4.45817116756305E-33,-1.,-7.70988211545248E-17));
#1451=DIRECTION('',(0.,7.70988211545248E-17,-1.));
#1452=DIRECTION('',(1.,0.,5.78241158658936E-17));
#1453=DIRECTION('',(8.91634233512609E-33,-1.,-1.54197642309049E-16));
#1454=DIRECTION('',(0.,1.54197642309049E-16,-1.));
#1455=DIRECTION('',(1.,0.,5.78241158658936E-17));
#1456=DIRECTION('',(-5.78241158658936E-17,0.,1.));
#1457=DIRECTION('',(1.,0.,5.78241158658936E-17));
#1458=DIRECTION('',(-1.,0.,-1.3010426069826E-16));
#1459=DIRECTION('',(-1.,0.,-1.3010426069826E-16));
#1460=DIRECTION('',(-1.7347234759768E-16,0.,1.));
#1461=DIRECTION('',(1.,0.,1.7347234759768E-16));
#1462=DIRECTION('',(-1.,0.,-1.7347234759768E-16));
#1463=DIRECTION('',(-1.,0.,-1.7347234759768E-16));
#1464=DIRECTION('',(0.,-1.,0.));
#1465=DIRECTION('',(1.,0.,0.));
#1466=DIRECTION('',(0.,-1.,0.));
#1467=DIRECTION('',(1.,0.,0.));
#1468=DIRECTION('',(-1.,0.,0.));
#1469=DIRECTION('',(0.,0.,1.));
#1470=DIRECTION('',(-1.,0.,0.));
#1471=DIRECTION('',(0.,0.,1.));
#1472=DIRECTION('',(-1.,0.,0.));
#1473=DIRECTION('',(0.,0.,1.));
#1474=DIRECTION('',(-1.,0.,0.));
#1475=DIRECTION('',(0.,0.,1.));
#1476=DIRECTION('',(1.,0.,0.));
#1477=DIRECTION('',(0.,0.,-1.));
#1478=DIRECTION('',(-1.,0.,0.));
#1479=DIRECTION('',(0.,0.,1.));
#1480=DIRECTION('',(-1.,0.,0.));
#1481=DIRECTION('',(0.,-1.,0.));
#1482=DIRECTION('',(1.,0.,0.));
#1483=DIRECTION('',(0.,0.,-1.));
#1484=DIRECTION('',(-1.,0.,0.));
#1485=DIRECTION('',(0.,0.,1.));
#1486=DIRECTION('',(-1.,0.,0.));
#1487=DIRECTION('',(0.,-1.,0.));
#1488=DIRECTION('',(2.89846484116667E-47,3.76242247234079E-16,1.));
#1489=DIRECTION('',(1.,-7.70371977754903E-32,0.));
#1490=CARTESIAN_POINT('',(0.,0.,0.));
#1491=CARTESIAN_POINT('',(3.46944695195361E-18,3.46944695195361E-18,0.015));
#1492=CARTESIAN_POINT('',(0.,-0.02,0.015));
#1493=CARTESIAN_POINT('',(0.0016,-0.02,0.015));
#1494=CARTESIAN_POINT('',(0.,0.02,0.015));
#1495=CARTESIAN_POINT('',(0.0016,0.02,0.015));
#1496=CARTESIAN_POINT('',(0.025,3.46944695195361E-18,0.015));
#1497=CARTESIAN_POINT('',(0.025,0.02,0.015));
#1498=CARTESIAN_POINT('',(0.025,-0.02,0.015));
#1499=CARTESIAN_POINT('',(0.02,0.02,0.015));
#1500=CARTESIAN_POINT('',(0.02,0.025,0.015));
#1501=CARTESIAN_POINT('',(0.,0.025,0.015));
#1502=CARTESIAN_POINT('',(-0.02,0.025,0.015));
#1503=CARTESIAN_POINT('',(-0.02,0.02,0.015));
#1504=CARTESIAN_POINT('',(-0.025,0.02,0.015));
#1505=CARTESIAN_POINT('',(-0.025,-1.7347234759768E-18,0.015));
#1506=CARTESIAN_POINT('',(-0.025,-0.02,0.015));
#1507=CARTESIAN_POINT('',(-0.02,-0.02,0.015));
#1508=CARTESIAN_POINT('',(-0.02,-0.025,0.015));
#1509=CARTESIAN_POINT('',(6.93889390390723E-18,-0.025,0.015));
#1510=CARTESIAN_POINT('',(0.02,-0.025,0.015));
#1511=CARTESIAN_POINT('',(0.02,-0.02,0.015));
#1512=CARTESIAN_POINT('',(-0.01,8.67361737988404E-19,0.015));
#1513=CARTESIAN_POINT('',(-0.01,0.003,0.015));
#1514=CARTESIAN_POINT('',(-0.01,-0.003,0.015));
#1515=CARTESIAN_POINT('',(-0.008,0.003,0.015));
#1516=CARTESIAN_POINT('',(-0.008,0.005,0.015));
#1517=CARTESIAN_POINT('',(-1.7347234759768E-18,0.005,0.015));
#1518=CARTESIAN_POINT('',(0.008,0.005,0.015));
#1519=CARTESIAN_POINT('',(0.008,0.003,0.015));
#1520=CARTESIAN_POINT('',(0.01,0.003,0.015));
#1521=CARTESIAN_POINT('',(0.01,8.67361737988404E-19,0.015));
#1522=CARTESIAN_POINT('',(0.01,-0.003,0.015));
#1523=CARTESIAN_POINT('',(0.008,-0.003,0.015));
#1524=CARTESIAN_POINT('',(0.008,-0.005,0.015));
#1525=CARTESIAN_POINT('',(1.7347234759768E-18,-0.005,0.015));
#1526=CARTESIAN_POINT('',(-0.008,-0.005,0.015));
#1527=CARTESIAN_POINT('',(-0.008,-0.003,0.015));
#1528=CARTESIAN_POINT('',(0.,0.025,0.015));
#1529=CARTESIAN_POINT('',(0.02,0.025,0.015));
#1530=CARTESIAN_POINT('',(0.02,0.025,0.));
#1531=CARTESIAN_POINT('',(0.,0.025,0.));
#1532=CARTESIAN_POINT('',(-0.02,0.025,0.));
#1533=CARTESIAN_POINT('',(-0.02,0.025,0.015));
#1534=CARTESIAN_POINT('',(-0.025,-1.7347234759768E-18,0.015));
#1535=CARTESIAN_POINT('',(-0.025,0.02,0.));
#1536=CARTESIAN_POINT('',(-0.025,0.02,0.));
#1537=CARTESIAN_POINT('',(-0.025,-1.7347234759768E-18,0.));
#1538=CARTESIAN_POINT('',(-0.025,-0.02,0.));
#1539=CARTESIAN_POINT('',(-0.025,-0.02,0.015));
#1540=CARTESIAN_POINT('',(6.93889390390723E-18,-0.025,0.015));
#1541=CARTESIAN_POINT('',(-0.02,-0.025,0.015));
#1542=CARTESIAN_POINT('',(-0.02,-0.025,0.));
#1543=CARTESIAN_POINT('',(6.93889390390723E-18,-0.025,0.));
#1544=CARTESIAN_POINT('',(0.02,-0.025,0.));
#1545=CARTESIAN_POINT('',(0.02,-0.025,0.015));
#1546=CARTESIAN_POINT('',(0.,0.02,0.015));
#1547=CARTESIAN_POINT('',(0.,0.02,0.));
#1548=CARTESIAN_POINT('',(0.0016,0.02,0.));
#1549=CARTESIAN_POINT('',(0.,-0.02,0.015));
#1550=CARTESIAN_POINT('',(0.,-0.02,0.));
#1551=CARTESIAN_POINT('',(0.0016,-0.02,0.));
#1552=CARTESIAN_POINT('',(0.025,3.46944695195361E-18,0.015));
#1553=CARTESIAN_POINT('',(0.025,3.46944695195361E-18,0.));
#1554=CARTESIAN_POINT('',(0.025,0.02,0.));
#1555=CARTESIAN_POINT('',(0.025,-0.02,0.));
#1556=CARTESIAN_POINT('',(0.025,0.02,0.015));
#1557=CARTESIAN_POINT('',(0.025,-0.02,0.));
#1558=CARTESIAN_POINT('',(3.46944695195361E-18,3.46944695195361E-18,0.));
#1559=CARTESIAN_POINT('',(0.02,0.02,0.));
#1560=CARTESIAN_POINT('',(0.02,-0.02,0.));
#1561=CARTESIAN_POINT('',(-0.02,-0.02,0.));
#1562=CARTESIAN_POINT('',(-0.02,0.02,0.));
#1563=CARTESIAN_POINT('',(0.02,0.02,0.015));
#1564=CARTESIAN_POINT('',(-0.02,0.02,0.015));
#1565=CARTESIAN_POINT('',(-0.02,-0.02,0.015));
#1566=CARTESIAN_POINT('',(0.02,-0.02,0.015));
#1567=CARTESIAN_POINT('',(-1.7347234759768E-18,0.005,0.14));
#1568=CARTESIAN_POINT('',(2.16840434497101E-19,0.005,0.135));
#1569=CARTESIAN_POINT('',(2.16840434497101E-19,0.005,0.1366));
#1570=CARTESIAN_POINT('',(3.25260651745651E-18,0.005,0.11));
#1571=CARTESIAN_POINT('',(3.25260651745651E-18,0.005,0.1116));
#1572=CARTESIAN_POINT('',(-1.7347234759768E-18,0.005,0.14));
#1573=CARTESIAN_POINT('',(-0.008,0.005,0.14));
#1574=CARTESIAN_POINT('',(0.008,0.005,0.14));
#1575=CARTESIAN_POINT('',(0.008,0.005,0.14));
#1576=CARTESIAN_POINT('',(-0.008,0.005,0.14));
#1577=CARTESIAN_POINT('',(-0.01,8.67361737988404E-19,0.14));
#1578=CARTESIAN_POINT('',(-0.01,8.67361737988404E-19,0.14));
#1579=CARTESIAN_POINT('',(-0.01,0.003,0.14));
#1580=CARTESIAN_POINT('',(-0.01,-0.003,0.14));
#1581=CARTESIAN_POINT('',(-0.01,0.003,0.015));
#1582=CARTESIAN_POINT('',(-0.01,-0.003,0.14));
#1583=CARTESIAN_POINT('',(1.7347234759768E-18,-0.005,0.14));
#1584=CARTESIAN_POINT('',(2.16840434497101E-19,-0.005,0.135));
#1585=CARTESIAN_POINT('',(2.16840434497101E-19,-0.005,0.1334));
#1586=CARTESIAN_POINT('',(3.25260651745651E-18,-0.005,0.11));
#1587=CARTESIAN_POINT('',(3.25260651745651E-18,-0.005,0.1084));
#1588=CARTESIAN_POINT('',(0.008,-0.005,0.14));
#1589=CARTESIAN_POINT('',(0.008,-0.005,0.14));
#1590=CARTESIAN_POINT('',(1.7347234759768E-18,-0.005,0.14));
#1591=CARTESIAN_POINT('',(-0.008,-0.005,0.14));
#1592=CARTESIAN_POINT('',(-0.008,-0.005,0.14));
#1593=CARTESIAN_POINT('',(0.01,8.67361737988404E-19,0.14));
#1594=CARTESIAN_POINT('',(0.01,0.003,0.14));
#1595=CARTESIAN_POINT('',(0.01,0.003,0.14));
#1596=CARTESIAN_POINT('',(0.01,8.67361737988404E-19,0.14));
#1597=CARTESIAN_POINT('',(0.01,-0.003,0.14));
#1598=CARTESIAN_POINT('',(0.01,-0.003,0.015));
#1599=CARTESIAN_POINT('',(3.46944695195361E-18,3.46944695195361E-18,0.14));
#1600=CARTESIAN_POINT('',(0.008,0.003,0.14));
#1601=CARTESIAN_POINT('',(-0.008,0.003,0.14));
#1602=CARTESIAN_POINT('',(-0.008,-0.003,0.14));
#1603=CARTESIAN_POINT('',(0.008,-0.003,0.14));
#1604=CARTESIAN_POINT('',(0.008,0.003,0.14));
#1605=CARTESIAN_POINT('',(-0.008,0.003,0.14));
#1606=CARTESIAN_POINT('',(0.008,-0.003,0.14));
#1607=CARTESIAN_POINT('',(-0.008,-0.003,0.14));
#1608=CARTESIAN_POINT('',(3.25260651745651E-18,0.02,0.11));
#1609=CARTESIAN_POINT('',(2.16840434497101E-19,0.02,0.135));
#1610=CARTESIAN_POINT('',(0.,0.,0.));
#1611=CARTESIAN_POINT('',(-1.83697019872103E-18,0.03,0.));
#1612=CARTESIAN_POINT('',(-0.016583123951777,0.03,0.025));
#1613=CARTESIAN_POINT('',(-0.016583123951777,0.03,0.025));
#1614=CARTESIAN_POINT('',(-0.016583123951777,0.,0.025));
#1615=CARTESIAN_POINT('',(-1.83697019872103E-18,0.,0.));
#1616=CARTESIAN_POINT('',(-0.0259807621135331,0.,0.015));
#1617=CARTESIAN_POINT('',(-0.0259807621135331,0.03,0.015));
#1618=CARTESIAN_POINT('',(-0.0259807621135331,0.03,0.015));
#1619=CARTESIAN_POINT('',(-1.83697019872103E-18,0.03,0.));
#1620=CARTESIAN_POINT('',(-0.0251197863492868,0.0201856938272178,0.0164099991368433));
#1621=CARTESIAN_POINT('',(-0.0253983120529635,0.0220006738232026,0.0159647165549529));
#1622=CARTESIAN_POINT('',(-0.0251203093261622,0.0238116108799719,0.016409134643345));
#1623=CARTESIAN_POINT('',(-0.0243762975081702,0.0251261869065632,0.0175107042037605));
#1624=CARTESIAN_POINT('',(-0.0233406766100141,0.0258118648711959,0.0188755163409893));
#1625=CARTESIAN_POINT('',(-0.0221558349514018,0.0259553399057346,0.0202543220752088));
#1626=CARTESIAN_POINT('',(-0.0208976448070755,0.0256442503320283,0.021547629222459));
#1627=CARTESIAN_POINT('',(-0.0196729287484614,0.0249358096587916,0.022667470360857));
#1628=CARTESIAN_POINT('',(-0.0187414217248868,0.0239610985880691,0.0234307281212284));
#1629=CARTESIAN_POINT('',(-0.0182466241993036,0.0229083310355938,0.0238137220023203));
#1630=CARTESIAN_POINT('',(-0.0181007504794417,0.0219962762938794,0.0239239949364214));
#1631=CARTESIAN_POINT('',(-0.0182485233880517,0.0210857993661712,0.023812289008333));
#1632=CARTESIAN_POINT('',(-0.0187454598365778,0.0200337713337019,0.0234274698420318));
#1633=CARTESIAN_POINT('',(-0.0196725492270792,0.0190643679611058,0.0226679112846309));
#1634=CARTESIAN_POINT('',(-0.0209050448949505,0.0183525770982188,0.021540463907271));
#1635=CARTESIAN_POINT('',(-0.0221561908699699,0.0180449976636302,0.0202538050538713));
#1636=CARTESIAN_POINT('',(-0.0233438182561388,0.0181891509688579,0.0188716577156202));
#1637=CARTESIAN_POINT('',(-0.0243753141484187,0.0188738643188917,0.0175119082432392));
#1638=CARTESIAN_POINT('',(-0.0251197863492868,0.0201856938272178,0.0164099991368433));
#1639=CARTESIAN_POINT('',(-0.0253983120529635,0.0220006738232026,0.0159647165549529));
#1640=CARTESIAN_POINT('',(-0.0251203093261622,0.0238116108799719,0.016409134643345));
#1641=CARTESIAN_POINT('',(-0.0253055573145505,0.022,0.016113));
#1642=CARTESIAN_POINT('',(-1.83697019872103E-18,-0.06,0.));
#1643=CARTESIAN_POINT('',(-1.83697019872103E-18,-0.03,0.));
#1644=CARTESIAN_POINT('',(-0.016583123951777,-0.03,0.025));
#1645=CARTESIAN_POINT('',(-0.0259807621135331,-0.03,0.015));
#1646=CARTESIAN_POINT('',(-0.016583123951777,-0.06,0.025));
#1647=CARTESIAN_POINT('',(-0.016583123951777,-0.06,0.025));
#1648=CARTESIAN_POINT('',(-1.83697019872103E-18,-0.06,0.));
#1649=CARTESIAN_POINT('',(-0.0259807621135331,-0.06,0.015));
#1650=CARTESIAN_POINT('',(-0.0259807621135331,-0.06,0.015));
#1651=CARTESIAN_POINT('',(-0.0251197863492868,-0.0501856938272178,0.0164099991368433));
#1652=CARTESIAN_POINT('',(-0.0253983120529635,-0.0520006738232026,0.0159647165549529));
#1653=CARTESIAN_POINT('',(-0.0251203093261622,-0.0538116108799719,0.016409134643345));
#1654=CARTESIAN_POINT('',(-0.0243762975081702,-0.0551261869065632,0.0175107042037605));
#1655=CARTESIAN_POINT('',(-0.0233406766100141,-0.0558118648711959,0.0188755163409892));
#1656=CARTESIAN_POINT('',(-0.0221558349514018,-0.0559553399057345,0.0202543220752088));
#1657=CARTESIAN_POINT('',(-0.0208976448070755,-0.0556442503320284,0.0215476292224589));
#1658=CARTESIAN_POINT('',(-0.0196729287484615,-0.0549358096587916,0.022667470360857));
#1659=CARTESIAN_POINT('',(-0.0187414217248869,-0.0539610985880691,0.0234307281212284));
#1660=CARTESIAN_POINT('',(-0.0182466241993037,-0.0529083310355939,0.0238137220023203));
#1661=CARTESIAN_POINT('',(-0.0181007504794417,-0.0519962762938794,0.0239239949364214));
#1662=CARTESIAN_POINT('',(-0.0182485233880517,-0.0510857993661713,0.023812289008333));
#1663=CARTESIAN_POINT('',(-0.0187454598365778,-0.0500337713337019,0.0234274698420318));
#1664=CARTESIAN_POINT('',(-0.0196725492270792,-0.0490643679611058,0.022667911284631));
#1665=CARTESIAN_POINT('',(-0.0209050448949504,-0.0483525770982189,0.021540463907271));
#1666=CARTESIAN_POINT('',(-0.0221561908699699,-0.0480449976636302,0.0202538050538713));
#1667=CARTESIAN_POINT('',(-0.0233438182561387,-0.0481891509688579,0.0188716577156202));
#1668=CARTESIAN_POINT('',(-0.0243753141484187,-0.0488738643188917,0.0175119082432392));
#1669=CARTESIAN_POINT('',(-0.0251197863492868,-0.0501856938272178,0.0164099991368433));
#1670=CARTESIAN_POINT('',(-0.0253983120529635,-0.0520006738232026,0.0159647165549529));
#1671=CARTESIAN_POINT('',(-0.0251203093261622,-0.0538116108799719,0.016409134643345));
#1672=CARTESIAN_POINT('',(-0.0253055573145505,-0.052,0.016113));
#1673=CARTESIAN_POINT('',(-0.04,0.03,0.02));
#1674=CARTESIAN_POINT('',(-0.04,0.03,0.015));
#1675=CARTESIAN_POINT('',(-0.04,0.03,0.015));
#1676=CARTESIAN_POINT('',(-0.04,-0.06,0.015));
#1677=CARTESIAN_POINT('',(-0.04,-0.06,0.02));
#1678=CARTESIAN_POINT('',(-0.04,-0.06,0.025));
#1679=CARTESIAN_POINT('',(-0.04,0.03,0.025));
#1680=CARTESIAN_POINT('',(-0.04,0.03,0.025));
#1681=CARTESIAN_POINT('',(-0.04,0.03,0.02));
#1682=CARTESIAN_POINT('',(-0.04,-0.052,0.02));
#1683=CARTESIAN_POINT('',(-0.04,-0.052,0.022125));
#1684=CARTESIAN_POINT('',(-0.04,0.022,0.02));
#1685=CARTESIAN_POINT('',(-0.04,0.022,0.022125));
#1686=CARTESIAN_POINT('',(-0.01,-0.03,0.));
#1687=CARTESIAN_POINT('',(0.,-0.03,9.79717439317883E-20));
#1688=CARTESIAN_POINT('',(0.,-0.03,-0.0016));
#1689=CARTESIAN_POINT('',(-0.025,-0.03,-2.38892783122856E-18));
#1690=CARTESIAN_POINT('',(-0.0234,-0.03,-2.8656735100048E-18));
#1691=CARTESIAN_POINT('',(-0.0266,-0.03,-3.25756048573196E-18));
#1692=CARTESIAN_POINT('',(-1.3010426069826E-18,-0.03,2.88975288511909E-18));
#1693=CARTESIAN_POINT('',(0.00406336735740617,-0.03,-0.0230445014204857));
#1694=CARTESIAN_POINT('',(0.00434120444167327,-0.03,-0.0246201938253052));
#1695=CARTESIAN_POINT('',(0.00461904152594036,-0.03,-0.0261958862301248));
#1696=CARTESIAN_POINT('',(2.60208521396521E-18,-0.03,4.42853287323232E-18));
#1697=CARTESIAN_POINT('',(-1.83697019872103E-18,-0.03,0.));
#1698=CARTESIAN_POINT('',(3.46944695195361E-18,-0.03,0.03));
#1699=CARTESIAN_POINT('',(-1.83697019872103E-18,-0.03,0.));
#1700=CARTESIAN_POINT('',(6.93889390390723E-18,-0.03,-0.03));
#1701=CARTESIAN_POINT('',(0.005,-0.03,-0.03));
#1702=CARTESIAN_POINT('',(0.01,-0.03,-0.03));
#1703=CARTESIAN_POINT('',(0.01,-0.03,-1.7347234759768E-18));
#1704=CARTESIAN_POINT('',(0.01,-0.03,0.03));
#1705=CARTESIAN_POINT('',(0.005,-0.03,0.03));
#1706=CARTESIAN_POINT('',(-1.83697019872103E-18,-0.03,0.));
#1707=CARTESIAN_POINT('',(-0.0259807621135331,0.03,0.015));
#1708=CARTESIAN_POINT('',(-0.0259807621135331,-0.009873,0.015));
#1709=CARTESIAN_POINT('',(-1.83697019872103E-18,0.,0.));
#1710=CARTESIAN_POINT('',(6.93889390390723E-18,0.,-0.03));
#1711=CARTESIAN_POINT('',(6.93889390390723E-18,-0.03,-0.03));
#1712=CARTESIAN_POINT('',(-1.02246722744222E-19,-0.009873,-0.03));
#1713=CARTESIAN_POINT('',(-1.83697019872103E-18,-0.009873,0.));
#1714=CARTESIAN_POINT('',(-1.83697019872103E-18,-0.03,0.));
#1715=CARTESIAN_POINT('',(-0.0259807621135331,0.03,0.015));
#1716=CARTESIAN_POINT('',(-0.0259807621135331,-0.020127,0.015));
#1717=CARTESIAN_POINT('',(-1.83697019872103E-18,-0.020127,0.));
#1718=CARTESIAN_POINT('',(-1.02246722744222E-19,-0.020127,-0.03));
#1719=CARTESIAN_POINT('',(6.93889390390723E-18,-0.03,-0.03));
#1720=CARTESIAN_POINT('',(0.005,-0.03,-0.03));
#1721=CARTESIAN_POINT('',(-0.0346,-0.009873,-0.03));
#1722=CARTESIAN_POINT('',(0.01,-0.009873,-0.03));
#1723=CARTESIAN_POINT('',(0.005,0.,-0.03));
#1724=CARTESIAN_POINT('',(0.01,0.,-0.03));
#1725=CARTESIAN_POINT('',(0.01,-0.03,-0.03));
#1726=CARTESIAN_POINT('',(-1.83697019872103E-18,-0.03,0.));
#1727=CARTESIAN_POINT('',(-1.83697019872103E-18,0.,0.));
#1728=CARTESIAN_POINT('',(3.46944695195361E-18,0.,0.03));
#1729=CARTESIAN_POINT('',(-0.016583123951777,0.03,0.025));
#1730=CARTESIAN_POINT('',(3.46944695195361E-18,-0.03,0.03));
#1731=CARTESIAN_POINT('',(-0.025,-0.03,-2.38892783122856E-18));
#1732=CARTESIAN_POINT('',(-0.0234,-0.03,-2.8656735100048E-18));
#1733=CARTESIAN_POINT('',(-0.0234,-0.009873,-2.8656735100048E-18));
#1734=CARTESIAN_POINT('',(-0.0234,0.,-2.8656735100048E-18));
#1735=CARTESIAN_POINT('',(-0.025,-0.009873,-2.38892783122856E-18));
#1736=CARTESIAN_POINT('',(-0.0266,-0.009873,-3.25756048573196E-18));
#1737=CARTESIAN_POINT('',(-0.0266,-0.03,-3.25756048573196E-18));
#1738=CARTESIAN_POINT('',(-0.0266,0.,-3.25756048573196E-18));
#1739=CARTESIAN_POINT('',(-0.025,0.,-2.38892783122856E-18));
#1740=CARTESIAN_POINT('',(-1.3010426069826E-18,-0.03,2.88975288511909E-18));
#1741=CARTESIAN_POINT('',(-1.3010426069826E-18,-0.009873,2.88975288511909E-18));
#1742=CARTESIAN_POINT('',(0.00406336735740617,-0.009873,-0.0230445014204857));
#1743=CARTESIAN_POINT('',(-1.3010426069826E-18,0.,2.88975288511909E-18));
#1744=CARTESIAN_POINT('',(0.00406336735740617,0.,-0.0230445014204857));
#1745=CARTESIAN_POINT('',(0.00406336735740617,-0.03,-0.0230445014204857));
#1746=CARTESIAN_POINT('',(0.00434120444167327,-0.03,-0.0246201938253052));
#1747=CARTESIAN_POINT('',(0.00461904152594036,-0.03,-0.0261958862301248));
#1748=CARTESIAN_POINT('',(0.00461904152594036,-0.009873,-0.0261958862301248));
#1749=CARTESIAN_POINT('',(0.00461904152594036,0.,-0.0261958862301248));
#1750=CARTESIAN_POINT('',(0.00434120444167327,-0.009873,-0.0246201938253052));
#1751=CARTESIAN_POINT('',(0.00434120444167327,0.,-0.0246201938253052));
#1752=CARTESIAN_POINT('',(2.60208521396521E-18,-0.03,4.42853287323232E-18));
#1753=CARTESIAN_POINT('',(2.60208521396521E-18,-0.009873,4.42853287323232E-18));
#1754=CARTESIAN_POINT('',(2.60208521396521E-18,0.,4.42853287323232E-18));
#1755=CARTESIAN_POINT('',(0.,-0.03,9.79717439317883E-20));
#1756=CARTESIAN_POINT('',(0.,0.,9.79717439317883E-20));
#1757=CARTESIAN_POINT('',(0.,0.,-0.0016));
#1758=CARTESIAN_POINT('',(0.,-0.009873,9.79717439317883E-20));
#1759=CARTESIAN_POINT('',(0.,-0.009873,-0.0016));
#1760=CARTESIAN_POINT('',(0.01,-0.03,-1.7347234759768E-18));
#1761=CARTESIAN_POINT('',(0.01,-0.015,0.015));
#1762=CARTESIAN_POINT('',(0.01,-0.009873,0.015));
#1763=CARTESIAN_POINT('',(0.01,-0.020127,0.015));
#1764=CARTESIAN_POINT('',(0.01,-0.009873,-0.0075));
#1765=CARTESIAN_POINT('',(0.01,0.,-1.7347234759768E-18));
#1766=CARTESIAN_POINT('',(0.01,0.,0.03));
#1767=CARTESIAN_POINT('',(0.01,-0.03,0.03));
#1768=CARTESIAN_POINT('',(0.01,-0.03,-0.03));
#1769=CARTESIAN_POINT('',(0.01,-0.020127,-0.03));
#1770=CARTESIAN_POINT('',(0.01,-0.020127,-0.0075));
#1771=CARTESIAN_POINT('',(0.005,-0.03,0.03));
#1772=CARTESIAN_POINT('',(0.005,0.,0.03));
#1773=CARTESIAN_POINT('',(0.005,-0.03,-0.03));
#1774=CARTESIAN_POINT('',(-0.0346,-0.020127,-0.03));
#1775=CARTESIAN_POINT('',(-0.025,-0.03,-2.38892783122856E-18));
#1776=CARTESIAN_POINT('',(-0.025,-0.020127,-2.38892783122856E-18));
#1777=CARTESIAN_POINT('',(-0.0234,-0.020127,-2.8656735100048E-18));
#1778=CARTESIAN_POINT('',(-0.0266,-0.020127,-3.25756048573196E-18));
#1779=CARTESIAN_POINT('',(-0.0234,-0.03,-2.8656735100048E-18));
#1780=CARTESIAN_POINT('',(-0.0266,-0.03,-3.25756048573196E-18));
#1781=CARTESIAN_POINT('',(-1.3010426069826E-18,-0.03,2.88975288511909E-18));
#1782=CARTESIAN_POINT('',(-1.3010426069826E-18,-0.020127,2.88975288511909E-18));
#1783=CARTESIAN_POINT('',(0.00406336735740617,-0.020127,-0.0230445014204857));
#1784=CARTESIAN_POINT('',(0.00406336735740617,-0.03,-0.0230445014204857));
#1785=CARTESIAN_POINT('',(0.00434120444167327,-0.03,-0.0246201938253052));
#1786=CARTESIAN_POINT('',(0.00434120444167327,-0.020127,-0.0246201938253052));
#1787=CARTESIAN_POINT('',(0.00461904152594036,-0.020127,-0.0261958862301248));
#1788=CARTESIAN_POINT('',(0.00461904152594036,-0.03,-0.0261958862301248));
#1789=CARTESIAN_POINT('',(2.60208521396521E-18,-0.03,4.42853287323232E-18));
#1790=CARTESIAN_POINT('',(2.60208521396521E-18,-0.020127,4.42853287323232E-18));
#1791=CARTESIAN_POINT('',(0.,-0.03,9.79717439317883E-20));
#1792=CARTESIAN_POINT('',(0.,-0.020127,9.79717439317883E-20));
#1793=CARTESIAN_POINT('',(0.,-0.020127,-0.0016));
#1794=CARTESIAN_POINT('',(-0.01,0.,0.));
#1795=CARTESIAN_POINT('',(-0.0346,-0.009873,-0.0075));
#1796=CARTESIAN_POINT('',(-0.0346,-0.009873,0.015));
#1797=CARTESIAN_POINT('',(-0.0346,-0.020127,-0.0075));
#1798=CARTESIAN_POINT('',(-0.0346,-0.020127,0.015));
#1799=CARTESIAN_POINT('',(-0.0346,-0.015,0.015));
#1800=CARTESIAN_POINT('',(-0.02,-0.06,0.015));
#1801=CARTESIAN_POINT('',(-0.02,0.03,0.015));
#1802=CARTESIAN_POINT('',(-0.02,0.03,0.025));
#1803=CARTESIAN_POINT('',(-0.02,-0.06,0.025));
#1804=CARTESIAN_POINT('',(-0.02,0.03,0.025));
#1805=CARTESIAN_POINT('',(-0.015,0.03,0.));
#1806=CARTESIAN_POINT('',(-0.015,-0.06,0.));
#1807=CARTESIAN_POINT('',(-0.015,-0.052,0.02));
#1808=CARTESIAN_POINT('',(-0.028583123951777,-0.052,0.02));
#1809=CARTESIAN_POINT('',(-0.028583123951777,-0.052,0.022125));
#1810=CARTESIAN_POINT('',(-0.015,0.022,0.02));
#1811=CARTESIAN_POINT('',(-0.028583123951777,0.022,0.02));
#1812=CARTESIAN_POINT('',(-0.028583123951777,0.022,0.022125));
#1813=CARTESIAN_POINT('',(-0.028583123951777,0.022,0.02));
#1814=CARTESIAN_POINT('',(-0.028583123951777,0.022,0.02));
#1815=CARTESIAN_POINT('',(-0.028583123951777,0.022,0.023887));
#1816=CARTESIAN_POINT('',(-0.028583123951777,-0.015,0.02));
#1817=CARTESIAN_POINT('',(-0.028583123951777,-0.052,0.02));
#1818=CARTESIAN_POINT('',(-0.028583123951777,-0.052,0.02));
#1819=CARTESIAN_POINT('',(-0.028583123951777,-0.052,0.023887));
#1820=CARTESIAN_POINT('',(-0.028583123951777,-0.015,0.02));
#1821=CARTESIAN_POINT('',(-2.77555756156289E-17,0.015127,0.135));
#1822=MECHANICAL_DESIGN_GEOMETRIC_PRESENTATION_REPRESENTATION('',(#1032,
#1033),#1823);
#1823=(
GEOMETRIC_REPRESENTATION_CONTEXT(3)
GLOBAL_UNCERTAINTY_ASSIGNED_CONTEXT((#1826))
GLOBAL_UNIT_ASSIGNED_CONTEXT((#1831,#1830,#1829))
REPRESENTATION_CONTEXT('Camera Mount V2','TOP_LEVEL_ASSEMBLY_PART')
);
#1824=(
GEOMETRIC_REPRESENTATION_CONTEXT(3)
GLOBAL_UNCERTAINTY_ASSIGNED_CONTEXT((#1827))
GLOBAL_UNIT_ASSIGNED_CONTEXT((#1831,#1830,#1829))
REPRESENTATION_CONTEXT('Base','COMPONENT_PART')
);
#1825=(
GEOMETRIC_REPRESENTATION_CONTEXT(3)
GLOBAL_UNCERTAINTY_ASSIGNED_CONTEXT((#1828))
GLOBAL_UNIT_ASSIGNED_CONTEXT((#1831,#1830,#1829))
REPRESENTATION_CONTEXT('Hinge and camera t bar','COMPONENT_PART')
);
#1826=UNCERTAINTY_MEASURE_WITH_UNIT(LENGTH_MEASURE(1.E-8),#1831,
'DISTANCE_ACCURACY_VALUE','Maximum Tolerance applied to model');
#1827=UNCERTAINTY_MEASURE_WITH_UNIT(LENGTH_MEASURE(1.E-8),#1831,
'DISTANCE_ACCURACY_VALUE','Maximum Tolerance applied to model');
#1828=UNCERTAINTY_MEASURE_WITH_UNIT(LENGTH_MEASURE(2.E-5),#1831,
'DISTANCE_ACCURACY_VALUE','Maximum Tolerance applied to model');
#1829=(
NAMED_UNIT(*)
SI_UNIT($,.STERADIAN.)
SOLID_ANGLE_UNIT()
);
#1830=(
NAMED_UNIT(*)
PLANE_ANGLE_UNIT()
SI_UNIT($,.RADIAN.)
);
#1831=(
LENGTH_UNIT()
NAMED_UNIT(*)
SI_UNIT($,.METRE.)
);
#1832=PRODUCT_DEFINITION_SHAPE('','',#1837);
#1833=PRODUCT_DEFINITION_SHAPE('','',#1838);
#1834=PRODUCT_DEFINITION_SHAPE(' ','NAUO PRDDFN',#14);
#1835=PRODUCT_DEFINITION_SHAPE('','',#1839);
#1836=PRODUCT_DEFINITION_SHAPE(' ','NAUO PRDDFN',#15);
#1837=PRODUCT_DEFINITION('','',#1843,#1840);
#1838=PRODUCT_DEFINITION('','',#1844,#1841);
#1839=PRODUCT_DEFINITION('','',#1845,#1842);
#1840=PRODUCT_DEFINITION_CONTEXT('',#1859,'design');
#1841=PRODUCT_DEFINITION_CONTEXT('',#1859,'design');
#1842=PRODUCT_DEFINITION_CONTEXT('',#1859,'design');
#1843=PRODUCT_DEFINITION_FORMATION_WITH_SPECIFIED_SOURCE('','',#1849,
 .NOT_KNOWN.);
#1844=PRODUCT_DEFINITION_FORMATION_WITH_SPECIFIED_SOURCE('','',#1850,
 .NOT_KNOWN.);
#1845=PRODUCT_DEFINITION_FORMATION_WITH_SPECIFIED_SOURCE('','',#1851,
 .NOT_KNOWN.);
#1846=PRODUCT_RELATED_PRODUCT_CATEGORY('','',(#1849));
#1847=PRODUCT_RELATED_PRODUCT_CATEGORY('','',(#1850));
#1848=PRODUCT_RELATED_PRODUCT_CATEGORY('','',(#1851));
#1849=PRODUCT('Camera Mount V2','Camera Mount V2','Camera Mount V2',(#1855));
#1850=PRODUCT('Base','Base','Base',(#1856));
#1851=PRODUCT('Hinge and camera t bar','Hinge and camera t bar',
'Hinge and camera t bar',(#1857));
#1852=PRODUCT_CATEGORY('','');
#1853=PRODUCT_CATEGORY('','');
#1854=PRODUCT_CATEGORY('','');
#1855=PRODUCT_CONTEXT('',#1859,'mechanical');
#1856=PRODUCT_CONTEXT('',#1859,'mechanical');
#1857=PRODUCT_CONTEXT('',#1859,'mechanical');
#1858=APPLICATION_PROTOCOL_DEFINITION('international standard',
'ap242_managed_model_based_3d_engineering',2020,#1859);
#1859=APPLICATION_CONTEXT('managed model based 3d engineering');
ENDSEC;
END-ISO-10303-21;
