ISO-10303-21;
HEADER;
/* Generated by software containing ST-Developer
 * from STEP Tools, Inc. (www.steptools.com) 
 */
/* OPTION: using custom renumber hook */

FILE_DESCRIPTION(
/* description */ ('STEP AP242 Edition 2',
'CAx-IF Rec.Pracs.---Representation and Presentation of Product Manufa
cturing Information (PMI)---4.0---2014-10-13',
'CAx-IF Rec.Pracs.---3D Tessellated Geometry---0.4---2014-09-14','2;1',
'CAx-IF Rec.Pracs.---User Defined Attributes---1.5---2016-08-15'),
/* implementation_level */ '2;1');

FILE_NAME(
/* name */ 'DCDC ConverterCase - DCDC ConverterCase',
/* time_stamp */ '2026-06-05T01:48:24Z',
/* author */ (''),
/* organization */ (''),
/* preprocessor_version */ 'ST-DEVELOPER v20',
/* originating_system */ 'ONSHAPE BY PTC INC, 1.215',
/* authorisation */ '  ');

FILE_SCHEMA (('AP242_MANAGED_MODEL_BASED_3D_ENGINEERING_MIM_LF { 1 0 10303 442 3 1 4 }'));
ENDSEC;

DATA;
#10=SHAPE_REPRESENTATION_RELATIONSHIP('','',#547,#11);
#11=ADVANCED_BREP_SHAPE_REPRESENTATION('',(#545),#881);
#12=CYLINDRICAL_SURFACE('',#557,0.0035);
#13=CYLINDRICAL_SURFACE('',#563,0.0035);
#14=CYLINDRICAL_SURFACE('',#564,0.00225);
#15=CYLINDRICAL_SURFACE('',#571,0.0035);
#16=CYLINDRICAL_SURFACE('',#577,0.0035);
#17=CYLINDRICAL_SURFACE('',#578,0.00225);
#18=LINE('',#735,#78);
#19=LINE('',#738,#79);
#20=LINE('',#740,#80);
#21=LINE('',#742,#81);
#22=LINE('',#746,#82);
#23=LINE('',#748,#83);
#24=LINE('',#750,#84);
#25=LINE('',#752,#85);
#26=LINE('',#754,#86);
#27=LINE('',#756,#87);
#28=LINE('',#758,#88);
#29=LINE('',#760,#89);
#30=LINE('',#762,#90);
#31=LINE('',#764,#91);
#32=LINE('',#766,#92);
#33=LINE('',#768,#93);
#34=LINE('',#770,#94);
#35=LINE('',#772,#95);
#36=LINE('',#774,#96);
#37=LINE('',#776,#97);
#38=LINE('',#778,#98);
#39=LINE('',#780,#99);
#40=LINE('',#782,#100);
#41=LINE('',#784,#101);
#42=LINE('',#786,#102);
#43=LINE('',#789,#103);
#44=LINE('',#790,#104);
#45=LINE('',#792,#105);
#46=LINE('',#794,#106);
#47=LINE('',#796,#107);
#48=LINE('',#809,#108);
#49=LINE('',#810,#109);
#50=LINE('',#814,#110);
#51=LINE('',#816,#111);
#52=LINE('',#818,#112);
#53=LINE('',#821,#113);
#54=LINE('',#822,#114);
#55=LINE('',#824,#115);
#56=LINE('',#826,#116);
#57=LINE('',#828,#117);
#58=LINE('',#839,#118);
#59=LINE('',#842,#119);
#60=LINE('',#844,#120);
#61=LINE('',#846,#121);
#62=LINE('',#847,#122);
#63=LINE('',#850,#123);
#64=LINE('',#851,#124);
#65=LINE('',#853,#125);
#66=LINE('',#855,#126);
#67=LINE('',#857,#127);
#68=LINE('',#859,#128);
#69=LINE('',#861,#129);
#70=LINE('',#863,#130);
#71=LINE('',#865,#131);
#72=LINE('',#867,#132);
#73=LINE('',#869,#133);
#74=LINE('',#871,#134);
#75=LINE('',#873,#135);
#76=LINE('',#875,#136);
#77=LINE('',#877,#137);
#78=VECTOR('',#595,1.);
#79=VECTOR('',#596,1.);
#80=VECTOR('',#597,1.);
#81=VECTOR('',#598,1.);
#82=VECTOR('',#601,1.);
#83=VECTOR('',#604,1.);
#84=VECTOR('',#605,1.);
#85=VECTOR('',#606,1.);
#86=VECTOR('',#607,1.);
#87=VECTOR('',#608,1.);
#88=VECTOR('',#609,1.);
#89=VECTOR('',#610,1.);
#90=VECTOR('',#613,1.);
#91=VECTOR('',#614,1.);
#92=VECTOR('',#617,1.);
#93=VECTOR('',#618,1.);
#94=VECTOR('',#619,1.);
#95=VECTOR('',#620,1.);
#96=VECTOR('',#621,1.);
#97=VECTOR('',#622,1.);
#98=VECTOR('',#623,1.);
#99=VECTOR('',#624,1.);
#100=VECTOR('',#625,1.);
#101=VECTOR('',#626,1.);
#102=VECTOR('',#629,1.);
#103=VECTOR('',#630,1.);
#104=VECTOR('',#631,1.);
#105=VECTOR('',#634,1.);
#106=VECTOR('',#635,1.);
#107=VECTOR('',#636,1.);
#108=VECTOR('',#657,1.);
#109=VECTOR('',#658,1.);
#110=VECTOR('',#661,1.);
#111=VECTOR('',#664,1.);
#112=VECTOR('',#667,1.);
#113=VECTOR('',#668,1.);
#114=VECTOR('',#669,1.);
#115=VECTOR('',#672,1.);
#116=VECTOR('',#673,1.);
#117=VECTOR('',#674,1.);
#118=VECTOR('',#693,1.);
#119=VECTOR('',#694,1.);
#120=VECTOR('',#695,1.);
#121=VECTOR('',#696,1.);
#122=VECTOR('',#697,1.);
#123=VECTOR('',#698,1.);
#124=VECTOR('',#699,1.);
#125=VECTOR('',#702,1.);
#126=VECTOR('',#703,1.);
#127=VECTOR('',#704,1.);
#128=VECTOR('',#707,1.);
#129=VECTOR('',#708,1.);
#130=VECTOR('',#711,1.);
#131=VECTOR('',#712,1.);
#132=VECTOR('',#715,1.);
#133=VECTOR('',#718,1.);
#134=VECTOR('',#719,1.);
#135=VECTOR('',#720,1.);
#136=VECTOR('',#723,1.);
#137=VECTOR('',#726,1.);
#138=ORIENTED_EDGE('',*,*,#282,.T.);
#139=ORIENTED_EDGE('',*,*,#283,.T.);
#140=ORIENTED_EDGE('',*,*,#284,.T.);
#141=ORIENTED_EDGE('',*,*,#285,.T.);
#142=ORIENTED_EDGE('',*,*,#286,.T.);
#143=ORIENTED_EDGE('',*,*,#287,.T.);
#144=ORIENTED_EDGE('',*,*,#288,.T.);
#145=ORIENTED_EDGE('',*,*,#289,.T.);
#146=ORIENTED_EDGE('',*,*,#283,.F.);
#147=ORIENTED_EDGE('',*,*,#290,.T.);
#148=ORIENTED_EDGE('',*,*,#291,.F.);
#149=ORIENTED_EDGE('',*,*,#292,.T.);
#150=ORIENTED_EDGE('',*,*,#293,.F.);
#151=ORIENTED_EDGE('',*,*,#294,.F.);
#152=ORIENTED_EDGE('',*,*,#295,.F.);
#153=ORIENTED_EDGE('',*,*,#296,.T.);
#154=ORIENTED_EDGE('',*,*,#297,.T.);
#155=ORIENTED_EDGE('',*,*,#284,.F.);
#156=ORIENTED_EDGE('',*,*,#289,.F.);
#157=ORIENTED_EDGE('',*,*,#298,.T.);
#158=ORIENTED_EDGE('',*,*,#285,.F.);
#159=ORIENTED_EDGE('',*,*,#297,.F.);
#160=ORIENTED_EDGE('',*,*,#299,.F.);
#161=ORIENTED_EDGE('',*,*,#300,.T.);
#162=ORIENTED_EDGE('',*,*,#301,.F.);
#163=ORIENTED_EDGE('',*,*,#302,.T.);
#164=ORIENTED_EDGE('',*,*,#303,.F.);
#165=ORIENTED_EDGE('',*,*,#304,.F.);
#166=ORIENTED_EDGE('',*,*,#305,.F.);
#167=ORIENTED_EDGE('',*,*,#306,.T.);
#168=ORIENTED_EDGE('',*,*,#307,.F.);
#169=ORIENTED_EDGE('',*,*,#308,.T.);
#170=ORIENTED_EDGE('',*,*,#309,.T.);
#171=ORIENTED_EDGE('',*,*,#286,.F.);
#172=ORIENTED_EDGE('',*,*,#298,.F.);
#173=ORIENTED_EDGE('',*,*,#310,.F.);
#174=ORIENTED_EDGE('',*,*,#290,.F.);
#175=ORIENTED_EDGE('',*,*,#288,.F.);
#176=ORIENTED_EDGE('',*,*,#311,.F.);
#177=ORIENTED_EDGE('',*,*,#312,.F.);
#178=ORIENTED_EDGE('',*,*,#313,.F.);
#179=ORIENTED_EDGE('',*,*,#314,.T.);
#180=ORIENTED_EDGE('',*,*,#308,.F.);
#181=ORIENTED_EDGE('',*,*,#315,.F.);
#182=ORIENTED_EDGE('',*,*,#312,.T.);
#183=ORIENTED_EDGE('',*,*,#316,.T.);
#184=ORIENTED_EDGE('',*,*,#314,.F.);
#185=ORIENTED_EDGE('',*,*,#317,.T.);
#186=ORIENTED_EDGE('',*,*,#311,.T.);
#187=ORIENTED_EDGE('',*,*,#287,.F.);
#188=ORIENTED_EDGE('',*,*,#309,.F.);
#189=ORIENTED_EDGE('',*,*,#317,.F.);
#190=ORIENTED_EDGE('',*,*,#282,.F.);
#191=ORIENTED_EDGE('',*,*,#316,.F.);
#192=ORIENTED_EDGE('',*,*,#318,.T.);
#193=ORIENTED_EDGE('',*,*,#301,.T.);
#194=ORIENTED_EDGE('',*,*,#319,.T.);
#195=ORIENTED_EDGE('',*,*,#293,.T.);
#196=ORIENTED_EDGE('',*,*,#320,.T.);
#197=ORIENTED_EDGE('',*,*,#321,.T.);
#198=ORIENTED_EDGE('',*,*,#322,.T.);
#199=ORIENTED_EDGE('',*,*,#323,.F.);
#200=ORIENTED_EDGE('',*,*,#294,.T.);
#201=ORIENTED_EDGE('',*,*,#319,.F.);
#202=ORIENTED_EDGE('',*,*,#300,.F.);
#203=ORIENTED_EDGE('',*,*,#324,.T.);
#204=ORIENTED_EDGE('',*,*,#325,.T.);
#205=ORIENTED_EDGE('',*,*,#320,.F.);
#206=ORIENTED_EDGE('',*,*,#292,.F.);
#207=ORIENTED_EDGE('',*,*,#326,.F.);
#208=ORIENTED_EDGE('',*,*,#302,.F.);
#209=ORIENTED_EDGE('',*,*,#322,.F.);
#210=ORIENTED_EDGE('',*,*,#327,.F.);
#211=ORIENTED_EDGE('',*,*,#328,.F.);
#212=ORIENTED_EDGE('',*,*,#329,.F.);
#213=ORIENTED_EDGE('',*,*,#330,.T.);
#214=ORIENTED_EDGE('',*,*,#324,.F.);
#215=ORIENTED_EDGE('',*,*,#331,.F.);
#216=ORIENTED_EDGE('',*,*,#328,.T.);
#217=ORIENTED_EDGE('',*,*,#332,.T.);
#218=ORIENTED_EDGE('',*,*,#333,.T.);
#219=ORIENTED_EDGE('',*,*,#330,.F.);
#220=ORIENTED_EDGE('',*,*,#327,.T.);
#221=ORIENTED_EDGE('',*,*,#321,.F.);
#222=ORIENTED_EDGE('',*,*,#325,.F.);
#223=ORIENTED_EDGE('',*,*,#333,.F.);
#224=ORIENTED_EDGE('',*,*,#318,.F.);
#225=ORIENTED_EDGE('',*,*,#332,.F.);
#226=ORIENTED_EDGE('',*,*,#334,.T.);
#227=ORIENTED_EDGE('',*,*,#335,.T.);
#228=ORIENTED_EDGE('',*,*,#336,.T.);
#229=ORIENTED_EDGE('',*,*,#337,.T.);
#230=ORIENTED_EDGE('',*,*,#338,.T.);
#231=ORIENTED_EDGE('',*,*,#339,.T.);
#232=ORIENTED_EDGE('',*,*,#305,.T.);
#233=ORIENTED_EDGE('',*,*,#340,.T.);
#234=ORIENTED_EDGE('',*,*,#334,.F.);
#235=ORIENTED_EDGE('',*,*,#341,.T.);
#236=ORIENTED_EDGE('',*,*,#342,.F.);
#237=ORIENTED_EDGE('',*,*,#343,.F.);
#238=ORIENTED_EDGE('',*,*,#337,.F.);
#239=ORIENTED_EDGE('',*,*,#344,.T.);
#240=ORIENTED_EDGE('',*,*,#345,.F.);
#241=ORIENTED_EDGE('',*,*,#341,.F.);
#242=ORIENTED_EDGE('',*,*,#336,.F.);
#243=ORIENTED_EDGE('',*,*,#346,.T.);
#244=ORIENTED_EDGE('',*,*,#347,.F.);
#245=ORIENTED_EDGE('',*,*,#344,.F.);
#246=ORIENTED_EDGE('',*,*,#335,.F.);
#247=ORIENTED_EDGE('',*,*,#343,.T.);
#248=ORIENTED_EDGE('',*,*,#348,.F.);
#249=ORIENTED_EDGE('',*,*,#346,.F.);
#250=ORIENTED_EDGE('',*,*,#331,.T.);
#251=ORIENTED_EDGE('',*,*,#326,.T.);
#252=ORIENTED_EDGE('',*,*,#291,.T.);
#253=ORIENTED_EDGE('',*,*,#313,.T.);
#254=ORIENTED_EDGE('',*,*,#315,.T.);
#255=ORIENTED_EDGE('',*,*,#310,.T.);
#256=ORIENTED_EDGE('',*,*,#307,.T.);
#257=ORIENTED_EDGE('',*,*,#349,.T.);
#258=ORIENTED_EDGE('',*,*,#350,.T.);
#259=ORIENTED_EDGE('',*,*,#351,.T.);
#260=ORIENTED_EDGE('',*,*,#303,.T.);
#261=ORIENTED_EDGE('',*,*,#329,.T.);
#262=ORIENTED_EDGE('',*,*,#340,.F.);
#263=ORIENTED_EDGE('',*,*,#304,.T.);
#264=ORIENTED_EDGE('',*,*,#351,.F.);
#265=ORIENTED_EDGE('',*,*,#352,.T.);
#266=ORIENTED_EDGE('',*,*,#338,.F.);
#267=ORIENTED_EDGE('',*,*,#352,.F.);
#268=ORIENTED_EDGE('',*,*,#350,.F.);
#269=ORIENTED_EDGE('',*,*,#353,.F.);
#270=ORIENTED_EDGE('',*,*,#339,.F.);
#271=ORIENTED_EDGE('',*,*,#353,.T.);
#272=ORIENTED_EDGE('',*,*,#349,.F.);
#273=ORIENTED_EDGE('',*,*,#306,.F.);
#274=ORIENTED_EDGE('',*,*,#342,.T.);
#275=ORIENTED_EDGE('',*,*,#345,.T.);
#276=ORIENTED_EDGE('',*,*,#347,.T.);
#277=ORIENTED_EDGE('',*,*,#348,.T.);
#278=ORIENTED_EDGE('',*,*,#296,.F.);
#279=ORIENTED_EDGE('',*,*,#295,.T.);
#280=ORIENTED_EDGE('',*,*,#323,.T.);
#281=ORIENTED_EDGE('',*,*,#299,.T.);
#282=EDGE_CURVE('',#354,#354,#402,.T.);
#283=EDGE_CURVE('',#355,#356,#18,.T.);
#284=EDGE_CURVE('',#356,#357,#19,.T.);
#285=EDGE_CURVE('',#357,#358,#20,.T.);
#286=EDGE_CURVE('',#358,#359,#21,.T.);
#287=EDGE_CURVE('',#359,#360,#403,.T.);
#288=EDGE_CURVE('',#360,#355,#22,.T.);
#289=EDGE_CURVE('',#361,#356,#23,.T.);
#290=EDGE_CURVE('',#355,#362,#24,.T.);
#291=EDGE_CURVE('',#363,#362,#25,.T.);
#292=EDGE_CURVE('',#363,#364,#26,.T.);
#293=EDGE_CURVE('',#365,#364,#27,.T.);
#294=EDGE_CURVE('',#366,#365,#28,.T.);
#295=EDGE_CURVE('',#361,#366,#29,.T.);
#296=EDGE_CURVE('',#361,#367,#30,.T.);
#297=EDGE_CURVE('',#367,#357,#31,.T.);
#298=EDGE_CURVE('',#368,#358,#32,.T.);
#299=EDGE_CURVE('',#369,#367,#33,.T.);
#300=EDGE_CURVE('',#369,#370,#34,.T.);
#301=EDGE_CURVE('',#371,#370,#35,.T.);
#302=EDGE_CURVE('',#371,#372,#36,.T.);
#303=EDGE_CURVE('',#373,#372,#37,.T.);
#304=EDGE_CURVE('',#374,#373,#38,.T.);
#305=EDGE_CURVE('',#375,#374,#39,.T.);
#306=EDGE_CURVE('',#375,#376,#40,.T.);
#307=EDGE_CURVE('',#368,#376,#41,.T.);
#308=EDGE_CURVE('',#377,#378,#42,.T.);
#309=EDGE_CURVE('',#378,#359,#43,.T.);
#310=EDGE_CURVE('',#377,#368,#44,.T.);
#311=EDGE_CURVE('',#379,#360,#45,.T.);
#312=EDGE_CURVE('',#380,#379,#46,.T.);
#313=EDGE_CURVE('',#362,#380,#47,.T.);
#314=EDGE_CURVE('',#379,#378,#404,.T.);
#315=EDGE_CURVE('',#380,#377,#405,.T.);
#316=EDGE_CURVE('',#381,#381,#406,.T.);
#317=EDGE_CURVE('',#379,#378,#407,.T.);
#318=EDGE_CURVE('',#382,#382,#408,.T.);
#319=EDGE_CURVE('',#370,#365,#48,.T.);
#320=EDGE_CURVE('',#364,#383,#49,.T.);
#321=EDGE_CURVE('',#383,#384,#409,.T.);
#322=EDGE_CURVE('',#384,#371,#50,.T.);
#323=EDGE_CURVE('',#366,#369,#51,.T.);
#324=EDGE_CURVE('',#385,#386,#52,.T.);
#325=EDGE_CURVE('',#386,#383,#53,.T.);
#326=EDGE_CURVE('',#385,#363,#54,.T.);
#327=EDGE_CURVE('',#387,#384,#55,.T.);
#328=EDGE_CURVE('',#388,#387,#56,.T.);
#329=EDGE_CURVE('',#372,#388,#57,.T.);
#330=EDGE_CURVE('',#387,#386,#410,.T.);
#331=EDGE_CURVE('',#388,#385,#411,.T.);
#332=EDGE_CURVE('',#389,#389,#412,.T.);
#333=EDGE_CURVE('',#387,#386,#413,.T.);
#334=EDGE_CURVE('',#390,#391,#58,.T.);
#335=EDGE_CURVE('',#391,#392,#59,.T.);
#336=EDGE_CURVE('',#392,#393,#60,.T.);
#337=EDGE_CURVE('',#393,#390,#61,.T.);
#338=EDGE_CURVE('',#394,#395,#62,.T.);
#339=EDGE_CURVE('',#395,#375,#63,.T.);
#340=EDGE_CURVE('',#374,#394,#64,.T.);
#341=EDGE_CURVE('',#390,#396,#65,.T.);
#342=EDGE_CURVE('',#397,#396,#66,.T.);
#343=EDGE_CURVE('',#391,#397,#67,.T.);
#344=EDGE_CURVE('',#393,#398,#68,.T.);
#345=EDGE_CURVE('',#396,#398,#69,.T.);
#346=EDGE_CURVE('',#392,#399,#70,.T.);
#347=EDGE_CURVE('',#398,#399,#71,.T.);
#348=EDGE_CURVE('',#399,#397,#72,.T.);
#349=EDGE_CURVE('',#376,#400,#73,.T.);
#350=EDGE_CURVE('',#400,#401,#74,.T.);
#351=EDGE_CURVE('',#401,#373,#75,.T.);
#352=EDGE_CURVE('',#401,#394,#76,.T.);
#353=EDGE_CURVE('',#395,#400,#77,.T.);
#354=VERTEX_POINT('',#734);
#355=VERTEX_POINT('',#736);
#356=VERTEX_POINT('',#737);
#357=VERTEX_POINT('',#739);
#358=VERTEX_POINT('',#741);
#359=VERTEX_POINT('',#743);
#360=VERTEX_POINT('',#745);
#361=VERTEX_POINT('',#749);
#362=VERTEX_POINT('',#751);
#363=VERTEX_POINT('',#753);
#364=VERTEX_POINT('',#755);
#365=VERTEX_POINT('',#757);
#366=VERTEX_POINT('',#759);
#367=VERTEX_POINT('',#763);
#368=VERTEX_POINT('',#767);
#369=VERTEX_POINT('',#769);
#370=VERTEX_POINT('',#771);
#371=VERTEX_POINT('',#773);
#372=VERTEX_POINT('',#775);
#373=VERTEX_POINT('',#777);
#374=VERTEX_POINT('',#779);
#375=VERTEX_POINT('',#781);
#376=VERTEX_POINT('',#783);
#377=VERTEX_POINT('',#787);
#378=VERTEX_POINT('',#788);
#379=VERTEX_POINT('',#793);
#380=VERTEX_POINT('',#795);
#381=VERTEX_POINT('',#802);
#382=VERTEX_POINT('',#808);
#383=VERTEX_POINT('',#811);
#384=VERTEX_POINT('',#813);
#385=VERTEX_POINT('',#819);
#386=VERTEX_POINT('',#820);
#387=VERTEX_POINT('',#825);
#388=VERTEX_POINT('',#827);
#389=VERTEX_POINT('',#834);
#390=VERTEX_POINT('',#840);
#391=VERTEX_POINT('',#841);
#392=VERTEX_POINT('',#843);
#393=VERTEX_POINT('',#845);
#394=VERTEX_POINT('',#848);
#395=VERTEX_POINT('',#849);
#396=VERTEX_POINT('',#854);
#397=VERTEX_POINT('',#856);
#398=VERTEX_POINT('',#860);
#399=VERTEX_POINT('',#864);
#400=VERTEX_POINT('',#870);
#401=VERTEX_POINT('',#872);
#402=CIRCLE('',#550,0.00225);
#403=CIRCLE('',#551,0.0035);
#404=CIRCLE('',#558,0.0035);
#405=CIRCLE('',#559,0.0035);
#406=CIRCLE('',#561,0.00225);
#407=CIRCLE('',#562,0.0035);
#408=CIRCLE('',#566,0.00225);
#409=CIRCLE('',#567,0.0035);
#410=CIRCLE('',#572,0.0035);
#411=CIRCLE('',#573,0.0035);
#412=CIRCLE('',#575,0.00225);
#413=CIRCLE('',#576,0.0035);
#414=EDGE_LOOP('',(#138));
#415=EDGE_LOOP('',(#139,#140,#141,#142,#143,#144));
#416=EDGE_LOOP('',(#145,#146,#147,#148,#149,#150,#151,#152));
#417=EDGE_LOOP('',(#153,#154,#155,#156));
#418=EDGE_LOOP('',(#157,#158,#159,#160,#161,#162,#163,#164,#165,#166,#167,
#168));
#419=EDGE_LOOP('',(#169,#170,#171,#172,#173));
#420=EDGE_LOOP('',(#174,#175,#176,#177,#178));
#421=EDGE_LOOP('',(#179,#180,#181,#182));
#422=EDGE_LOOP('',(#183));
#423=EDGE_LOOP('',(#184,#185));
#424=EDGE_LOOP('',(#186,#187,#188,#189));
#425=EDGE_LOOP('',(#190));
#426=EDGE_LOOP('',(#191));
#427=EDGE_LOOP('',(#192));
#428=EDGE_LOOP('',(#193,#194,#195,#196,#197,#198));
#429=EDGE_LOOP('',(#199,#200,#201,#202));
#430=EDGE_LOOP('',(#203,#204,#205,#206,#207));
#431=EDGE_LOOP('',(#208,#209,#210,#211,#212));
#432=EDGE_LOOP('',(#213,#214,#215,#216));
#433=EDGE_LOOP('',(#217));
#434=EDGE_LOOP('',(#218,#219));
#435=EDGE_LOOP('',(#220,#221,#222,#223));
#436=EDGE_LOOP('',(#224));
#437=EDGE_LOOP('',(#225));
#438=EDGE_LOOP('',(#226,#227,#228,#229));
#439=EDGE_LOOP('',(#230,#231,#232,#233));
#440=EDGE_LOOP('',(#234,#235,#236,#237));
#441=EDGE_LOOP('',(#238,#239,#240,#241));
#442=EDGE_LOOP('',(#242,#243,#244,#245));
#443=EDGE_LOOP('',(#246,#247,#248,#249));
#444=EDGE_LOOP('',(#250,#251,#252,#253,#254,#255,#256,#257,#258,#259,#260,
#261));
#445=EDGE_LOOP('',(#262,#263,#264,#265));
#446=EDGE_LOOP('',(#266,#267,#268,#269));
#447=EDGE_LOOP('',(#270,#271,#272,#273));
#448=EDGE_LOOP('',(#274,#275,#276,#277));
#449=EDGE_LOOP('',(#278,#279,#280,#281));
#450=FACE_BOUND('',#414,.T.);
#451=FACE_BOUND('',#415,.T.);
#452=FACE_BOUND('',#416,.T.);
#453=FACE_BOUND('',#417,.T.);
#454=FACE_BOUND('',#418,.T.);
#455=FACE_BOUND('',#419,.T.);
#456=FACE_BOUND('',#420,.T.);
#457=FACE_BOUND('',#421,.T.);
#458=FACE_BOUND('',#422,.T.);
#459=FACE_BOUND('',#423,.T.);
#460=FACE_BOUND('',#424,.T.);
#461=FACE_BOUND('',#425,.T.);
#462=FACE_BOUND('',#426,.T.);
#463=FACE_BOUND('',#427,.T.);
#464=FACE_BOUND('',#428,.T.);
#465=FACE_BOUND('',#429,.T.);
#466=FACE_BOUND('',#430,.T.);
#467=FACE_BOUND('',#431,.T.);
#468=FACE_BOUND('',#432,.T.);
#469=FACE_BOUND('',#433,.T.);
#470=FACE_BOUND('',#434,.T.);
#471=FACE_BOUND('',#435,.T.);
#472=FACE_BOUND('',#436,.T.);
#473=FACE_BOUND('',#437,.T.);
#474=FACE_BOUND('',#438,.T.);
#475=FACE_BOUND('',#439,.T.);
#476=FACE_BOUND('',#440,.T.);
#477=FACE_BOUND('',#441,.T.);
#478=FACE_BOUND('',#442,.T.);
#479=FACE_BOUND('',#443,.T.);
#480=FACE_BOUND('',#444,.T.);
#481=FACE_BOUND('',#445,.T.);
#482=FACE_BOUND('',#446,.T.);
#483=FACE_BOUND('',#447,.T.);
#484=FACE_BOUND('',#448,.T.);
#485=FACE_BOUND('',#449,.T.);
#486=PLANE('',#549);
#487=PLANE('',#552);
#488=PLANE('',#553);
#489=PLANE('',#554);
#490=PLANE('',#555);
#491=PLANE('',#556);
#492=PLANE('',#560);
#493=PLANE('',#565);
#494=PLANE('',#568);
#495=PLANE('',#569);
#496=PLANE('',#570);
#497=PLANE('',#574);
#498=PLANE('',#579);
#499=PLANE('',#580);
#500=PLANE('',#581);
#501=PLANE('',#582);
#502=PLANE('',#583);
#503=PLANE('',#584);
#504=PLANE('',#585);
#505=PLANE('',#586);
#506=PLANE('',#587);
#507=PLANE('',#588);
#508=ADVANCED_FACE('',(#450,#451),#486,.T.);
#509=ADVANCED_FACE('',(#452),#487,.T.);
#510=ADVANCED_FACE('',(#453),#488,.T.);
#511=ADVANCED_FACE('',(#454),#489,.T.);
#512=ADVANCED_FACE('',(#455),#490,.T.);
#513=ADVANCED_FACE('',(#456),#491,.T.);
#514=ADVANCED_FACE('',(#457),#12,.F.);
#515=ADVANCED_FACE('',(#458,#459),#492,.F.);
#516=ADVANCED_FACE('',(#460),#13,.T.);
#517=ADVANCED_FACE('',(#461,#462),#14,.F.);
#518=ADVANCED_FACE('',(#463,#464),#493,.T.);
#519=ADVANCED_FACE('',(#465),#494,.T.);
#520=ADVANCED_FACE('',(#466),#495,.T.);
#521=ADVANCED_FACE('',(#467),#496,.T.);
#522=ADVANCED_FACE('',(#468),#15,.F.);
#523=ADVANCED_FACE('',(#469,#470),#497,.F.);
#524=ADVANCED_FACE('',(#471),#16,.T.);
#525=ADVANCED_FACE('',(#472,#473),#17,.F.);
#526=ADVANCED_FACE('',(#474,#475),#498,.T.);
#527=ADVANCED_FACE('',(#476),#499,.T.);
#528=ADVANCED_FACE('',(#477),#500,.T.);
#529=ADVANCED_FACE('',(#478),#501,.T.);
#530=ADVANCED_FACE('',(#479),#502,.T.);
#531=ADVANCED_FACE('',(#480),#503,.T.);
#532=ADVANCED_FACE('',(#481),#504,.T.);
#533=ADVANCED_FACE('',(#482),#505,.T.);
#534=ADVANCED_FACE('',(#483),#506,.T.);
#535=ADVANCED_FACE('',(#484,#485),#507,.T.);
#536=CLOSED_SHELL('',(#508,#509,#510,#511,#512,#513,#514,#515,#516,#517,
#518,#519,#520,#521,#522,#523,#524,#525,#526,#527,#528,#529,#530,#531,#532,
#533,#534,#535));
#537=STYLED_ITEM('',(#538),#545);
#538=PRESENTATION_STYLE_ASSIGNMENT((#539));
#539=SURFACE_STYLE_USAGE(.BOTH.,#540);
#540=SURFACE_SIDE_STYLE('',(#541));
#541=SURFACE_STYLE_FILL_AREA(#542);
#542=FILL_AREA_STYLE('',(#543));
#543=FILL_AREA_STYLE_COLOUR('',#544);
#544=COLOUR_RGB('',0.627450980392157,0.627450980392157,0.627450980392157);
#545=MANIFOLD_SOLID_BREP('DCDC ConverterCase',#536);
#546=SHAPE_DEFINITION_REPRESENTATION(#886,#547);
#547=SHAPE_REPRESENTATION('DCDC ConverterCase',(#548),#881);
#548=AXIS2_PLACEMENT_3D('',#731,#589,#590);
#549=AXIS2_PLACEMENT_3D('',#732,#591,#592);
#550=AXIS2_PLACEMENT_3D('',#733,#593,#594);
#551=AXIS2_PLACEMENT_3D('',#744,#599,#600);
#552=AXIS2_PLACEMENT_3D('',#747,#602,#603);
#553=AXIS2_PLACEMENT_3D('',#761,#611,#612);
#554=AXIS2_PLACEMENT_3D('',#765,#615,#616);
#555=AXIS2_PLACEMENT_3D('',#785,#627,#628);
#556=AXIS2_PLACEMENT_3D('',#791,#632,#633);
#557=AXIS2_PLACEMENT_3D('',#797,#637,#638);
#558=AXIS2_PLACEMENT_3D('',#798,#639,#640);
#559=AXIS2_PLACEMENT_3D('',#799,#641,#642);
#560=AXIS2_PLACEMENT_3D('',#800,#643,#644);
#561=AXIS2_PLACEMENT_3D('',#801,#645,#646);
#562=AXIS2_PLACEMENT_3D('',#803,#647,#648);
#563=AXIS2_PLACEMENT_3D('',#804,#649,#650);
#564=AXIS2_PLACEMENT_3D('',#805,#651,#652);
#565=AXIS2_PLACEMENT_3D('',#806,#653,#654);
#566=AXIS2_PLACEMENT_3D('',#807,#655,#656);
#567=AXIS2_PLACEMENT_3D('',#812,#659,#660);
#568=AXIS2_PLACEMENT_3D('',#815,#662,#663);
#569=AXIS2_PLACEMENT_3D('',#817,#665,#666);
#570=AXIS2_PLACEMENT_3D('',#823,#670,#671);
#571=AXIS2_PLACEMENT_3D('',#829,#675,#676);
#572=AXIS2_PLACEMENT_3D('',#830,#677,#678);
#573=AXIS2_PLACEMENT_3D('',#831,#679,#680);
#574=AXIS2_PLACEMENT_3D('',#832,#681,#682);
#575=AXIS2_PLACEMENT_3D('',#833,#683,#684);
#576=AXIS2_PLACEMENT_3D('',#835,#685,#686);
#577=AXIS2_PLACEMENT_3D('',#836,#687,#688);
#578=AXIS2_PLACEMENT_3D('',#837,#689,#690);
#579=AXIS2_PLACEMENT_3D('',#838,#691,#692);
#580=AXIS2_PLACEMENT_3D('',#852,#700,#701);
#581=AXIS2_PLACEMENT_3D('',#858,#705,#706);
#582=AXIS2_PLACEMENT_3D('',#862,#709,#710);
#583=AXIS2_PLACEMENT_3D('',#866,#713,#714);
#584=AXIS2_PLACEMENT_3D('',#868,#716,#717);
#585=AXIS2_PLACEMENT_3D('',#874,#721,#722);
#586=AXIS2_PLACEMENT_3D('',#876,#724,#725);
#587=AXIS2_PLACEMENT_3D('',#878,#727,#728);
#588=AXIS2_PLACEMENT_3D('',#879,#729,#730);
#589=DIRECTION('',(0.,0.,1.));
#590=DIRECTION('',(1.,0.,0.));
#591=DIRECTION('',(0.,0.,-1.));
#592=DIRECTION('',(1.,0.,0.));
#593=DIRECTION('',(0.,0.,1.));
#594=DIRECTION('',(1.,0.,0.));
#595=DIRECTION('',(0.,-1.,0.));
#596=DIRECTION('',(-1.,0.,0.));
#597=DIRECTION('',(0.,1.,0.));
#598=DIRECTION('',(1.,0.,0.));
#599=DIRECTION('',(0.,0.,-1.));
#600=DIRECTION('',(1.,0.,0.));
#601=DIRECTION('',(1.,0.,0.));
#602=DIRECTION('',(1.,0.,0.));
#603=DIRECTION('',(0.,-1.,0.));
#604=DIRECTION('',(0.,0.,-1.));
#605=DIRECTION('',(0.,0.,1.));
#606=DIRECTION('',(0.,1.,0.));
#607=DIRECTION('',(0.,0.,-1.));
#608=DIRECTION('',(0.,-1.,0.));
#609=DIRECTION('',(0.,0.,-1.));
#610=DIRECTION('',(0.,-1.,0.));
#611=DIRECTION('',(0.,-1.,0.));
#612=DIRECTION('',(-1.,0.,0.));
#613=DIRECTION('',(-1.,0.,0.));
#614=DIRECTION('',(0.,0.,-1.));
#615=DIRECTION('',(-1.,0.,0.));
#616=DIRECTION('',(0.,1.,0.));
#617=DIRECTION('',(0.,0.,-1.));
#618=DIRECTION('',(0.,1.,0.));
#619=DIRECTION('',(0.,0.,-1.));
#620=DIRECTION('',(0.,1.,0.));
#621=DIRECTION('',(0.,0.,1.));
#622=DIRECTION('',(0.,-1.,0.));
#623=DIRECTION('',(0.,0.,1.));
#624=DIRECTION('',(0.,-1.,0.));
#625=DIRECTION('',(0.,0.,1.));
#626=DIRECTION('',(0.,-1.,0.));
#627=DIRECTION('',(0.,1.,0.));
#628=DIRECTION('',(1.,0.,0.));
#629=DIRECTION('',(0.,0.,-1.));
#630=DIRECTION('',(0.,0.,-1.));
#631=DIRECTION('',(-1.,0.,0.));
#632=DIRECTION('',(0.,1.,0.));
#633=DIRECTION('',(1.,0.,0.));
#634=DIRECTION('',(0.,0.,-1.));
#635=DIRECTION('',(0.,0.,-1.));
#636=DIRECTION('',(-1.,0.,0.));
#637=DIRECTION('',(0.,0.,-1.));
#638=DIRECTION('',(1.,0.,0.));
#639=DIRECTION('',(0.,0.,-1.));
#640=DIRECTION('',(1.,0.,0.));
#641=DIRECTION('',(0.,0.,-1.));
#642=DIRECTION('',(1.,0.,0.));
#643=DIRECTION('',(0.,0.,-1.));
#644=DIRECTION('',(1.,0.,0.));
#645=DIRECTION('',(0.,0.,-1.));
#646=DIRECTION('',(1.,0.,0.));
#647=DIRECTION('',(0.,0.,1.));
#648=DIRECTION('',(1.,0.,0.));
#649=DIRECTION('',(0.,0.,-1.));
#650=DIRECTION('',(1.,0.,0.));
#651=DIRECTION('',(0.,0.,1.));
#652=DIRECTION('',(1.,0.,0.));
#653=DIRECTION('',(0.,0.,-1.));
#654=DIRECTION('',(1.,0.,0.));
#655=DIRECTION('',(0.,0.,1.));
#656=DIRECTION('',(1.,0.,0.));
#657=DIRECTION('',(1.,0.,0.));
#658=DIRECTION('',(-1.,0.,0.));
#659=DIRECTION('',(0.,0.,-1.));
#660=DIRECTION('',(1.,0.,0.));
#661=DIRECTION('',(-1.,0.,0.));
#662=DIRECTION('',(0.,1.,0.));
#663=DIRECTION('',(1.,0.,0.));
#664=DIRECTION('',(-1.,0.,0.));
#665=DIRECTION('',(0.,-1.,0.));
#666=DIRECTION('',(-1.,0.,0.));
#667=DIRECTION('',(0.,0.,-1.));
#668=DIRECTION('',(0.,0.,-1.));
#669=DIRECTION('',(1.,0.,0.));
#670=DIRECTION('',(0.,-1.,0.));
#671=DIRECTION('',(-1.,0.,0.));
#672=DIRECTION('',(0.,0.,-1.));
#673=DIRECTION('',(0.,0.,-1.));
#674=DIRECTION('',(1.,0.,0.));
#675=DIRECTION('',(0.,0.,-1.));
#676=DIRECTION('',(1.,0.,0.));
#677=DIRECTION('',(0.,0.,-1.));
#678=DIRECTION('',(1.,0.,0.));
#679=DIRECTION('',(0.,0.,-1.));
#680=DIRECTION('',(1.,0.,0.));
#681=DIRECTION('',(0.,0.,-1.));
#682=DIRECTION('',(1.,0.,0.));
#683=DIRECTION('',(0.,0.,-1.));
#684=DIRECTION('',(1.,0.,0.));
#685=DIRECTION('',(0.,0.,1.));
#686=DIRECTION('',(1.,0.,0.));
#687=DIRECTION('',(0.,0.,-1.));
#688=DIRECTION('',(1.,0.,0.));
#689=DIRECTION('',(0.,0.,1.));
#690=DIRECTION('',(1.,0.,0.));
#691=DIRECTION('',(0.,0.,1.));
#692=DIRECTION('',(1.,0.,0.));
#693=DIRECTION('',(-1.,0.,0.));
#694=DIRECTION('',(0.,1.,0.));
#695=DIRECTION('',(1.,0.,0.));
#696=DIRECTION('',(0.,-1.,0.));
#697=DIRECTION('',(0.,1.,0.));
#698=DIRECTION('',(-1.,0.,0.));
#699=DIRECTION('',(1.,0.,0.));
#700=DIRECTION('',(0.,1.,0.));
#701=DIRECTION('',(1.,0.,0.));
#702=DIRECTION('',(0.,0.,-1.));
#703=DIRECTION('',(1.,0.,0.));
#704=DIRECTION('',(0.,0.,-1.));
#705=DIRECTION('',(-1.,0.,0.));
#706=DIRECTION('',(0.,1.,0.));
#707=DIRECTION('',(0.,0.,-1.));
#708=DIRECTION('',(0.,1.,0.));
#709=DIRECTION('',(0.,-1.,0.));
#710=DIRECTION('',(-1.,0.,0.));
#711=DIRECTION('',(0.,0.,-1.));
#712=DIRECTION('',(-1.,0.,0.));
#713=DIRECTION('',(1.,0.,0.));
#714=DIRECTION('',(0.,-1.,0.));
#715=DIRECTION('',(0.,-1.,0.));
#716=DIRECTION('',(0.,0.,1.));
#717=DIRECTION('',(1.,0.,0.));
#718=DIRECTION('',(1.,0.,0.));
#719=DIRECTION('',(0.,-1.,0.));
#720=DIRECTION('',(-1.,0.,0.));
#721=DIRECTION('',(0.,1.,0.));
#722=DIRECTION('',(-1.,0.,0.));
#723=DIRECTION('',(0.,0.,-1.));
#724=DIRECTION('',(-1.,0.,0.));
#725=DIRECTION('',(0.,-1.,0.));
#726=DIRECTION('',(0.,0.,1.));
#727=DIRECTION('',(0.,-1.,0.));
#728=DIRECTION('',(1.,0.,0.));
#729=DIRECTION('',(0.,0.,-1.));
#730=DIRECTION('',(-1.,0.,0.));
#731=CARTESIAN_POINT('',(0.,0.,0.));
#732=CARTESIAN_POINT('',(-0.000380097949817499,-0.0190000002458692,-0.012));
#733=CARTESIAN_POINT('',(-0.000380097949817499,0.0170000001788139,-0.012));
#734=CARTESIAN_POINT('',(0.0018699020501825,0.0170000001788139,-0.012));
#735=CARTESIAN_POINT('',(0.0180000002682209,0.0170000001788139,-0.012));
#736=CARTESIAN_POINT('',(0.0180000002433857,0.0170000001788139,-0.012));
#737=CARTESIAN_POINT('',(0.0180000002682209,0.00900000013411045,-0.012));
#738=CARTESIAN_POINT('',(0.0180000002682209,0.00900000013411045,-0.012));
#739=CARTESIAN_POINT('',(-0.0187601961678559,0.00900000013411045,-0.012));
#740=CARTESIAN_POINT('',(-0.0187601961678559,0.00900000013411045,-0.012));
#741=CARTESIAN_POINT('',(-0.0187601961678559,0.0170000001788139,-0.012));
#742=CARTESIAN_POINT('',(0.0180000001937151,0.0170000001788139,-0.012));
#743=CARTESIAN_POINT('',(-0.0038800979498175,0.0170000001788139,-0.012));
#744=CARTESIAN_POINT('',(-0.000380097949817499,0.0170000001788139,-0.012));
#745=CARTESIAN_POINT('',(0.0031199020501825,0.0170000001788139,-0.012));
#746=CARTESIAN_POINT('',(0.0180000001937151,0.0170000001788139,-0.012));
#747=CARTESIAN_POINT('',(0.0180000002682209,0.0170000001788139,-0.004));
#748=CARTESIAN_POINT('',(0.0180000002682209,0.00900000013411045,-0.004));
#749=CARTESIAN_POINT('',(0.0180000002682209,0.00900000013411045,-0.004));
#750=CARTESIAN_POINT('',(0.0180000002682209,0.0170000001788139,-0.004));
#751=CARTESIAN_POINT('',(0.0180000001937151,0.0170000001788139,0.01));
#752=CARTESIAN_POINT('',(0.0180000001937151,0.0170000001788139,0.01));
#753=CARTESIAN_POINT('',(0.0180000002185504,-0.0230000002682209,0.01));
#754=CARTESIAN_POINT('',(0.0180000002682209,-0.0230000002682209,-0.004));
#755=CARTESIAN_POINT('',(0.0180000002682209,-0.0230000002682209,-0.012));
#756=CARTESIAN_POINT('',(0.0180000002682209,-0.0230000002682209,-0.012));
#757=CARTESIAN_POINT('',(0.0180000002682209,-0.0150000002235174,-0.012));
#758=CARTESIAN_POINT('',(0.0180000002682209,-0.0150000002235174,-0.004));
#759=CARTESIAN_POINT('',(0.0180000002682209,-0.0150000002235174,-0.004));
#760=CARTESIAN_POINT('',(0.0180000001937151,0.0170000001788139,-0.004));
#761=CARTESIAN_POINT('',(0.0180000002682209,0.00900000013411045,-0.004));
#762=CARTESIAN_POINT('',(0.0180000002682209,0.00900000013411045,-0.004));
#763=CARTESIAN_POINT('',(-0.0187601961678559,0.00900000013411045,-0.004));
#764=CARTESIAN_POINT('',(-0.0187601961678559,0.00900000013411045,-0.004));
#765=CARTESIAN_POINT('',(-0.0187601961678559,0.00900000013411045,-0.004));
#766=CARTESIAN_POINT('',(-0.0187601961678559,0.0170000001788139,-0.004));
#767=CARTESIAN_POINT('',(-0.0187601961678559,0.0170000001788139,0.01));
#768=CARTESIAN_POINT('',(-0.0187601961678559,-0.0180000002682209,-0.004));
#769=CARTESIAN_POINT('',(-0.0187601961678559,-0.0150000002235174,-0.004));
#770=CARTESIAN_POINT('',(-0.0187601961678559,-0.0150000002235174,-0.004));
#771=CARTESIAN_POINT('',(-0.0187601961678559,-0.0150000002235174,-0.012));
#772=CARTESIAN_POINT('',(-0.0187601961678559,-0.0150000002235174,-0.012));
#773=CARTESIAN_POINT('',(-0.0187601961678559,-0.0230000002682209,-0.012));
#774=CARTESIAN_POINT('',(-0.0187601961678559,-0.0230000002682209,0.));
#775=CARTESIAN_POINT('',(-0.0187601961678559,-0.0230000002682209,0.01));
#776=CARTESIAN_POINT('',(-0.0187601961678559,-0.0180000002682209,0.01));
#777=CARTESIAN_POINT('',(-0.0187601961678559,-0.0180000002682209,0.01));
#778=CARTESIAN_POINT('',(-0.0187601961678559,-0.0180000002682209,0.));
#779=CARTESIAN_POINT('',(-0.0187601961678559,-0.0180000002682209,0.));
#780=CARTESIAN_POINT('',(-0.0187601961678559,0.0120000001788139,0.));
#781=CARTESIAN_POINT('',(-0.0187601961678559,0.0120000001788139,0.));
#782=CARTESIAN_POINT('',(-0.0187601961678559,0.0120000001788139,0.));
#783=CARTESIAN_POINT('',(-0.0187601961678559,0.0120000001788139,0.01));
#784=CARTESIAN_POINT('',(-0.0187601961678559,0.0120000001788139,0.01));
#785=CARTESIAN_POINT('',(-0.0187601961678559,0.0170000001788139,-0.004));
#786=CARTESIAN_POINT('',(-0.0038800979498175,0.0170000001788139,-0.004));
#787=CARTESIAN_POINT('',(-0.0038800979498175,0.0170000001788139,0.01));
#788=CARTESIAN_POINT('',(-0.0038800979498175,0.0170000001788139,-0.008));
#789=CARTESIAN_POINT('',(-0.0038800979498175,0.0170000001788139,-0.004));
#790=CARTESIAN_POINT('',(-0.0187601961678559,0.0170000001788139,0.01));
#791=CARTESIAN_POINT('',(-0.0187601961678559,0.0170000001788139,-0.004));
#792=CARTESIAN_POINT('',(0.0031199020501825,0.0170000001788139,-0.004));
#793=CARTESIAN_POINT('',(0.0031199020501825,0.0170000001788139,-0.008));
#794=CARTESIAN_POINT('',(0.0031199020501825,0.0170000001788139,-0.004));
#795=CARTESIAN_POINT('',(0.0031199020501825,0.0170000001788139,0.01));
#796=CARTESIAN_POINT('',(-0.0187601961678559,0.0170000001788139,0.01));
#797=CARTESIAN_POINT('',(-0.000380097949817499,0.0170000001788139,-0.004));
#798=CARTESIAN_POINT('',(-0.000380097949817499,0.0170000001788139,-0.008));
#799=CARTESIAN_POINT('',(-0.000380097949817499,0.0170000001788139,0.01));
#800=CARTESIAN_POINT('',(-0.000380097949817499,-0.0230000002682209,-0.008));
#801=CARTESIAN_POINT('',(-0.000380097949817499,0.0170000001788139,-0.008));
#802=CARTESIAN_POINT('',(0.0018699020501825,0.0170000001788139,-0.008));
#803=CARTESIAN_POINT('',(-0.000380097949817499,0.0170000001788139,-0.008));
#804=CARTESIAN_POINT('',(-0.000380097949817499,0.0170000001788139,-0.004));
#805=CARTESIAN_POINT('',(-0.000380097949817499,0.0170000001788139,-0.012));
#806=CARTESIAN_POINT('',(-0.000380097949817499,-0.0190000002458692,-0.012));
#807=CARTESIAN_POINT('',(-0.000380097949817499,-0.0230000002682209,-0.012));
#808=CARTESIAN_POINT('',(0.0018699020501825,-0.0230000002682209,-0.012));
#809=CARTESIAN_POINT('',(0.0180000002682209,-0.0150000002235174,-0.012));
#810=CARTESIAN_POINT('',(-0.0187601961678559,-0.0230000002682209,-0.012));
#811=CARTESIAN_POINT('',(0.0031199020501825,-0.0230000002682209,-0.012));
#812=CARTESIAN_POINT('',(-0.000380097949817499,-0.0230000002682209,-0.012));
#813=CARTESIAN_POINT('',(-0.0038800979498175,-0.0230000002682209,-0.012));
#814=CARTESIAN_POINT('',(-0.0187601961678559,-0.0230000002682209,-0.012));
#815=CARTESIAN_POINT('',(-0.0187601961678559,-0.0150000002235174,-0.004));
#816=CARTESIAN_POINT('',(0.0180000002682209,-0.0150000002235174,-0.004));
#817=CARTESIAN_POINT('',(-0.0038800979498175,-0.0230000002682209,-0.004));
#818=CARTESIAN_POINT('',(0.0031199020501825,-0.0230000002682209,-0.004));
#819=CARTESIAN_POINT('',(0.0031199020501825,-0.0230000002682209,0.01));
#820=CARTESIAN_POINT('',(0.0031199020501825,-0.0230000002682209,-0.008));
#821=CARTESIAN_POINT('',(0.0031199020501825,-0.0230000002682209,-0.004));
#822=CARTESIAN_POINT('',(0.0180000001937151,-0.0230000002682209,0.01));
#823=CARTESIAN_POINT('',(-0.0038800979498175,-0.0230000002682209,-0.004));
#824=CARTESIAN_POINT('',(-0.0038800979498175,-0.0230000002682209,-0.004));
#825=CARTESIAN_POINT('',(-0.0038800979498175,-0.0230000002682209,-0.008));
#826=CARTESIAN_POINT('',(-0.0038800979498175,-0.0230000002682209,-0.004));
#827=CARTESIAN_POINT('',(-0.0038800979498175,-0.0230000002682209,0.01));
#828=CARTESIAN_POINT('',(0.0180000001937151,-0.0230000002682209,0.01));
#829=CARTESIAN_POINT('',(-0.000380097949817499,-0.0230000002682209,-0.004));
#830=CARTESIAN_POINT('',(-0.000380097949817499,-0.0230000002682209,-0.008));
#831=CARTESIAN_POINT('',(-0.000380097949817499,-0.0230000002682209,0.01));
#832=CARTESIAN_POINT('',(-0.000380097949817499,-0.0230000002682209,-0.008));
#833=CARTESIAN_POINT('',(-0.000380097949817499,-0.0230000002682209,-0.008));
#834=CARTESIAN_POINT('',(0.0018699020501825,-0.0230000002682209,-0.008));
#835=CARTESIAN_POINT('',(-0.000380097949817499,-0.0230000002682209,-0.008));
#836=CARTESIAN_POINT('',(-0.000380097949817499,-0.0230000002682209,-0.004));
#837=CARTESIAN_POINT('',(-0.000380097949817499,-0.0230000002682209,-0.012));
#838=CARTESIAN_POINT('',(-0.0028800979870704,-0.00300000004470348,0.));
#839=CARTESIAN_POINT('',(0.00500000007450581,-0.0100000001490116,0.));
#840=CARTESIAN_POINT('',(0.00500000007450581,-0.0100000001490116,0.));
#841=CARTESIAN_POINT('',(-0.0110000001639128,-0.0100000001490116,0.));
#842=CARTESIAN_POINT('',(-0.0110000001639128,-0.0100000001490116,0.));
#843=CARTESIAN_POINT('',(-0.0110000001639128,0.00400000005960464,0.));
#844=CARTESIAN_POINT('',(-0.0110000001639128,0.00400000005960464,0.));
#845=CARTESIAN_POINT('',(0.00500000007450581,0.00400000005960464,0.));
#846=CARTESIAN_POINT('',(0.00500000007450581,0.00400000005960464,0.));
#847=CARTESIAN_POINT('',(0.0130000001937151,-0.0180000002682209,0.));
#848=CARTESIAN_POINT('',(0.0130000001937151,-0.0180000002682209,0.));
#849=CARTESIAN_POINT('',(0.0130000001937151,0.0120000001788139,0.));
#850=CARTESIAN_POINT('',(0.0130000001937151,0.0120000001788139,0.));
#851=CARTESIAN_POINT('',(-0.0187601961678559,-0.0180000002682209,0.));
#852=CARTESIAN_POINT('',(-0.0110000001639128,-0.0100000001490116,0.));
#853=CARTESIAN_POINT('',(0.00500000007450581,-0.0100000001490116,0.));
#854=CARTESIAN_POINT('',(0.00500000007450581,-0.0100000001490116,-0.004));
#855=CARTESIAN_POINT('',(0.00500000007450581,-0.0100000001490116,-0.004));
#856=CARTESIAN_POINT('',(-0.0110000001639128,-0.0100000001490116,-0.004));
#857=CARTESIAN_POINT('',(-0.0110000001639128,-0.0100000001490116,0.));
#858=CARTESIAN_POINT('',(0.00500000007450581,-0.0100000001490116,0.));
#859=CARTESIAN_POINT('',(0.00500000007450581,0.00400000005960464,0.));
#860=CARTESIAN_POINT('',(0.00500000007450581,0.00400000005960464,-0.004));
#861=CARTESIAN_POINT('',(0.00500000007450581,0.00400000005960464,-0.004));
#862=CARTESIAN_POINT('',(0.00500000007450581,0.00400000005960464,0.));
#863=CARTESIAN_POINT('',(-0.0110000001639128,0.00400000005960464,0.));
#864=CARTESIAN_POINT('',(-0.0110000001639128,0.00400000005960464,-0.004));
#865=CARTESIAN_POINT('',(-0.0110000001639128,0.00400000005960464,-0.004));
#866=CARTESIAN_POINT('',(-0.0110000001639128,0.00400000005960464,0.));
#867=CARTESIAN_POINT('',(-0.0110000001639128,-0.0100000001490116,-0.004));
#868=CARTESIAN_POINT('',(-0.000380097987070402,-0.00300000004470348,0.01));
#869=CARTESIAN_POINT('',(0.0130000001937151,0.0120000001788139,0.01));
#870=CARTESIAN_POINT('',(0.0130000001937151,0.0120000001788139,0.01));
#871=CARTESIAN_POINT('',(0.0130000001937151,-0.0180000002682209,0.01));
#872=CARTESIAN_POINT('',(0.0130000001937151,-0.0180000002682209,0.01));
#873=CARTESIAN_POINT('',(-0.0187601961678559,-0.0180000002682209,0.01));
#874=CARTESIAN_POINT('',(0.0130000001937151,-0.0180000002682209,0.));
#875=CARTESIAN_POINT('',(0.0130000001937151,-0.0180000002682209,0.));
#876=CARTESIAN_POINT('',(0.0130000001937151,0.0120000001788139,0.));
#877=CARTESIAN_POINT('',(0.0130000001937151,0.0120000001788139,0.));
#878=CARTESIAN_POINT('',(-0.0187601961678559,0.0120000001788139,0.));
#879=CARTESIAN_POINT('',(-0.0028800979870704,-0.00300000004470348,-0.004));
#880=MECHANICAL_DESIGN_GEOMETRIC_PRESENTATION_REPRESENTATION('',(#537),
#881);
#881=(
GEOMETRIC_REPRESENTATION_CONTEXT(3)
GLOBAL_UNCERTAINTY_ASSIGNED_CONTEXT((#882))
GLOBAL_UNIT_ASSIGNED_CONTEXT((#885,#884,#883))
REPRESENTATION_CONTEXT('DCDC ConverterCase','TOP_LEVEL_ASSEMBLY_PART')
);
#882=UNCERTAINTY_MEASURE_WITH_UNIT(LENGTH_MEASURE(1.E-6),#885,
'DISTANCE_ACCURACY_VALUE','Maximum Tolerance applied to model');
#883=(
NAMED_UNIT(*)
SI_UNIT($,.STERADIAN.)
SOLID_ANGLE_UNIT()
);
#884=(
NAMED_UNIT(*)
PLANE_ANGLE_UNIT()
SI_UNIT($,.RADIAN.)
);
#885=(
LENGTH_UNIT()
NAMED_UNIT(*)
SI_UNIT($,.METRE.)
);
#886=PRODUCT_DEFINITION_SHAPE('','',#887);
#887=PRODUCT_DEFINITION('','',#889,#888);
#888=PRODUCT_DEFINITION_CONTEXT('',#895,'design');
#889=PRODUCT_DEFINITION_FORMATION_WITH_SPECIFIED_SOURCE('','',#891,
 .NOT_KNOWN.);
#890=PRODUCT_RELATED_PRODUCT_CATEGORY('','',(#891));
#891=PRODUCT('DCDC ConverterCase','DCDC ConverterCase',
'DCDC ConverterCase',(#893));
#892=PRODUCT_CATEGORY('','');
#893=PRODUCT_CONTEXT('',#895,'mechanical');
#894=APPLICATION_PROTOCOL_DEFINITION('international standard',
'ap242_managed_model_based_3d_engineering',2020,#895);
#895=APPLICATION_CONTEXT('managed model based 3d engineering');
ENDSEC;
END-ISO-10303-21;
