ISO-10303-21;
HEADER;
/* Generated by software containing ST-Developer
 * from STEP Tools, Inc. (www.steptools.com) 
 */
/* OPTION: using custom renumber hook */

FILE_DESCRIPTION(
/* description */ ('STEP AP242 Edition 2',
'CAx-IF Rec.Pracs.---Representation and Presentation of Product Manufa
cturing Information (PMI)---4.0---2014-10-13',
'CAx-IF Rec.Pracs.---3D Tessellated Geometry---0.4---2014-09-14','2;1',
'CAx-IF Rec.Pracs.---User Defined Attributes---1.5---2016-08-15'),
/* implementation_level */ '2;1');

FILE_NAME(
/* name */ 'GPSCaseV2 - GPS CaseCap v7',
/* time_stamp */ '2026-06-05T01:47:11Z',
/* author */ (''),
/* organization */ (''),
/* preprocessor_version */ 'ST-DEVELOPER v20',
/* originating_system */ 'ONSHAPE BY PTC INC, 1.215',
/* authorisation */ '  ');

FILE_SCHEMA (('AP242_MANAGED_MODEL_BASED_3D_ENGINEERING_MIM_LF { 1 0 10303 442 3 1 4 }'));
ENDSEC;

DATA;
#10=SHAPE_REPRESENTATION_RELATIONSHIP('','',#1079,#11);
#11=ADVANCED_BREP_SHAPE_REPRESENTATION('',(#1077),#1729);
#12=CYLINDRICAL_SURFACE('',#1094,0.00135);
#13=CYLINDRICAL_SURFACE('',#1096,0.00135);
#14=CYLINDRICAL_SURFACE('',#1098,0.004);
#15=CYLINDRICAL_SURFACE('',#1100,0.004);
#16=CYLINDRICAL_SURFACE('',#1102,0.004);
#17=CYLINDRICAL_SURFACE('',#1104,0.004);
#18=CYLINDRICAL_SURFACE('',#1146,0.005);
#19=CYLINDRICAL_SURFACE('',#1148,0.005);
#20=CYLINDRICAL_SURFACE('',#1150,0.005);
#21=CYLINDRICAL_SURFACE('',#1152,0.005);
#22=LINE('',#1433,#150);
#23=LINE('',#1438,#151);
#24=LINE('',#1442,#152);
#25=LINE('',#1446,#153);
#26=LINE('',#1450,#154);
#27=LINE('',#1452,#155);
#28=LINE('',#1454,#156);
#29=LINE('',#1456,#157);
#30=LINE('',#1458,#158);
#31=LINE('',#1460,#159);
#32=LINE('',#1462,#160);
#33=LINE('',#1466,#161);
#34=LINE('',#1470,#162);
#35=LINE('',#1474,#163);
#36=LINE('',#1478,#164);
#37=LINE('',#1480,#165);
#38=LINE('',#1482,#166);
#39=LINE('',#1484,#167);
#40=LINE('',#1486,#168);
#41=LINE('',#1488,#169);
#42=LINE('',#1490,#170);
#43=LINE('',#1492,#171);
#44=LINE('',#1494,#172);
#45=LINE('',#1496,#173);
#46=LINE('',#1498,#174);
#47=LINE('',#1500,#175);
#48=LINE('',#1508,#176);
#49=LINE('',#1514,#177);
#50=LINE('',#1516,#178);
#51=LINE('',#1522,#179);
#52=LINE('',#1524,#180);
#53=LINE('',#1526,#181);
#54=LINE('',#1528,#182);
#55=LINE('',#1531,#183);
#56=LINE('',#1533,#184);
#57=LINE('',#1535,#185);
#58=LINE('',#1537,#186);
#59=LINE('',#1539,#187);
#60=LINE('',#1541,#188);
#61=LINE('',#1543,#189);
#62=LINE('',#1545,#190);
#63=LINE('',#1546,#191);
#64=LINE('',#1548,#192);
#65=LINE('',#1551,#193);
#66=LINE('',#1553,#194);
#67=LINE('',#1555,#195);
#68=LINE('',#1556,#196);
#69=LINE('',#1559,#197);
#70=LINE('',#1561,#198);
#71=LINE('',#1563,#199);
#72=LINE('',#1564,#200);
#73=LINE('',#1567,#201);
#74=LINE('',#1568,#202);
#75=LINE('',#1570,#203);
#76=LINE('',#1572,#204);
#77=LINE('',#1573,#205);
#78=LINE('',#1575,#206);
#79=LINE('',#1577,#207);
#80=LINE('',#1579,#208);
#81=LINE('',#1582,#209);
#82=LINE('',#1584,#210);
#83=LINE('',#1586,#211);
#84=LINE('',#1587,#212);
#85=LINE('',#1590,#213);
#86=LINE('',#1592,#214);
#87=LINE('',#1594,#215);
#88=LINE('',#1595,#216);
#89=LINE('',#1598,#217);
#90=LINE('',#1602,#218);
#91=LINE('',#1605,#219);
#92=LINE('',#1606,#220);
#93=LINE('',#1610,#221);
#94=LINE('',#1612,#222);
#95=LINE('',#1614,#223);
#96=LINE('',#1618,#224);
#97=LINE('',#1620,#225);
#98=LINE('',#1623,#226);
#99=LINE('',#1625,#227);
#100=LINE('',#1627,#228);
#101=LINE('',#1629,#229);
#102=LINE('',#1631,#230);
#103=LINE('',#1633,#231);
#104=LINE('',#1635,#232);
#105=LINE('',#1637,#233);
#106=LINE('',#1638,#234);
#107=LINE('',#1640,#235);
#108=LINE('',#1642,#236);
#109=LINE('',#1645,#237);
#110=LINE('',#1647,#238);
#111=LINE('',#1649,#239);
#112=LINE('',#1650,#240);
#113=LINE('',#1653,#241);
#114=LINE('',#1655,#242);
#115=LINE('',#1657,#243);
#116=LINE('',#1658,#244);
#117=LINE('',#1659,#245);
#118=LINE('',#1661,#246);
#119=LINE('',#1662,#247);
#120=LINE('',#1664,#248);
#121=LINE('',#1666,#249);
#122=LINE('',#1668,#250);
#123=LINE('',#1671,#251);
#124=LINE('',#1673,#252);
#125=LINE('',#1675,#253);
#126=LINE('',#1676,#254);
#127=LINE('',#1679,#255);
#128=LINE('',#1681,#256);
#129=LINE('',#1683,#257);
#130=LINE('',#1685,#258);
#131=LINE('',#1686,#259);
#132=LINE('',#1688,#260);
#133=LINE('',#1690,#261);
#134=LINE('',#1691,#262);
#135=LINE('',#1693,#263);
#136=LINE('',#1695,#264);
#137=LINE('',#1697,#265);
#138=LINE('',#1701,#266);
#139=LINE('',#1702,#267);
#140=LINE('',#1704,#268);
#141=LINE('',#1706,#269);
#142=LINE('',#1707,#270);
#143=LINE('',#1709,#271);
#144=LINE('',#1711,#272);
#145=LINE('',#1713,#273);
#146=LINE('',#1717,#274);
#147=LINE('',#1720,#275);
#148=LINE('',#1723,#276);
#149=LINE('',#1726,#277);
#150=VECTOR('',#1161,1.);
#151=VECTOR('',#1164,1.);
#152=VECTOR('',#1167,1.);
#153=VECTOR('',#1170,1.);
#154=VECTOR('',#1173,1.);
#155=VECTOR('',#1174,1.);
#156=VECTOR('',#1175,1.);
#157=VECTOR('',#1176,1.);
#158=VECTOR('',#1177,1.);
#159=VECTOR('',#1178,1.);
#160=VECTOR('',#1179,1.);
#161=VECTOR('',#1182,1.);
#162=VECTOR('',#1185,1.);
#163=VECTOR('',#1188,1.);
#164=VECTOR('',#1191,1.);
#165=VECTOR('',#1192,1.);
#166=VECTOR('',#1193,1.);
#167=VECTOR('',#1194,1.);
#168=VECTOR('',#1195,1.);
#169=VECTOR('',#1196,1.);
#170=VECTOR('',#1199,1.);
#171=VECTOR('',#1200,1.);
#172=VECTOR('',#1201,1.);
#173=VECTOR('',#1204,1.);
#174=VECTOR('',#1205,1.);
#175=VECTOR('',#1206,1.);
#176=VECTOR('',#1217,1.);
#177=VECTOR('',#1224,1.);
#178=VECTOR('',#1227,1.);
#179=VECTOR('',#1234,1.);
#180=VECTOR('',#1237,1.);
#181=VECTOR('',#1238,1.);
#182=VECTOR('',#1241,1.);
#183=VECTOR('',#1242,1.);
#184=VECTOR('',#1243,1.);
#185=VECTOR('',#1244,1.);
#186=VECTOR('',#1245,1.);
#187=VECTOR('',#1246,1.);
#188=VECTOR('',#1247,1.);
#189=VECTOR('',#1248,1.);
#190=VECTOR('',#1251,1.);
#191=VECTOR('',#1252,1.);
#192=VECTOR('',#1255,1.);
#193=VECTOR('',#1256,1.);
#194=VECTOR('',#1257,1.);
#195=VECTOR('',#1258,1.);
#196=VECTOR('',#1259,1.);
#197=VECTOR('',#1260,1.);
#198=VECTOR('',#1261,1.);
#199=VECTOR('',#1262,1.);
#200=VECTOR('',#1263,1.);
#201=VECTOR('',#1264,1.);
#202=VECTOR('',#1265,1.);
#203=VECTOR('',#1268,1.);
#204=VECTOR('',#1269,1.);
#205=VECTOR('',#1270,1.);
#206=VECTOR('',#1273,1.);
#207=VECTOR('',#1276,1.);
#208=VECTOR('',#1279,1.);
#209=VECTOR('',#1280,1.);
#210=VECTOR('',#1281,1.);
#211=VECTOR('',#1282,1.);
#212=VECTOR('',#1283,1.);
#213=VECTOR('',#1284,1.);
#214=VECTOR('',#1285,1.);
#215=VECTOR('',#1286,1.);
#216=VECTOR('',#1287,1.);
#217=VECTOR('',#1292,1.);
#218=VECTOR('',#1295,1.);
#219=VECTOR('',#1298,1.);
#220=VECTOR('',#1299,1.);
#221=VECTOR('',#1302,1.);
#222=VECTOR('',#1303,1.);
#223=VECTOR('',#1304,1.);
#224=VECTOR('',#1309,1.);
#225=VECTOR('',#1312,1.);
#226=VECTOR('',#1313,1.);
#227=VECTOR('',#1314,1.);
#228=VECTOR('',#1315,1.);
#229=VECTOR('',#1316,1.);
#230=VECTOR('',#1317,1.);
#231=VECTOR('',#1318,1.);
#232=VECTOR('',#1319,1.);
#233=VECTOR('',#1322,1.);
#234=VECTOR('',#1323,1.);
#235=VECTOR('',#1326,1.);
#236=VECTOR('',#1329,1.);
#237=VECTOR('',#1330,1.);
#238=VECTOR('',#1331,1.);
#239=VECTOR('',#1332,1.);
#240=VECTOR('',#1333,1.);
#241=VECTOR('',#1334,1.);
#242=VECTOR('',#1335,1.);
#243=VECTOR('',#1336,1.);
#244=VECTOR('',#1337,1.);
#245=VECTOR('',#1338,1.);
#246=VECTOR('',#1341,1.);
#247=VECTOR('',#1342,1.);
#248=VECTOR('',#1345,1.);
#249=VECTOR('',#1348,1.);
#250=VECTOR('',#1351,1.);
#251=VECTOR('',#1352,1.);
#252=VECTOR('',#1353,1.);
#253=VECTOR('',#1354,1.);
#254=VECTOR('',#1355,1.);
#255=VECTOR('',#1356,1.);
#256=VECTOR('',#1357,1.);
#257=VECTOR('',#1358,1.);
#258=VECTOR('',#1361,1.);
#259=VECTOR('',#1362,1.);
#260=VECTOR('',#1365,1.);
#261=VECTOR('',#1368,1.);
#262=VECTOR('',#1369,1.);
#263=VECTOR('',#1372,1.);
#264=VECTOR('',#1375,1.);
#265=VECTOR('',#1378,1.);
#266=VECTOR('',#1385,1.);
#267=VECTOR('',#1386,1.);
#268=VECTOR('',#1389,1.);
#269=VECTOR('',#1392,1.);
#270=VECTOR('',#1393,1.);
#271=VECTOR('',#1396,1.);
#272=VECTOR('',#1399,1.);
#273=VECTOR('',#1402,1.);
#274=VECTOR('',#1409,1.);
#275=VECTOR('',#1414,1.);
#276=VECTOR('',#1419,1.);
#277=VECTOR('',#1424,1.);
#278=ORIENTED_EDGE('',*,*,#574,.T.);
#279=ORIENTED_EDGE('',*,*,#575,.T.);
#280=ORIENTED_EDGE('',*,*,#576,.T.);
#281=ORIENTED_EDGE('',*,*,#577,.F.);
#282=ORIENTED_EDGE('',*,*,#578,.T.);
#283=ORIENTED_EDGE('',*,*,#579,.F.);
#284=ORIENTED_EDGE('',*,*,#580,.T.);
#285=ORIENTED_EDGE('',*,*,#581,.F.);
#286=ORIENTED_EDGE('',*,*,#582,.T.);
#287=ORIENTED_EDGE('',*,*,#583,.F.);
#288=ORIENTED_EDGE('',*,*,#584,.T.);
#289=ORIENTED_EDGE('',*,*,#585,.T.);
#290=ORIENTED_EDGE('',*,*,#586,.T.);
#291=ORIENTED_EDGE('',*,*,#587,.T.);
#292=ORIENTED_EDGE('',*,*,#588,.T.);
#293=ORIENTED_EDGE('',*,*,#589,.T.);
#294=ORIENTED_EDGE('',*,*,#590,.T.);
#295=ORIENTED_EDGE('',*,*,#591,.F.);
#296=ORIENTED_EDGE('',*,*,#592,.T.);
#297=ORIENTED_EDGE('',*,*,#593,.F.);
#298=ORIENTED_EDGE('',*,*,#594,.T.);
#299=ORIENTED_EDGE('',*,*,#595,.F.);
#300=ORIENTED_EDGE('',*,*,#596,.T.);
#301=ORIENTED_EDGE('',*,*,#597,.F.);
#302=ORIENTED_EDGE('',*,*,#598,.T.);
#303=ORIENTED_EDGE('',*,*,#599,.T.);
#304=ORIENTED_EDGE('',*,*,#600,.T.);
#305=ORIENTED_EDGE('',*,*,#601,.T.);
#306=ORIENTED_EDGE('',*,*,#602,.T.);
#307=ORIENTED_EDGE('',*,*,#603,.T.);
#308=ORIENTED_EDGE('',*,*,#604,.F.);
#309=ORIENTED_EDGE('',*,*,#594,.F.);
#310=ORIENTED_EDGE('',*,*,#605,.F.);
#311=ORIENTED_EDGE('',*,*,#606,.F.);
#312=ORIENTED_EDGE('',*,*,#607,.F.);
#313=ORIENTED_EDGE('',*,*,#580,.F.);
#314=ORIENTED_EDGE('',*,*,#608,.F.);
#315=ORIENTED_EDGE('',*,*,#609,.F.);
#316=ORIENTED_EDGE('',*,*,#610,.F.);
#317=ORIENTED_EDGE('',*,*,#574,.F.);
#318=ORIENTED_EDGE('',*,*,#611,.F.);
#319=ORIENTED_EDGE('',*,*,#575,.F.);
#320=ORIENTED_EDGE('',*,*,#593,.T.);
#321=ORIENTED_EDGE('',*,*,#612,.T.);
#322=ORIENTED_EDGE('',*,*,#613,.T.);
#323=ORIENTED_EDGE('',*,*,#605,.T.);
#324=ORIENTED_EDGE('',*,*,#595,.T.);
#325=ORIENTED_EDGE('',*,*,#604,.T.);
#326=ORIENTED_EDGE('',*,*,#614,.T.);
#327=ORIENTED_EDGE('',*,*,#615,.T.);
#328=ORIENTED_EDGE('',*,*,#579,.T.);
#329=ORIENTED_EDGE('',*,*,#616,.T.);
#330=ORIENTED_EDGE('',*,*,#617,.T.);
#331=ORIENTED_EDGE('',*,*,#608,.T.);
#332=ORIENTED_EDGE('',*,*,#581,.T.);
#333=ORIENTED_EDGE('',*,*,#607,.T.);
#334=ORIENTED_EDGE('',*,*,#618,.T.);
#335=ORIENTED_EDGE('',*,*,#619,.T.);
#336=ORIENTED_EDGE('',*,*,#620,.F.);
#337=ORIENTED_EDGE('',*,*,#621,.F.);
#338=ORIENTED_EDGE('',*,*,#612,.F.);
#339=ORIENTED_EDGE('',*,*,#592,.F.);
#340=ORIENTED_EDGE('',*,*,#622,.T.);
#341=ORIENTED_EDGE('',*,*,#623,.T.);
#342=ORIENTED_EDGE('',*,*,#624,.T.);
#343=ORIENTED_EDGE('',*,*,#625,.T.);
#344=ORIENTED_EDGE('',*,*,#626,.T.);
#345=ORIENTED_EDGE('',*,*,#627,.T.);
#346=ORIENTED_EDGE('',*,*,#628,.T.);
#347=ORIENTED_EDGE('',*,*,#629,.T.);
#348=ORIENTED_EDGE('',*,*,#589,.F.);
#349=ORIENTED_EDGE('',*,*,#630,.T.);
#350=ORIENTED_EDGE('',*,*,#622,.F.);
#351=ORIENTED_EDGE('',*,*,#631,.F.);
#352=ORIENTED_EDGE('',*,*,#632,.T.);
#353=ORIENTED_EDGE('',*,*,#633,.T.);
#354=ORIENTED_EDGE('',*,*,#634,.T.);
#355=ORIENTED_EDGE('',*,*,#635,.T.);
#356=ORIENTED_EDGE('',*,*,#636,.T.);
#357=ORIENTED_EDGE('',*,*,#637,.T.);
#358=ORIENTED_EDGE('',*,*,#638,.T.);
#359=ORIENTED_EDGE('',*,*,#639,.T.);
#360=ORIENTED_EDGE('',*,*,#640,.F.);
#361=ORIENTED_EDGE('',*,*,#641,.T.);
#362=ORIENTED_EDGE('',*,*,#628,.F.);
#363=ORIENTED_EDGE('',*,*,#642,.F.);
#364=ORIENTED_EDGE('',*,*,#643,.F.);
#365=ORIENTED_EDGE('',*,*,#644,.F.);
#366=ORIENTED_EDGE('',*,*,#642,.T.);
#367=ORIENTED_EDGE('',*,*,#627,.F.);
#368=ORIENTED_EDGE('',*,*,#645,.F.);
#369=ORIENTED_EDGE('',*,*,#584,.F.);
#370=ORIENTED_EDGE('',*,*,#585,.F.);
#371=ORIENTED_EDGE('',*,*,#645,.T.);
#372=ORIENTED_EDGE('',*,*,#626,.F.);
#373=ORIENTED_EDGE('',*,*,#646,.F.);
#374=ORIENTED_EDGE('',*,*,#586,.F.);
#375=ORIENTED_EDGE('',*,*,#646,.T.);
#376=ORIENTED_EDGE('',*,*,#625,.F.);
#377=ORIENTED_EDGE('',*,*,#647,.F.);
#378=ORIENTED_EDGE('',*,*,#648,.T.);
#379=ORIENTED_EDGE('',*,*,#649,.T.);
#380=ORIENTED_EDGE('',*,*,#650,.T.);
#381=ORIENTED_EDGE('',*,*,#651,.T.);
#382=ORIENTED_EDGE('',*,*,#652,.T.);
#383=ORIENTED_EDGE('',*,*,#653,.T.);
#384=ORIENTED_EDGE('',*,*,#654,.T.);
#385=ORIENTED_EDGE('',*,*,#655,.T.);
#386=ORIENTED_EDGE('',*,*,#587,.F.);
#387=ORIENTED_EDGE('',*,*,#647,.T.);
#388=ORIENTED_EDGE('',*,*,#624,.F.);
#389=ORIENTED_EDGE('',*,*,#656,.F.);
#390=ORIENTED_EDGE('',*,*,#588,.F.);
#391=ORIENTED_EDGE('',*,*,#656,.T.);
#392=ORIENTED_EDGE('',*,*,#623,.F.);
#393=ORIENTED_EDGE('',*,*,#630,.F.);
#394=ORIENTED_EDGE('',*,*,#610,.T.);
#395=ORIENTED_EDGE('',*,*,#611,.T.);
#396=ORIENTED_EDGE('',*,*,#657,.T.);
#397=ORIENTED_EDGE('',*,*,#614,.F.);
#398=ORIENTED_EDGE('',*,*,#606,.T.);
#399=ORIENTED_EDGE('',*,*,#613,.F.);
#400=ORIENTED_EDGE('',*,*,#621,.T.);
#401=ORIENTED_EDGE('',*,*,#658,.F.);
#402=ORIENTED_EDGE('',*,*,#659,.T.);
#403=ORIENTED_EDGE('',*,*,#640,.T.);
#404=ORIENTED_EDGE('',*,*,#644,.T.);
#405=ORIENTED_EDGE('',*,*,#660,.F.);
#406=ORIENTED_EDGE('',*,*,#661,.T.);
#407=ORIENTED_EDGE('',*,*,#618,.F.);
#408=ORIENTED_EDGE('',*,*,#609,.T.);
#409=ORIENTED_EDGE('',*,*,#617,.F.);
#410=ORIENTED_EDGE('',*,*,#662,.T.);
#411=ORIENTED_EDGE('',*,*,#663,.F.);
#412=ORIENTED_EDGE('',*,*,#664,.T.);
#413=ORIENTED_EDGE('',*,*,#665,.T.);
#414=ORIENTED_EDGE('',*,*,#666,.T.);
#415=ORIENTED_EDGE('',*,*,#667,.F.);
#416=ORIENTED_EDGE('',*,*,#668,.F.);
#417=ORIENTED_EDGE('',*,*,#662,.F.);
#418=ORIENTED_EDGE('',*,*,#616,.F.);
#419=ORIENTED_EDGE('',*,*,#578,.F.);
#420=ORIENTED_EDGE('',*,*,#669,.T.);
#421=ORIENTED_EDGE('',*,*,#670,.T.);
#422=ORIENTED_EDGE('',*,*,#671,.T.);
#423=ORIENTED_EDGE('',*,*,#672,.T.);
#424=ORIENTED_EDGE('',*,*,#673,.T.);
#425=ORIENTED_EDGE('',*,*,#674,.T.);
#426=ORIENTED_EDGE('',*,*,#675,.T.);
#427=ORIENTED_EDGE('',*,*,#676,.T.);
#428=ORIENTED_EDGE('',*,*,#603,.F.);
#429=ORIENTED_EDGE('',*,*,#677,.T.);
#430=ORIENTED_EDGE('',*,*,#669,.F.);
#431=ORIENTED_EDGE('',*,*,#678,.F.);
#432=ORIENTED_EDGE('',*,*,#602,.F.);
#433=ORIENTED_EDGE('',*,*,#679,.T.);
#434=ORIENTED_EDGE('',*,*,#670,.F.);
#435=ORIENTED_EDGE('',*,*,#677,.F.);
#436=ORIENTED_EDGE('',*,*,#680,.T.);
#437=ORIENTED_EDGE('',*,*,#681,.T.);
#438=ORIENTED_EDGE('',*,*,#682,.T.);
#439=ORIENTED_EDGE('',*,*,#683,.T.);
#440=ORIENTED_EDGE('',*,*,#684,.T.);
#441=ORIENTED_EDGE('',*,*,#685,.T.);
#442=ORIENTED_EDGE('',*,*,#686,.T.);
#443=ORIENTED_EDGE('',*,*,#687,.T.);
#444=ORIENTED_EDGE('',*,*,#665,.F.);
#445=ORIENTED_EDGE('',*,*,#688,.T.);
#446=ORIENTED_EDGE('',*,*,#675,.F.);
#447=ORIENTED_EDGE('',*,*,#689,.F.);
#448=ORIENTED_EDGE('',*,*,#690,.F.);
#449=ORIENTED_EDGE('',*,*,#666,.F.);
#450=ORIENTED_EDGE('',*,*,#689,.T.);
#451=ORIENTED_EDGE('',*,*,#674,.F.);
#452=ORIENTED_EDGE('',*,*,#691,.F.);
#453=ORIENTED_EDGE('',*,*,#598,.F.);
#454=ORIENTED_EDGE('',*,*,#599,.F.);
#455=ORIENTED_EDGE('',*,*,#691,.T.);
#456=ORIENTED_EDGE('',*,*,#673,.F.);
#457=ORIENTED_EDGE('',*,*,#692,.F.);
#458=ORIENTED_EDGE('',*,*,#600,.F.);
#459=ORIENTED_EDGE('',*,*,#692,.T.);
#460=ORIENTED_EDGE('',*,*,#672,.F.);
#461=ORIENTED_EDGE('',*,*,#693,.F.);
#462=ORIENTED_EDGE('',*,*,#694,.T.);
#463=ORIENTED_EDGE('',*,*,#695,.T.);
#464=ORIENTED_EDGE('',*,*,#696,.T.);
#465=ORIENTED_EDGE('',*,*,#697,.T.);
#466=ORIENTED_EDGE('',*,*,#698,.T.);
#467=ORIENTED_EDGE('',*,*,#699,.T.);
#468=ORIENTED_EDGE('',*,*,#700,.T.);
#469=ORIENTED_EDGE('',*,*,#701,.T.);
#470=ORIENTED_EDGE('',*,*,#601,.F.);
#471=ORIENTED_EDGE('',*,*,#693,.T.);
#472=ORIENTED_EDGE('',*,*,#671,.F.);
#473=ORIENTED_EDGE('',*,*,#679,.F.);
#474=ORIENTED_EDGE('',*,*,#695,.F.);
#475=ORIENTED_EDGE('',*,*,#702,.T.);
#476=ORIENTED_EDGE('',*,*,#683,.F.);
#477=ORIENTED_EDGE('',*,*,#703,.F.);
#478=ORIENTED_EDGE('',*,*,#694,.F.);
#479=ORIENTED_EDGE('',*,*,#704,.T.);
#480=ORIENTED_EDGE('',*,*,#680,.F.);
#481=ORIENTED_EDGE('',*,*,#702,.F.);
#482=ORIENTED_EDGE('',*,*,#648,.F.);
#483=ORIENTED_EDGE('',*,*,#705,.F.);
#484=ORIENTED_EDGE('',*,*,#632,.F.);
#485=ORIENTED_EDGE('',*,*,#706,.T.);
#486=ORIENTED_EDGE('',*,*,#651,.F.);
#487=ORIENTED_EDGE('',*,*,#707,.F.);
#488=ORIENTED_EDGE('',*,*,#633,.F.);
#489=ORIENTED_EDGE('',*,*,#705,.T.);
#490=ORIENTED_EDGE('',*,*,#697,.F.);
#491=ORIENTED_EDGE('',*,*,#708,.T.);
#492=ORIENTED_EDGE('',*,*,#681,.F.);
#493=ORIENTED_EDGE('',*,*,#704,.F.);
#494=ORIENTED_EDGE('',*,*,#649,.F.);
#495=ORIENTED_EDGE('',*,*,#706,.F.);
#496=ORIENTED_EDGE('',*,*,#635,.F.);
#497=ORIENTED_EDGE('',*,*,#709,.T.);
#498=ORIENTED_EDGE('',*,*,#696,.F.);
#499=ORIENTED_EDGE('',*,*,#703,.T.);
#500=ORIENTED_EDGE('',*,*,#682,.F.);
#501=ORIENTED_EDGE('',*,*,#708,.F.);
#502=ORIENTED_EDGE('',*,*,#650,.F.);
#503=ORIENTED_EDGE('',*,*,#709,.F.);
#504=ORIENTED_EDGE('',*,*,#634,.F.);
#505=ORIENTED_EDGE('',*,*,#707,.T.);
#506=ORIENTED_EDGE('',*,*,#699,.F.);
#507=ORIENTED_EDGE('',*,*,#710,.T.);
#508=ORIENTED_EDGE('',*,*,#687,.F.);
#509=ORIENTED_EDGE('',*,*,#711,.F.);
#510=ORIENTED_EDGE('',*,*,#698,.F.);
#511=ORIENTED_EDGE('',*,*,#712,.T.);
#512=ORIENTED_EDGE('',*,*,#684,.F.);
#513=ORIENTED_EDGE('',*,*,#710,.F.);
#514=ORIENTED_EDGE('',*,*,#652,.F.);
#515=ORIENTED_EDGE('',*,*,#713,.F.);
#516=ORIENTED_EDGE('',*,*,#636,.F.);
#517=ORIENTED_EDGE('',*,*,#714,.T.);
#518=ORIENTED_EDGE('',*,*,#655,.F.);
#519=ORIENTED_EDGE('',*,*,#715,.F.);
#520=ORIENTED_EDGE('',*,*,#637,.F.);
#521=ORIENTED_EDGE('',*,*,#713,.T.);
#522=ORIENTED_EDGE('',*,*,#701,.F.);
#523=ORIENTED_EDGE('',*,*,#716,.T.);
#524=ORIENTED_EDGE('',*,*,#685,.F.);
#525=ORIENTED_EDGE('',*,*,#712,.F.);
#526=ORIENTED_EDGE('',*,*,#653,.F.);
#527=ORIENTED_EDGE('',*,*,#714,.F.);
#528=ORIENTED_EDGE('',*,*,#639,.F.);
#529=ORIENTED_EDGE('',*,*,#717,.T.);
#530=ORIENTED_EDGE('',*,*,#700,.F.);
#531=ORIENTED_EDGE('',*,*,#711,.T.);
#532=ORIENTED_EDGE('',*,*,#686,.F.);
#533=ORIENTED_EDGE('',*,*,#716,.F.);
#534=ORIENTED_EDGE('',*,*,#654,.F.);
#535=ORIENTED_EDGE('',*,*,#717,.F.);
#536=ORIENTED_EDGE('',*,*,#638,.F.);
#537=ORIENTED_EDGE('',*,*,#715,.T.);
#538=ORIENTED_EDGE('',*,*,#718,.F.);
#539=ORIENTED_EDGE('',*,*,#590,.F.);
#540=ORIENTED_EDGE('',*,*,#631,.T.);
#541=ORIENTED_EDGE('',*,*,#629,.F.);
#542=ORIENTED_EDGE('',*,*,#641,.F.);
#543=ORIENTED_EDGE('',*,*,#659,.F.);
#544=ORIENTED_EDGE('',*,*,#591,.T.);
#545=ORIENTED_EDGE('',*,*,#718,.T.);
#546=ORIENTED_EDGE('',*,*,#658,.T.);
#547=ORIENTED_EDGE('',*,*,#620,.T.);
#548=ORIENTED_EDGE('',*,*,#719,.F.);
#549=ORIENTED_EDGE('',*,*,#582,.F.);
#550=ORIENTED_EDGE('',*,*,#619,.F.);
#551=ORIENTED_EDGE('',*,*,#661,.F.);
#552=ORIENTED_EDGE('',*,*,#583,.T.);
#553=ORIENTED_EDGE('',*,*,#719,.T.);
#554=ORIENTED_EDGE('',*,*,#660,.T.);
#555=ORIENTED_EDGE('',*,*,#643,.T.);
#556=ORIENTED_EDGE('',*,*,#720,.F.);
#557=ORIENTED_EDGE('',*,*,#576,.F.);
#558=ORIENTED_EDGE('',*,*,#678,.T.);
#559=ORIENTED_EDGE('',*,*,#676,.F.);
#560=ORIENTED_EDGE('',*,*,#688,.F.);
#561=ORIENTED_EDGE('',*,*,#664,.F.);
#562=ORIENTED_EDGE('',*,*,#577,.T.);
#563=ORIENTED_EDGE('',*,*,#720,.T.);
#564=ORIENTED_EDGE('',*,*,#663,.T.);
#565=ORIENTED_EDGE('',*,*,#668,.T.);
#566=ORIENTED_EDGE('',*,*,#721,.F.);
#567=ORIENTED_EDGE('',*,*,#596,.F.);
#568=ORIENTED_EDGE('',*,*,#615,.F.);
#569=ORIENTED_EDGE('',*,*,#657,.F.);
#570=ORIENTED_EDGE('',*,*,#597,.T.);
#571=ORIENTED_EDGE('',*,*,#721,.T.);
#572=ORIENTED_EDGE('',*,*,#667,.T.);
#573=ORIENTED_EDGE('',*,*,#690,.T.);
#574=EDGE_CURVE('',#722,#722,#822,.T.);
#575=EDGE_CURVE('',#723,#723,#823,.T.);
#576=EDGE_CURVE('',#724,#725,#22,.T.);
#577=EDGE_CURVE('',#726,#725,#824,.T.);
#578=EDGE_CURVE('',#726,#727,#23,.T.);
#579=EDGE_CURVE('',#728,#727,#825,.T.);
#580=EDGE_CURVE('',#728,#729,#24,.T.);
#581=EDGE_CURVE('',#730,#729,#826,.T.);
#582=EDGE_CURVE('',#730,#731,#25,.T.);
#583=EDGE_CURVE('',#732,#731,#827,.T.);
#584=EDGE_CURVE('',#732,#733,#26,.T.);
#585=EDGE_CURVE('',#733,#734,#27,.T.);
#586=EDGE_CURVE('',#734,#735,#28,.T.);
#587=EDGE_CURVE('',#735,#736,#29,.T.);
#588=EDGE_CURVE('',#736,#737,#30,.T.);
#589=EDGE_CURVE('',#737,#738,#31,.T.);
#590=EDGE_CURVE('',#738,#739,#32,.T.);
#591=EDGE_CURVE('',#740,#739,#828,.T.);
#592=EDGE_CURVE('',#740,#741,#33,.T.);
#593=EDGE_CURVE('',#742,#741,#829,.T.);
#594=EDGE_CURVE('',#742,#743,#34,.T.);
#595=EDGE_CURVE('',#744,#743,#830,.T.);
#596=EDGE_CURVE('',#744,#745,#35,.T.);
#597=EDGE_CURVE('',#746,#745,#831,.T.);
#598=EDGE_CURVE('',#746,#747,#36,.T.);
#599=EDGE_CURVE('',#747,#748,#37,.T.);
#600=EDGE_CURVE('',#748,#749,#38,.T.);
#601=EDGE_CURVE('',#749,#750,#39,.T.);
#602=EDGE_CURVE('',#750,#751,#40,.T.);
#603=EDGE_CURVE('',#751,#724,#41,.T.);
#604=EDGE_CURVE('',#743,#752,#42,.T.);
#605=EDGE_CURVE('',#753,#742,#43,.T.);
#606=EDGE_CURVE('',#752,#753,#44,.T.);
#607=EDGE_CURVE('',#729,#754,#45,.T.);
#608=EDGE_CURVE('',#755,#728,#46,.T.);
#609=EDGE_CURVE('',#754,#755,#47,.T.);
#610=EDGE_CURVE('',#756,#756,#832,.T.);
#611=EDGE_CURVE('',#757,#757,#833,.T.);
#612=EDGE_CURVE('',#741,#758,#48,.T.);
#613=EDGE_CURVE('',#758,#753,#834,.T.);
#614=EDGE_CURVE('',#752,#759,#835,.T.);
#615=EDGE_CURVE('',#759,#744,#49,.T.);
#616=EDGE_CURVE('',#727,#760,#50,.T.);
#617=EDGE_CURVE('',#760,#755,#836,.T.);
#618=EDGE_CURVE('',#754,#761,#837,.T.);
#619=EDGE_CURVE('',#761,#730,#51,.T.);
#620=EDGE_CURVE('',#762,#740,#52,.T.);
#621=EDGE_CURVE('',#758,#762,#53,.T.);
#622=EDGE_CURVE('',#763,#764,#54,.T.);
#623=EDGE_CURVE('',#764,#765,#55,.T.);
#624=EDGE_CURVE('',#765,#766,#56,.T.);
#625=EDGE_CURVE('',#766,#767,#57,.T.);
#626=EDGE_CURVE('',#767,#768,#58,.T.);
#627=EDGE_CURVE('',#768,#769,#59,.T.);
#628=EDGE_CURVE('',#769,#770,#60,.T.);
#629=EDGE_CURVE('',#770,#763,#61,.T.);
#630=EDGE_CURVE('',#737,#764,#62,.T.);
#631=EDGE_CURVE('',#738,#763,#63,.T.);
#632=EDGE_CURVE('',#771,#772,#64,.T.);
#633=EDGE_CURVE('',#772,#773,#65,.T.);
#634=EDGE_CURVE('',#773,#774,#66,.T.);
#635=EDGE_CURVE('',#774,#771,#67,.T.);
#636=EDGE_CURVE('',#775,#776,#68,.T.);
#637=EDGE_CURVE('',#776,#777,#69,.T.);
#638=EDGE_CURVE('',#777,#778,#70,.T.);
#639=EDGE_CURVE('',#778,#775,#71,.T.);
#640=EDGE_CURVE('',#779,#780,#72,.T.);
#641=EDGE_CURVE('',#779,#770,#73,.T.);
#642=EDGE_CURVE('',#780,#769,#74,.T.);
#643=EDGE_CURVE('',#781,#732,#75,.T.);
#644=EDGE_CURVE('',#780,#781,#76,.T.);
#645=EDGE_CURVE('',#733,#768,#77,.T.);
#646=EDGE_CURVE('',#734,#767,#78,.T.);
#647=EDGE_CURVE('',#735,#766,#79,.T.);
#648=EDGE_CURVE('',#782,#783,#80,.T.);
#649=EDGE_CURVE('',#783,#784,#81,.T.);
#650=EDGE_CURVE('',#784,#785,#82,.T.);
#651=EDGE_CURVE('',#785,#782,#83,.T.);
#652=EDGE_CURVE('',#786,#787,#84,.T.);
#653=EDGE_CURVE('',#787,#788,#85,.T.);
#654=EDGE_CURVE('',#788,#789,#86,.T.);
#655=EDGE_CURVE('',#789,#786,#87,.T.);
#656=EDGE_CURVE('',#736,#765,#88,.T.);
#657=EDGE_CURVE('',#790,#759,#89,.T.);
#658=EDGE_CURVE('',#791,#762,#838,.T.);
#659=EDGE_CURVE('',#791,#779,#90,.T.);
#660=EDGE_CURVE('',#792,#781,#839,.T.);
#661=EDGE_CURVE('',#792,#761,#91,.T.);
#662=EDGE_CURVE('',#760,#793,#92,.T.);
#663=EDGE_CURVE('',#794,#793,#840,.T.);
#664=EDGE_CURVE('',#794,#795,#93,.T.);
#665=EDGE_CURVE('',#795,#796,#94,.T.);
#666=EDGE_CURVE('',#796,#797,#95,.T.);
#667=EDGE_CURVE('',#790,#797,#841,.T.);
#668=EDGE_CURVE('',#793,#726,#96,.T.);
#669=EDGE_CURVE('',#798,#799,#97,.T.);
#670=EDGE_CURVE('',#799,#800,#98,.T.);
#671=EDGE_CURVE('',#800,#801,#99,.T.);
#672=EDGE_CURVE('',#801,#802,#100,.T.);
#673=EDGE_CURVE('',#802,#803,#101,.T.);
#674=EDGE_CURVE('',#803,#804,#102,.T.);
#675=EDGE_CURVE('',#804,#805,#103,.T.);
#676=EDGE_CURVE('',#805,#798,#104,.T.);
#677=EDGE_CURVE('',#751,#799,#105,.T.);
#678=EDGE_CURVE('',#724,#798,#106,.T.);
#679=EDGE_CURVE('',#750,#800,#107,.T.);
#680=EDGE_CURVE('',#806,#807,#108,.T.);
#681=EDGE_CURVE('',#807,#808,#109,.T.);
#682=EDGE_CURVE('',#808,#809,#110,.T.);
#683=EDGE_CURVE('',#809,#806,#111,.T.);
#684=EDGE_CURVE('',#810,#811,#112,.T.);
#685=EDGE_CURVE('',#811,#812,#113,.T.);
#686=EDGE_CURVE('',#812,#813,#114,.T.);
#687=EDGE_CURVE('',#813,#810,#115,.T.);
#688=EDGE_CURVE('',#795,#805,#116,.T.);
#689=EDGE_CURVE('',#796,#804,#117,.T.);
#690=EDGE_CURVE('',#797,#746,#118,.T.);
#691=EDGE_CURVE('',#747,#803,#119,.T.);
#692=EDGE_CURVE('',#748,#802,#120,.T.);
#693=EDGE_CURVE('',#749,#801,#121,.T.);
#694=EDGE_CURVE('',#814,#815,#122,.T.);
#695=EDGE_CURVE('',#815,#816,#123,.T.);
#696=EDGE_CURVE('',#816,#817,#124,.T.);
#697=EDGE_CURVE('',#817,#814,#125,.T.);
#698=EDGE_CURVE('',#818,#819,#126,.T.);
#699=EDGE_CURVE('',#819,#820,#127,.T.);
#700=EDGE_CURVE('',#820,#821,#128,.T.);
#701=EDGE_CURVE('',#821,#818,#129,.T.);
#702=EDGE_CURVE('',#815,#806,#130,.T.);
#703=EDGE_CURVE('',#816,#809,#131,.T.);
#704=EDGE_CURVE('',#814,#807,#132,.T.);
#705=EDGE_CURVE('',#772,#782,#133,.T.);
#706=EDGE_CURVE('',#771,#783,#134,.T.);
#707=EDGE_CURVE('',#773,#785,#135,.T.);
#708=EDGE_CURVE('',#817,#808,#136,.T.);
#709=EDGE_CURVE('',#774,#784,#137,.T.);
#710=EDGE_CURVE('',#819,#810,#138,.T.);
#711=EDGE_CURVE('',#820,#813,#139,.T.);
#712=EDGE_CURVE('',#818,#811,#140,.T.);
#713=EDGE_CURVE('',#776,#786,#141,.T.);
#714=EDGE_CURVE('',#775,#787,#142,.T.);
#715=EDGE_CURVE('',#777,#789,#143,.T.);
#716=EDGE_CURVE('',#821,#812,#144,.T.);
#717=EDGE_CURVE('',#778,#788,#145,.T.);
#718=EDGE_CURVE('',#739,#791,#146,.T.);
#719=EDGE_CURVE('',#731,#792,#147,.T.);
#720=EDGE_CURVE('',#725,#794,#148,.T.);
#721=EDGE_CURVE('',#745,#790,#149,.T.);
#722=VERTEX_POINT('',#1430);
#723=VERTEX_POINT('',#1432);
#724=VERTEX_POINT('',#1434);
#725=VERTEX_POINT('',#1435);
#726=VERTEX_POINT('',#1437);
#727=VERTEX_POINT('',#1439);
#728=VERTEX_POINT('',#1441);
#729=VERTEX_POINT('',#1443);
#730=VERTEX_POINT('',#1445);
#731=VERTEX_POINT('',#1447);
#732=VERTEX_POINT('',#1449);
#733=VERTEX_POINT('',#1451);
#734=VERTEX_POINT('',#1453);
#735=VERTEX_POINT('',#1455);
#736=VERTEX_POINT('',#1457);
#737=VERTEX_POINT('',#1459);
#738=VERTEX_POINT('',#1461);
#739=VERTEX_POINT('',#1463);
#740=VERTEX_POINT('',#1465);
#741=VERTEX_POINT('',#1467);
#742=VERTEX_POINT('',#1469);
#743=VERTEX_POINT('',#1471);
#744=VERTEX_POINT('',#1473);
#745=VERTEX_POINT('',#1475);
#746=VERTEX_POINT('',#1477);
#747=VERTEX_POINT('',#1479);
#748=VERTEX_POINT('',#1481);
#749=VERTEX_POINT('',#1483);
#750=VERTEX_POINT('',#1485);
#751=VERTEX_POINT('',#1487);
#752=VERTEX_POINT('',#1491);
#753=VERTEX_POINT('',#1493);
#754=VERTEX_POINT('',#1497);
#755=VERTEX_POINT('',#1499);
#756=VERTEX_POINT('',#1503);
#757=VERTEX_POINT('',#1506);
#758=VERTEX_POINT('',#1509);
#759=VERTEX_POINT('',#1513);
#760=VERTEX_POINT('',#1517);
#761=VERTEX_POINT('',#1521);
#762=VERTEX_POINT('',#1525);
#763=VERTEX_POINT('',#1529);
#764=VERTEX_POINT('',#1530);
#765=VERTEX_POINT('',#1532);
#766=VERTEX_POINT('',#1534);
#767=VERTEX_POINT('',#1536);
#768=VERTEX_POINT('',#1538);
#769=VERTEX_POINT('',#1540);
#770=VERTEX_POINT('',#1542);
#771=VERTEX_POINT('',#1549);
#772=VERTEX_POINT('',#1550);
#773=VERTEX_POINT('',#1552);
#774=VERTEX_POINT('',#1554);
#775=VERTEX_POINT('',#1557);
#776=VERTEX_POINT('',#1558);
#777=VERTEX_POINT('',#1560);
#778=VERTEX_POINT('',#1562);
#779=VERTEX_POINT('',#1565);
#780=VERTEX_POINT('',#1566);
#781=VERTEX_POINT('',#1571);
#782=VERTEX_POINT('',#1580);
#783=VERTEX_POINT('',#1581);
#784=VERTEX_POINT('',#1583);
#785=VERTEX_POINT('',#1585);
#786=VERTEX_POINT('',#1588);
#787=VERTEX_POINT('',#1589);
#788=VERTEX_POINT('',#1591);
#789=VERTEX_POINT('',#1593);
#790=VERTEX_POINT('',#1599);
#791=VERTEX_POINT('',#1601);
#792=VERTEX_POINT('',#1604);
#793=VERTEX_POINT('',#1607);
#794=VERTEX_POINT('',#1609);
#795=VERTEX_POINT('',#1611);
#796=VERTEX_POINT('',#1613);
#797=VERTEX_POINT('',#1615);
#798=VERTEX_POINT('',#1621);
#799=VERTEX_POINT('',#1622);
#800=VERTEX_POINT('',#1624);
#801=VERTEX_POINT('',#1626);
#802=VERTEX_POINT('',#1628);
#803=VERTEX_POINT('',#1630);
#804=VERTEX_POINT('',#1632);
#805=VERTEX_POINT('',#1634);
#806=VERTEX_POINT('',#1643);
#807=VERTEX_POINT('',#1644);
#808=VERTEX_POINT('',#1646);
#809=VERTEX_POINT('',#1648);
#810=VERTEX_POINT('',#1651);
#811=VERTEX_POINT('',#1652);
#812=VERTEX_POINT('',#1654);
#813=VERTEX_POINT('',#1656);
#814=VERTEX_POINT('',#1669);
#815=VERTEX_POINT('',#1670);
#816=VERTEX_POINT('',#1672);
#817=VERTEX_POINT('',#1674);
#818=VERTEX_POINT('',#1677);
#819=VERTEX_POINT('',#1678);
#820=VERTEX_POINT('',#1680);
#821=VERTEX_POINT('',#1682);
#822=CIRCLE('',#1082,0.00135);
#823=CIRCLE('',#1083,0.00135);
#824=CIRCLE('',#1084,0.005);
#825=CIRCLE('',#1085,0.004);
#826=CIRCLE('',#1086,0.004);
#827=CIRCLE('',#1087,0.005);
#828=CIRCLE('',#1088,0.005);
#829=CIRCLE('',#1089,0.004);
#830=CIRCLE('',#1090,0.004);
#831=CIRCLE('',#1091,0.005);
#832=CIRCLE('',#1095,0.00135);
#833=CIRCLE('',#1097,0.00135);
#834=CIRCLE('',#1099,0.004);
#835=CIRCLE('',#1101,0.004);
#836=CIRCLE('',#1103,0.004);
#837=CIRCLE('',#1105,0.004);
#838=CIRCLE('',#1116,0.005);
#839=CIRCLE('',#1117,0.005);
#840=CIRCLE('',#1118,0.005);
#841=CIRCLE('',#1119,0.005);
#842=EDGE_LOOP('',(#278));
#843=EDGE_LOOP('',(#279));
#844=EDGE_LOOP('',(#280,#281,#282,#283,#284,#285,#286,#287,#288,#289,#290,
#291,#292,#293,#294,#295,#296,#297,#298,#299,#300,#301,#302,#303,#304,#305,
#306,#307));
#845=EDGE_LOOP('',(#308,#309,#310,#311));
#846=EDGE_LOOP('',(#312,#313,#314,#315));
#847=EDGE_LOOP('',(#316));
#848=EDGE_LOOP('',(#317));
#849=EDGE_LOOP('',(#318));
#850=EDGE_LOOP('',(#319));
#851=EDGE_LOOP('',(#320,#321,#322,#323));
#852=EDGE_LOOP('',(#324,#325,#326,#327));
#853=EDGE_LOOP('',(#328,#329,#330,#331));
#854=EDGE_LOOP('',(#332,#333,#334,#335));
#855=EDGE_LOOP('',(#336,#337,#338,#339));
#856=EDGE_LOOP('',(#340,#341,#342,#343,#344,#345,#346,#347));
#857=EDGE_LOOP('',(#348,#349,#350,#351));
#858=EDGE_LOOP('',(#352,#353,#354,#355));
#859=EDGE_LOOP('',(#356,#357,#358,#359));
#860=EDGE_LOOP('',(#360,#361,#362,#363));
#861=EDGE_LOOP('',(#364,#365,#366,#367,#368,#369));
#862=EDGE_LOOP('',(#370,#371,#372,#373));
#863=EDGE_LOOP('',(#374,#375,#376,#377));
#864=EDGE_LOOP('',(#378,#379,#380,#381));
#865=EDGE_LOOP('',(#382,#383,#384,#385));
#866=EDGE_LOOP('',(#386,#387,#388,#389));
#867=EDGE_LOOP('',(#390,#391,#392,#393));
#868=EDGE_LOOP('',(#394));
#869=EDGE_LOOP('',(#395));
#870=EDGE_LOOP('',(#396,#397,#398,#399,#400,#401,#402,#403,#404,#405,#406,
#407,#408,#409,#410,#411,#412,#413,#414,#415));
#871=EDGE_LOOP('',(#416,#417,#418,#419));
#872=EDGE_LOOP('',(#420,#421,#422,#423,#424,#425,#426,#427));
#873=EDGE_LOOP('',(#428,#429,#430,#431));
#874=EDGE_LOOP('',(#432,#433,#434,#435));
#875=EDGE_LOOP('',(#436,#437,#438,#439));
#876=EDGE_LOOP('',(#440,#441,#442,#443));
#877=EDGE_LOOP('',(#444,#445,#446,#447));
#878=EDGE_LOOP('',(#448,#449,#450,#451,#452,#453));
#879=EDGE_LOOP('',(#454,#455,#456,#457));
#880=EDGE_LOOP('',(#458,#459,#460,#461));
#881=EDGE_LOOP('',(#462,#463,#464,#465));
#882=EDGE_LOOP('',(#466,#467,#468,#469));
#883=EDGE_LOOP('',(#470,#471,#472,#473));
#884=EDGE_LOOP('',(#474,#475,#476,#477));
#885=EDGE_LOOP('',(#478,#479,#480,#481));
#886=EDGE_LOOP('',(#482,#483,#484,#485));
#887=EDGE_LOOP('',(#486,#487,#488,#489));
#888=EDGE_LOOP('',(#490,#491,#492,#493));
#889=EDGE_LOOP('',(#494,#495,#496,#497));
#890=EDGE_LOOP('',(#498,#499,#500,#501));
#891=EDGE_LOOP('',(#502,#503,#504,#505));
#892=EDGE_LOOP('',(#506,#507,#508,#509));
#893=EDGE_LOOP('',(#510,#511,#512,#513));
#894=EDGE_LOOP('',(#514,#515,#516,#517));
#895=EDGE_LOOP('',(#518,#519,#520,#521));
#896=EDGE_LOOP('',(#522,#523,#524,#525));
#897=EDGE_LOOP('',(#526,#527,#528,#529));
#898=EDGE_LOOP('',(#530,#531,#532,#533));
#899=EDGE_LOOP('',(#534,#535,#536,#537));
#900=EDGE_LOOP('',(#538,#539,#540,#541,#542,#543));
#901=EDGE_LOOP('',(#544,#545,#546,#547));
#902=EDGE_LOOP('',(#548,#549,#550,#551));
#903=EDGE_LOOP('',(#552,#553,#554,#555));
#904=EDGE_LOOP('',(#556,#557,#558,#559,#560,#561));
#905=EDGE_LOOP('',(#562,#563,#564,#565));
#906=EDGE_LOOP('',(#566,#567,#568,#569));
#907=EDGE_LOOP('',(#570,#571,#572,#573));
#908=FACE_BOUND('',#842,.T.);
#909=FACE_BOUND('',#843,.T.);
#910=FACE_BOUND('',#844,.T.);
#911=FACE_BOUND('',#845,.T.);
#912=FACE_BOUND('',#846,.T.);
#913=FACE_BOUND('',#847,.T.);
#914=FACE_BOUND('',#848,.T.);
#915=FACE_BOUND('',#849,.T.);
#916=FACE_BOUND('',#850,.T.);
#917=FACE_BOUND('',#851,.T.);
#918=FACE_BOUND('',#852,.T.);
#919=FACE_BOUND('',#853,.T.);
#920=FACE_BOUND('',#854,.T.);
#921=FACE_BOUND('',#855,.T.);
#922=FACE_BOUND('',#856,.T.);
#923=FACE_BOUND('',#857,.T.);
#924=FACE_BOUND('',#858,.T.);
#925=FACE_BOUND('',#859,.T.);
#926=FACE_BOUND('',#860,.T.);
#927=FACE_BOUND('',#861,.T.);
#928=FACE_BOUND('',#862,.T.);
#929=FACE_BOUND('',#863,.T.);
#930=FACE_BOUND('',#864,.T.);
#931=FACE_BOUND('',#865,.T.);
#932=FACE_BOUND('',#866,.T.);
#933=FACE_BOUND('',#867,.T.);
#934=FACE_BOUND('',#868,.T.);
#935=FACE_BOUND('',#869,.T.);
#936=FACE_BOUND('',#870,.T.);
#937=FACE_BOUND('',#871,.T.);
#938=FACE_BOUND('',#872,.T.);
#939=FACE_BOUND('',#873,.T.);
#940=FACE_BOUND('',#874,.T.);
#941=FACE_BOUND('',#875,.T.);
#942=FACE_BOUND('',#876,.T.);
#943=FACE_BOUND('',#877,.T.);
#944=FACE_BOUND('',#878,.T.);
#945=FACE_BOUND('',#879,.T.);
#946=FACE_BOUND('',#880,.T.);
#947=FACE_BOUND('',#881,.T.);
#948=FACE_BOUND('',#882,.T.);
#949=FACE_BOUND('',#883,.T.);
#950=FACE_BOUND('',#884,.T.);
#951=FACE_BOUND('',#885,.T.);
#952=FACE_BOUND('',#886,.T.);
#953=FACE_BOUND('',#887,.T.);
#954=FACE_BOUND('',#888,.T.);
#955=FACE_BOUND('',#889,.T.);
#956=FACE_BOUND('',#890,.T.);
#957=FACE_BOUND('',#891,.T.);
#958=FACE_BOUND('',#892,.T.);
#959=FACE_BOUND('',#893,.T.);
#960=FACE_BOUND('',#894,.T.);
#961=FACE_BOUND('',#895,.T.);
#962=FACE_BOUND('',#896,.T.);
#963=FACE_BOUND('',#897,.T.);
#964=FACE_BOUND('',#898,.T.);
#965=FACE_BOUND('',#899,.T.);
#966=FACE_BOUND('',#900,.T.);
#967=FACE_BOUND('',#901,.T.);
#968=FACE_BOUND('',#902,.T.);
#969=FACE_BOUND('',#903,.T.);
#970=FACE_BOUND('',#904,.T.);
#971=FACE_BOUND('',#905,.T.);
#972=FACE_BOUND('',#906,.T.);
#973=FACE_BOUND('',#907,.T.);
#974=PLANE('',#1081);
#975=PLANE('',#1092);
#976=PLANE('',#1093);
#977=PLANE('',#1106);
#978=PLANE('',#1107);
#979=PLANE('',#1108);
#980=PLANE('',#1109);
#981=PLANE('',#1110);
#982=PLANE('',#1111);
#983=PLANE('',#1112);
#984=PLANE('',#1113);
#985=PLANE('',#1114);
#986=PLANE('',#1115);
#987=PLANE('',#1120);
#988=PLANE('',#1121);
#989=PLANE('',#1122);
#990=PLANE('',#1123);
#991=PLANE('',#1124);
#992=PLANE('',#1125);
#993=PLANE('',#1126);
#994=PLANE('',#1127);
#995=PLANE('',#1128);
#996=PLANE('',#1129);
#997=PLANE('',#1130);
#998=PLANE('',#1131);
#999=PLANE('',#1132);
#1000=PLANE('',#1133);
#1001=PLANE('',#1134);
#1002=PLANE('',#1135);
#1003=PLANE('',#1136);
#1004=PLANE('',#1137);
#1005=PLANE('',#1138);
#1006=PLANE('',#1139);
#1007=PLANE('',#1140);
#1008=PLANE('',#1141);
#1009=PLANE('',#1142);
#1010=PLANE('',#1143);
#1011=PLANE('',#1144);
#1012=PLANE('',#1145);
#1013=PLANE('',#1147);
#1014=PLANE('',#1149);
#1015=PLANE('',#1151);
#1016=ADVANCED_FACE('',(#908,#909,#910),#974,.T.);
#1017=ADVANCED_FACE('',(#911),#975,.T.);
#1018=ADVANCED_FACE('',(#912),#976,.T.);
#1019=ADVANCED_FACE('',(#913,#914),#12,.F.);
#1020=ADVANCED_FACE('',(#915,#916),#13,.F.);
#1021=ADVANCED_FACE('',(#917),#14,.T.);
#1022=ADVANCED_FACE('',(#918),#15,.T.);
#1023=ADVANCED_FACE('',(#919),#16,.T.);
#1024=ADVANCED_FACE('',(#920),#17,.T.);
#1025=ADVANCED_FACE('',(#921),#977,.T.);
#1026=ADVANCED_FACE('',(#922),#978,.T.);
#1027=ADVANCED_FACE('',(#923),#979,.T.);
#1028=ADVANCED_FACE('',(#924,#925,#926),#980,.T.);
#1029=ADVANCED_FACE('',(#927),#981,.T.);
#1030=ADVANCED_FACE('',(#928),#982,.T.);
#1031=ADVANCED_FACE('',(#929),#983,.T.);
#1032=ADVANCED_FACE('',(#930,#931,#932),#984,.T.);
#1033=ADVANCED_FACE('',(#933),#985,.T.);
#1034=ADVANCED_FACE('',(#934,#935,#936),#986,.F.);
#1035=ADVANCED_FACE('',(#937),#987,.T.);
#1036=ADVANCED_FACE('',(#938),#988,.T.);
#1037=ADVANCED_FACE('',(#939),#989,.T.);
#1038=ADVANCED_FACE('',(#940),#990,.T.);
#1039=ADVANCED_FACE('',(#941,#942,#943),#991,.T.);
#1040=ADVANCED_FACE('',(#944),#992,.T.);
#1041=ADVANCED_FACE('',(#945),#993,.T.);
#1042=ADVANCED_FACE('',(#946),#994,.T.);
#1043=ADVANCED_FACE('',(#947,#948,#949),#995,.T.);
#1044=ADVANCED_FACE('',(#950),#996,.F.);
#1045=ADVANCED_FACE('',(#951),#997,.F.);
#1046=ADVANCED_FACE('',(#952),#998,.F.);
#1047=ADVANCED_FACE('',(#953),#999,.F.);
#1048=ADVANCED_FACE('',(#954),#1000,.F.);
#1049=ADVANCED_FACE('',(#955),#1001,.F.);
#1050=ADVANCED_FACE('',(#956),#1002,.F.);
#1051=ADVANCED_FACE('',(#957),#1003,.F.);
#1052=ADVANCED_FACE('',(#958),#1004,.F.);
#1053=ADVANCED_FACE('',(#959),#1005,.F.);
#1054=ADVANCED_FACE('',(#960),#1006,.F.);
#1055=ADVANCED_FACE('',(#961),#1007,.F.);
#1056=ADVANCED_FACE('',(#962),#1008,.F.);
#1057=ADVANCED_FACE('',(#963),#1009,.F.);
#1058=ADVANCED_FACE('',(#964),#1010,.F.);
#1059=ADVANCED_FACE('',(#965),#1011,.F.);
#1060=ADVANCED_FACE('',(#966),#1012,.T.);
#1061=ADVANCED_FACE('',(#967),#18,.F.);
#1062=ADVANCED_FACE('',(#968),#1013,.T.);
#1063=ADVANCED_FACE('',(#969),#19,.F.);
#1064=ADVANCED_FACE('',(#970),#1014,.T.);
#1065=ADVANCED_FACE('',(#971),#20,.F.);
#1066=ADVANCED_FACE('',(#972),#1015,.T.);
#1067=ADVANCED_FACE('',(#973),#21,.F.);
#1068=CLOSED_SHELL('',(#1016,#1017,#1018,#1019,#1020,#1021,#1022,#1023,
#1024,#1025,#1026,#1027,#1028,#1029,#1030,#1031,#1032,#1033,#1034,#1035,
#1036,#1037,#1038,#1039,#1040,#1041,#1042,#1043,#1044,#1045,#1046,#1047,
#1048,#1049,#1050,#1051,#1052,#1053,#1054,#1055,#1056,#1057,#1058,#1059,
#1060,#1061,#1062,#1063,#1064,#1065,#1066,#1067));
#1069=STYLED_ITEM('',(#1070),#1077);
#1070=PRESENTATION_STYLE_ASSIGNMENT((#1071));
#1071=SURFACE_STYLE_USAGE(.BOTH.,#1072);
#1072=SURFACE_SIDE_STYLE('',(#1073));
#1073=SURFACE_STYLE_FILL_AREA(#1074);
#1074=FILL_AREA_STYLE('',(#1075));
#1075=FILL_AREA_STYLE_COLOUR('',#1076);
#1076=COLOUR_RGB('',0.627450980392157,0.627450980392157,0.627450980392157);
#1077=MANIFOLD_SOLID_BREP('GPS CaseCap v7',#1068);
#1078=SHAPE_DEFINITION_REPRESENTATION(#1734,#1079);
#1079=SHAPE_REPRESENTATION('GPS CaseCap v7',(#1080),#1729);
#1080=AXIS2_PLACEMENT_3D('',#1427,#1153,#1154);
#1081=AXIS2_PLACEMENT_3D('',#1428,#1155,#1156);
#1082=AXIS2_PLACEMENT_3D('',#1429,#1157,#1158);
#1083=AXIS2_PLACEMENT_3D('',#1431,#1159,#1160);
#1084=AXIS2_PLACEMENT_3D('',#1436,#1162,#1163);
#1085=AXIS2_PLACEMENT_3D('',#1440,#1165,#1166);
#1086=AXIS2_PLACEMENT_3D('',#1444,#1168,#1169);
#1087=AXIS2_PLACEMENT_3D('',#1448,#1171,#1172);
#1088=AXIS2_PLACEMENT_3D('',#1464,#1180,#1181);
#1089=AXIS2_PLACEMENT_3D('',#1468,#1183,#1184);
#1090=AXIS2_PLACEMENT_3D('',#1472,#1186,#1187);
#1091=AXIS2_PLACEMENT_3D('',#1476,#1189,#1190);
#1092=AXIS2_PLACEMENT_3D('',#1489,#1197,#1198);
#1093=AXIS2_PLACEMENT_3D('',#1495,#1202,#1203);
#1094=AXIS2_PLACEMENT_3D('',#1501,#1207,#1208);
#1095=AXIS2_PLACEMENT_3D('',#1502,#1209,#1210);
#1096=AXIS2_PLACEMENT_3D('',#1504,#1211,#1212);
#1097=AXIS2_PLACEMENT_3D('',#1505,#1213,#1214);
#1098=AXIS2_PLACEMENT_3D('',#1507,#1215,#1216);
#1099=AXIS2_PLACEMENT_3D('',#1510,#1218,#1219);
#1100=AXIS2_PLACEMENT_3D('',#1511,#1220,#1221);
#1101=AXIS2_PLACEMENT_3D('',#1512,#1222,#1223);
#1102=AXIS2_PLACEMENT_3D('',#1515,#1225,#1226);
#1103=AXIS2_PLACEMENT_3D('',#1518,#1228,#1229);
#1104=AXIS2_PLACEMENT_3D('',#1519,#1230,#1231);
#1105=AXIS2_PLACEMENT_3D('',#1520,#1232,#1233);
#1106=AXIS2_PLACEMENT_3D('',#1523,#1235,#1236);
#1107=AXIS2_PLACEMENT_3D('',#1527,#1239,#1240);
#1108=AXIS2_PLACEMENT_3D('',#1544,#1249,#1250);
#1109=AXIS2_PLACEMENT_3D('',#1547,#1253,#1254);
#1110=AXIS2_PLACEMENT_3D('',#1569,#1266,#1267);
#1111=AXIS2_PLACEMENT_3D('',#1574,#1271,#1272);
#1112=AXIS2_PLACEMENT_3D('',#1576,#1274,#1275);
#1113=AXIS2_PLACEMENT_3D('',#1578,#1277,#1278);
#1114=AXIS2_PLACEMENT_3D('',#1596,#1288,#1289);
#1115=AXIS2_PLACEMENT_3D('',#1597,#1290,#1291);
#1116=AXIS2_PLACEMENT_3D('',#1600,#1293,#1294);
#1117=AXIS2_PLACEMENT_3D('',#1603,#1296,#1297);
#1118=AXIS2_PLACEMENT_3D('',#1608,#1300,#1301);
#1119=AXIS2_PLACEMENT_3D('',#1616,#1305,#1306);
#1120=AXIS2_PLACEMENT_3D('',#1617,#1307,#1308);
#1121=AXIS2_PLACEMENT_3D('',#1619,#1310,#1311);
#1122=AXIS2_PLACEMENT_3D('',#1636,#1320,#1321);
#1123=AXIS2_PLACEMENT_3D('',#1639,#1324,#1325);
#1124=AXIS2_PLACEMENT_3D('',#1641,#1327,#1328);
#1125=AXIS2_PLACEMENT_3D('',#1660,#1339,#1340);
#1126=AXIS2_PLACEMENT_3D('',#1663,#1343,#1344);
#1127=AXIS2_PLACEMENT_3D('',#1665,#1346,#1347);
#1128=AXIS2_PLACEMENT_3D('',#1667,#1349,#1350);
#1129=AXIS2_PLACEMENT_3D('',#1684,#1359,#1360);
#1130=AXIS2_PLACEMENT_3D('',#1687,#1363,#1364);
#1131=AXIS2_PLACEMENT_3D('',#1689,#1366,#1367);
#1132=AXIS2_PLACEMENT_3D('',#1692,#1370,#1371);
#1133=AXIS2_PLACEMENT_3D('',#1694,#1373,#1374);
#1134=AXIS2_PLACEMENT_3D('',#1696,#1376,#1377);
#1135=AXIS2_PLACEMENT_3D('',#1698,#1379,#1380);
#1136=AXIS2_PLACEMENT_3D('',#1699,#1381,#1382);
#1137=AXIS2_PLACEMENT_3D('',#1700,#1383,#1384);
#1138=AXIS2_PLACEMENT_3D('',#1703,#1387,#1388);
#1139=AXIS2_PLACEMENT_3D('',#1705,#1390,#1391);
#1140=AXIS2_PLACEMENT_3D('',#1708,#1394,#1395);
#1141=AXIS2_PLACEMENT_3D('',#1710,#1397,#1398);
#1142=AXIS2_PLACEMENT_3D('',#1712,#1400,#1401);
#1143=AXIS2_PLACEMENT_3D('',#1714,#1403,#1404);
#1144=AXIS2_PLACEMENT_3D('',#1715,#1405,#1406);
#1145=AXIS2_PLACEMENT_3D('',#1716,#1407,#1408);
#1146=AXIS2_PLACEMENT_3D('',#1718,#1410,#1411);
#1147=AXIS2_PLACEMENT_3D('',#1719,#1412,#1413);
#1148=AXIS2_PLACEMENT_3D('',#1721,#1415,#1416);
#1149=AXIS2_PLACEMENT_3D('',#1722,#1417,#1418);
#1150=AXIS2_PLACEMENT_3D('',#1724,#1420,#1421);
#1151=AXIS2_PLACEMENT_3D('',#1725,#1422,#1423);
#1152=AXIS2_PLACEMENT_3D('',#1727,#1425,#1426);
#1153=DIRECTION('',(0.,0.,1.));
#1154=DIRECTION('',(1.,0.,0.));
#1155=DIRECTION('',(0.,0.,1.));
#1156=DIRECTION('',(1.,0.,0.));
#1157=DIRECTION('',(0.,0.,-1.));
#1158=DIRECTION('',(-1.,0.,0.));
#1159=DIRECTION('',(0.,0.,-1.));
#1160=DIRECTION('',(-1.,0.,0.));
#1161=DIRECTION('',(-3.21956383854047E-16,1.,0.));
#1162=DIRECTION('',(0.,0.,1.));
#1163=DIRECTION('',(0.707106781186548,-0.707106781186548,0.));
#1164=DIRECTION('',(-1.,0.,0.));
#1165=DIRECTION('',(0.,0.,-1.));
#1166=DIRECTION('',(-0.707106781186548,0.707106781186548,0.));
#1167=DIRECTION('',(0.,-1.,0.));
#1168=DIRECTION('',(0.,0.,-1.));
#1169=DIRECTION('',(-0.707106781186548,-0.707106781186548,0.));
#1170=DIRECTION('',(1.,0.,0.));
#1171=DIRECTION('',(0.,0.,1.));
#1172=DIRECTION('',(0.707106781186548,0.707106781186548,0.));
#1173=DIRECTION('',(0.,1.,0.));
#1174=DIRECTION('',(1.,0.,0.));
#1175=DIRECTION('',(0.,-1.,0.));
#1176=DIRECTION('',(1.,2.73285667600038E-16,0.));
#1177=DIRECTION('',(-4.55833712426E-16,1.,0.));
#1178=DIRECTION('',(1.,0.,0.));
#1179=DIRECTION('',(0.,-1.,0.));
#1180=DIRECTION('',(0.,0.,1.));
#1181=DIRECTION('',(-0.707106781186548,0.707106781186548,0.));
#1182=DIRECTION('',(1.,0.,0.));
#1183=DIRECTION('',(0.,0.,-1.));
#1184=DIRECTION('',(0.707106781186548,-0.707106781186548,0.));
#1185=DIRECTION('',(0.,1.,0.));
#1186=DIRECTION('',(0.,0.,-1.));
#1187=DIRECTION('',(0.707106781186548,0.707106781186548,0.));
#1188=DIRECTION('',(-1.,0.,0.));
#1189=DIRECTION('',(0.,0.,1.));
#1190=DIRECTION('',(-0.707106781186548,-0.707106781186548,0.));
#1191=DIRECTION('',(3.35355258575679E-16,-1.,0.));
#1192=DIRECTION('',(-1.,-1.26882631385732E-15,0.));
#1193=DIRECTION('',(0.,1.,0.));
#1194=DIRECTION('',(-1.,-2.73285667600038E-16,0.));
#1195=DIRECTION('',(0.,-1.,0.));
#1196=DIRECTION('',(-1.,0.,0.));
#1197=DIRECTION('',(1.,0.,0.));
#1198=DIRECTION('',(0.,1.,0.));
#1199=DIRECTION('',(0.,0.,-1.));
#1200=DIRECTION('',(0.,0.,1.));
#1201=DIRECTION('',(0.,-1.,0.));
#1202=DIRECTION('',(-1.,0.,0.));
#1203=DIRECTION('',(0.,-1.,0.));
#1204=DIRECTION('',(0.,0.,-1.));
#1205=DIRECTION('',(0.,0.,1.));
#1206=DIRECTION('',(0.,1.,0.));
#1207=DIRECTION('',(0.,0.,-1.));
#1208=DIRECTION('',(-1.,0.,0.));
#1209=DIRECTION('',(0.,0.,1.));
#1210=DIRECTION('',(-1.,0.,0.));
#1211=DIRECTION('',(0.,0.,-1.));
#1212=DIRECTION('',(-1.,0.,0.));
#1213=DIRECTION('',(0.,0.,1.));
#1214=DIRECTION('',(-1.,0.,0.));
#1215=DIRECTION('',(0.,0.,1.));
#1216=DIRECTION('',(0.707106781186548,-0.707106781186548,0.));
#1217=DIRECTION('',(0.,0.,-1.));
#1218=DIRECTION('',(0.,0.,1.));
#1219=DIRECTION('',(0.707106781186548,-0.707106781186548,0.));
#1220=DIRECTION('',(0.,0.,1.));
#1221=DIRECTION('',(0.707106781186548,0.707106781186548,0.));
#1222=DIRECTION('',(0.,0.,1.));
#1223=DIRECTION('',(0.707106781186548,0.707106781186548,0.));
#1224=DIRECTION('',(0.,0.,1.));
#1225=DIRECTION('',(0.,0.,1.));
#1226=DIRECTION('',(-0.707106781186548,0.707106781186548,0.));
#1227=DIRECTION('',(0.,0.,-1.));
#1228=DIRECTION('',(0.,0.,1.));
#1229=DIRECTION('',(-0.707106781186548,0.707106781186548,0.));
#1230=DIRECTION('',(0.,0.,1.));
#1231=DIRECTION('',(-0.707106781186548,-0.707106781186548,0.));
#1232=DIRECTION('',(0.,0.,1.));
#1233=DIRECTION('',(-0.707106781186548,-0.707106781186548,0.));
#1234=DIRECTION('',(0.,0.,1.));
#1235=DIRECTION('',(0.,-1.,0.));
#1236=DIRECTION('',(1.,0.,0.));
#1237=DIRECTION('',(0.,0.,1.));
#1238=DIRECTION('',(-1.,0.,0.));
#1239=DIRECTION('',(0.,0.,1.));
#1240=DIRECTION('',(1.,0.,0.));
#1241=DIRECTION('',(-1.,0.,0.));
#1242=DIRECTION('',(4.55833712426E-16,-1.,0.));
#1243=DIRECTION('',(-1.,-2.73285667600038E-16,0.));
#1244=DIRECTION('',(0.,1.,0.));
#1245=DIRECTION('',(-1.,0.,0.));
#1246=DIRECTION('',(0.,-1.,0.));
#1247=DIRECTION('',(1.,2.24855296126614E-16,0.));
#1248=DIRECTION('',(0.,1.,0.));
#1249=DIRECTION('',(0.,1.,0.));
#1250=DIRECTION('',(-1.,0.,0.));
#1251=DIRECTION('',(0.,0.,1.));
#1252=DIRECTION('',(0.,0.,1.));
#1253=DIRECTION('',(0.,-1.,0.));
#1254=DIRECTION('',(1.,0.,0.));
#1255=DIRECTION('',(1.,2.24855296126614E-16,0.));
#1256=DIRECTION('',(0.,0.,-1.));
#1257=DIRECTION('',(-1.,-2.24855296126614E-16,0.));
#1258=DIRECTION('',(0.,0.,1.));
#1259=DIRECTION('',(0.,0.,-1.));
#1260=DIRECTION('',(-1.,-2.24855296126614E-16,0.));
#1261=DIRECTION('',(0.,0.,1.));
#1262=DIRECTION('',(1.,2.24855296126614E-16,0.));
#1263=DIRECTION('',(-1.,-2.24855296126614E-16,0.));
#1264=DIRECTION('',(0.,0.,1.));
#1265=DIRECTION('',(0.,0.,1.));
#1266=DIRECTION('',(-1.,0.,0.));
#1267=DIRECTION('',(0.,-1.,0.));
#1268=DIRECTION('',(0.,0.,1.));
#1269=DIRECTION('',(0.,1.,0.));
#1270=DIRECTION('',(0.,0.,1.));
#1271=DIRECTION('',(0.,1.,0.));
#1272=DIRECTION('',(-1.,0.,0.));
#1273=DIRECTION('',(0.,0.,1.));
#1274=DIRECTION('',(1.,0.,0.));
#1275=DIRECTION('',(0.,1.,0.));
#1276=DIRECTION('',(0.,0.,1.));
#1277=DIRECTION('',(0.,1.,0.));
#1278=DIRECTION('',(-1.,0.,0.));
#1279=DIRECTION('',(-1.,-2.73285667600038E-16,0.));
#1280=DIRECTION('',(0.,0.,-1.));
#1281=DIRECTION('',(1.,2.73285667600038E-16,0.));
#1282=DIRECTION('',(0.,0.,1.));
#1283=DIRECTION('',(0.,0.,1.));
#1284=DIRECTION('',(-1.,-2.73285667600038E-16,0.));
#1285=DIRECTION('',(0.,0.,-1.));
#1286=DIRECTION('',(1.,2.73285667600038E-16,0.));
#1287=DIRECTION('',(0.,0.,1.));
#1288=DIRECTION('',(-1.,0.,0.));
#1289=DIRECTION('',(0.,-1.,0.));
#1290=DIRECTION('',(0.,0.,1.));
#1291=DIRECTION('',(1.,0.,0.));
#1292=DIRECTION('',(1.,0.,0.));
#1293=DIRECTION('',(0.,0.,-1.));
#1294=DIRECTION('',(-0.707106781186548,0.707106781186548,0.));
#1295=DIRECTION('',(0.,-1.,0.));
#1296=DIRECTION('',(0.,0.,-1.));
#1297=DIRECTION('',(0.707106781186548,0.707106781186548,0.));
#1298=DIRECTION('',(-1.,0.,0.));
#1299=DIRECTION('',(1.,0.,0.));
#1300=DIRECTION('',(0.,0.,-1.));
#1301=DIRECTION('',(0.707106781186548,-0.707106781186548,0.));
#1302=DIRECTION('',(-3.21956383854047E-16,1.,0.));
#1303=DIRECTION('',(1.,2.24855296126614E-16,0.));
#1304=DIRECTION('',(3.35355258575679E-16,-1.,0.));
#1305=DIRECTION('',(0.,0.,-1.));
#1306=DIRECTION('',(-0.707106781186548,-0.707106781186548,0.));
#1307=DIRECTION('',(0.,1.,0.));
#1308=DIRECTION('',(-1.,0.,0.));
#1309=DIRECTION('',(0.,0.,1.));
#1310=DIRECTION('',(0.,0.,1.));
#1311=DIRECTION('',(1.,0.,0.));
#1312=DIRECTION('',(1.,0.,0.));
#1313=DIRECTION('',(0.,1.,0.));
#1314=DIRECTION('',(1.,2.73285667600038E-16,0.));
#1315=DIRECTION('',(0.,-1.,0.));
#1316=DIRECTION('',(1.,1.26882631385732E-15,0.));
#1317=DIRECTION('',(-3.35355258575679E-16,1.,0.));
#1318=DIRECTION('',(-1.,-2.24855296126614E-16,0.));
#1319=DIRECTION('',(3.21956383854047E-16,-1.,0.));
#1320=DIRECTION('',(0.,-1.,0.));
#1321=DIRECTION('',(1.,0.,0.));
#1322=DIRECTION('',(0.,0.,1.));
#1323=DIRECTION('',(0.,0.,1.));
#1324=DIRECTION('',(1.,0.,0.));
#1325=DIRECTION('',(0.,1.,0.));
#1326=DIRECTION('',(0.,0.,1.));
#1327=DIRECTION('',(0.,1.,0.));
#1328=DIRECTION('',(-1.,0.,0.));
#1329=DIRECTION('',(-1.,-2.24855296126614E-16,0.));
#1330=DIRECTION('',(0.,0.,-1.));
#1331=DIRECTION('',(1.,2.24855296126614E-16,0.));
#1332=DIRECTION('',(0.,0.,1.));
#1333=DIRECTION('',(0.,0.,1.));
#1334=DIRECTION('',(-1.,-2.24855296126614E-16,0.));
#1335=DIRECTION('',(0.,0.,-1.));
#1336=DIRECTION('',(1.,2.24855296126614E-16,0.));
#1337=DIRECTION('',(0.,0.,1.));
#1338=DIRECTION('',(0.,0.,1.));
#1339=DIRECTION('',(1.,0.,0.));
#1340=DIRECTION('',(0.,1.,0.));
#1341=DIRECTION('',(0.,0.,1.));
#1342=DIRECTION('',(0.,0.,1.));
#1343=DIRECTION('',(0.,-1.,0.));
#1344=DIRECTION('',(1.,0.,0.));
#1345=DIRECTION('',(0.,0.,1.));
#1346=DIRECTION('',(-1.,0.,0.));
#1347=DIRECTION('',(0.,-1.,0.));
#1348=DIRECTION('',(0.,0.,1.));
#1349=DIRECTION('',(0.,-1.,0.));
#1350=DIRECTION('',(1.,0.,0.));
#1351=DIRECTION('',(1.,2.73285667600038E-16,0.));
#1352=DIRECTION('',(0.,0.,-1.));
#1353=DIRECTION('',(-1.,-2.73285667600038E-16,0.));
#1354=DIRECTION('',(0.,0.,1.));
#1355=DIRECTION('',(0.,0.,-1.));
#1356=DIRECTION('',(-1.,-2.73285667600038E-16,0.));
#1357=DIRECTION('',(0.,0.,1.));
#1358=DIRECTION('',(1.,2.73285667600038E-16,0.));
#1359=DIRECTION('',(1.,0.,0.));
#1360=DIRECTION('',(0.,0.,-1.));
#1361=DIRECTION('',(0.,1.,0.));
#1362=DIRECTION('',(0.,1.,0.));
#1363=DIRECTION('',(0.,0.,1.));
#1364=DIRECTION('',(1.,0.,0.));
#1365=DIRECTION('',(0.,1.,0.));
#1366=DIRECTION('',(0.,0.,1.));
#1367=DIRECTION('',(1.,0.,0.));
#1368=DIRECTION('',(0.,1.,0.));
#1369=DIRECTION('',(0.,1.,0.));
#1370=DIRECTION('',(1.,0.,0.));
#1371=DIRECTION('',(0.,0.,-1.));
#1372=DIRECTION('',(0.,1.,0.));
#1373=DIRECTION('',(-1.,0.,0.));
#1374=DIRECTION('',(0.,0.,1.));
#1375=DIRECTION('',(0.,1.,0.));
#1376=DIRECTION('',(-1.,0.,0.));
#1377=DIRECTION('',(0.,0.,1.));
#1378=DIRECTION('',(0.,1.,0.));
#1379=DIRECTION('',(0.,0.,-1.));
#1380=DIRECTION('',(-1.,0.,0.));
#1381=DIRECTION('',(0.,0.,-1.));
#1382=DIRECTION('',(-1.,0.,0.));
#1383=DIRECTION('',(0.,0.,-1.));
#1384=DIRECTION('',(-1.,0.,0.));
#1385=DIRECTION('',(0.,1.,0.));
#1386=DIRECTION('',(0.,1.,0.));
#1387=DIRECTION('',(1.,0.,0.));
#1388=DIRECTION('',(0.,0.,-1.));
#1389=DIRECTION('',(0.,1.,0.));
#1390=DIRECTION('',(1.,0.,0.));
#1391=DIRECTION('',(0.,0.,-1.));
#1392=DIRECTION('',(0.,1.,0.));
#1393=DIRECTION('',(0.,1.,0.));
#1394=DIRECTION('',(0.,0.,-1.));
#1395=DIRECTION('',(-1.,0.,0.));
#1396=DIRECTION('',(0.,1.,0.));
#1397=DIRECTION('',(0.,0.,1.));
#1398=DIRECTION('',(1.,0.,0.));
#1399=DIRECTION('',(0.,1.,0.));
#1400=DIRECTION('',(0.,0.,1.));
#1401=DIRECTION('',(1.,0.,0.));
#1402=DIRECTION('',(0.,1.,0.));
#1403=DIRECTION('',(-1.,0.,0.));
#1404=DIRECTION('',(0.,0.,1.));
#1405=DIRECTION('',(-1.,0.,0.));
#1406=DIRECTION('',(0.,0.,1.));
#1407=DIRECTION('',(1.,0.,0.));
#1408=DIRECTION('',(0.,1.,0.));
#1409=DIRECTION('',(0.,0.,-1.));
#1410=DIRECTION('',(0.,0.,-1.));
#1411=DIRECTION('',(-0.707106781186548,0.707106781186548,0.));
#1412=DIRECTION('',(0.,-1.,0.));
#1413=DIRECTION('',(1.,0.,0.));
#1414=DIRECTION('',(0.,0.,-1.));
#1415=DIRECTION('',(0.,0.,1.));
#1416=DIRECTION('',(0.707106781186548,0.707106781186548,0.));
#1417=DIRECTION('',(-1.,0.,0.));
#1418=DIRECTION('',(0.,-1.,0.));
#1419=DIRECTION('',(0.,0.,-1.));
#1420=DIRECTION('',(0.,0.,-1.));
#1421=DIRECTION('',(0.707106781186548,-0.707106781186548,0.));
#1422=DIRECTION('',(0.,1.,0.));
#1423=DIRECTION('',(-1.,0.,0.));
#1424=DIRECTION('',(0.,0.,-1.));
#1425=DIRECTION('',(0.,0.,1.));
#1426=DIRECTION('',(-0.707106781186548,-0.707106781186548,0.));
#1427=CARTESIAN_POINT('',(0.,0.,0.));
#1428=CARTESIAN_POINT('',(-0.00581796574297876,0.00199087990390462,0.025));
#1429=CARTESIAN_POINT('',(-0.0550679657429788,0.0282408799039046,0.025));
#1430=CARTESIAN_POINT('',(-0.0564179657429788,0.0282408799039046,0.025));
#1431=CARTESIAN_POINT('',(0.0434320342570212,-0.0242591200960954,0.025));
#1432=CARTESIAN_POINT('',(0.0420820342570212,-0.0242591200960954,0.025));
#1433=CARTESIAN_POINT('',(-0.0425869170139482,0.0202292067477771,0.025));
#1434=CARTESIAN_POINT('',(-0.0425869170139482,0.0108806161009014,0.025));
#1435=CARTESIAN_POINT('',(-0.0425869170139482,0.0382408799039046,0.025));
#1436=CARTESIAN_POINT('',(-0.0475869170139482,0.0382408799039046,0.025));
#1437=CARTESIAN_POINT('',(-0.0475869170139482,0.0332408799039046,0.025));
#1438=CARTESIAN_POINT('',(-0.0600679657429788,0.0332408799039046,0.025));
#1439=CARTESIAN_POINT('',(-0.0560679657429787,0.0332408799039046,0.025));
#1440=CARTESIAN_POINT('',(-0.0560679657429787,0.0292408799039046,0.025));
#1441=CARTESIAN_POINT('',(-0.0600679657429788,0.0292408799039046,0.025));
#1442=CARTESIAN_POINT('',(-0.0600679657429788,-0.0292591200960954,0.025));
#1443=CARTESIAN_POINT('',(-0.0600679657429788,-0.0252591200960954,0.025));
#1444=CARTESIAN_POINT('',(-0.0560679657429787,-0.0252591200960954,0.025));
#1445=CARTESIAN_POINT('',(-0.0560679657429787,-0.0292591200960954,0.025));
#1446=CARTESIAN_POINT('',(0.0484320342570212,-0.0292591200960954,0.025));
#1447=CARTESIAN_POINT('',(-0.0475869170139482,-0.0292591200960954,0.025));
#1448=CARTESIAN_POINT('',(-0.0475869170139482,-0.0342591200960954,0.025));
#1449=CARTESIAN_POINT('',(-0.0425869170139482,-0.0342591200960954,0.025));
#1450=CARTESIAN_POINT('',(-0.0425869170139482,-0.00356425199759701,0.025));
#1451=CARTESIAN_POINT('',(-0.0425869170139482,-0.00911938389909863,0.025));
#1452=CARTESIAN_POINT('',(-0.0207024413784635,-0.00911938389909863,0.025));
#1453=CARTESIAN_POINT('',(-0.0355869170139482,-0.00911938389909863,0.025));
#1454=CARTESIAN_POINT('',(-0.0355869170139482,-0.0127554955787168,0.025));
#1455=CARTESIAN_POINT('',(-0.0355869170139482,-0.0275018710613383,0.025));
#1456=CARTESIAN_POINT('',(0.0117975586215365,-0.0275018710613383,0.025));
#1457=CARTESIAN_POINT('',(0.0294130829860518,-0.0275018710613383,0.025));
#1458=CARTESIAN_POINT('',(0.0294130829860518,-0.00301314441546985,0.025));
#1459=CARTESIAN_POINT('',(0.0294130829860518,-0.00801716873484434,0.025));
#1460=CARTESIAN_POINT('',(0.0152975586215365,-0.00801716873484434,0.025));
#1461=CARTESIAN_POINT('',(0.0364130829860518,-0.00801716873484434,0.025));
#1462=CARTESIAN_POINT('',(0.0364130829860518,-0.0162554955787168,0.025));
#1463=CARTESIAN_POINT('',(0.0364130829860518,-0.0342591200960954,0.025));
#1464=CARTESIAN_POINT('',(0.0414130829860518,-0.0342591200960954,0.025));
#1465=CARTESIAN_POINT('',(0.0414130829860518,-0.0292591200960954,0.025));
#1466=CARTESIAN_POINT('',(0.0484320342570212,-0.0292591200960954,0.025));
#1467=CARTESIAN_POINT('',(0.0444320342570212,-0.0292591200960954,0.025));
#1468=CARTESIAN_POINT('',(0.0444320342570212,-0.0252591200960954,0.025));
#1469=CARTESIAN_POINT('',(0.0484320342570212,-0.0252591200960954,0.025));
#1470=CARTESIAN_POINT('',(0.0484320342570212,0.0332408799039046,0.025));
#1471=CARTESIAN_POINT('',(0.0484320342570212,0.0292408799039046,0.025));
#1472=CARTESIAN_POINT('',(0.0444320342570212,0.0292408799039046,0.025));
#1473=CARTESIAN_POINT('',(0.0444320342570212,0.0332408799039046,0.025));
#1474=CARTESIAN_POINT('',(-0.0600679657429788,0.0332408799039046,0.025));
#1475=CARTESIAN_POINT('',(0.0414130829860518,0.0332408799039046,0.025));
#1476=CARTESIAN_POINT('',(0.0414130829860518,0.0382408799039046,0.025));
#1477=CARTESIAN_POINT('',(0.0364130829860518,0.0382408799039046,0.025));
#1478=CARTESIAN_POINT('',(0.0364130829860518,0.00698685558453015,0.025));
#1479=CARTESIAN_POINT('',(0.0364130829860518,0.0119828312651557,0.025));
#1480=CARTESIAN_POINT('',(0.0117975586215365,0.0119828312651556,0.025));
#1481=CARTESIAN_POINT('',(0.0294130829860518,0.0119828312651557,0.025));
#1482=CARTESIAN_POINT('',(0.0294130829860518,0.0167292065093771,0.025));
#1483=CARTESIAN_POINT('',(0.0294130829860518,0.0314675331148496,0.025));
#1484=CARTESIAN_POINT('',(-0.0207024413784635,0.0314675331148496,0.025));
#1485=CARTESIAN_POINT('',(-0.0355869170139482,0.0314675331148496,0.025));
#1486=CARTESIAN_POINT('',(-0.0355869170139482,0.006435748002403,0.025));
#1487=CARTESIAN_POINT('',(-0.0355869170139482,0.0108806161009014,0.025));
#1488=CARTESIAN_POINT('',(-0.0242024413784635,0.0108806161009014,0.025));
#1489=CARTESIAN_POINT('',(0.0484320342570212,-0.0292591200960954,0.02));
#1490=CARTESIAN_POINT('',(0.0484320342570212,0.0292408799039046,0.02));
#1491=CARTESIAN_POINT('',(0.0484320342570212,0.0292408799039046,0.02));
#1492=CARTESIAN_POINT('',(0.0484320342570212,-0.0252591200960954,0.02));
#1493=CARTESIAN_POINT('',(0.0484320342570212,-0.0252591200960954,0.02));
#1494=CARTESIAN_POINT('',(0.0484320342570212,0.0332408799039046,0.02));
#1495=CARTESIAN_POINT('',(-0.0600679657429788,0.0332408799039046,0.02));
#1496=CARTESIAN_POINT('',(-0.0600679657429788,-0.0252591200960954,0.02));
#1497=CARTESIAN_POINT('',(-0.0600679657429788,-0.0252591200960954,0.02));
#1498=CARTESIAN_POINT('',(-0.0600679657429788,0.0292408799039046,0.02));
#1499=CARTESIAN_POINT('',(-0.0600679657429788,0.0292408799039046,0.02));
#1500=CARTESIAN_POINT('',(-0.0600679657429788,-0.0292591200960954,0.02));
#1501=CARTESIAN_POINT('',(-0.0550679657429788,0.0282408799039046,0.02));
#1502=CARTESIAN_POINT('',(-0.0550679657429788,0.0282408799039046,0.02));
#1503=CARTESIAN_POINT('',(-0.0564179657429788,0.0282408799039046,0.02));
#1504=CARTESIAN_POINT('',(0.0434320342570212,-0.0242591200960954,0.02));
#1505=CARTESIAN_POINT('',(0.0434320342570212,-0.0242591200960954,0.02));
#1506=CARTESIAN_POINT('',(0.0420820342570212,-0.0242591200960954,0.02));
#1507=CARTESIAN_POINT('',(0.0444320342570212,-0.0252591200960954,0.02));
#1508=CARTESIAN_POINT('',(0.0444320342570212,-0.0292591200960954,0.02));
#1509=CARTESIAN_POINT('',(0.0444320342570212,-0.0292591200960954,0.02));
#1510=CARTESIAN_POINT('',(0.0444320342570212,-0.0252591200960954,0.02));
#1511=CARTESIAN_POINT('',(0.0444320342570212,0.0292408799039046,0.02));
#1512=CARTESIAN_POINT('',(0.0444320342570212,0.0292408799039046,0.02));
#1513=CARTESIAN_POINT('',(0.0444320342570212,0.0332408799039046,0.02));
#1514=CARTESIAN_POINT('',(0.0444320342570212,0.0332408799039046,0.02));
#1515=CARTESIAN_POINT('',(-0.0560679657429787,0.0292408799039046,0.02));
#1516=CARTESIAN_POINT('',(-0.0560679657429787,0.0332408799039046,0.02));
#1517=CARTESIAN_POINT('',(-0.0560679657429787,0.0332408799039046,0.02));
#1518=CARTESIAN_POINT('',(-0.0560679657429787,0.0292408799039046,0.02));
#1519=CARTESIAN_POINT('',(-0.0560679657429787,-0.0252591200960954,0.02));
#1520=CARTESIAN_POINT('',(-0.0560679657429787,-0.0252591200960954,0.02));
#1521=CARTESIAN_POINT('',(-0.0560679657429787,-0.0292591200960954,0.02));
#1522=CARTESIAN_POINT('',(-0.0560679657429787,-0.0292591200960954,0.02));
#1523=CARTESIAN_POINT('',(-0.0600679657429788,-0.0292591200960954,0.02));
#1524=CARTESIAN_POINT('',(0.0414130829860518,-0.0292591200960954,0.02));
#1525=CARTESIAN_POINT('',(0.0414130829860518,-0.0292591200960954,0.02));
#1526=CARTESIAN_POINT('',(0.0484320342570212,-0.0292591200960954,0.02));
#1527=CARTESIAN_POINT('',(-0.00308691701394821,0.0246740748462755,0.045));
#1528=CARTESIAN_POINT('',(0.0364130829860518,-0.00801716873484434,0.045));
#1529=CARTESIAN_POINT('',(0.0364130829860518,-0.00801716873484434,0.045));
#1530=CARTESIAN_POINT('',(0.0294130829860518,-0.00801716873484434,0.045));
#1531=CARTESIAN_POINT('',(0.0294130829860518,-0.00801716873484434,0.045));
#1532=CARTESIAN_POINT('',(0.0294130829860518,-0.0275018710613383,0.045));
#1533=CARTESIAN_POINT('',(0.0294130829860518,-0.0275018710613383,0.045));
#1534=CARTESIAN_POINT('',(-0.0355869170139482,-0.0275018710613383,0.045));
#1535=CARTESIAN_POINT('',(-0.0355869170139482,-0.0275018710613383,0.045));
#1536=CARTESIAN_POINT('',(-0.0355869170139482,-0.00911938389909863,0.045));
#1537=CARTESIAN_POINT('',(-0.0355869170139482,-0.00911938389909863,0.045));
#1538=CARTESIAN_POINT('',(-0.0425869170139482,-0.00911938389909863,0.045));
#1539=CARTESIAN_POINT('',(-0.0425869170139482,-0.0345018710613383,0.045));
#1540=CARTESIAN_POINT('',(-0.0425869170139482,-0.0345018710613383,0.045));
#1541=CARTESIAN_POINT('',(0.0364130829860518,-0.0345018710613383,0.045));
#1542=CARTESIAN_POINT('',(0.0364130829860518,-0.0345018710613383,0.045));
#1543=CARTESIAN_POINT('',(0.0364130829860518,-0.00801716873484434,0.045));
#1544=CARTESIAN_POINT('',(0.0364130829860518,-0.00801716873484434,0.02));
#1545=CARTESIAN_POINT('',(0.0294130829860518,-0.00801716873484434,0.02));
#1546=CARTESIAN_POINT('',(0.0364130829860518,-0.00801716873484434,0.02));
#1547=CARTESIAN_POINT('',(-0.0425869170139482,-0.0345018710613383,0.02));
#1548=CARTESIAN_POINT('',(-0.0118803753346578,-0.0345018710613383,0.0400000005215406));
#1549=CARTESIAN_POINT('',(0.0188261663446326,-0.0345018710613383,0.0400000005215406));
#1550=CARTESIAN_POINT('',(0.0238261664191384,-0.0345018710613383,0.0400000005215406));
#1551=CARTESIAN_POINT('',(0.0238261664191384,-0.0345018710613383,0.0300000002607703));
#1552=CARTESIAN_POINT('',(0.0238261664191384,-0.0345018710613383,0.0350000004470348));
#1553=CARTESIAN_POINT('',(-0.0093803752974049,-0.0345018710613383,0.0350000004470348));
#1554=CARTESIAN_POINT('',(0.0188261663446326,-0.0345018710613383,0.0350000004470348));
#1555=CARTESIAN_POINT('',(0.0188261663446326,-0.0345018710613383,0.0275000002235174));
#1556=CARTESIAN_POINT('',(-0.025000000372529,-0.0345018710613383,0.0300000002607703));
#1557=CARTESIAN_POINT('',(-0.025000000372529,-0.0345018710613383,0.0400000005215406));
#1558=CARTESIAN_POINT('',(-0.025000000372529,-0.0345018710613383,0.0350000004470348));
#1559=CARTESIAN_POINT('',(-0.0337934586932386,-0.0345018710613383,0.0350000004470348));
#1560=CARTESIAN_POINT('',(-0.0300000004470348,-0.0345018710613383,0.0350000004470348));
#1561=CARTESIAN_POINT('',(-0.0300000004470348,-0.0345018710613383,0.0275000002235174));
#1562=CARTESIAN_POINT('',(-0.0300000004470348,-0.0345018710613383,0.0400000005215406));
#1563=CARTESIAN_POINT('',(-0.0362934587304915,-0.0345018710613383,0.0400000005215406));
#1564=CARTESIAN_POINT('',(0.0364130829860518,-0.0345018710613383,0.02));
#1565=CARTESIAN_POINT('',(0.0364130829860518,-0.0345018710613383,0.02));
#1566=CARTESIAN_POINT('',(-0.0425869170139482,-0.0345018710613383,0.02));
#1567=CARTESIAN_POINT('',(0.0364130829860518,-0.0345018710613383,0.02));
#1568=CARTESIAN_POINT('',(-0.0425869170139482,-0.0345018710613383,0.02));
#1569=CARTESIAN_POINT('',(-0.0425869170139482,0.0384675335916496,0.02));
#1570=CARTESIAN_POINT('',(-0.0425869170139482,-0.0342591200960954,0.02));
#1571=CARTESIAN_POINT('',(-0.0425869170139482,-0.0342591200960954,0.02));
#1572=CARTESIAN_POINT('',(-0.0425869170139482,-0.0345018710613383,0.02));
#1573=CARTESIAN_POINT('',(-0.0425869170139482,-0.00911938389909863,0.02));
#1574=CARTESIAN_POINT('',(-0.0355869170139482,-0.00911938389909863,0.02));
#1575=CARTESIAN_POINT('',(-0.0355869170139482,-0.00911938389909863,0.02));
#1576=CARTESIAN_POINT('',(-0.0355869170139482,0.0108806161009014,0.02));
#1577=CARTESIAN_POINT('',(-0.0355869170139482,-0.0275018710613383,0.02));
#1578=CARTESIAN_POINT('',(0.0294130829860518,-0.0275018710613383,0.02));
#1579=CARTESIAN_POINT('',(0.0241196246653422,-0.0275018710613383,0.0400000005215406));
#1580=CARTESIAN_POINT('',(0.0238261664191384,-0.0275018710613383,0.0400000005215406));
#1581=CARTESIAN_POINT('',(0.0188261663446326,-0.0275018710613383,0.0400000005215406));
#1582=CARTESIAN_POINT('',(0.0188261663446326,-0.0275018710613383,0.0275000002235174));
#1583=CARTESIAN_POINT('',(0.0188261663446326,-0.0275018710613383,0.0350000004470348));
#1584=CARTESIAN_POINT('',(0.0266196247025951,-0.0275018710613383,0.0350000004470348));
#1585=CARTESIAN_POINT('',(0.0238261664191384,-0.0275018710613383,0.0350000004470348));
#1586=CARTESIAN_POINT('',(0.0238261664191384,-0.0275018710613383,0.0300000002607703));
#1587=CARTESIAN_POINT('',(-0.025000000372529,-0.0275018710613383,0.0300000002607703));
#1588=CARTESIAN_POINT('',(-0.025000000372529,-0.0275018710613383,0.0350000004470348));
#1589=CARTESIAN_POINT('',(-0.025000000372529,-0.0275018710613383,0.0400000005215406));
#1590=CARTESIAN_POINT('',(-0.000293458730491515,-0.0275018710613383,0.0400000005215406));
#1591=CARTESIAN_POINT('',(-0.0300000004470348,-0.0275018710613383,0.0400000005215406));
#1592=CARTESIAN_POINT('',(-0.0300000004470348,-0.0275018710613383,0.0275000002235174));
#1593=CARTESIAN_POINT('',(-0.0300000004470348,-0.0275018710613383,0.0350000004470348));
#1594=CARTESIAN_POINT('',(0.00220654130676139,-0.0275018710613383,0.0350000004470348));
#1595=CARTESIAN_POINT('',(0.0294130829860518,-0.0275018710613383,0.02));
#1596=CARTESIAN_POINT('',(0.0294130829860518,-0.00801716873484434,0.02));
#1597=CARTESIAN_POINT('',(-0.00581796574297876,0.00199087990390462,0.02));
#1598=CARTESIAN_POINT('',(-0.0600679657429788,0.0332408799039046,0.02));
#1599=CARTESIAN_POINT('',(0.0414130829860518,0.0332408799039046,0.02));
#1600=CARTESIAN_POINT('',(0.0414130829860518,-0.0342591200960954,0.02));
#1601=CARTESIAN_POINT('',(0.0364130829860518,-0.0342591200960954,0.02));
#1602=CARTESIAN_POINT('',(0.0364130829860518,-0.00801716873484434,0.02));
#1603=CARTESIAN_POINT('',(-0.0475869170139482,-0.0342591200960954,0.02));
#1604=CARTESIAN_POINT('',(-0.0475869170139482,-0.0292591200960954,0.02));
#1605=CARTESIAN_POINT('',(0.0484320342570212,-0.0292591200960954,0.02));
#1606=CARTESIAN_POINT('',(-0.0600679657429788,0.0332408799039046,0.02));
#1607=CARTESIAN_POINT('',(-0.0475869170139482,0.0332408799039046,0.02));
#1608=CARTESIAN_POINT('',(-0.0475869170139482,0.0382408799039046,0.02));
#1609=CARTESIAN_POINT('',(-0.0425869170139482,0.0382408799039046,0.02));
#1610=CARTESIAN_POINT('',(-0.0425869170139482,0.0108806161009014,0.02));
#1611=CARTESIAN_POINT('',(-0.0425869170139482,0.0384675335916496,0.02));
#1612=CARTESIAN_POINT('',(-0.0425869170139482,0.0384675335916496,0.02));
#1613=CARTESIAN_POINT('',(0.0364130829860518,0.0384675335916496,0.02));
#1614=CARTESIAN_POINT('',(0.0364130829860518,0.0384675335916496,0.02));
#1615=CARTESIAN_POINT('',(0.0364130829860518,0.0382408799039046,0.02));
#1616=CARTESIAN_POINT('',(0.0414130829860518,0.0382408799039046,0.02));
#1617=CARTESIAN_POINT('',(0.0484320342570212,0.0332408799039046,0.02));
#1618=CARTESIAN_POINT('',(-0.0475869170139482,0.0332408799039046,0.02));
#1619=CARTESIAN_POINT('',(-0.00308691701394821,0.0246740748462755,0.045));
#1620=CARTESIAN_POINT('',(-0.0355869170139482,0.0108806161009014,0.045));
#1621=CARTESIAN_POINT('',(-0.0425869170139482,0.0108806161009014,0.045));
#1622=CARTESIAN_POINT('',(-0.0355869170139482,0.0108806161009014,0.045));
#1623=CARTESIAN_POINT('',(-0.0355869170139482,0.0108806161009014,0.045));
#1624=CARTESIAN_POINT('',(-0.0355869170139482,0.0314675331148496,0.045));
#1625=CARTESIAN_POINT('',(-0.0355869170139482,0.0314675331148496,0.045));
#1626=CARTESIAN_POINT('',(0.0294130829860518,0.0314675331148496,0.045));
#1627=CARTESIAN_POINT('',(0.0294130829860518,0.0314675331148496,0.045));
#1628=CARTESIAN_POINT('',(0.0294130829860518,0.0119828312651557,0.045));
#1629=CARTESIAN_POINT('',(0.0364130829860518,0.0119828312651557,0.045));
#1630=CARTESIAN_POINT('',(0.0364130829860518,0.0119828312651557,0.045));
#1631=CARTESIAN_POINT('',(0.0364130829860518,0.0384675335916496,0.045));
#1632=CARTESIAN_POINT('',(0.0364130829860518,0.0384675335916496,0.045));
#1633=CARTESIAN_POINT('',(-0.0425869170139482,0.0384675335916496,0.045));
#1634=CARTESIAN_POINT('',(-0.0425869170139482,0.0384675335916496,0.045));
#1635=CARTESIAN_POINT('',(-0.0425869170139482,0.0108806161009014,0.045));
#1636=CARTESIAN_POINT('',(-0.0425869170139482,0.0108806161009014,0.02));
#1637=CARTESIAN_POINT('',(-0.0355869170139482,0.0108806161009014,0.02));
#1638=CARTESIAN_POINT('',(-0.0425869170139482,0.0108806161009014,0.02));
#1639=CARTESIAN_POINT('',(-0.0355869170139482,0.0108806161009014,0.02));
#1640=CARTESIAN_POINT('',(-0.0355869170139482,0.0314675331148496,0.02));
#1641=CARTESIAN_POINT('',(0.0364130829860518,0.0384675335916496,0.02));
#1642=CARTESIAN_POINT('',(0.0276196246653422,0.0384675335916496,0.0400000005215406));
#1643=CARTESIAN_POINT('',(0.0238261664191384,0.0384675335916496,0.0400000005215406));
#1644=CARTESIAN_POINT('',(0.0188261663446326,0.0384675335916496,0.0400000005215406));
#1645=CARTESIAN_POINT('',(0.0188261663446326,0.0384675335916496,0.0275000002235174));
#1646=CARTESIAN_POINT('',(0.0188261663446326,0.0384675335916496,0.0350000004470348));
#1647=CARTESIAN_POINT('',(0.0301196247025951,0.0384675335916496,0.0350000004470348));
#1648=CARTESIAN_POINT('',(0.0238261664191384,0.0384675335916496,0.0350000004470348));
#1649=CARTESIAN_POINT('',(0.0238261664191384,0.0384675335916496,0.0300000002607703));
#1650=CARTESIAN_POINT('',(-0.025000000372529,0.0384675335916496,0.0300000002607703));
#1651=CARTESIAN_POINT('',(-0.025000000372529,0.0384675335916496,0.0350000004470348));
#1652=CARTESIAN_POINT('',(-0.025000000372529,0.0384675335916496,0.0400000005215406));
#1653=CARTESIAN_POINT('',(0.00320654126950847,0.0384675335916496,0.0400000005215406));
#1654=CARTESIAN_POINT('',(-0.0300000004470348,0.0384675335916496,0.0400000005215406));
#1655=CARTESIAN_POINT('',(-0.0300000004470348,0.0384675335916496,0.0275000002235174));
#1656=CARTESIAN_POINT('',(-0.0300000004470348,0.0384675335916496,0.0350000004470348));
#1657=CARTESIAN_POINT('',(0.00570654130676137,0.0384675335916496,0.0350000004470348));
#1658=CARTESIAN_POINT('',(-0.0425869170139482,0.0384675335916496,0.02));
#1659=CARTESIAN_POINT('',(0.0364130829860518,0.0384675335916496,0.02));
#1660=CARTESIAN_POINT('',(0.0364130829860518,-0.0345018710613383,0.02));
#1661=CARTESIAN_POINT('',(0.0364130829860518,0.0382408799039046,0.02));
#1662=CARTESIAN_POINT('',(0.0364130829860518,0.0119828312651557,0.02));
#1663=CARTESIAN_POINT('',(0.0294130829860518,0.0119828312651557,0.02));
#1664=CARTESIAN_POINT('',(0.0294130829860518,0.0119828312651557,0.02));
#1665=CARTESIAN_POINT('',(0.0294130829860518,-0.00801716873484434,0.02));
#1666=CARTESIAN_POINT('',(0.0294130829860518,0.0314675331148496,0.02));
#1667=CARTESIAN_POINT('',(-0.0355869170139482,0.0314675331148496,0.02));
#1668=CARTESIAN_POINT('',(-0.00838037533465781,0.0314675331148496,0.0400000005215406));
#1669=CARTESIAN_POINT('',(0.0188261663446326,0.0314675331148496,0.0400000005215406));
#1670=CARTESIAN_POINT('',(0.0238261664191384,0.0314675331148496,0.0400000005215406));
#1671=CARTESIAN_POINT('',(0.0238261664191384,0.0314675331148496,0.0300000002607703));
#1672=CARTESIAN_POINT('',(0.0238261664191384,0.0314675331148496,0.0350000004470348));
#1673=CARTESIAN_POINT('',(-0.00588037529740491,0.0314675331148496,0.0350000004470348));
#1674=CARTESIAN_POINT('',(0.0188261663446326,0.0314675331148496,0.0350000004470348));
#1675=CARTESIAN_POINT('',(0.0188261663446326,0.0314675331148496,0.0275000002235174));
#1676=CARTESIAN_POINT('',(-0.025000000372529,0.0314675331148496,0.0300000002607703));
#1677=CARTESIAN_POINT('',(-0.025000000372529,0.0314675331148496,0.0400000005215406));
#1678=CARTESIAN_POINT('',(-0.025000000372529,0.0314675331148496,0.0350000004470348));
#1679=CARTESIAN_POINT('',(-0.0302934586932386,0.0314675331148496,0.0350000004470348));
#1680=CARTESIAN_POINT('',(-0.0300000004470348,0.0314675331148496,0.0350000004470348));
#1681=CARTESIAN_POINT('',(-0.0300000004470348,0.0314675331148496,0.0275000002235174));
#1682=CARTESIAN_POINT('',(-0.0300000004470348,0.0314675331148496,0.0400000005215406));
#1683=CARTESIAN_POINT('',(-0.0327934587304915,0.0314675331148496,0.0400000005215406));
#1684=CARTESIAN_POINT('',(0.0238261664191384,-0.0345018710613383,0.0400000005215406));
#1685=CARTESIAN_POINT('',(0.0238261664191384,-0.0345018710613383,0.0400000005215406));
#1686=CARTESIAN_POINT('',(0.0238261664191384,-0.0345018710613383,0.0350000004470348));
#1687=CARTESIAN_POINT('',(-0.0300000004470348,-0.0345018710613383,0.0400000005215406));
#1688=CARTESIAN_POINT('',(0.0188261663446326,-0.0345018710613383,0.0400000005215406));
#1689=CARTESIAN_POINT('',(-0.0300000004470348,-0.0345018710613383,0.0400000005215406));
#1690=CARTESIAN_POINT('',(0.0238261664191384,-0.0345018710613383,0.0400000005215406));
#1691=CARTESIAN_POINT('',(0.0188261663446326,-0.0345018710613383,0.0400000005215406));
#1692=CARTESIAN_POINT('',(0.0238261664191384,-0.0345018710613383,0.0400000005215406));
#1693=CARTESIAN_POINT('',(0.0238261664191384,-0.0345018710613383,0.0350000004470348));
#1694=CARTESIAN_POINT('',(0.0188261663446326,-0.0345018710613383,0.0350000004470348));
#1695=CARTESIAN_POINT('',(0.0188261663446326,-0.0345018710613383,0.0350000004470348));
#1696=CARTESIAN_POINT('',(0.0188261663446326,-0.0345018710613383,0.0350000004470348));
#1697=CARTESIAN_POINT('',(0.0188261663446326,-0.0345018710613383,0.0350000004470348));
#1698=CARTESIAN_POINT('',(-0.025000000372529,-0.0345018710613383,0.0350000004470348));
#1699=CARTESIAN_POINT('',(-0.025000000372529,-0.0345018710613383,0.0350000004470348));
#1700=CARTESIAN_POINT('',(-0.025000000372529,-0.0345018710613383,0.0350000004470348));
#1701=CARTESIAN_POINT('',(-0.025000000372529,-0.0345018710613383,0.0350000004470348));
#1702=CARTESIAN_POINT('',(-0.0300000004470348,-0.0345018710613383,0.0350000004470348));
#1703=CARTESIAN_POINT('',(-0.025000000372529,-0.0345018710613383,0.0400000005215406));
#1704=CARTESIAN_POINT('',(-0.025000000372529,-0.0345018710613383,0.0400000005215406));
#1705=CARTESIAN_POINT('',(-0.025000000372529,-0.0345018710613383,0.0400000005215406));
#1706=CARTESIAN_POINT('',(-0.025000000372529,-0.0345018710613383,0.0350000004470348));
#1707=CARTESIAN_POINT('',(-0.025000000372529,-0.0345018710613383,0.0400000005215406));
#1708=CARTESIAN_POINT('',(-0.025000000372529,-0.0345018710613383,0.0350000004470348));
#1709=CARTESIAN_POINT('',(-0.0300000004470348,-0.0345018710613383,0.0350000004470348));
#1710=CARTESIAN_POINT('',(-0.0300000004470348,-0.0345018710613383,0.0400000005215406));
#1711=CARTESIAN_POINT('',(-0.0300000004470348,-0.0345018710613383,0.0400000005215406));
#1712=CARTESIAN_POINT('',(-0.0300000004470348,-0.0345018710613383,0.0400000005215406));
#1713=CARTESIAN_POINT('',(-0.0300000004470348,-0.0345018710613383,0.0400000005215406));
#1714=CARTESIAN_POINT('',(-0.0300000004470348,-0.0345018710613383,0.0350000004470348));
#1715=CARTESIAN_POINT('',(-0.0300000004470348,-0.0345018710613383,0.0350000004470348));
#1716=CARTESIAN_POINT('',(0.0364130829860518,-0.0345018710613383,0.02));
#1717=CARTESIAN_POINT('',(0.0364130829860518,-0.0342591200960954,0.02));
#1718=CARTESIAN_POINT('',(0.0414130829860518,-0.0342591200960954,0.02));
#1719=CARTESIAN_POINT('',(-0.0600679657429788,-0.0292591200960954,0.02));
#1720=CARTESIAN_POINT('',(-0.0475869170139482,-0.0292591200960954,0.02));
#1721=CARTESIAN_POINT('',(-0.0475869170139482,-0.0342591200960954,0.02));
#1722=CARTESIAN_POINT('',(-0.0425869170139482,0.0384675335916496,0.02));
#1723=CARTESIAN_POINT('',(-0.0425869170139482,0.0382408799039046,0.02));
#1724=CARTESIAN_POINT('',(-0.0475869170139482,0.0382408799039046,0.02));
#1725=CARTESIAN_POINT('',(0.0484320342570212,0.0332408799039046,0.02));
#1726=CARTESIAN_POINT('',(0.0414130829860518,0.0332408799039046,0.02));
#1727=CARTESIAN_POINT('',(0.0414130829860518,0.0382408799039046,0.02));
#1728=MECHANICAL_DESIGN_GEOMETRIC_PRESENTATION_REPRESENTATION('',(#1069),
#1729);
#1729=(
GEOMETRIC_REPRESENTATION_CONTEXT(3)
GLOBAL_UNCERTAINTY_ASSIGNED_CONTEXT((#1730))
GLOBAL_UNIT_ASSIGNED_CONTEXT((#1733,#1732,#1731))
REPRESENTATION_CONTEXT('GPS CaseCap v7','TOP_LEVEL_ASSEMBLY_PART')
);
#1730=UNCERTAINTY_MEASURE_WITH_UNIT(LENGTH_MEASURE(1.E-6),#1733,
'DISTANCE_ACCURACY_VALUE','Maximum Tolerance applied to model');
#1731=(
NAMED_UNIT(*)
SI_UNIT($,.STERADIAN.)
SOLID_ANGLE_UNIT()
);
#1732=(
NAMED_UNIT(*)
PLANE_ANGLE_UNIT()
SI_UNIT($,.RADIAN.)
);
#1733=(
LENGTH_UNIT()
NAMED_UNIT(*)
SI_UNIT($,.METRE.)
);
#1734=PRODUCT_DEFINITION_SHAPE('','',#1735);
#1735=PRODUCT_DEFINITION('','',#1737,#1736);
#1736=PRODUCT_DEFINITION_CONTEXT('',#1743,'design');
#1737=PRODUCT_DEFINITION_FORMATION_WITH_SPECIFIED_SOURCE('','',#1739,
 .NOT_KNOWN.);
#1738=PRODUCT_RELATED_PRODUCT_CATEGORY('','',(#1739));
#1739=PRODUCT('GPS CaseCap v7','GPS CaseCap v7','GPS CaseCap v7',(#1741));
#1740=PRODUCT_CATEGORY('','');
#1741=PRODUCT_CONTEXT('',#1743,'mechanical');
#1742=APPLICATION_PROTOCOL_DEFINITION('international standard',
'ap242_managed_model_based_3d_engineering',2020,#1743);
#1743=APPLICATION_CONTEXT('managed model based 3d engineering');
ENDSEC;
END-ISO-10303-21;
