ISO-10303-21;
HEADER;
/* Generated by software containing ST-Developer
 * from STEP Tools, Inc. (www.steptools.com) 
 */
/* OPTION: using custom renumber hook */

FILE_DESCRIPTION(
/* description */ ('STEP AP242 Edition 2',
'CAx-IF Rec.Pracs.---Representation and Presentation of Product Manufa
cturing Information (PMI)---4.0---2014-10-13',
'CAx-IF Rec.Pracs.---3D Tessellated Geometry---0.4---2014-09-14','2;1',
'CAx-IF Rec.Pracs.---User Defined Attributes---1.5---2016-08-15'),
/* implementation_level */ '2;1');

FILE_NAME(
/* name */ 'Servo PCB - Servo PCB Case',
/* time_stamp */ '2026-06-05T01:46:01Z',
/* author */ (''),
/* organization */ (''),
/* preprocessor_version */ 'ST-DEVELOPER v20',
/* originating_system */ 'ONSHAPE BY PTC INC, 1.215',
/* authorisation */ '  ');

FILE_SCHEMA (('AP242_MANAGED_MODEL_BASED_3D_ENGINEERING_MIM_LF { 1 0 10303 442 3 1 4 }'));
ENDSEC;

DATA;
#10=SHAPE_REPRESENTATION_RELATIONSHIP('','',#901,#11);
#11=ADVANCED_BREP_SHAPE_REPRESENTATION('',(#899),#1523);
#12=CYLINDRICAL_SURFACE('',#921,0.004);
#13=CYLINDRICAL_SURFACE('',#925,0.004);
#14=CYLINDRICAL_SURFACE('',#929,0.00225);
#15=CYLINDRICAL_SURFACE('',#931,0.0015);
#16=CYLINDRICAL_SURFACE('',#933,0.00225);
#17=CYLINDRICAL_SURFACE('',#935,0.0015);
#18=CYLINDRICAL_SURFACE('',#941,0.004);
#19=CYLINDRICAL_SURFACE('',#944,0.00135);
#20=CYLINDRICAL_SURFACE('',#946,0.00135);
#21=CYLINDRICAL_SURFACE('',#948,0.004);
#22=CYLINDRICAL_SURFACE('',#965,0.002);
#23=CYLINDRICAL_SURFACE('',#968,0.002);
#24=CYLINDRICAL_SURFACE('',#970,0.002);
#25=CYLINDRICAL_SURFACE('',#972,0.002);
#26=CYLINDRICAL_SURFACE('',#975,0.002);
#27=CYLINDRICAL_SURFACE('',#982,0.002);
#28=CYLINDRICAL_SURFACE('',#984,0.002);
#29=CYLINDRICAL_SURFACE('',#985,0.002);
#30=CYLINDRICAL_SURFACE('',#987,0.002);
#31=CYLINDRICAL_SURFACE('',#989,0.002);
#32=CYLINDRICAL_SURFACE('',#991,0.002);
#33=CYLINDRICAL_SURFACE('',#993,0.002);
#34=CYLINDRICAL_SURFACE('',#996,0.0025);
#35=CYLINDRICAL_SURFACE('',#999,0.0025);
#36=LINE('',#1281,#108);
#37=LINE('',#1285,#109);
#38=LINE('',#1289,#110);
#39=LINE('',#1293,#111);
#40=LINE('',#1297,#112);
#41=LINE('',#1301,#113);
#42=LINE('',#1310,#114);
#43=LINE('',#1314,#115);
#44=LINE('',#1318,#116);
#45=LINE('',#1322,#117);
#46=LINE('',#1324,#118);
#47=LINE('',#1326,#119);
#48=LINE('',#1330,#120);
#49=LINE('',#1332,#121);
#50=LINE('',#1334,#122);
#51=LINE('',#1336,#123);
#52=LINE('',#1338,#124);
#53=LINE('',#1340,#125);
#54=LINE('',#1342,#126);
#55=LINE('',#1344,#127);
#56=LINE('',#1348,#128);
#57=LINE('',#1350,#129);
#58=LINE('',#1352,#130);
#59=LINE('',#1354,#131);
#60=LINE('',#1356,#132);
#61=LINE('',#1358,#133);
#62=LINE('',#1392,#134);
#63=LINE('',#1395,#135);
#64=LINE('',#1397,#136);
#65=LINE('',#1401,#137);
#66=LINE('',#1405,#138);
#67=LINE('',#1408,#139);
#68=LINE('',#1410,#140);
#69=LINE('',#1414,#141);
#70=LINE('',#1418,#142);
#71=LINE('',#1421,#143);
#72=LINE('',#1423,#144);
#73=LINE('',#1427,#145);
#74=LINE('',#1431,#146);
#75=LINE('',#1434,#147);
#76=LINE('',#1436,#148);
#77=LINE('',#1440,#149);
#78=LINE('',#1446,#150);
#79=LINE('',#1448,#151);
#80=LINE('',#1449,#152);
#81=LINE('',#1450,#153);
#82=LINE('',#1452,#154);
#83=LINE('',#1458,#155);
#84=LINE('',#1460,#156);
#85=LINE('',#1464,#157);
#86=LINE('',#1466,#158);
#87=LINE('',#1467,#159);
#88=LINE('',#1469,#160);
#89=LINE('',#1471,#161);
#90=LINE('',#1472,#162);
#91=LINE('',#1473,#163);
#92=LINE('',#1475,#164);
#93=LINE('',#1477,#165);
#94=LINE('',#1482,#166);
#95=LINE('',#1483,#167);
#96=LINE('',#1487,#168);
#97=LINE('',#1493,#169);
#98=LINE('',#1495,#170);
#99=LINE('',#1497,#171);
#100=LINE('',#1499,#172);
#101=LINE('',#1500,#173);
#102=LINE('',#1502,#174);
#103=LINE('',#1504,#175);
#104=LINE('',#1505,#176);
#105=LINE('',#1508,#177);
#106=LINE('',#1510,#178);
#107=LINE('',#1512,#179);
#108=VECTOR('',#1014,1.);
#109=VECTOR('',#1017,1.);
#110=VECTOR('',#1020,1.);
#111=VECTOR('',#1023,1.);
#112=VECTOR('',#1026,1.);
#113=VECTOR('',#1029,1.);
#114=VECTOR('',#1038,1.);
#115=VECTOR('',#1041,1.);
#116=VECTOR('',#1044,1.);
#117=VECTOR('',#1047,1.);
#118=VECTOR('',#1050,1.);
#119=VECTOR('',#1051,1.);
#120=VECTOR('',#1056,1.);
#121=VECTOR('',#1057,1.);
#122=VECTOR('',#1058,1.);
#123=VECTOR('',#1061,1.);
#124=VECTOR('',#1062,1.);
#125=VECTOR('',#1063,1.);
#126=VECTOR('',#1064,1.);
#127=VECTOR('',#1067,1.);
#128=VECTOR('',#1072,1.);
#129=VECTOR('',#1073,1.);
#130=VECTOR('',#1074,1.);
#131=VECTOR('',#1077,1.);
#132=VECTOR('',#1078,1.);
#133=VECTOR('',#1079,1.);
#134=VECTOR('',#1130,1.);
#135=VECTOR('',#1131,1.);
#136=VECTOR('',#1132,1.);
#137=VECTOR('',#1135,1.);
#138=VECTOR('',#1140,1.);
#139=VECTOR('',#1141,1.);
#140=VECTOR('',#1142,1.);
#141=VECTOR('',#1145,1.);
#142=VECTOR('',#1150,1.);
#143=VECTOR('',#1151,1.);
#144=VECTOR('',#1152,1.);
#145=VECTOR('',#1155,1.);
#146=VECTOR('',#1160,1.);
#147=VECTOR('',#1161,1.);
#148=VECTOR('',#1162,1.);
#149=VECTOR('',#1165,1.);
#150=VECTOR('',#1172,1.);
#151=VECTOR('',#1175,1.);
#152=VECTOR('',#1176,1.);
#153=VECTOR('',#1177,1.);
#154=VECTOR('',#1178,1.);
#155=VECTOR('',#1187,1.);
#156=VECTOR('',#1190,1.);
#157=VECTOR('',#1193,1.);
#158=VECTOR('',#1196,1.);
#159=VECTOR('',#1197,1.);
#160=VECTOR('',#1200,1.);
#161=VECTOR('',#1203,1.);
#162=VECTOR('',#1204,1.);
#163=VECTOR('',#1205,1.);
#164=VECTOR('',#1206,1.);
#165=VECTOR('',#1209,1.);
#166=VECTOR('',#1212,1.);
#167=VECTOR('',#1213,1.);
#168=VECTOR('',#1216,1.);
#169=VECTOR('',#1225,1.);
#170=VECTOR('',#1228,1.);
#171=VECTOR('',#1231,1.);
#172=VECTOR('',#1234,1.);
#173=VECTOR('',#1235,1.);
#174=VECTOR('',#1238,1.);
#175=VECTOR('',#1241,1.);
#176=VECTOR('',#1242,1.);
#177=VECTOR('',#1247,1.);
#178=VECTOR('',#1250,1.);
#179=VECTOR('',#1253,1.);
#180=ORIENTED_EDGE('',*,*,#420,.T.);
#181=ORIENTED_EDGE('',*,*,#421,.T.);
#182=ORIENTED_EDGE('',*,*,#422,.T.);
#183=ORIENTED_EDGE('',*,*,#423,.T.);
#184=ORIENTED_EDGE('',*,*,#424,.F.);
#185=ORIENTED_EDGE('',*,*,#425,.T.);
#186=ORIENTED_EDGE('',*,*,#426,.T.);
#187=ORIENTED_EDGE('',*,*,#427,.T.);
#188=ORIENTED_EDGE('',*,*,#428,.F.);
#189=ORIENTED_EDGE('',*,*,#429,.T.);
#190=ORIENTED_EDGE('',*,*,#430,.F.);
#191=ORIENTED_EDGE('',*,*,#431,.T.);
#192=ORIENTED_EDGE('',*,*,#432,.T.);
#193=ORIENTED_EDGE('',*,*,#433,.T.);
#194=ORIENTED_EDGE('',*,*,#434,.F.);
#195=ORIENTED_EDGE('',*,*,#435,.T.);
#196=ORIENTED_EDGE('',*,*,#436,.T.);
#197=ORIENTED_EDGE('',*,*,#437,.T.);
#198=ORIENTED_EDGE('',*,*,#438,.T.);
#199=ORIENTED_EDGE('',*,*,#439,.T.);
#200=ORIENTED_EDGE('',*,*,#440,.T.);
#201=ORIENTED_EDGE('',*,*,#441,.T.);
#202=ORIENTED_EDGE('',*,*,#442,.T.);
#203=ORIENTED_EDGE('',*,*,#443,.T.);
#204=ORIENTED_EDGE('',*,*,#444,.T.);
#205=ORIENTED_EDGE('',*,*,#445,.T.);
#206=ORIENTED_EDGE('',*,*,#446,.T.);
#207=ORIENTED_EDGE('',*,*,#426,.F.);
#208=ORIENTED_EDGE('',*,*,#447,.T.);
#209=ORIENTED_EDGE('',*,*,#448,.F.);
#210=ORIENTED_EDGE('',*,*,#449,.F.);
#211=ORIENTED_EDGE('',*,*,#427,.F.);
#212=ORIENTED_EDGE('',*,*,#446,.F.);
#213=ORIENTED_EDGE('',*,*,#450,.T.);
#214=ORIENTED_EDGE('',*,*,#451,.F.);
#215=ORIENTED_EDGE('',*,*,#452,.F.);
#216=ORIENTED_EDGE('',*,*,#453,.F.);
#217=ORIENTED_EDGE('',*,*,#454,.F.);
#218=ORIENTED_EDGE('',*,*,#455,.F.);
#219=ORIENTED_EDGE('',*,*,#431,.F.);
#220=ORIENTED_EDGE('',*,*,#456,.F.);
#221=ORIENTED_EDGE('',*,*,#432,.F.);
#222=ORIENTED_EDGE('',*,*,#455,.T.);
#223=ORIENTED_EDGE('',*,*,#457,.F.);
#224=ORIENTED_EDGE('',*,*,#458,.F.);
#225=ORIENTED_EDGE('',*,*,#433,.F.);
#226=ORIENTED_EDGE('',*,*,#456,.T.);
#227=ORIENTED_EDGE('',*,*,#459,.T.);
#228=ORIENTED_EDGE('',*,*,#460,.F.);
#229=ORIENTED_EDGE('',*,*,#461,.F.);
#230=ORIENTED_EDGE('',*,*,#462,.F.);
#231=ORIENTED_EDGE('',*,*,#463,.F.);
#232=ORIENTED_EDGE('',*,*,#447,.F.);
#233=ORIENTED_EDGE('',*,*,#425,.F.);
#234=ORIENTED_EDGE('',*,*,#464,.F.);
#235=ORIENTED_EDGE('',*,*,#423,.F.);
#236=ORIENTED_EDGE('',*,*,#465,.F.);
#237=ORIENTED_EDGE('',*,*,#422,.F.);
#238=ORIENTED_EDGE('',*,*,#466,.F.);
#239=ORIENTED_EDGE('',*,*,#421,.F.);
#240=ORIENTED_EDGE('',*,*,#467,.F.);
#241=ORIENTED_EDGE('',*,*,#420,.F.);
#242=ORIENTED_EDGE('',*,*,#468,.T.);
#243=ORIENTED_EDGE('',*,*,#469,.T.);
#244=ORIENTED_EDGE('',*,*,#470,.T.);
#245=ORIENTED_EDGE('',*,*,#454,.T.);
#246=ORIENTED_EDGE('',*,*,#471,.F.);
#247=ORIENTED_EDGE('',*,*,#459,.F.);
#248=ORIENTED_EDGE('',*,*,#469,.F.);
#249=ORIENTED_EDGE('',*,*,#472,.F.);
#250=ORIENTED_EDGE('',*,*,#468,.F.);
#251=ORIENTED_EDGE('',*,*,#473,.F.);
#252=ORIENTED_EDGE('',*,*,#474,.T.);
#253=ORIENTED_EDGE('',*,*,#463,.T.);
#254=ORIENTED_EDGE('',*,*,#475,.F.);
#255=ORIENTED_EDGE('',*,*,#450,.F.);
#256=ORIENTED_EDGE('',*,*,#466,.T.);
#257=ORIENTED_EDGE('',*,*,#474,.F.);
#258=ORIENTED_EDGE('',*,*,#448,.T.);
#259=ORIENTED_EDGE('',*,*,#464,.T.);
#260=ORIENTED_EDGE('',*,*,#457,.T.);
#261=ORIENTED_EDGE('',*,*,#470,.F.);
#262=ORIENTED_EDGE('',*,*,#476,.F.);
#263=ORIENTED_EDGE('',*,*,#477,.F.);
#264=ORIENTED_EDGE('',*,*,#478,.T.);
#265=ORIENTED_EDGE('',*,*,#479,.F.);
#266=ORIENTED_EDGE('',*,*,#480,.F.);
#267=ORIENTED_EDGE('',*,*,#481,.F.);
#268=ORIENTED_EDGE('',*,*,#482,.T.);
#269=ORIENTED_EDGE('',*,*,#483,.F.);
#270=ORIENTED_EDGE('',*,*,#484,.F.);
#271=ORIENTED_EDGE('',*,*,#485,.F.);
#272=ORIENTED_EDGE('',*,*,#486,.F.);
#273=ORIENTED_EDGE('',*,*,#487,.F.);
#274=ORIENTED_EDGE('',*,*,#488,.F.);
#275=ORIENTED_EDGE('',*,*,#489,.F.);
#276=ORIENTED_EDGE('',*,*,#490,.F.);
#277=ORIENTED_EDGE('',*,*,#491,.F.);
#278=ORIENTED_EDGE('',*,*,#492,.F.);
#279=ORIENTED_EDGE('',*,*,#493,.F.);
#280=ORIENTED_EDGE('',*,*,#494,.F.);
#281=ORIENTED_EDGE('',*,*,#495,.F.);
#282=ORIENTED_EDGE('',*,*,#496,.F.);
#283=ORIENTED_EDGE('',*,*,#497,.F.);
#284=ORIENTED_EDGE('',*,*,#498,.F.);
#285=ORIENTED_EDGE('',*,*,#499,.F.);
#286=ORIENTED_EDGE('',*,*,#500,.T.);
#287=ORIENTED_EDGE('',*,*,#501,.T.);
#288=ORIENTED_EDGE('',*,*,#428,.T.);
#289=ORIENTED_EDGE('',*,*,#449,.T.);
#290=ORIENTED_EDGE('',*,*,#502,.T.);
#291=ORIENTED_EDGE('',*,*,#489,.T.);
#292=ORIENTED_EDGE('',*,*,#503,.T.);
#293=ORIENTED_EDGE('',*,*,#477,.T.);
#294=ORIENTED_EDGE('',*,*,#504,.F.);
#295=ORIENTED_EDGE('',*,*,#429,.F.);
#296=ORIENTED_EDGE('',*,*,#501,.F.);
#297=ORIENTED_EDGE('',*,*,#505,.F.);
#298=ORIENTED_EDGE('',*,*,#506,.T.);
#299=ORIENTED_EDGE('',*,*,#452,.T.);
#300=ORIENTED_EDGE('',*,*,#430,.T.);
#301=ORIENTED_EDGE('',*,*,#504,.T.);
#302=ORIENTED_EDGE('',*,*,#507,.T.);
#303=ORIENTED_EDGE('',*,*,#508,.T.);
#304=ORIENTED_EDGE('',*,*,#434,.T.);
#305=ORIENTED_EDGE('',*,*,#458,.T.);
#306=ORIENTED_EDGE('',*,*,#485,.T.);
#307=ORIENTED_EDGE('',*,*,#509,.T.);
#308=ORIENTED_EDGE('',*,*,#510,.T.);
#309=ORIENTED_EDGE('',*,*,#511,.T.);
#310=ORIENTED_EDGE('',*,*,#512,.F.);
#311=ORIENTED_EDGE('',*,*,#441,.F.);
#312=ORIENTED_EDGE('',*,*,#513,.F.);
#313=ORIENTED_EDGE('',*,*,#498,.T.);
#314=ORIENTED_EDGE('',*,*,#440,.F.);
#315=ORIENTED_EDGE('',*,*,#514,.T.);
#316=ORIENTED_EDGE('',*,*,#499,.T.);
#317=ORIENTED_EDGE('',*,*,#513,.T.);
#318=ORIENTED_EDGE('',*,*,#515,.T.);
#319=ORIENTED_EDGE('',*,*,#483,.T.);
#320=ORIENTED_EDGE('',*,*,#516,.T.);
#321=ORIENTED_EDGE('',*,*,#495,.T.);
#322=ORIENTED_EDGE('',*,*,#517,.F.);
#323=ORIENTED_EDGE('',*,*,#435,.F.);
#324=ORIENTED_EDGE('',*,*,#508,.F.);
#325=ORIENTED_EDGE('',*,*,#518,.F.);
#326=ORIENTED_EDGE('',*,*,#519,.T.);
#327=ORIENTED_EDGE('',*,*,#520,.F.);
#328=ORIENTED_EDGE('',*,*,#521,.T.);
#329=ORIENTED_EDGE('',*,*,#510,.F.);
#330=ORIENTED_EDGE('',*,*,#522,.T.);
#331=ORIENTED_EDGE('',*,*,#523,.F.);
#332=ORIENTED_EDGE('',*,*,#524,.T.);
#333=ORIENTED_EDGE('',*,*,#525,.F.);
#334=ORIENTED_EDGE('',*,*,#473,.T.);
#335=ORIENTED_EDGE('',*,*,#472,.T.);
#336=ORIENTED_EDGE('',*,*,#526,.F.);
#337=ORIENTED_EDGE('',*,*,#518,.T.);
#338=ORIENTED_EDGE('',*,*,#507,.F.);
#339=ORIENTED_EDGE('',*,*,#460,.T.);
#340=ORIENTED_EDGE('',*,*,#471,.T.);
#341=ORIENTED_EDGE('',*,*,#453,.T.);
#342=ORIENTED_EDGE('',*,*,#506,.F.);
#343=ORIENTED_EDGE('',*,*,#505,.T.);
#344=ORIENTED_EDGE('',*,*,#500,.F.);
#345=ORIENTED_EDGE('',*,*,#451,.T.);
#346=ORIENTED_EDGE('',*,*,#475,.T.);
#347=ORIENTED_EDGE('',*,*,#462,.T.);
#348=ORIENTED_EDGE('',*,*,#526,.T.);
#349=ORIENTED_EDGE('',*,*,#461,.T.);
#350=ORIENTED_EDGE('',*,*,#424,.T.);
#351=ORIENTED_EDGE('',*,*,#517,.T.);
#352=ORIENTED_EDGE('',*,*,#527,.F.);
#353=ORIENTED_EDGE('',*,*,#486,.T.);
#354=ORIENTED_EDGE('',*,*,#511,.F.);
#355=ORIENTED_EDGE('',*,*,#521,.F.);
#356=ORIENTED_EDGE('',*,*,#487,.T.);
#357=ORIENTED_EDGE('',*,*,#527,.T.);
#358=ORIENTED_EDGE('',*,*,#520,.T.);
#359=ORIENTED_EDGE('',*,*,#528,.T.);
#360=ORIENTED_EDGE('',*,*,#442,.F.);
#361=ORIENTED_EDGE('',*,*,#512,.T.);
#362=ORIENTED_EDGE('',*,*,#497,.T.);
#363=ORIENTED_EDGE('',*,*,#529,.T.);
#364=ORIENTED_EDGE('',*,*,#530,.F.);
#365=ORIENTED_EDGE('',*,*,#443,.F.);
#366=ORIENTED_EDGE('',*,*,#529,.F.);
#367=ORIENTED_EDGE('',*,*,#496,.T.);
#368=ORIENTED_EDGE('',*,*,#516,.F.);
#369=ORIENTED_EDGE('',*,*,#482,.F.);
#370=ORIENTED_EDGE('',*,*,#528,.F.);
#371=ORIENTED_EDGE('',*,*,#519,.F.);
#372=ORIENTED_EDGE('',*,*,#531,.F.);
#373=ORIENTED_EDGE('',*,*,#478,.F.);
#374=ORIENTED_EDGE('',*,*,#503,.F.);
#375=ORIENTED_EDGE('',*,*,#488,.T.);
#376=ORIENTED_EDGE('',*,*,#479,.T.);
#377=ORIENTED_EDGE('',*,*,#531,.T.);
#378=ORIENTED_EDGE('',*,*,#525,.T.);
#379=ORIENTED_EDGE('',*,*,#532,.T.);
#380=ORIENTED_EDGE('',*,*,#533,.F.);
#381=ORIENTED_EDGE('',*,*,#445,.F.);
#382=ORIENTED_EDGE('',*,*,#534,.F.);
#383=ORIENTED_EDGE('',*,*,#492,.T.);
#384=ORIENTED_EDGE('',*,*,#444,.F.);
#385=ORIENTED_EDGE('',*,*,#530,.T.);
#386=ORIENTED_EDGE('',*,*,#493,.T.);
#387=ORIENTED_EDGE('',*,*,#534,.T.);
#388=ORIENTED_EDGE('',*,*,#535,.F.);
#389=ORIENTED_EDGE('',*,*,#480,.T.);
#390=ORIENTED_EDGE('',*,*,#532,.F.);
#391=ORIENTED_EDGE('',*,*,#524,.F.);
#392=ORIENTED_EDGE('',*,*,#481,.T.);
#393=ORIENTED_EDGE('',*,*,#535,.T.);
#394=ORIENTED_EDGE('',*,*,#523,.T.);
#395=ORIENTED_EDGE('',*,*,#536,.T.);
#396=ORIENTED_EDGE('',*,*,#537,.F.);
#397=ORIENTED_EDGE('',*,*,#490,.T.);
#398=ORIENTED_EDGE('',*,*,#502,.F.);
#399=ORIENTED_EDGE('',*,*,#476,.T.);
#400=ORIENTED_EDGE('',*,*,#536,.F.);
#401=ORIENTED_EDGE('',*,*,#522,.F.);
#402=ORIENTED_EDGE('',*,*,#509,.F.);
#403=ORIENTED_EDGE('',*,*,#484,.T.);
#404=ORIENTED_EDGE('',*,*,#515,.F.);
#405=ORIENTED_EDGE('',*,*,#494,.T.);
#406=ORIENTED_EDGE('',*,*,#514,.F.);
#407=ORIENTED_EDGE('',*,*,#439,.F.);
#408=ORIENTED_EDGE('',*,*,#438,.F.);
#409=ORIENTED_EDGE('',*,*,#533,.T.);
#410=ORIENTED_EDGE('',*,*,#491,.T.);
#411=ORIENTED_EDGE('',*,*,#537,.T.);
#412=ORIENTED_EDGE('',*,*,#467,.T.);
#413=ORIENTED_EDGE('',*,*,#538,.T.);
#414=ORIENTED_EDGE('',*,*,#436,.F.);
#415=ORIENTED_EDGE('',*,*,#538,.F.);
#416=ORIENTED_EDGE('',*,*,#465,.T.);
#417=ORIENTED_EDGE('',*,*,#539,.T.);
#418=ORIENTED_EDGE('',*,*,#437,.F.);
#419=ORIENTED_EDGE('',*,*,#539,.F.);
#420=EDGE_CURVE('',#540,#540,#624,.T.);
#421=EDGE_CURVE('',#541,#541,#625,.T.);
#422=EDGE_CURVE('',#542,#542,#626,.T.);
#423=EDGE_CURVE('',#543,#543,#627,.T.);
#424=EDGE_CURVE('',#544,#545,#628,.T.);
#425=EDGE_CURVE('',#544,#546,#36,.T.);
#426=EDGE_CURVE('',#546,#547,#629,.T.);
#427=EDGE_CURVE('',#547,#548,#37,.T.);
#428=EDGE_CURVE('',#549,#548,#630,.T.);
#429=EDGE_CURVE('',#549,#550,#38,.T.);
#430=EDGE_CURVE('',#551,#550,#631,.T.);
#431=EDGE_CURVE('',#551,#552,#39,.T.);
#432=EDGE_CURVE('',#552,#553,#632,.T.);
#433=EDGE_CURVE('',#553,#554,#40,.T.);
#434=EDGE_CURVE('',#555,#554,#633,.T.);
#435=EDGE_CURVE('',#555,#545,#41,.T.);
#436=EDGE_CURVE('',#556,#556,#634,.T.);
#437=EDGE_CURVE('',#557,#557,#635,.T.);
#438=EDGE_CURVE('',#558,#559,#636,.T.);
#439=EDGE_CURVE('',#559,#560,#42,.T.);
#440=EDGE_CURVE('',#560,#561,#637,.T.);
#441=EDGE_CURVE('',#561,#562,#43,.T.);
#442=EDGE_CURVE('',#562,#563,#638,.T.);
#443=EDGE_CURVE('',#563,#564,#44,.T.);
#444=EDGE_CURVE('',#564,#565,#639,.T.);
#445=EDGE_CURVE('',#565,#558,#45,.T.);
#446=EDGE_CURVE('',#566,#547,#46,.T.);
#447=EDGE_CURVE('',#546,#567,#47,.T.);
#448=EDGE_CURVE('',#566,#567,#640,.T.);
#449=EDGE_CURVE('',#548,#568,#48,.T.);
#450=EDGE_CURVE('',#566,#569,#49,.T.);
#451=EDGE_CURVE('',#568,#569,#50,.T.);
#452=EDGE_CURVE('',#570,#551,#51,.T.);
#453=EDGE_CURVE('',#571,#570,#52,.T.);
#454=EDGE_CURVE('',#572,#571,#53,.T.);
#455=EDGE_CURVE('',#552,#572,#54,.T.);
#456=EDGE_CURVE('',#553,#573,#55,.T.);
#457=EDGE_CURVE('',#573,#572,#641,.T.);
#458=EDGE_CURVE('',#554,#574,#56,.T.);
#459=EDGE_CURVE('',#573,#575,#57,.T.);
#460=EDGE_CURVE('',#574,#575,#58,.T.);
#461=EDGE_CURVE('',#576,#544,#59,.T.);
#462=EDGE_CURVE('',#577,#576,#60,.T.);
#463=EDGE_CURVE('',#567,#577,#61,.T.);
#464=EDGE_CURVE('',#578,#578,#642,.T.);
#465=EDGE_CURVE('',#579,#579,#643,.T.);
#466=EDGE_CURVE('',#580,#580,#644,.T.);
#467=EDGE_CURVE('',#581,#581,#645,.T.);
#468=EDGE_CURVE('',#582,#582,#646,.T.);
#469=EDGE_CURVE('',#583,#583,#647,.T.);
#470=EDGE_CURVE('',#573,#572,#648,.T.);
#471=EDGE_CURVE('',#575,#571,#649,.T.);
#472=EDGE_CURVE('',#584,#584,#650,.T.);
#473=EDGE_CURVE('',#585,#585,#651,.T.);
#474=EDGE_CURVE('',#566,#567,#652,.T.);
#475=EDGE_CURVE('',#569,#577,#653,.T.);
#476=EDGE_CURVE('',#586,#587,#62,.T.);
#477=EDGE_CURVE('',#588,#586,#63,.T.);
#478=EDGE_CURVE('',#588,#589,#64,.T.);
#479=EDGE_CURVE('',#590,#589,#654,.T.);
#480=EDGE_CURVE('',#591,#590,#65,.T.);
#481=EDGE_CURVE('',#587,#591,#655,.T.);
#482=EDGE_CURVE('',#592,#593,#66,.T.);
#483=EDGE_CURVE('',#594,#593,#67,.T.);
#484=EDGE_CURVE('',#595,#594,#68,.T.);
#485=EDGE_CURVE('',#596,#595,#656,.T.);
#486=EDGE_CURVE('',#597,#596,#69,.T.);
#487=EDGE_CURVE('',#592,#597,#657,.T.);
#488=EDGE_CURVE('',#598,#599,#70,.T.);
#489=EDGE_CURVE('',#600,#598,#71,.T.);
#490=EDGE_CURVE('',#601,#600,#72,.T.);
#491=EDGE_CURVE('',#602,#601,#658,.T.);
#492=EDGE_CURVE('',#603,#602,#73,.T.);
#493=EDGE_CURVE('',#599,#603,#659,.T.);
#494=EDGE_CURVE('',#604,#605,#74,.T.);
#495=EDGE_CURVE('',#606,#604,#75,.T.);
#496=EDGE_CURVE('',#607,#606,#76,.T.);
#497=EDGE_CURVE('',#608,#607,#660,.T.);
#498=EDGE_CURVE('',#609,#608,#77,.T.);
#499=EDGE_CURVE('',#605,#609,#661,.T.);
#500=EDGE_CURVE('',#568,#610,#662,.T.);
#501=EDGE_CURVE('',#610,#549,#78,.T.);
#502=EDGE_CURVE('',#586,#600,#79,.T.);
#503=EDGE_CURVE('',#598,#588,#80,.T.);
#504=EDGE_CURVE('',#550,#611,#81,.T.);
#505=EDGE_CURVE('',#611,#610,#82,.T.);
#506=EDGE_CURVE('',#611,#570,#663,.T.);
#507=EDGE_CURVE('',#574,#612,#664,.T.);
#508=EDGE_CURVE('',#612,#555,#83,.T.);
#509=EDGE_CURVE('',#595,#613,#84,.T.);
#510=EDGE_CURVE('',#613,#614,#665,.T.);
#511=EDGE_CURVE('',#614,#596,#85,.T.);
#512=EDGE_CURVE('',#562,#608,#86,.T.);
#513=EDGE_CURVE('',#609,#561,#87,.T.);
#514=EDGE_CURVE('',#560,#605,#88,.T.);
#515=EDGE_CURVE('',#604,#594,#89,.T.);
#516=EDGE_CURVE('',#593,#606,#90,.T.);
#517=EDGE_CURVE('',#545,#615,#91,.T.);
#518=EDGE_CURVE('',#615,#612,#92,.T.);
#519=EDGE_CURVE('',#616,#617,#93,.T.);
#520=EDGE_CURVE('',#618,#617,#666,.T.);
#521=EDGE_CURVE('',#618,#614,#94,.T.);
#522=EDGE_CURVE('',#613,#619,#95,.T.);
#523=EDGE_CURVE('',#620,#619,#667,.T.);
#524=EDGE_CURVE('',#620,#621,#96,.T.);
#525=EDGE_CURVE('',#616,#621,#668,.T.);
#526=EDGE_CURVE('',#615,#576,#669,.T.);
#527=EDGE_CURVE('',#597,#618,#97,.T.);
#528=EDGE_CURVE('',#617,#592,#98,.T.);
#529=EDGE_CURVE('',#607,#563,#99,.T.);
#530=EDGE_CURVE('',#564,#599,#100,.T.);
#531=EDGE_CURVE('',#589,#616,#101,.T.);
#532=EDGE_CURVE('',#621,#590,#102,.T.);
#533=EDGE_CURVE('',#558,#602,#103,.T.);
#534=EDGE_CURVE('',#603,#565,#104,.T.);
#535=EDGE_CURVE('',#591,#620,#105,.T.);
#536=EDGE_CURVE('',#619,#587,#106,.T.);
#537=EDGE_CURVE('',#601,#559,#107,.T.);
#538=EDGE_CURVE('',#622,#622,#670,.T.);
#539=EDGE_CURVE('',#623,#623,#671,.T.);
#540=VERTEX_POINT('',#1271);
#541=VERTEX_POINT('',#1273);
#542=VERTEX_POINT('',#1275);
#543=VERTEX_POINT('',#1277);
#544=VERTEX_POINT('',#1279);
#545=VERTEX_POINT('',#1280);
#546=VERTEX_POINT('',#1282);
#547=VERTEX_POINT('',#1284);
#548=VERTEX_POINT('',#1286);
#549=VERTEX_POINT('',#1288);
#550=VERTEX_POINT('',#1290);
#551=VERTEX_POINT('',#1292);
#552=VERTEX_POINT('',#1294);
#553=VERTEX_POINT('',#1296);
#554=VERTEX_POINT('',#1298);
#555=VERTEX_POINT('',#1300);
#556=VERTEX_POINT('',#1304);
#557=VERTEX_POINT('',#1306);
#558=VERTEX_POINT('',#1308);
#559=VERTEX_POINT('',#1309);
#560=VERTEX_POINT('',#1311);
#561=VERTEX_POINT('',#1313);
#562=VERTEX_POINT('',#1315);
#563=VERTEX_POINT('',#1317);
#564=VERTEX_POINT('',#1319);
#565=VERTEX_POINT('',#1321);
#566=VERTEX_POINT('',#1325);
#567=VERTEX_POINT('',#1327);
#568=VERTEX_POINT('',#1331);
#569=VERTEX_POINT('',#1333);
#570=VERTEX_POINT('',#1337);
#571=VERTEX_POINT('',#1339);
#572=VERTEX_POINT('',#1341);
#573=VERTEX_POINT('',#1345);
#574=VERTEX_POINT('',#1349);
#575=VERTEX_POINT('',#1351);
#576=VERTEX_POINT('',#1355);
#577=VERTEX_POINT('',#1357);
#578=VERTEX_POINT('',#1361);
#579=VERTEX_POINT('',#1364);
#580=VERTEX_POINT('',#1367);
#581=VERTEX_POINT('',#1370);
#582=VERTEX_POINT('',#1373);
#583=VERTEX_POINT('',#1376);
#584=VERTEX_POINT('',#1382);
#585=VERTEX_POINT('',#1385);
#586=VERTEX_POINT('',#1393);
#587=VERTEX_POINT('',#1394);
#588=VERTEX_POINT('',#1396);
#589=VERTEX_POINT('',#1398);
#590=VERTEX_POINT('',#1400);
#591=VERTEX_POINT('',#1402);
#592=VERTEX_POINT('',#1406);
#593=VERTEX_POINT('',#1407);
#594=VERTEX_POINT('',#1409);
#595=VERTEX_POINT('',#1411);
#596=VERTEX_POINT('',#1413);
#597=VERTEX_POINT('',#1415);
#598=VERTEX_POINT('',#1419);
#599=VERTEX_POINT('',#1420);
#600=VERTEX_POINT('',#1422);
#601=VERTEX_POINT('',#1424);
#602=VERTEX_POINT('',#1426);
#603=VERTEX_POINT('',#1428);
#604=VERTEX_POINT('',#1432);
#605=VERTEX_POINT('',#1433);
#606=VERTEX_POINT('',#1435);
#607=VERTEX_POINT('',#1437);
#608=VERTEX_POINT('',#1439);
#609=VERTEX_POINT('',#1441);
#610=VERTEX_POINT('',#1445);
#611=VERTEX_POINT('',#1451);
#612=VERTEX_POINT('',#1457);
#613=VERTEX_POINT('',#1461);
#614=VERTEX_POINT('',#1463);
#615=VERTEX_POINT('',#1474);
#616=VERTEX_POINT('',#1478);
#617=VERTEX_POINT('',#1479);
#618=VERTEX_POINT('',#1481);
#619=VERTEX_POINT('',#1484);
#620=VERTEX_POINT('',#1486);
#621=VERTEX_POINT('',#1488);
#622=VERTEX_POINT('',#1516);
#623=VERTEX_POINT('',#1520);
#624=CIRCLE('',#904,0.0015);
#625=CIRCLE('',#905,0.00225);
#626=CIRCLE('',#906,0.0015);
#627=CIRCLE('',#907,0.00225);
#628=CIRCLE('',#908,0.002);
#629=CIRCLE('',#909,0.004);
#630=CIRCLE('',#910,0.002);
#631=CIRCLE('',#911,0.002);
#632=CIRCLE('',#912,0.004);
#633=CIRCLE('',#913,0.002);
#634=CIRCLE('',#915,0.0025);
#635=CIRCLE('',#916,0.0025);
#636=CIRCLE('',#917,0.002);
#637=CIRCLE('',#918,0.002);
#638=CIRCLE('',#919,0.002);
#639=CIRCLE('',#920,0.002);
#640=CIRCLE('',#922,0.004);
#641=CIRCLE('',#926,0.004);
#642=CIRCLE('',#930,0.00225);
#643=CIRCLE('',#932,0.0015);
#644=CIRCLE('',#934,0.00225);
#645=CIRCLE('',#936,0.0015);
#646=CIRCLE('',#938,0.00135);
#647=CIRCLE('',#940,0.00135);
#648=CIRCLE('',#942,0.004);
#649=CIRCLE('',#943,0.004);
#650=CIRCLE('',#945,0.00135);
#651=CIRCLE('',#947,0.00135);
#652=CIRCLE('',#949,0.004);
#653=CIRCLE('',#950,0.004);
#654=CIRCLE('',#954,0.002);
#655=CIRCLE('',#955,0.002);
#656=CIRCLE('',#957,0.002);
#657=CIRCLE('',#958,0.002);
#658=CIRCLE('',#960,0.002);
#659=CIRCLE('',#961,0.002);
#660=CIRCLE('',#963,0.002);
#661=CIRCLE('',#964,0.002);
#662=CIRCLE('',#966,0.002);
#663=CIRCLE('',#969,0.002);
#664=CIRCLE('',#971,0.002);
#665=CIRCLE('',#973,0.002);
#666=CIRCLE('',#978,0.002);
#667=CIRCLE('',#979,0.002);
#668=CIRCLE('',#980,0.002);
#669=CIRCLE('',#981,0.002);
#670=CIRCLE('',#995,0.0025);
#671=CIRCLE('',#998,0.0025);
#672=EDGE_LOOP('',(#180));
#673=EDGE_LOOP('',(#181));
#674=EDGE_LOOP('',(#182));
#675=EDGE_LOOP('',(#183));
#676=EDGE_LOOP('',(#184,#185,#186,#187,#188,#189,#190,#191,#192,#193,#194,
#195));
#677=EDGE_LOOP('',(#196));
#678=EDGE_LOOP('',(#197));
#679=EDGE_LOOP('',(#198,#199,#200,#201,#202,#203,#204,#205));
#680=EDGE_LOOP('',(#206,#207,#208,#209));
#681=EDGE_LOOP('',(#210,#211,#212,#213,#214));
#682=EDGE_LOOP('',(#215,#216,#217,#218,#219));
#683=EDGE_LOOP('',(#220,#221,#222,#223));
#684=EDGE_LOOP('',(#224,#225,#226,#227,#228));
#685=EDGE_LOOP('',(#229,#230,#231,#232,#233));
#686=EDGE_LOOP('',(#234));
#687=EDGE_LOOP('',(#235));
#688=EDGE_LOOP('',(#236));
#689=EDGE_LOOP('',(#237));
#690=EDGE_LOOP('',(#238));
#691=EDGE_LOOP('',(#239));
#692=EDGE_LOOP('',(#240));
#693=EDGE_LOOP('',(#241));
#694=EDGE_LOOP('',(#242));
#695=EDGE_LOOP('',(#243));
#696=EDGE_LOOP('',(#244,#245,#246,#247));
#697=EDGE_LOOP('',(#248));
#698=EDGE_LOOP('',(#249));
#699=EDGE_LOOP('',(#250));
#700=EDGE_LOOP('',(#251));
#701=EDGE_LOOP('',(#252,#253,#254,#255));
#702=EDGE_LOOP('',(#256));
#703=EDGE_LOOP('',(#257,#258));
#704=EDGE_LOOP('',(#259));
#705=EDGE_LOOP('',(#260,#261));
#706=EDGE_LOOP('',(#262,#263,#264,#265,#266,#267));
#707=EDGE_LOOP('',(#268,#269,#270,#271,#272,#273));
#708=EDGE_LOOP('',(#274,#275,#276,#277,#278,#279));
#709=EDGE_LOOP('',(#280,#281,#282,#283,#284,#285));
#710=EDGE_LOOP('',(#286,#287,#288,#289));
#711=EDGE_LOOP('',(#290,#291,#292,#293));
#712=EDGE_LOOP('',(#294,#295,#296,#297));
#713=EDGE_LOOP('',(#298,#299,#300,#301));
#714=EDGE_LOOP('',(#302,#303,#304,#305));
#715=EDGE_LOOP('',(#306,#307,#308,#309));
#716=EDGE_LOOP('',(#310,#311,#312,#313));
#717=EDGE_LOOP('',(#314,#315,#316,#317));
#718=EDGE_LOOP('',(#318,#319,#320,#321));
#719=EDGE_LOOP('',(#322,#323,#324,#325));
#720=EDGE_LOOP('',(#326,#327,#328,#329,#330,#331,#332,#333));
#721=EDGE_LOOP('',(#334));
#722=EDGE_LOOP('',(#335));
#723=EDGE_LOOP('',(#336,#337,#338,#339,#340,#341,#342,#343,#344,#345,#346,
#347));
#724=EDGE_LOOP('',(#348,#349,#350,#351));
#725=EDGE_LOOP('',(#352,#353,#354,#355));
#726=EDGE_LOOP('',(#356,#357,#358,#359));
#727=EDGE_LOOP('',(#360,#361,#362,#363));
#728=EDGE_LOOP('',(#364,#365,#366,#367,#368,#369,#370,#371,#372,#373,#374,
#375));
#729=EDGE_LOOP('',(#376,#377,#378,#379));
#730=EDGE_LOOP('',(#380,#381,#382,#383));
#731=EDGE_LOOP('',(#384,#385,#386,#387));
#732=EDGE_LOOP('',(#388,#389,#390,#391));
#733=EDGE_LOOP('',(#392,#393,#394,#395));
#734=EDGE_LOOP('',(#396,#397,#398,#399,#400,#401,#402,#403,#404,#405,#406,
#407));
#735=EDGE_LOOP('',(#408,#409,#410,#411));
#736=EDGE_LOOP('',(#412));
#737=EDGE_LOOP('',(#413));
#738=EDGE_LOOP('',(#414));
#739=EDGE_LOOP('',(#415));
#740=EDGE_LOOP('',(#416));
#741=EDGE_LOOP('',(#417));
#742=EDGE_LOOP('',(#418));
#743=EDGE_LOOP('',(#419));
#744=FACE_BOUND('',#672,.T.);
#745=FACE_BOUND('',#673,.T.);
#746=FACE_BOUND('',#674,.T.);
#747=FACE_BOUND('',#675,.T.);
#748=FACE_BOUND('',#676,.T.);
#749=FACE_BOUND('',#677,.T.);
#750=FACE_BOUND('',#678,.T.);
#751=FACE_BOUND('',#679,.T.);
#752=FACE_BOUND('',#680,.T.);
#753=FACE_BOUND('',#681,.T.);
#754=FACE_BOUND('',#682,.T.);
#755=FACE_BOUND('',#683,.T.);
#756=FACE_BOUND('',#684,.T.);
#757=FACE_BOUND('',#685,.T.);
#758=FACE_BOUND('',#686,.T.);
#759=FACE_BOUND('',#687,.T.);
#760=FACE_BOUND('',#688,.T.);
#761=FACE_BOUND('',#689,.T.);
#762=FACE_BOUND('',#690,.T.);
#763=FACE_BOUND('',#691,.T.);
#764=FACE_BOUND('',#692,.T.);
#765=FACE_BOUND('',#693,.T.);
#766=FACE_BOUND('',#694,.T.);
#767=FACE_BOUND('',#695,.T.);
#768=FACE_BOUND('',#696,.T.);
#769=FACE_BOUND('',#697,.T.);
#770=FACE_BOUND('',#698,.T.);
#771=FACE_BOUND('',#699,.T.);
#772=FACE_BOUND('',#700,.T.);
#773=FACE_BOUND('',#701,.T.);
#774=FACE_BOUND('',#702,.T.);
#775=FACE_BOUND('',#703,.T.);
#776=FACE_BOUND('',#704,.T.);
#777=FACE_BOUND('',#705,.T.);
#778=FACE_BOUND('',#706,.T.);
#779=FACE_BOUND('',#707,.T.);
#780=FACE_BOUND('',#708,.T.);
#781=FACE_BOUND('',#709,.T.);
#782=FACE_BOUND('',#710,.T.);
#783=FACE_BOUND('',#711,.T.);
#784=FACE_BOUND('',#712,.T.);
#785=FACE_BOUND('',#713,.T.);
#786=FACE_BOUND('',#714,.T.);
#787=FACE_BOUND('',#715,.T.);
#788=FACE_BOUND('',#716,.T.);
#789=FACE_BOUND('',#717,.T.);
#790=FACE_BOUND('',#718,.T.);
#791=FACE_BOUND('',#719,.T.);
#792=FACE_BOUND('',#720,.T.);
#793=FACE_BOUND('',#721,.T.);
#794=FACE_BOUND('',#722,.T.);
#795=FACE_BOUND('',#723,.T.);
#796=FACE_BOUND('',#724,.T.);
#797=FACE_BOUND('',#725,.T.);
#798=FACE_BOUND('',#726,.T.);
#799=FACE_BOUND('',#727,.T.);
#800=FACE_BOUND('',#728,.T.);
#801=FACE_BOUND('',#729,.T.);
#802=FACE_BOUND('',#730,.T.);
#803=FACE_BOUND('',#731,.T.);
#804=FACE_BOUND('',#732,.T.);
#805=FACE_BOUND('',#733,.T.);
#806=FACE_BOUND('',#734,.T.);
#807=FACE_BOUND('',#735,.T.);
#808=FACE_BOUND('',#736,.T.);
#809=FACE_BOUND('',#737,.T.);
#810=FACE_BOUND('',#738,.T.);
#811=FACE_BOUND('',#739,.T.);
#812=FACE_BOUND('',#740,.T.);
#813=FACE_BOUND('',#741,.T.);
#814=FACE_BOUND('',#742,.T.);
#815=FACE_BOUND('',#743,.T.);
#816=PLANE('',#903);
#817=PLANE('',#914);
#818=PLANE('',#923);
#819=PLANE('',#924);
#820=PLANE('',#927);
#821=PLANE('',#928);
#822=PLANE('',#937);
#823=PLANE('',#939);
#824=PLANE('',#951);
#825=PLANE('',#952);
#826=PLANE('',#953);
#827=PLANE('',#956);
#828=PLANE('',#959);
#829=PLANE('',#962);
#830=PLANE('',#967);
#831=PLANE('',#974);
#832=PLANE('',#976);
#833=PLANE('',#977);
#834=PLANE('',#983);
#835=PLANE('',#986);
#836=PLANE('',#988);
#837=PLANE('',#990);
#838=PLANE('',#992);
#839=PLANE('',#994);
#840=PLANE('',#997);
#841=ADVANCED_FACE('',(#744,#745,#746,#747,#748),#816,.F.);
#842=ADVANCED_FACE('',(#749,#750,#751),#817,.T.);
#843=ADVANCED_FACE('',(#752),#12,.T.);
#844=ADVANCED_FACE('',(#753),#818,.T.);
#845=ADVANCED_FACE('',(#754),#819,.T.);
#846=ADVANCED_FACE('',(#755),#13,.T.);
#847=ADVANCED_FACE('',(#756),#820,.T.);
#848=ADVANCED_FACE('',(#757),#821,.T.);
#849=ADVANCED_FACE('',(#758,#759),#14,.F.);
#850=ADVANCED_FACE('',(#760,#761),#15,.F.);
#851=ADVANCED_FACE('',(#762,#763),#16,.F.);
#852=ADVANCED_FACE('',(#764,#765),#17,.F.);
#853=ADVANCED_FACE('',(#766),#822,.T.);
#854=ADVANCED_FACE('',(#767),#823,.T.);
#855=ADVANCED_FACE('',(#768),#18,.F.);
#856=ADVANCED_FACE('',(#769,#770),#19,.F.);
#857=ADVANCED_FACE('',(#771,#772),#20,.F.);
#858=ADVANCED_FACE('',(#773),#21,.F.);
#859=ADVANCED_FACE('',(#774,#775),#824,.T.);
#860=ADVANCED_FACE('',(#776,#777),#825,.T.);
#861=ADVANCED_FACE('',(#778),#826,.F.);
#862=ADVANCED_FACE('',(#779),#827,.F.);
#863=ADVANCED_FACE('',(#780),#828,.F.);
#864=ADVANCED_FACE('',(#781),#829,.F.);
#865=ADVANCED_FACE('',(#782),#22,.T.);
#866=ADVANCED_FACE('',(#783,#784),#830,.T.);
#867=ADVANCED_FACE('',(#785),#23,.T.);
#868=ADVANCED_FACE('',(#786),#24,.T.);
#869=ADVANCED_FACE('',(#787),#25,.F.);
#870=ADVANCED_FACE('',(#788),#831,.T.);
#871=ADVANCED_FACE('',(#789),#26,.F.);
#872=ADVANCED_FACE('',(#790,#791),#832,.T.);
#873=ADVANCED_FACE('',(#792,#793,#794,#795),#833,.T.);
#874=ADVANCED_FACE('',(#796),#27,.T.);
#875=ADVANCED_FACE('',(#797),#834,.T.);
#876=ADVANCED_FACE('',(#798),#28,.F.);
#877=ADVANCED_FACE('',(#799),#29,.F.);
#878=ADVANCED_FACE('',(#800),#835,.T.);
#879=ADVANCED_FACE('',(#801),#30,.F.);
#880=ADVANCED_FACE('',(#802),#836,.T.);
#881=ADVANCED_FACE('',(#803),#31,.F.);
#882=ADVANCED_FACE('',(#804),#837,.T.);
#883=ADVANCED_FACE('',(#805),#32,.F.);
#884=ADVANCED_FACE('',(#806),#838,.T.);
#885=ADVANCED_FACE('',(#807),#33,.F.);
#886=ADVANCED_FACE('',(#808,#809),#839,.F.);
#887=ADVANCED_FACE('',(#810,#811),#34,.T.);
#888=ADVANCED_FACE('',(#812,#813),#840,.F.);
#889=ADVANCED_FACE('',(#814,#815),#35,.T.);
#890=CLOSED_SHELL('',(#841,#842,#843,#844,#845,#846,#847,#848,#849,#850,
#851,#852,#853,#854,#855,#856,#857,#858,#859,#860,#861,#862,#863,#864,#865,
#866,#867,#868,#869,#870,#871,#872,#873,#874,#875,#876,#877,#878,#879,#880,
#881,#882,#883,#884,#885,#886,#887,#888,#889));
#891=STYLED_ITEM('',(#892),#899);
#892=PRESENTATION_STYLE_ASSIGNMENT((#893));
#893=SURFACE_STYLE_USAGE(.BOTH.,#894);
#894=SURFACE_SIDE_STYLE('',(#895));
#895=SURFACE_STYLE_FILL_AREA(#896);
#896=FILL_AREA_STYLE('',(#897));
#897=FILL_AREA_STYLE_COLOUR('',#898);
#898=COLOUR_RGB('',0.627450980392157,0.627450980392157,0.627450980392157);
#899=MANIFOLD_SOLID_BREP('Servo PCB Case',#890);
#900=SHAPE_DEFINITION_REPRESENTATION(#1528,#901);
#901=SHAPE_REPRESENTATION('Servo PCB Case',(#902),#1523);
#902=AXIS2_PLACEMENT_3D('',#1268,#1000,#1001);
#903=AXIS2_PLACEMENT_3D('',#1269,#1002,#1003);
#904=AXIS2_PLACEMENT_3D('',#1270,#1004,#1005);
#905=AXIS2_PLACEMENT_3D('',#1272,#1006,#1007);
#906=AXIS2_PLACEMENT_3D('',#1274,#1008,#1009);
#907=AXIS2_PLACEMENT_3D('',#1276,#1010,#1011);
#908=AXIS2_PLACEMENT_3D('',#1278,#1012,#1013);
#909=AXIS2_PLACEMENT_3D('',#1283,#1015,#1016);
#910=AXIS2_PLACEMENT_3D('',#1287,#1018,#1019);
#911=AXIS2_PLACEMENT_3D('',#1291,#1021,#1022);
#912=AXIS2_PLACEMENT_3D('',#1295,#1024,#1025);
#913=AXIS2_PLACEMENT_3D('',#1299,#1027,#1028);
#914=AXIS2_PLACEMENT_3D('',#1302,#1030,#1031);
#915=AXIS2_PLACEMENT_3D('',#1303,#1032,#1033);
#916=AXIS2_PLACEMENT_3D('',#1305,#1034,#1035);
#917=AXIS2_PLACEMENT_3D('',#1307,#1036,#1037);
#918=AXIS2_PLACEMENT_3D('',#1312,#1039,#1040);
#919=AXIS2_PLACEMENT_3D('',#1316,#1042,#1043);
#920=AXIS2_PLACEMENT_3D('',#1320,#1045,#1046);
#921=AXIS2_PLACEMENT_3D('',#1323,#1048,#1049);
#922=AXIS2_PLACEMENT_3D('',#1328,#1052,#1053);
#923=AXIS2_PLACEMENT_3D('',#1329,#1054,#1055);
#924=AXIS2_PLACEMENT_3D('',#1335,#1059,#1060);
#925=AXIS2_PLACEMENT_3D('',#1343,#1065,#1066);
#926=AXIS2_PLACEMENT_3D('',#1346,#1068,#1069);
#927=AXIS2_PLACEMENT_3D('',#1347,#1070,#1071);
#928=AXIS2_PLACEMENT_3D('',#1353,#1075,#1076);
#929=AXIS2_PLACEMENT_3D('',#1359,#1080,#1081);
#930=AXIS2_PLACEMENT_3D('',#1360,#1082,#1083);
#931=AXIS2_PLACEMENT_3D('',#1362,#1084,#1085);
#932=AXIS2_PLACEMENT_3D('',#1363,#1086,#1087);
#933=AXIS2_PLACEMENT_3D('',#1365,#1088,#1089);
#934=AXIS2_PLACEMENT_3D('',#1366,#1090,#1091);
#935=AXIS2_PLACEMENT_3D('',#1368,#1092,#1093);
#936=AXIS2_PLACEMENT_3D('',#1369,#1094,#1095);
#937=AXIS2_PLACEMENT_3D('',#1371,#1096,#1097);
#938=AXIS2_PLACEMENT_3D('',#1372,#1098,#1099);
#939=AXIS2_PLACEMENT_3D('',#1374,#1100,#1101);
#940=AXIS2_PLACEMENT_3D('',#1375,#1102,#1103);
#941=AXIS2_PLACEMENT_3D('',#1377,#1104,#1105);
#942=AXIS2_PLACEMENT_3D('',#1378,#1106,#1107);
#943=AXIS2_PLACEMENT_3D('',#1379,#1108,#1109);
#944=AXIS2_PLACEMENT_3D('',#1380,#1110,#1111);
#945=AXIS2_PLACEMENT_3D('',#1381,#1112,#1113);
#946=AXIS2_PLACEMENT_3D('',#1383,#1114,#1115);
#947=AXIS2_PLACEMENT_3D('',#1384,#1116,#1117);
#948=AXIS2_PLACEMENT_3D('',#1386,#1118,#1119);
#949=AXIS2_PLACEMENT_3D('',#1387,#1120,#1121);
#950=AXIS2_PLACEMENT_3D('',#1388,#1122,#1123);
#951=AXIS2_PLACEMENT_3D('',#1389,#1124,#1125);
#952=AXIS2_PLACEMENT_3D('',#1390,#1126,#1127);
#953=AXIS2_PLACEMENT_3D('',#1391,#1128,#1129);
#954=AXIS2_PLACEMENT_3D('',#1399,#1133,#1134);
#955=AXIS2_PLACEMENT_3D('',#1403,#1136,#1137);
#956=AXIS2_PLACEMENT_3D('',#1404,#1138,#1139);
#957=AXIS2_PLACEMENT_3D('',#1412,#1143,#1144);
#958=AXIS2_PLACEMENT_3D('',#1416,#1146,#1147);
#959=AXIS2_PLACEMENT_3D('',#1417,#1148,#1149);
#960=AXIS2_PLACEMENT_3D('',#1425,#1153,#1154);
#961=AXIS2_PLACEMENT_3D('',#1429,#1156,#1157);
#962=AXIS2_PLACEMENT_3D('',#1430,#1158,#1159);
#963=AXIS2_PLACEMENT_3D('',#1438,#1163,#1164);
#964=AXIS2_PLACEMENT_3D('',#1442,#1166,#1167);
#965=AXIS2_PLACEMENT_3D('',#1443,#1168,#1169);
#966=AXIS2_PLACEMENT_3D('',#1444,#1170,#1171);
#967=AXIS2_PLACEMENT_3D('',#1447,#1173,#1174);
#968=AXIS2_PLACEMENT_3D('',#1453,#1179,#1180);
#969=AXIS2_PLACEMENT_3D('',#1454,#1181,#1182);
#970=AXIS2_PLACEMENT_3D('',#1455,#1183,#1184);
#971=AXIS2_PLACEMENT_3D('',#1456,#1185,#1186);
#972=AXIS2_PLACEMENT_3D('',#1459,#1188,#1189);
#973=AXIS2_PLACEMENT_3D('',#1462,#1191,#1192);
#974=AXIS2_PLACEMENT_3D('',#1465,#1194,#1195);
#975=AXIS2_PLACEMENT_3D('',#1468,#1198,#1199);
#976=AXIS2_PLACEMENT_3D('',#1470,#1201,#1202);
#977=AXIS2_PLACEMENT_3D('',#1476,#1207,#1208);
#978=AXIS2_PLACEMENT_3D('',#1480,#1210,#1211);
#979=AXIS2_PLACEMENT_3D('',#1485,#1214,#1215);
#980=AXIS2_PLACEMENT_3D('',#1489,#1217,#1218);
#981=AXIS2_PLACEMENT_3D('',#1490,#1219,#1220);
#982=AXIS2_PLACEMENT_3D('',#1491,#1221,#1222);
#983=AXIS2_PLACEMENT_3D('',#1492,#1223,#1224);
#984=AXIS2_PLACEMENT_3D('',#1494,#1226,#1227);
#985=AXIS2_PLACEMENT_3D('',#1496,#1229,#1230);
#986=AXIS2_PLACEMENT_3D('',#1498,#1232,#1233);
#987=AXIS2_PLACEMENT_3D('',#1501,#1236,#1237);
#988=AXIS2_PLACEMENT_3D('',#1503,#1239,#1240);
#989=AXIS2_PLACEMENT_3D('',#1506,#1243,#1244);
#990=AXIS2_PLACEMENT_3D('',#1507,#1245,#1246);
#991=AXIS2_PLACEMENT_3D('',#1509,#1248,#1249);
#992=AXIS2_PLACEMENT_3D('',#1511,#1251,#1252);
#993=AXIS2_PLACEMENT_3D('',#1513,#1254,#1255);
#994=AXIS2_PLACEMENT_3D('',#1514,#1256,#1257);
#995=AXIS2_PLACEMENT_3D('',#1515,#1258,#1259);
#996=AXIS2_PLACEMENT_3D('',#1517,#1260,#1261);
#997=AXIS2_PLACEMENT_3D('',#1518,#1262,#1263);
#998=AXIS2_PLACEMENT_3D('',#1519,#1264,#1265);
#999=AXIS2_PLACEMENT_3D('',#1521,#1266,#1267);
#1000=DIRECTION('',(0.,0.,1.));
#1001=DIRECTION('',(1.,0.,0.));
#1002=DIRECTION('',(0.,0.,1.));
#1003=DIRECTION('',(1.,0.,0.));
#1004=DIRECTION('',(0.,0.,1.));
#1005=DIRECTION('',(1.,0.,0.));
#1006=DIRECTION('',(0.,0.,1.));
#1007=DIRECTION('',(1.,0.,0.));
#1008=DIRECTION('',(0.,0.,1.));
#1009=DIRECTION('',(1.,0.,0.));
#1010=DIRECTION('',(0.,0.,1.));
#1011=DIRECTION('',(1.,0.,0.));
#1012=DIRECTION('',(0.,0.,1.));
#1013=DIRECTION('',(-0.707106781186549,0.707106781186546,0.));
#1014=DIRECTION('',(1.,0.,0.));
#1015=DIRECTION('',(0.,0.,-1.));
#1016=DIRECTION('',(1.,0.,0.));
#1017=DIRECTION('',(1.,0.,0.));
#1018=DIRECTION('',(0.,0.,1.));
#1019=DIRECTION('',(0.707106781186548,0.707106781186547,0.));
#1020=DIRECTION('',(0.,-1.,0.));
#1021=DIRECTION('',(0.,0.,1.));
#1022=DIRECTION('',(0.707106781186545,-0.70710678118655,0.));
#1023=DIRECTION('',(-1.,0.,0.));
#1024=DIRECTION('',(0.,0.,-1.));
#1025=DIRECTION('',(1.,0.,0.));
#1026=DIRECTION('',(-1.,0.,0.));
#1027=DIRECTION('',(0.,0.,1.));
#1028=DIRECTION('',(-0.707106781186548,-0.707106781186548,0.));
#1029=DIRECTION('',(0.,1.,0.));
#1030=DIRECTION('',(0.,0.,1.));
#1031=DIRECTION('',(1.,0.,0.));
#1032=DIRECTION('',(0.,0.,-1.));
#1033=DIRECTION('',(1.,0.,0.));
#1034=DIRECTION('',(0.,0.,-1.));
#1035=DIRECTION('',(1.,0.,0.));
#1036=DIRECTION('',(0.,0.,1.));
#1037=DIRECTION('',(0.707106781186548,0.707106781186548,0.));
#1038=DIRECTION('',(-1.,0.,0.));
#1039=DIRECTION('',(0.,0.,1.));
#1040=DIRECTION('',(-0.707106781186548,0.707106781186547,0.));
#1041=DIRECTION('',(0.,-1.,0.));
#1042=DIRECTION('',(0.,0.,1.));
#1043=DIRECTION('',(-0.707106781186549,-0.707106781186546,0.));
#1044=DIRECTION('',(1.,0.,0.));
#1045=DIRECTION('',(0.,0.,1.));
#1046=DIRECTION('',(0.707106781186546,-0.707106781186549,0.));
#1047=DIRECTION('',(0.,1.,0.));
#1048=DIRECTION('',(0.,0.,-1.));
#1049=DIRECTION('',(1.,0.,0.));
#1050=DIRECTION('',(0.,0.,-1.));
#1051=DIRECTION('',(0.,0.,1.));
#1052=DIRECTION('',(0.,0.,1.));
#1053=DIRECTION('',(1.,0.,0.));
#1054=DIRECTION('',(0.,1.,0.));
#1055=DIRECTION('',(1.,0.,0.));
#1056=DIRECTION('',(0.,0.,1.));
#1057=DIRECTION('',(0.,0.,1.));
#1058=DIRECTION('',(-1.,0.,0.));
#1059=DIRECTION('',(0.,-1.,0.));
#1060=DIRECTION('',(-1.,0.,0.));
#1061=DIRECTION('',(0.,0.,-1.));
#1062=DIRECTION('',(1.,0.,0.));
#1063=DIRECTION('',(0.,0.,1.));
#1064=DIRECTION('',(0.,0.,1.));
#1065=DIRECTION('',(0.,0.,-1.));
#1066=DIRECTION('',(1.,0.,0.));
#1067=DIRECTION('',(0.,0.,1.));
#1068=DIRECTION('',(0.,0.,1.));
#1069=DIRECTION('',(1.,0.,0.));
#1070=DIRECTION('',(0.,-1.,0.));
#1071=DIRECTION('',(-1.,0.,0.));
#1072=DIRECTION('',(0.,0.,1.));
#1073=DIRECTION('',(0.,0.,1.));
#1074=DIRECTION('',(1.,0.,0.));
#1075=DIRECTION('',(0.,1.,0.));
#1076=DIRECTION('',(1.,0.,0.));
#1077=DIRECTION('',(0.,0.,-1.));
#1078=DIRECTION('',(-1.,0.,0.));
#1079=DIRECTION('',(0.,0.,1.));
#1080=DIRECTION('',(0.,0.,-1.));
#1081=DIRECTION('',(1.,0.,0.));
#1082=DIRECTION('',(0.,0.,-1.));
#1083=DIRECTION('',(1.,0.,0.));
#1084=DIRECTION('',(0.,0.,-1.));
#1085=DIRECTION('',(1.,0.,0.));
#1086=DIRECTION('',(0.,0.,-1.));
#1087=DIRECTION('',(-1.,0.,0.));
#1088=DIRECTION('',(0.,0.,-1.));
#1089=DIRECTION('',(1.,0.,0.));
#1090=DIRECTION('',(0.,0.,-1.));
#1091=DIRECTION('',(1.,0.,0.));
#1092=DIRECTION('',(0.,0.,-1.));
#1093=DIRECTION('',(1.,0.,0.));
#1094=DIRECTION('',(0.,0.,-1.));
#1095=DIRECTION('',(-1.,0.,0.));
#1096=DIRECTION('',(0.,0.,1.));
#1097=DIRECTION('',(1.,0.,0.));
#1098=DIRECTION('',(0.,0.,1.));
#1099=DIRECTION('',(1.,0.,0.));
#1100=DIRECTION('',(0.,0.,1.));
#1101=DIRECTION('',(1.,0.,0.));
#1102=DIRECTION('',(0.,0.,1.));
#1103=DIRECTION('',(1.,0.,0.));
#1104=DIRECTION('',(0.,0.,-1.));
#1105=DIRECTION('',(1.,0.,0.));
#1106=DIRECTION('',(0.,0.,-1.));
#1107=DIRECTION('',(1.,0.,0.));
#1108=DIRECTION('',(0.,0.,-1.));
#1109=DIRECTION('',(1.,0.,0.));
#1110=DIRECTION('',(0.,0.,1.));
#1111=DIRECTION('',(1.,0.,0.));
#1112=DIRECTION('',(0.,0.,-1.));
#1113=DIRECTION('',(1.,0.,0.));
#1114=DIRECTION('',(0.,0.,1.));
#1115=DIRECTION('',(1.,0.,0.));
#1116=DIRECTION('',(0.,0.,-1.));
#1117=DIRECTION('',(1.,0.,0.));
#1118=DIRECTION('',(0.,0.,-1.));
#1119=DIRECTION('',(1.,0.,0.));
#1120=DIRECTION('',(0.,0.,-1.));
#1121=DIRECTION('',(1.,0.,0.));
#1122=DIRECTION('',(0.,0.,-1.));
#1123=DIRECTION('',(1.,0.,0.));
#1124=DIRECTION('',(0.,0.,1.));
#1125=DIRECTION('',(1.,0.,0.));
#1126=DIRECTION('',(0.,0.,1.));
#1127=DIRECTION('',(1.,0.,0.));
#1128=DIRECTION('',(0.,0.,1.));
#1129=DIRECTION('',(0.,1.,0.));
#1130=DIRECTION('',(-1.,0.,0.));
#1131=DIRECTION('',(0.,1.,0.));
#1132=DIRECTION('',(-1.,0.,0.));
#1133=DIRECTION('',(0.,0.,-1.));
#1134=DIRECTION('',(0.707106781186546,-0.707106781186549,0.));
#1135=DIRECTION('',(0.,-1.,0.));
#1136=DIRECTION('',(0.,0.,-1.));
#1137=DIRECTION('',(0.707106781186548,0.707106781186548,0.));
#1138=DIRECTION('',(0.,0.,1.));
#1139=DIRECTION('',(0.,1.,0.));
#1140=DIRECTION('',(-1.,0.,0.));
#1141=DIRECTION('',(0.,-1.,0.));
#1142=DIRECTION('',(-1.,0.,0.));
#1143=DIRECTION('',(0.,0.,-1.));
#1144=DIRECTION('',(-0.707106781186548,0.707106781186547,0.));
#1145=DIRECTION('',(0.,1.,0.));
#1146=DIRECTION('',(0.,0.,-1.));
#1147=DIRECTION('',(-0.707106781186549,-0.707106781186546,0.));
#1148=DIRECTION('',(0.,0.,-1.));
#1149=DIRECTION('',(0.,-1.,0.));
#1150=DIRECTION('',(-1.,0.,0.));
#1151=DIRECTION('',(0.,-1.,0.));
#1152=DIRECTION('',(1.,0.,0.));
#1153=DIRECTION('',(0.,0.,1.));
#1154=DIRECTION('',(0.707106781186548,0.707106781186548,0.));
#1155=DIRECTION('',(0.,1.,0.));
#1156=DIRECTION('',(0.,0.,1.));
#1157=DIRECTION('',(0.707106781186546,-0.707106781186549,0.));
#1158=DIRECTION('',(0.,0.,-1.));
#1159=DIRECTION('',(0.,-1.,0.));
#1160=DIRECTION('',(1.,0.,0.));
#1161=DIRECTION('',(0.,1.,0.));
#1162=DIRECTION('',(-1.,0.,0.));
#1163=DIRECTION('',(0.,0.,1.));
#1164=DIRECTION('',(-0.707106781186549,-0.707106781186546,0.));
#1165=DIRECTION('',(0.,-1.,0.));
#1166=DIRECTION('',(0.,0.,1.));
#1167=DIRECTION('',(-0.707106781186548,0.707106781186547,0.));
#1168=DIRECTION('',(0.,0.,1.));
#1169=DIRECTION('',(0.707106781186548,0.707106781186547,0.));
#1170=DIRECTION('',(0.,0.,-1.));
#1171=DIRECTION('',(0.707106781186548,0.707106781186547,0.));
#1172=DIRECTION('',(0.,0.,-1.));
#1173=DIRECTION('',(1.,0.,0.));
#1174=DIRECTION('',(0.,-1.,0.));
#1175=DIRECTION('',(0.,0.,-1.));
#1176=DIRECTION('',(0.,0.,1.));
#1177=DIRECTION('',(0.,0.,1.));
#1178=DIRECTION('',(0.,1.,0.));
#1179=DIRECTION('',(0.,0.,1.));
#1180=DIRECTION('',(0.707106781186545,-0.70710678118655,0.));
#1181=DIRECTION('',(0.,0.,-1.));
#1182=DIRECTION('',(0.707106781186545,-0.70710678118655,0.));
#1183=DIRECTION('',(0.,0.,1.));
#1184=DIRECTION('',(-0.707106781186548,-0.707106781186548,0.));
#1185=DIRECTION('',(0.,0.,-1.));
#1186=DIRECTION('',(-0.707106781186548,-0.707106781186548,0.));
#1187=DIRECTION('',(0.,0.,-1.));
#1188=DIRECTION('',(0.,0.,1.));
#1189=DIRECTION('',(-0.707106781186548,0.707106781186547,0.));
#1190=DIRECTION('',(0.,0.,1.));
#1191=DIRECTION('',(0.,0.,1.));
#1192=DIRECTION('',(-0.707106781186548,0.707106781186547,0.));
#1193=DIRECTION('',(0.,0.,-1.));
#1194=DIRECTION('',(1.,0.,0.));
#1195=DIRECTION('',(0.,1.,0.));
#1196=DIRECTION('',(0.,0.,1.));
#1197=DIRECTION('',(0.,0.,-1.));
#1198=DIRECTION('',(0.,0.,1.));
#1199=DIRECTION('',(-0.707106781186548,0.707106781186547,0.));
#1200=DIRECTION('',(0.,0.,1.));
#1201=DIRECTION('',(-1.,0.,0.));
#1202=DIRECTION('',(0.,1.,0.));
#1203=DIRECTION('',(0.,0.,1.));
#1204=DIRECTION('',(0.,0.,-1.));
#1205=DIRECTION('',(0.,0.,1.));
#1206=DIRECTION('',(0.,-1.,0.));
#1207=DIRECTION('',(0.,0.,1.));
#1208=DIRECTION('',(1.,0.,0.));
#1209=DIRECTION('',(-1.,0.,0.));
#1210=DIRECTION('',(0.,0.,1.));
#1211=DIRECTION('',(-0.707106781186549,-0.707106781186546,0.));
#1212=DIRECTION('',(0.,1.,0.));
#1213=DIRECTION('',(1.,0.,0.));
#1214=DIRECTION('',(0.,0.,1.));
#1215=DIRECTION('',(0.707106781186548,0.707106781186548,0.));
#1216=DIRECTION('',(0.,-1.,0.));
#1217=DIRECTION('',(0.,0.,1.));
#1218=DIRECTION('',(0.707106781186546,-0.707106781186549,0.));
#1219=DIRECTION('',(0.,0.,-1.));
#1220=DIRECTION('',(-0.707106781186549,0.707106781186546,0.));
#1221=DIRECTION('',(0.,0.,1.));
#1222=DIRECTION('',(-0.707106781186549,0.707106781186546,0.));
#1223=DIRECTION('',(1.,0.,0.));
#1224=DIRECTION('',(0.,1.,0.));
#1225=DIRECTION('',(0.,0.,1.));
#1226=DIRECTION('',(0.,0.,1.));
#1227=DIRECTION('',(-0.707106781186549,-0.707106781186546,0.));
#1228=DIRECTION('',(0.,0.,-1.));
#1229=DIRECTION('',(0.,0.,1.));
#1230=DIRECTION('',(-0.707106781186549,-0.707106781186546,0.));
#1231=DIRECTION('',(0.,0.,-1.));
#1232=DIRECTION('',(0.,1.,0.));
#1233=DIRECTION('',(-1.,0.,0.));
#1234=DIRECTION('',(0.,0.,1.));
#1235=DIRECTION('',(0.,0.,1.));
#1236=DIRECTION('',(0.,0.,1.));
#1237=DIRECTION('',(0.707106781186546,-0.707106781186549,0.));
#1238=DIRECTION('',(0.,0.,-1.));
#1239=DIRECTION('',(-1.,0.,0.));
#1240=DIRECTION('',(0.,-1.,0.));
#1241=DIRECTION('',(0.,0.,1.));
#1242=DIRECTION('',(0.,0.,-1.));
#1243=DIRECTION('',(0.,0.,1.));
#1244=DIRECTION('',(0.707106781186546,-0.707106781186549,0.));
#1245=DIRECTION('',(-1.,0.,0.));
#1246=DIRECTION('',(0.,-1.,0.));
#1247=DIRECTION('',(0.,0.,1.));
#1248=DIRECTION('',(0.,0.,1.));
#1249=DIRECTION('',(0.707106781186548,0.707106781186548,0.));
#1250=DIRECTION('',(0.,0.,-1.));
#1251=DIRECTION('',(0.,-1.,0.));
#1252=DIRECTION('',(1.,0.,0.));
#1253=DIRECTION('',(0.,0.,-1.));
#1254=DIRECTION('',(0.,0.,1.));
#1255=DIRECTION('',(0.707106781186548,0.707106781186548,0.));
#1256=DIRECTION('',(0.,0.,-1.));
#1257=DIRECTION('',(0.,-1.,0.));
#1258=DIRECTION('',(0.,0.,1.));
#1259=DIRECTION('',(-1.,0.,0.));
#1260=DIRECTION('',(0.,0.,1.));
#1261=DIRECTION('',(1.,0.,0.));
#1262=DIRECTION('',(0.,0.,-1.));
#1263=DIRECTION('',(0.,-1.,0.));
#1264=DIRECTION('',(0.,0.,1.));
#1265=DIRECTION('',(-1.,0.,0.));
#1266=DIRECTION('',(0.,0.,1.));
#1267=DIRECTION('',(1.,0.,0.));
#1268=CARTESIAN_POINT('',(0.,0.,0.));
#1269=CARTESIAN_POINT('',(-0.0170000002905726,-0.0300000004023314,-0.005));
#1270=CARTESIAN_POINT('',(-0.030399999320507,-0.0189999995753169,-0.005));
#1271=CARTESIAN_POINT('',(-0.028899999320507,-0.0189999995753169,-0.005));
#1272=CARTESIAN_POINT('',(-0.0170000002905726,-0.0100000001490116,-0.005));
#1273=CARTESIAN_POINT('',(-0.0147500002905726,-0.0100000001490116,-0.005));
#1274=CARTESIAN_POINT('',(-9.99999977648258E-5,-0.037899999152869,-0.005));
#1275=CARTESIAN_POINT('',(0.00140000000223517,-0.037899999152869,-0.005));
#1276=CARTESIAN_POINT('',(-0.0170000002905726,-0.0500000006556511,-0.005));
#1277=CARTESIAN_POINT('',(-0.0147500002905726,-0.0500000006556511,-0.005));
#1278=CARTESIAN_POINT('',(-0.0430000006705523,-0.0120000001490116,-0.005));
#1279=CARTESIAN_POINT('',(-0.0430000006705523,-0.0100000001490116,-0.005));
#1280=CARTESIAN_POINT('',(-0.0450000006705523,-0.0120000001490116,-0.005));
#1281=CARTESIAN_POINT('',(-0.0450000006705523,-0.0100000001490116,-0.005));
#1282=CARTESIAN_POINT('',(-0.0210000002905726,-0.0100000001490116,-0.005));
#1283=CARTESIAN_POINT('',(-0.0170000002905726,-0.0100000001490116,-0.005));
#1284=CARTESIAN_POINT('',(-0.0130000002905726,-0.0100000001490116,-0.005));
#1285=CARTESIAN_POINT('',(-0.0130000002905726,-0.0100000001490116,-0.005));
#1286=CARTESIAN_POINT('',(0.00900000008940697,-0.0100000001490116,-0.005));
#1287=CARTESIAN_POINT('',(0.00900000008940697,-0.0120000001490116,-0.005));
#1288=CARTESIAN_POINT('',(0.011000000089407,-0.0120000001490116,-0.005));
#1289=CARTESIAN_POINT('',(0.011000000089407,-0.0100000001490116,-0.005));
#1290=CARTESIAN_POINT('',(0.011000000089407,-0.0480000006556511,-0.005));
#1291=CARTESIAN_POINT('',(0.00900000008940697,-0.0480000006556511,-0.005));
#1292=CARTESIAN_POINT('',(0.00900000008940697,-0.0500000006556511,-0.005));
#1293=CARTESIAN_POINT('',(0.011000000089407,-0.0500000006556511,-0.005));
#1294=CARTESIAN_POINT('',(-0.0130000002905726,-0.0500000006556511,-0.005));
#1295=CARTESIAN_POINT('',(-0.0170000002905726,-0.0500000006556511,-0.005));
#1296=CARTESIAN_POINT('',(-0.0210000002905726,-0.0500000006556511,-0.005));
#1297=CARTESIAN_POINT('',(-0.0210000002905726,-0.0500000006556511,-0.005));
#1298=CARTESIAN_POINT('',(-0.0430000006705523,-0.0500000006556511,-0.005));
#1299=CARTESIAN_POINT('',(-0.0430000006705523,-0.0480000006556511,-0.005));
#1300=CARTESIAN_POINT('',(-0.0450000006705523,-0.0480000006556511,-0.005));
#1301=CARTESIAN_POINT('',(-0.0450000006705523,-0.0500000006556511,-0.005));
#1302=CARTESIAN_POINT('',(-0.0170000002905726,-0.0300000004023314,0.));
#1303=CARTESIAN_POINT('',(-0.030399999320507,-0.0189999995753169,0.));
#1304=CARTESIAN_POINT('',(-0.027899999320507,-0.0189999995753169,0.));
#1305=CARTESIAN_POINT('',(-9.99999977648258E-5,-0.037899999152869,0.));
#1306=CARTESIAN_POINT('',(0.00240000000223517,-0.037899999152869,0.));
#1307=CARTESIAN_POINT('',(0.00400000008940697,-0.0170000002235174,0.));
#1308=CARTESIAN_POINT('',(0.00600000008940697,-0.0170000002235174,0.));
#1309=CARTESIAN_POINT('',(0.00400000008940697,-0.0150000002235174,0.));
#1310=CARTESIAN_POINT('',(-0.0285000004433095,-0.0150000002235174,0.));
#1311=CARTESIAN_POINT('',(-0.0380000005960464,-0.0150000002235174,0.));
#1312=CARTESIAN_POINT('',(-0.0380000005960464,-0.0170000002235174,0.));
#1313=CARTESIAN_POINT('',(-0.0400000005960464,-0.0170000002235174,0.));
#1314=CARTESIAN_POINT('',(-0.0400000005960464,-0.0370000005289912,0.));
#1315=CARTESIAN_POINT('',(-0.0400000005960464,-0.0420000006556511,0.));
#1316=CARTESIAN_POINT('',(-0.0380000005960464,-0.0420000006556511,0.));
#1317=CARTESIAN_POINT('',(-0.0380000005960464,-0.0440000006556511,0.));
#1318=CARTESIAN_POINT('',(-0.00550000010058284,-0.0440000006556511,0.));
#1319=CARTESIAN_POINT('',(0.00400000008940697,-0.0440000006556511,0.));
#1320=CARTESIAN_POINT('',(0.00400000008940697,-0.0420000006556511,0.));
#1321=CARTESIAN_POINT('',(0.00600000008940697,-0.0420000006556511,0.));
#1322=CARTESIAN_POINT('',(0.00600000008940697,-0.0225000003129244,0.));
#1323=CARTESIAN_POINT('',(-0.0170000002905726,-0.0100000001490116,0.));
#1324=CARTESIAN_POINT('',(-0.0130000002905726,-0.0100000001490116,0.));
#1325=CARTESIAN_POINT('',(-0.0130000002905726,-0.0100000001490116,0.005));
#1326=CARTESIAN_POINT('',(-0.0210000002905726,-0.0100000001490116,0.));
#1327=CARTESIAN_POINT('',(-0.0210000002905726,-0.0100000001490116,0.005));
#1328=CARTESIAN_POINT('',(-0.0170000002905726,-0.0100000001490116,0.005));
#1329=CARTESIAN_POINT('',(-0.0450000006705523,-0.0100000001490116,0.));
#1330=CARTESIAN_POINT('',(0.00900000008940697,-0.0100000001490116,0.));
#1331=CARTESIAN_POINT('',(0.00900000008940697,-0.0100000001490116,0.012));
#1332=CARTESIAN_POINT('',(-0.0130000002905726,-0.0100000001490116,0.));
#1333=CARTESIAN_POINT('',(-0.0130000002905726,-0.0100000001490116,0.012));
#1334=CARTESIAN_POINT('',(-0.0130000002905726,-0.0100000001490116,0.012));
#1335=CARTESIAN_POINT('',(-0.0210000002905726,-0.0500000006556511,0.));
#1336=CARTESIAN_POINT('',(0.00900000008940697,-0.0500000006556511,0.));
#1337=CARTESIAN_POINT('',(0.00900000008940697,-0.0500000006556511,0.012));
#1338=CARTESIAN_POINT('',(0.011000000089407,-0.0500000006556511,0.012));
#1339=CARTESIAN_POINT('',(-0.0130000002905726,-0.0500000006556511,0.012));
#1340=CARTESIAN_POINT('',(-0.0130000002905726,-0.0500000006556511,0.));
#1341=CARTESIAN_POINT('',(-0.0130000002905726,-0.0500000006556511,0.005));
#1342=CARTESIAN_POINT('',(-0.0130000002905726,-0.0500000006556511,0.));
#1343=CARTESIAN_POINT('',(-0.0170000002905726,-0.0500000006556511,0.));
#1344=CARTESIAN_POINT('',(-0.0210000002905726,-0.0500000006556511,0.));
#1345=CARTESIAN_POINT('',(-0.0210000002905726,-0.0500000006556511,0.005));
#1346=CARTESIAN_POINT('',(-0.0170000002905726,-0.0500000006556511,0.005));
#1347=CARTESIAN_POINT('',(-0.0210000002905726,-0.0500000006556511,0.));
#1348=CARTESIAN_POINT('',(-0.0430000006705523,-0.0500000006556511,0.));
#1349=CARTESIAN_POINT('',(-0.0430000006705523,-0.0500000006556511,0.012));
#1350=CARTESIAN_POINT('',(-0.0210000002905726,-0.0500000006556511,0.));
#1351=CARTESIAN_POINT('',(-0.0210000002905726,-0.0500000006556511,0.012));
#1352=CARTESIAN_POINT('',(-0.0210000002905726,-0.0500000006556511,0.012));
#1353=CARTESIAN_POINT('',(-0.0450000006705523,-0.0100000001490116,0.));
#1354=CARTESIAN_POINT('',(-0.0430000006705523,-0.0100000001490116,0.));
#1355=CARTESIAN_POINT('',(-0.0430000006705523,-0.0100000001490116,0.012));
#1356=CARTESIAN_POINT('',(-0.0450000006705523,-0.0100000001490116,0.012));
#1357=CARTESIAN_POINT('',(-0.0210000002905726,-0.0100000001490116,0.012));
#1358=CARTESIAN_POINT('',(-0.0210000002905726,-0.0100000001490116,0.));
#1359=CARTESIAN_POINT('',(-0.0170000002905726,-0.0500000006556511,0.));
#1360=CARTESIAN_POINT('',(-0.0170000002905726,-0.0500000006556511,0.005));
#1361=CARTESIAN_POINT('',(-0.0147500002905726,-0.0500000006556511,0.005));
#1362=CARTESIAN_POINT('',(-9.99999977648258E-5,-0.037899999152869,0.));
#1363=CARTESIAN_POINT('',(-9.99999977648258E-5,-0.037899999152869,0.00300000004470348));
#1364=CARTESIAN_POINT('',(-0.00159999999776483,-0.037899999152869,0.00300000004470348));
#1365=CARTESIAN_POINT('',(-0.0170000002905726,-0.0100000001490116,0.));
#1366=CARTESIAN_POINT('',(-0.0170000002905726,-0.0100000001490116,0.005));
#1367=CARTESIAN_POINT('',(-0.0147500002905726,-0.0100000001490116,0.005));
#1368=CARTESIAN_POINT('',(-0.030399999320507,-0.0189999995753169,0.));
#1369=CARTESIAN_POINT('',(-0.030399999320507,-0.0189999995753169,0.00300000004470348));
#1370=CARTESIAN_POINT('',(-0.031899999320507,-0.0189999995753169,0.00300000004470348));
#1371=CARTESIAN_POINT('',(-0.0170000002905726,-0.0300000004023314,0.));
#1372=CARTESIAN_POINT('',(-0.0420000006705523,-0.0130000001490116,0.));
#1373=CARTESIAN_POINT('',(-0.0406500006705523,-0.0130000001490116,0.));
#1374=CARTESIAN_POINT('',(-0.0170000002905726,-0.0300000004023314,0.));
#1375=CARTESIAN_POINT('',(0.00800000008940697,-0.0460000006556511,0.));
#1376=CARTESIAN_POINT('',(0.00935000008940697,-0.0460000006556511,0.));
#1377=CARTESIAN_POINT('',(-0.0170000002905726,-0.0500000006556511,0.));
#1378=CARTESIAN_POINT('',(-0.0170000002905726,-0.0500000006556511,0.005));
#1379=CARTESIAN_POINT('',(-0.0170000002905726,-0.0500000006556511,0.012));
#1380=CARTESIAN_POINT('',(0.00800000008940697,-0.0460000006556511,0.));
#1381=CARTESIAN_POINT('',(0.00800000008940697,-0.0460000006556511,0.012));
#1382=CARTESIAN_POINT('',(0.00935000008940697,-0.0460000006556511,0.012));
#1383=CARTESIAN_POINT('',(-0.0420000006705523,-0.0130000001490116,0.));
#1384=CARTESIAN_POINT('',(-0.0420000006705523,-0.0130000001490116,0.012));
#1385=CARTESIAN_POINT('',(-0.0406500006705523,-0.0130000001490116,0.012));
#1386=CARTESIAN_POINT('',(-0.0170000002905726,-0.0100000001490116,0.));
#1387=CARTESIAN_POINT('',(-0.0170000002905726,-0.0100000001490116,0.005));
#1388=CARTESIAN_POINT('',(-0.0170000002905726,-0.0100000001490116,0.012));
#1389=CARTESIAN_POINT('',(-0.0170000002905726,-0.0500000006556511,0.005));
#1390=CARTESIAN_POINT('',(-0.0170000002905726,-0.0500000006556511,0.005));
#1391=CARTESIAN_POINT('',(0.00600000008940697,-0.0440000006556511,0.0100000001490116));
#1392=CARTESIAN_POINT('',(0.00600000008940697,-0.0150000002235174,0.0100000001490116));
#1393=CARTESIAN_POINT('',(0.011000000089407,-0.0150000002235174,0.0100000001490116));
#1394=CARTESIAN_POINT('',(0.00400000008940697,-0.0150000002235174,0.0100000001490116));
#1395=CARTESIAN_POINT('',(0.011000000089407,-0.0270000004023314,0.0100000001490116));
#1396=CARTESIAN_POINT('',(0.011000000089407,-0.0440000006556511,0.0100000001490116));
#1397=CARTESIAN_POINT('',(0.00600000008940697,-0.0440000006556511,0.0100000001490116));
#1398=CARTESIAN_POINT('',(0.00400000008940697,-0.0440000006556511,0.0100000001490116));
#1399=CARTESIAN_POINT('',(0.00400000008940697,-0.0420000006556511,0.0100000001490116));
#1400=CARTESIAN_POINT('',(0.00600000008940697,-0.0420000006556511,0.0100000001490116));
#1401=CARTESIAN_POINT('',(0.00600000008940697,-0.0295000004395843,0.0100000001490116));
#1402=CARTESIAN_POINT('',(0.00600000008940697,-0.0170000002235174,0.0100000001490116));
#1403=CARTESIAN_POINT('',(0.00400000008940697,-0.0170000002235174,0.0100000001490116));
#1404=CARTESIAN_POINT('',(0.00600000008940697,-0.0440000006556511,0.0100000001490116));
#1405=CARTESIAN_POINT('',(0.00600000008940697,-0.0440000006556511,0.0100000001490116));
#1406=CARTESIAN_POINT('',(-0.0380000005960464,-0.0440000006556511,0.0100000001490116));
#1407=CARTESIAN_POINT('',(-0.0450000006705523,-0.0440000006556511,0.0100000001490116));
#1408=CARTESIAN_POINT('',(-0.0450000006705523,-0.0470000006556511,0.0100000001490116));
#1409=CARTESIAN_POINT('',(-0.0450000006705523,-0.0150000002235174,0.0100000001490116));
#1410=CARTESIAN_POINT('',(0.00600000008940697,-0.0150000002235174,0.0100000001490116));
#1411=CARTESIAN_POINT('',(-0.0380000005960464,-0.0150000002235174,0.0100000001490116));
#1412=CARTESIAN_POINT('',(-0.0380000005960464,-0.0170000002235174,0.0100000001490116));
#1413=CARTESIAN_POINT('',(-0.0400000005960464,-0.0170000002235174,0.0100000001490116));
#1414=CARTESIAN_POINT('',(-0.0400000005960464,-0.0440000006556511,0.0100000001490116));
#1415=CARTESIAN_POINT('',(-0.0400000005960464,-0.0420000006556511,0.0100000001490116));
#1416=CARTESIAN_POINT('',(-0.0380000005960464,-0.0420000006556511,0.0100000001490116));
#1417=CARTESIAN_POINT('',(0.00600000008940697,-0.0150000002235174,0.00300000004470348));
#1418=CARTESIAN_POINT('',(0.00600000008940697,-0.0440000006556511,0.00300000004470348));
#1419=CARTESIAN_POINT('',(0.011000000089407,-0.0440000006556511,0.00300000004470348));
#1420=CARTESIAN_POINT('',(0.00400000008940697,-0.0440000006556511,0.00300000004470348));
#1421=CARTESIAN_POINT('',(0.011000000089407,-0.0125000001862645,0.00300000004470348));
#1422=CARTESIAN_POINT('',(0.011000000089407,-0.0150000002235174,0.00300000004470348));
#1423=CARTESIAN_POINT('',(0.00600000008940697,-0.0150000002235174,0.00300000004470348));
#1424=CARTESIAN_POINT('',(0.00400000008940697,-0.0150000002235174,0.00300000004470348));
#1425=CARTESIAN_POINT('',(0.00400000008940697,-0.0170000002235174,0.00300000004470348));
#1426=CARTESIAN_POINT('',(0.00600000008940697,-0.0170000002235174,0.00300000004470348));
#1427=CARTESIAN_POINT('',(0.00600000008940697,-0.0150000002235174,0.00300000004470348));
#1428=CARTESIAN_POINT('',(0.00600000008940697,-0.0420000006556511,0.00300000004470348));
#1429=CARTESIAN_POINT('',(0.00400000008940697,-0.0420000006556511,0.00300000004470348));
#1430=CARTESIAN_POINT('',(0.00600000008940697,-0.0150000002235174,0.00300000004470348));
#1431=CARTESIAN_POINT('',(0.00600000008940697,-0.0150000002235174,0.00300000004470348));
#1432=CARTESIAN_POINT('',(-0.0450000006705523,-0.0150000002235174,0.00300000004470348));
#1433=CARTESIAN_POINT('',(-0.0380000005960464,-0.0150000002235174,0.00300000004470348));
#1434=CARTESIAN_POINT('',(-0.0450000006705523,-0.0325000004395843,0.00300000004470348));
#1435=CARTESIAN_POINT('',(-0.0450000006705523,-0.0440000006556511,0.00300000004470348));
#1436=CARTESIAN_POINT('',(0.00600000008940697,-0.0440000006556511,0.00300000004470348));
#1437=CARTESIAN_POINT('',(-0.0380000005960464,-0.0440000006556511,0.00300000004470348));
#1438=CARTESIAN_POINT('',(-0.0380000005960464,-0.0420000006556511,0.00300000004470348));
#1439=CARTESIAN_POINT('',(-0.0400000005960464,-0.0420000006556511,0.00300000004470348));
#1440=CARTESIAN_POINT('',(-0.0400000005960464,-0.0295000004395843,0.00300000004470348));
#1441=CARTESIAN_POINT('',(-0.0400000005960464,-0.0170000002235174,0.00300000004470348));
#1442=CARTESIAN_POINT('',(-0.0380000005960464,-0.0170000002235174,0.00300000004470348));
#1443=CARTESIAN_POINT('',(0.00900000008940697,-0.0120000001490116,0.));
#1444=CARTESIAN_POINT('',(0.00900000008940697,-0.0120000001490116,0.012));
#1445=CARTESIAN_POINT('',(0.011000000089407,-0.0120000001490116,0.012));
#1446=CARTESIAN_POINT('',(0.011000000089407,-0.0120000001490116,0.));
#1447=CARTESIAN_POINT('',(0.011000000089407,-0.0100000001490116,0.));
#1448=CARTESIAN_POINT('',(0.011000000089407,-0.0150000002235174,0.00500000007450581));
#1449=CARTESIAN_POINT('',(0.011000000089407,-0.0440000006556511,0.00150000002235174));
#1450=CARTESIAN_POINT('',(0.011000000089407,-0.0480000006556511,0.));
#1451=CARTESIAN_POINT('',(0.011000000089407,-0.0480000006556511,0.012));
#1452=CARTESIAN_POINT('',(0.011000000089407,-0.0100000001490116,0.012));
#1453=CARTESIAN_POINT('',(0.00900000008940697,-0.0480000006556511,0.));
#1454=CARTESIAN_POINT('',(0.00900000008940697,-0.0480000006556511,0.012));
#1455=CARTESIAN_POINT('',(-0.0430000006705523,-0.0480000006556511,0.));
#1456=CARTESIAN_POINT('',(-0.0430000006705523,-0.0480000006556511,0.012));
#1457=CARTESIAN_POINT('',(-0.0450000006705523,-0.0480000006556511,0.012));
#1458=CARTESIAN_POINT('',(-0.0450000006705523,-0.0480000006556511,0.));
#1459=CARTESIAN_POINT('',(-0.0380000005960464,-0.0170000002235174,0.));
#1460=CARTESIAN_POINT('',(-0.0380000005960464,-0.0150000002235174,0.));
#1461=CARTESIAN_POINT('',(-0.0380000005960464,-0.0150000002235174,0.012));
#1462=CARTESIAN_POINT('',(-0.0380000005960464,-0.0170000002235174,0.012));
#1463=CARTESIAN_POINT('',(-0.0400000005960464,-0.0170000002235174,0.012));
#1464=CARTESIAN_POINT('',(-0.0400000005960464,-0.0170000002235174,0.));
#1465=CARTESIAN_POINT('',(-0.0400000005960464,-0.0440000006556511,0.));
#1466=CARTESIAN_POINT('',(-0.0400000005960464,-0.0420000006556511,0.));
#1467=CARTESIAN_POINT('',(-0.0400000005960464,-0.0170000002235174,0.));
#1468=CARTESIAN_POINT('',(-0.0380000005960464,-0.0170000002235174,0.));
#1469=CARTESIAN_POINT('',(-0.0380000005960464,-0.0150000002235174,0.));
#1470=CARTESIAN_POINT('',(-0.0450000006705523,-0.0500000006556511,0.));
#1471=CARTESIAN_POINT('',(-0.0450000006705523,-0.0150000002235174,0.00500000007450581));
#1472=CARTESIAN_POINT('',(-0.0450000006705523,-0.0440000006556511,0.00150000002235174));
#1473=CARTESIAN_POINT('',(-0.0450000006705523,-0.0120000001490116,0.));
#1474=CARTESIAN_POINT('',(-0.0450000006705523,-0.0120000001490116,0.012));
#1475=CARTESIAN_POINT('',(-0.0450000006705523,-0.0500000006556511,0.012));
#1476=CARTESIAN_POINT('',(-0.0170000002905726,-0.0300000004023314,0.012));
#1477=CARTESIAN_POINT('',(0.00600000008940697,-0.0440000006556511,0.012));
#1478=CARTESIAN_POINT('',(0.00400000008940697,-0.0440000006556511,0.012));
#1479=CARTESIAN_POINT('',(-0.0380000005960464,-0.0440000006556511,0.012));
#1480=CARTESIAN_POINT('',(-0.0380000005960464,-0.0420000006556511,0.012));
#1481=CARTESIAN_POINT('',(-0.0400000005960464,-0.0420000006556511,0.012));
#1482=CARTESIAN_POINT('',(-0.0400000005960464,-0.0440000006556511,0.012));
#1483=CARTESIAN_POINT('',(-0.0400000005960464,-0.0150000002235174,0.012));
#1484=CARTESIAN_POINT('',(0.00400000008940697,-0.0150000002235174,0.012));
#1485=CARTESIAN_POINT('',(0.00400000008940697,-0.0170000002235174,0.012));
#1486=CARTESIAN_POINT('',(0.00600000008940697,-0.0170000002235174,0.012));
#1487=CARTESIAN_POINT('',(0.00600000008940697,-0.0150000002235174,0.012));
#1488=CARTESIAN_POINT('',(0.00600000008940697,-0.0420000006556511,0.012));
#1489=CARTESIAN_POINT('',(0.00400000008940697,-0.0420000006556511,0.012));
#1490=CARTESIAN_POINT('',(-0.0430000006705523,-0.0120000001490116,0.012));
#1491=CARTESIAN_POINT('',(-0.0430000006705523,-0.0120000001490116,0.));
#1492=CARTESIAN_POINT('',(-0.0400000005960464,-0.0440000006556511,0.));
#1493=CARTESIAN_POINT('',(-0.0400000005960464,-0.0420000006556511,0.));
#1494=CARTESIAN_POINT('',(-0.0380000005960464,-0.0420000006556511,0.));
#1495=CARTESIAN_POINT('',(-0.0380000005960464,-0.0440000006556511,0.));
#1496=CARTESIAN_POINT('',(-0.0380000005960464,-0.0420000006556511,0.));
#1497=CARTESIAN_POINT('',(-0.0380000005960464,-0.0440000006556511,0.));
#1498=CARTESIAN_POINT('',(0.00600000008940697,-0.0440000006556511,0.));
#1499=CARTESIAN_POINT('',(0.00400000008940697,-0.0440000006556511,0.));
#1500=CARTESIAN_POINT('',(0.00400000008940697,-0.0440000006556511,0.));
#1501=CARTESIAN_POINT('',(0.00400000008940697,-0.0420000006556511,0.));
#1502=CARTESIAN_POINT('',(0.00600000008940697,-0.0420000006556511,0.));
#1503=CARTESIAN_POINT('',(0.00600000008940697,-0.0150000002235174,0.));
#1504=CARTESIAN_POINT('',(0.00600000008940697,-0.0170000002235174,0.));
#1505=CARTESIAN_POINT('',(0.00600000008940697,-0.0420000006556511,0.));
#1506=CARTESIAN_POINT('',(0.00400000008940697,-0.0420000006556511,0.));
#1507=CARTESIAN_POINT('',(0.00600000008940697,-0.0150000002235174,0.));
#1508=CARTESIAN_POINT('',(0.00600000008940697,-0.0170000002235174,0.));
#1509=CARTESIAN_POINT('',(0.00400000008940697,-0.0170000002235174,0.));
#1510=CARTESIAN_POINT('',(0.00400000008940697,-0.0150000002235174,0.));
#1511=CARTESIAN_POINT('',(-0.0400000005960464,-0.0150000002235174,0.));
#1512=CARTESIAN_POINT('',(0.00400000008940697,-0.0150000002235174,0.));
#1513=CARTESIAN_POINT('',(0.00400000008940697,-0.0170000002235174,0.));
#1514=CARTESIAN_POINT('',(0.00600000008940697,-0.0150000002235174,0.00300000004470348));
#1515=CARTESIAN_POINT('',(-0.030399999320507,-0.0189999995753169,0.00300000004470348));
#1516=CARTESIAN_POINT('',(-0.032899999320507,-0.0189999995753169,0.00300000004470348));
#1517=CARTESIAN_POINT('',(-0.030399999320507,-0.0189999995753169,0.));
#1518=CARTESIAN_POINT('',(0.00600000008940697,-0.0150000002235174,0.00300000004470348));
#1519=CARTESIAN_POINT('',(-9.99999977648258E-5,-0.037899999152869,0.00300000004470348));
#1520=CARTESIAN_POINT('',(-0.00259999999776483,-0.037899999152869,0.00300000004470348));
#1521=CARTESIAN_POINT('',(-9.99999977648258E-5,-0.037899999152869,0.));
#1522=MECHANICAL_DESIGN_GEOMETRIC_PRESENTATION_REPRESENTATION('',(#891),
#1523);
#1523=(
GEOMETRIC_REPRESENTATION_CONTEXT(3)
GLOBAL_UNCERTAINTY_ASSIGNED_CONTEXT((#1524))
GLOBAL_UNIT_ASSIGNED_CONTEXT((#1527,#1526,#1525))
REPRESENTATION_CONTEXT('Servo PCB Case','TOP_LEVEL_ASSEMBLY_PART')
);
#1524=UNCERTAINTY_MEASURE_WITH_UNIT(LENGTH_MEASURE(1.E-6),#1527,
'DISTANCE_ACCURACY_VALUE','Maximum Tolerance applied to model');
#1525=(
NAMED_UNIT(*)
SI_UNIT($,.STERADIAN.)
SOLID_ANGLE_UNIT()
);
#1526=(
NAMED_UNIT(*)
PLANE_ANGLE_UNIT()
SI_UNIT($,.RADIAN.)
);
#1527=(
LENGTH_UNIT()
NAMED_UNIT(*)
SI_UNIT($,.METRE.)
);
#1528=PRODUCT_DEFINITION_SHAPE('','',#1529);
#1529=PRODUCT_DEFINITION('','',#1531,#1530);
#1530=PRODUCT_DEFINITION_CONTEXT('',#1537,'design');
#1531=PRODUCT_DEFINITION_FORMATION_WITH_SPECIFIED_SOURCE('','',#1533,
 .NOT_KNOWN.);
#1532=PRODUCT_RELATED_PRODUCT_CATEGORY('','',(#1533));
#1533=PRODUCT('Servo PCB Case','Servo PCB Case','Servo PCB Case',(#1535));
#1534=PRODUCT_CATEGORY('','');
#1535=PRODUCT_CONTEXT('',#1537,'mechanical');
#1536=APPLICATION_PROTOCOL_DEFINITION('international standard',
'ap242_managed_model_based_3d_engineering',2020,#1537);
#1537=APPLICATION_CONTEXT('managed model based 3d engineering');
ENDSEC;
END-ISO-10303-21;
